<svg width="547" height="313" viewBox="0 0 547 313" fill="none" xmlns="http://www.w3.org/2000/svg">
<g clip-path="url(#clip0_22_132)">
<path d="M0 150C0 67.1573 67.1573 0 150 0H477C515.66 0 547 31.3401 547 70V243C547 281.66 515.66 313 477 313H150C67.1573 313 0 245.843 0 163V150Z" fill="#7238EC"/>
<path d="M367.84 47C371.689 40.3333 381.311 40.3333 385.16 47L391.655 58.25C395.504 64.9167 390.693 73.25 382.995 73.25H370.005C362.307 73.25 357.496 64.9167 361.345 58.25L367.84 47Z" fill="#FFDB1C"/>
<rect x="30" y="98" width="90" height="90" rx="45" fill="#F3EEFF" fill-opacity="0.3"/>
<rect x="92" width="28" height="32" rx="14" fill="#03EDB5"/>
<rect x="10" y="116" width="28" height="32" rx="14" fill="#FFB800"/>
<path d="M470.132 296.642C467.081 285.506 477.229 275.242 488.399 278.168L505.155 282.556C516.325 285.482 520.139 299.403 512.02 307.614L499.842 319.93C491.723 328.141 477.76 324.484 474.709 313.347L470.132 296.642Z" stroke="#E4153A" stroke-width="10"/>
<path d="M-162.277 67.32C-163.477 67.32 -164.464 66.9733 -165.237 66.28C-165.984 65.56 -166.357 64.68 -166.357 63.64C-166.357 62.5733 -165.984 61.68 -165.237 60.96C-164.464 60.24 -163.477 59.88 -162.277 59.88C-161.104 59.88 -160.144 60.24 -159.397 60.96C-158.624 61.68 -158.237 62.5733 -158.237 63.64C-158.237 64.68 -158.624 65.56 -159.397 66.28C-160.144 66.9733 -161.104 67.32 -162.277 67.32ZM-138.988 67.32C-140.188 67.32 -141.175 66.9733 -141.948 66.28C-142.695 65.56 -143.068 64.68 -143.068 63.64C-143.068 62.5733 -142.695 61.68 -141.948 60.96C-141.175 60.24 -140.188 59.88 -138.988 59.88C-137.815 59.88 -136.855 60.24 -136.108 60.96C-135.335 61.68 -134.948 62.5733 -134.948 63.64C-134.948 64.68 -135.335 65.56 -136.108 66.28C-136.855 66.9733 -137.815 67.32 -138.988 67.32ZM-115.699 67.32C-116.899 67.32 -117.886 66.9733 -118.659 66.28C-119.406 65.56 -119.779 64.68 -119.779 63.64C-119.779 62.5733 -119.406 61.68 -118.659 60.96C-117.886 60.24 -116.899 59.88 -115.699 59.88C-114.526 59.88 -113.566 60.24 -112.819 60.96C-112.046 61.68 -111.659 62.5733 -111.659 63.64C-111.659 64.68 -112.046 65.56 -112.819 66.28C-113.566 66.9733 -114.526 67.32 -115.699 67.32ZM-92.4098 67.32C-93.6098 67.32 -94.5965 66.9733 -95.3698 66.28C-96.1165 65.56 -96.4898 64.68 -96.4898 63.64C-96.4898 62.5733 -96.1165 61.68 -95.3698 60.96C-94.5965 60.24 -93.6098 59.88 -92.4098 59.88C-91.2365 59.88 -90.2765 60.24 -89.5298 60.96C-88.7565 61.68 -88.3698 62.5733 -88.3698 63.64C-88.3698 64.68 -88.7565 65.56 -89.5298 66.28C-90.2765 66.9733 -91.2365 67.32 -92.4098 67.32ZM-69.1208 67.32C-70.3208 67.32 -71.3074 66.9733 -72.0808 66.28C-72.8274 65.56 -73.2008 64.68 -73.2008 63.64C-73.2008 62.5733 -72.8274 61.68 -72.0808 60.96C-71.3074 60.24 -70.3208 59.88 -69.1208 59.88C-67.9474 59.88 -66.9874 60.24 -66.2408 60.96C-65.4674 61.68 -65.0808 62.5733 -65.0808 63.64C-65.0808 64.68 -65.4674 65.56 -66.2408 66.28C-66.9874 66.9733 -67.9474 67.32 -69.1208 67.32ZM-45.8317 67.32C-47.0317 67.32 -48.0184 66.9733 -48.7917 66.28C-49.5384 65.56 -49.9117 64.68 -49.9117 63.64C-49.9117 62.5733 -49.5384 61.68 -48.7917 60.96C-48.0184 60.24 -47.0317 59.88 -45.8317 59.88C-44.6584 59.88 -43.6984 60.24 -42.9517 60.96C-42.1784 61.68 -41.7917 62.5733 -41.7917 63.64C-41.7917 64.68 -42.1784 65.56 -42.9517 66.28C-43.6984 66.9733 -44.6584 67.32 -45.8317 67.32ZM-22.5427 67.32C-23.7427 67.32 -24.7293 66.9733 -25.5027 66.28C-26.2493 65.56 -26.6227 64.68 -26.6227 63.64C-26.6227 62.5733 -26.2493 61.68 -25.5027 60.96C-24.7293 60.24 -23.7427 59.88 -22.5427 59.88C-21.3693 59.88 -20.4093 60.24 -19.6627 60.96C-18.8893 61.68 -18.5027 62.5733 -18.5027 63.64C-18.5027 64.68 -18.8893 65.56 -19.6627 66.28C-20.4093 66.9733 -21.3693 67.32 -22.5427 67.32ZM0.746406 67.32C-0.453594 67.32 -1.44026 66.9733 -2.21359 66.28C-2.96026 65.56 -3.33359 64.68 -3.33359 63.64C-3.33359 62.5733 -2.96026 61.68 -2.21359 60.96C-1.44026 60.24 -0.453594 59.88 0.746406 59.88C1.91974 59.88 2.87974 60.24 3.62641 60.96C4.39974 61.68 4.78641 62.5733 4.78641 63.64C4.78641 64.68 4.39974 65.56 3.62641 66.28C2.87974 66.9733 1.91974 67.32 0.746406 67.32ZM24.0355 67.32C22.8355 67.32 21.8488 66.9733 21.0755 66.28C20.3288 65.56 19.9555 64.68 19.9555 63.64C19.9555 62.5733 20.3288 61.68 21.0755 60.96C21.8488 60.24 22.8355 59.88 24.0355 59.88C25.2088 59.88 26.1688 60.24 26.9155 60.96C27.6888 61.68 28.0755 62.5733 28.0755 63.64C28.0755 64.68 27.6888 65.56 26.9155 66.28C26.1688 66.9733 25.2088 67.32 24.0355 67.32ZM47.3245 67.32C46.1245 67.32 45.1379 66.9733 44.3645 66.28C43.6179 65.56 43.2445 64.68 43.2445 63.64C43.2445 62.5733 43.6179 61.68 44.3645 60.96C45.1379 60.24 46.1245 59.88 47.3245 59.88C48.4979 59.88 49.4579 60.24 50.2045 60.96C50.9779 61.68 51.3645 62.5733 51.3645 63.64C51.3645 64.68 50.9779 65.56 50.2045 66.28C49.4579 66.9733 48.4979 67.32 47.3245 67.32ZM70.6136 67.32C69.4136 67.32 68.4269 66.9733 67.6536 66.28C66.9069 65.56 66.5336 64.68 66.5336 63.64C66.5336 62.5733 66.9069 61.68 67.6536 60.96C68.4269 60.24 69.4136 59.88 70.6136 59.88C71.7869 59.88 72.7469 60.24 73.4936 60.96C74.2669 61.68 74.6536 62.5733 74.6536 63.64C74.6536 64.68 74.2669 65.56 73.4936 66.28C72.7469 66.9733 71.7869 67.32 70.6136 67.32ZM93.9027 67.32C92.7027 67.32 91.716 66.9733 90.9427 66.28C90.196 65.56 89.8227 64.68 89.8227 63.64C89.8227 62.5733 90.196 61.68 90.9427 60.96C91.716 60.24 92.7027 59.88 93.9027 59.88C95.076 59.88 96.036 60.24 96.7827 60.96C97.556 61.68 97.9427 62.5733 97.9427 63.64C97.9427 64.68 97.556 65.56 96.7827 66.28C96.036 66.9733 95.076 67.32 93.9027 67.32ZM117.192 67.32C115.992 67.32 115.005 66.9733 114.232 66.28C113.485 65.56 113.112 64.68 113.112 63.64C113.112 62.5733 113.485 61.68 114.232 60.96C115.005 60.24 115.992 59.88 117.192 59.88C118.365 59.88 119.325 60.24 120.072 60.96C120.845 61.68 121.232 62.5733 121.232 63.64C121.232 64.68 120.845 65.56 120.072 66.28C119.325 66.9733 118.365 67.32 117.192 67.32ZM140.481 67.32C139.281 67.32 138.294 66.9733 137.521 66.28C136.774 65.56 136.401 64.68 136.401 63.64C136.401 62.5733 136.774 61.68 137.521 60.96C138.294 60.24 139.281 59.88 140.481 59.88C141.654 59.88 142.614 60.24 143.361 60.96C144.134 61.68 144.521 62.5733 144.521 63.64C144.521 64.68 144.134 65.56 143.361 66.28C142.614 66.9733 141.654 67.32 140.481 67.32ZM163.77 67.32C162.57 67.32 161.583 66.9733 160.81 66.28C160.063 65.56 159.69 64.68 159.69 63.64C159.69 62.5733 160.063 61.68 160.81 60.96C161.583 60.24 162.57 59.88 163.77 59.88C164.943 59.88 165.903 60.24 166.65 60.96C167.423 61.68 167.81 62.5733 167.81 63.64C167.81 64.68 167.423 65.56 166.65 66.28C165.903 66.9733 164.943 67.32 163.77 67.32ZM187.059 67.32C185.859 67.32 184.872 66.9733 184.099 66.28C183.352 65.56 182.979 64.68 182.979 63.64C182.979 62.5733 183.352 61.68 184.099 60.96C184.872 60.24 185.859 59.88 187.059 59.88C188.232 59.88 189.192 60.24 189.939 60.96C190.712 61.68 191.099 62.5733 191.099 63.64C191.099 64.68 190.712 65.56 189.939 66.28C189.192 66.9733 188.232 67.32 187.059 67.32ZM210.348 67.32C209.148 67.32 208.161 66.9733 207.388 66.28C206.641 65.56 206.268 64.68 206.268 63.64C206.268 62.5733 206.641 61.68 207.388 60.96C208.161 60.24 209.148 59.88 210.348 59.88C211.521 59.88 212.481 60.24 213.228 60.96C214.001 61.68 214.388 62.5733 214.388 63.64C214.388 64.68 214.001 65.56 213.228 66.28C212.481 66.9733 211.521 67.32 210.348 67.32ZM-162.277 98.32C-163.477 98.32 -164.464 97.9733 -165.237 97.28C-165.984 96.56 -166.357 95.68 -166.357 94.64C-166.357 93.5733 -165.984 92.68 -165.237 91.96C-164.464 91.24 -163.477 90.88 -162.277 90.88C-161.104 90.88 -160.144 91.24 -159.397 91.96C-158.624 92.68 -158.237 93.5733 -158.237 94.64C-158.237 95.68 -158.624 96.56 -159.397 97.28C-160.144 97.9733 -161.104 98.32 -162.277 98.32ZM-138.988 98.32C-140.188 98.32 -141.175 97.9733 -141.948 97.28C-142.695 96.56 -143.068 95.68 -143.068 94.64C-143.068 93.5733 -142.695 92.68 -141.948 91.96C-141.175 91.24 -140.188 90.88 -138.988 90.88C-137.815 90.88 -136.855 91.24 -136.108 91.96C-135.335 92.68 -134.948 93.5733 -134.948 94.64C-134.948 95.68 -135.335 96.56 -136.108 97.28C-136.855 97.9733 -137.815 98.32 -138.988 98.32ZM-115.699 98.32C-116.899 98.32 -117.886 97.9733 -118.659 97.28C-119.406 96.56 -119.779 95.68 -119.779 94.64C-119.779 93.5733 -119.406 92.68 -118.659 91.96C-117.886 91.24 -116.899 90.88 -115.699 90.88C-114.526 90.88 -113.566 91.24 -112.819 91.96C-112.046 92.68 -111.659 93.5733 -111.659 94.64C-111.659 95.68 -112.046 96.56 -112.819 97.28C-113.566 97.9733 -114.526 98.32 -115.699 98.32ZM-92.4098 98.32C-93.6098 98.32 -94.5965 97.9733 -95.3698 97.28C-96.1165 96.56 -96.4898 95.68 -96.4898 94.64C-96.4898 93.5733 -96.1165 92.68 -95.3698 91.96C-94.5965 91.24 -93.6098 90.88 -92.4098 90.88C-91.2365 90.88 -90.2765 91.24 -89.5298 91.96C-88.7565 92.68 -88.3698 93.5733 -88.3698 94.64C-88.3698 95.68 -88.7565 96.56 -89.5298 97.28C-90.2765 97.9733 -91.2365 98.32 -92.4098 98.32ZM-69.1208 98.32C-70.3208 98.32 -71.3074 97.9733 -72.0808 97.28C-72.8274 96.56 -73.2008 95.68 -73.2008 94.64C-73.2008 93.5733 -72.8274 92.68 -72.0808 91.96C-71.3074 91.24 -70.3208 90.88 -69.1208 90.88C-67.9474 90.88 -66.9874 91.24 -66.2408 91.96C-65.4674 92.68 -65.0808 93.5733 -65.0808 94.64C-65.0808 95.68 -65.4674 96.56 -66.2408 97.28C-66.9874 97.9733 -67.9474 98.32 -69.1208 98.32ZM-45.8317 98.32C-47.0317 98.32 -48.0184 97.9733 -48.7917 97.28C-49.5384 96.56 -49.9117 95.68 -49.9117 94.64C-49.9117 93.5733 -49.5384 92.68 -48.7917 91.96C-48.0184 91.24 -47.0317 90.88 -45.8317 90.88C-44.6584 90.88 -43.6984 91.24 -42.9517 91.96C-42.1784 92.68 -41.7917 93.5733 -41.7917 94.64C-41.7917 95.68 -42.1784 96.56 -42.9517 97.28C-43.6984 97.9733 -44.6584 98.32 -45.8317 98.32ZM-22.5427 98.32C-23.7427 98.32 -24.7293 97.9733 -25.5027 97.28C-26.2493 96.56 -26.6227 95.68 -26.6227 94.64C-26.6227 93.5733 -26.2493 92.68 -25.5027 91.96C-24.7293 91.24 -23.7427 90.88 -22.5427 90.88C-21.3693 90.88 -20.4093 91.24 -19.6627 91.96C-18.8893 92.68 -18.5027 93.5733 -18.5027 94.64C-18.5027 95.68 -18.8893 96.56 -19.6627 97.28C-20.4093 97.9733 -21.3693 98.32 -22.5427 98.32ZM0.746406 98.32C-0.453594 98.32 -1.44026 97.9733 -2.21359 97.28C-2.96026 96.56 -3.33359 95.68 -3.33359 94.64C-3.33359 93.5733 -2.96026 92.68 -2.21359 91.96C-1.44026 91.24 -0.453594 90.88 0.746406 90.88C1.91974 90.88 2.87974 91.24 3.62641 91.96C4.39974 92.68 4.78641 93.5733 4.78641 94.64C4.78641 95.68 4.39974 96.56 3.62641 97.28C2.87974 97.9733 1.91974 98.32 0.746406 98.32ZM24.0355 98.32C22.8355 98.32 21.8488 97.9733 21.0755 97.28C20.3288 96.56 19.9555 95.68 19.9555 94.64C19.9555 93.5733 20.3288 92.68 21.0755 91.96C21.8488 91.24 22.8355 90.88 24.0355 90.88C25.2088 90.88 26.1688 91.24 26.9155 91.96C27.6888 92.68 28.0755 93.5733 28.0755 94.64C28.0755 95.68 27.6888 96.56 26.9155 97.28C26.1688 97.9733 25.2088 98.32 24.0355 98.32ZM47.3245 98.32C46.1245 98.32 45.1379 97.9733 44.3645 97.28C43.6179 96.56 43.2445 95.68 43.2445 94.64C43.2445 93.5733 43.6179 92.68 44.3645 91.96C45.1379 91.24 46.1245 90.88 47.3245 90.88C48.4979 90.88 49.4579 91.24 50.2045 91.96C50.9779 92.68 51.3645 93.5733 51.3645 94.64C51.3645 95.68 50.9779 96.56 50.2045 97.28C49.4579 97.9733 48.4979 98.32 47.3245 98.32ZM70.6136 98.32C69.4136 98.32 68.4269 97.9733 67.6536 97.28C66.9069 96.56 66.5336 95.68 66.5336 94.64C66.5336 93.5733 66.9069 92.68 67.6536 91.96C68.4269 91.24 69.4136 90.88 70.6136 90.88C71.7869 90.88 72.7469 91.24 73.4936 91.96C74.2669 92.68 74.6536 93.5733 74.6536 94.64C74.6536 95.68 74.2669 96.56 73.4936 97.28C72.7469 97.9733 71.7869 98.32 70.6136 98.32ZM93.9027 98.32C92.7027 98.32 91.716 97.9733 90.9427 97.28C90.196 96.56 89.8227 95.68 89.8227 94.64C89.8227 93.5733 90.196 92.68 90.9427 91.96C91.716 91.24 92.7027 90.88 93.9027 90.88C95.076 90.88 96.036 91.24 96.7827 91.96C97.556 92.68 97.9427 93.5733 97.9427 94.64C97.9427 95.68 97.556 96.56 96.7827 97.28C96.036 97.9733 95.076 98.32 93.9027 98.32ZM117.192 98.32C115.992 98.32 115.005 97.9733 114.232 97.28C113.485 96.56 113.112 95.68 113.112 94.64C113.112 93.5733 113.485 92.68 114.232 91.96C115.005 91.24 115.992 90.88 117.192 90.88C118.365 90.88 119.325 91.24 120.072 91.96C120.845 92.68 121.232 93.5733 121.232 94.64C121.232 95.68 120.845 96.56 120.072 97.28C119.325 97.9733 118.365 98.32 117.192 98.32ZM140.481 98.32C139.281 98.32 138.294 97.9733 137.521 97.28C136.774 96.56 136.401 95.68 136.401 94.64C136.401 93.5733 136.774 92.68 137.521 91.96C138.294 91.24 139.281 90.88 140.481 90.88C141.654 90.88 142.614 91.24 143.361 91.96C144.134 92.68 144.521 93.5733 144.521 94.64C144.521 95.68 144.134 96.56 143.361 97.28C142.614 97.9733 141.654 98.32 140.481 98.32ZM163.77 98.32C162.57 98.32 161.583 97.9733 160.81 97.28C160.063 96.56 159.69 95.68 159.69 94.64C159.69 93.5733 160.063 92.68 160.81 91.96C161.583 91.24 162.57 90.88 163.77 90.88C164.943 90.88 165.903 91.24 166.65 91.96C167.423 92.68 167.81 93.5733 167.81 94.64C167.81 95.68 167.423 96.56 166.65 97.28C165.903 97.9733 164.943 98.32 163.77 98.32ZM187.059 98.32C185.859 98.32 184.872 97.9733 184.099 97.28C183.352 96.56 182.979 95.68 182.979 94.64C182.979 93.5733 183.352 92.68 184.099 91.96C184.872 91.24 185.859 90.88 187.059 90.88C188.232 90.88 189.192 91.24 189.939 91.96C190.712 92.68 191.099 93.5733 191.099 94.64C191.099 95.68 190.712 96.56 189.939 97.28C189.192 97.9733 188.232 98.32 187.059 98.32ZM210.348 98.32C209.148 98.32 208.161 97.9733 207.388 97.28C206.641 96.56 206.268 95.68 206.268 94.64C206.268 93.5733 206.641 92.68 207.388 91.96C208.161 91.24 209.148 90.88 210.348 90.88C211.521 90.88 212.481 91.24 213.228 91.96C214.001 92.68 214.388 93.5733 214.388 94.64C214.388 95.68 214.001 96.56 213.228 97.28C212.481 97.9733 211.521 98.32 210.348 98.32ZM-162.277 129.32C-163.477 129.32 -164.464 128.973 -165.237 128.28C-165.984 127.56 -166.357 126.68 -166.357 125.64C-166.357 124.573 -165.984 123.68 -165.237 122.96C-164.464 122.24 -163.477 121.88 -162.277 121.88C-161.104 121.88 -160.144 122.24 -159.397 122.96C-158.624 123.68 -158.237 124.573 -158.237 125.64C-158.237 126.68 -158.624 127.56 -159.397 128.28C-160.144 128.973 -161.104 129.32 -162.277 129.32ZM-138.988 129.32C-140.188 129.32 -141.175 128.973 -141.948 128.28C-142.695 127.56 -143.068 126.68 -143.068 125.64C-143.068 124.573 -142.695 123.68 -141.948 122.96C-141.175 122.24 -140.188 121.88 -138.988 121.88C-137.815 121.88 -136.855 122.24 -136.108 122.96C-135.335 123.68 -134.948 124.573 -134.948 125.64C-134.948 126.68 -135.335 127.56 -136.108 128.28C-136.855 128.973 -137.815 129.32 -138.988 129.32ZM-115.699 129.32C-116.899 129.32 -117.886 128.973 -118.659 128.28C-119.406 127.56 -119.779 126.68 -119.779 125.64C-119.779 124.573 -119.406 123.68 -118.659 122.96C-117.886 122.24 -116.899 121.88 -115.699 121.88C-114.526 121.88 -113.566 122.24 -112.819 122.96C-112.046 123.68 -111.659 124.573 -111.659 125.64C-111.659 126.68 -112.046 127.56 -112.819 128.28C-113.566 128.973 -114.526 129.32 -115.699 129.32ZM-92.4098 129.32C-93.6098 129.32 -94.5965 128.973 -95.3698 128.28C-96.1165 127.56 -96.4898 126.68 -96.4898 125.64C-96.4898 124.573 -96.1165 123.68 -95.3698 122.96C-94.5965 122.24 -93.6098 121.88 -92.4098 121.88C-91.2365 121.88 -90.2765 122.24 -89.5298 122.96C-88.7565 123.68 -88.3698 124.573 -88.3698 125.64C-88.3698 126.68 -88.7565 127.56 -89.5298 128.28C-90.2765 128.973 -91.2365 129.32 -92.4098 129.32ZM-69.1208 129.32C-70.3208 129.32 -71.3074 128.973 -72.0808 128.28C-72.8274 127.56 -73.2008 126.68 -73.2008 125.64C-73.2008 124.573 -72.8274 123.68 -72.0808 122.96C-71.3074 122.24 -70.3208 121.88 -69.1208 121.88C-67.9474 121.88 -66.9874 122.24 -66.2408 122.96C-65.4674 123.68 -65.0808 124.573 -65.0808 125.64C-65.0808 126.68 -65.4674 127.56 -66.2408 128.28C-66.9874 128.973 -67.9474 129.32 -69.1208 129.32ZM-45.8317 129.32C-47.0317 129.32 -48.0184 128.973 -48.7917 128.28C-49.5384 127.56 -49.9117 126.68 -49.9117 125.64C-49.9117 124.573 -49.5384 123.68 -48.7917 122.96C-48.0184 122.24 -47.0317 121.88 -45.8317 121.88C-44.6584 121.88 -43.6984 122.24 -42.9517 122.96C-42.1784 123.68 -41.7917 124.573 -41.7917 125.64C-41.7917 126.68 -42.1784 127.56 -42.9517 128.28C-43.6984 128.973 -44.6584 129.32 -45.8317 129.32ZM-22.5427 129.32C-23.7427 129.32 -24.7293 128.973 -25.5027 128.28C-26.2493 127.56 -26.6227 126.68 -26.6227 125.64C-26.6227 124.573 -26.2493 123.68 -25.5027 122.96C-24.7293 122.24 -23.7427 121.88 -22.5427 121.88C-21.3693 121.88 -20.4093 122.24 -19.6627 122.96C-18.8893 123.68 -18.5027 124.573 -18.5027 125.64C-18.5027 126.68 -18.8893 127.56 -19.6627 128.28C-20.4093 128.973 -21.3693 129.32 -22.5427 129.32ZM0.746406 129.32C-0.453594 129.32 -1.44026 128.973 -2.21359 128.28C-2.96026 127.56 -3.33359 126.68 -3.33359 125.64C-3.33359 124.573 -2.96026 123.68 -2.21359 122.96C-1.44026 122.24 -0.453594 121.88 0.746406 121.88C1.91974 121.88 2.87974 122.24 3.62641 122.96C4.39974 123.68 4.78641 124.573 4.78641 125.64C4.78641 126.68 4.39974 127.56 3.62641 128.28C2.87974 128.973 1.91974 129.32 0.746406 129.32ZM24.0355 129.32C22.8355 129.32 21.8488 128.973 21.0755 128.28C20.3288 127.56 19.9555 126.68 19.9555 125.64C19.9555 124.573 20.3288 123.68 21.0755 122.96C21.8488 122.24 22.8355 121.88 24.0355 121.88C25.2088 121.88 26.1688 122.24 26.9155 122.96C27.6888 123.68 28.0755 124.573 28.0755 125.64C28.0755 126.68 27.6888 127.56 26.9155 128.28C26.1688 128.973 25.2088 129.32 24.0355 129.32ZM47.3245 129.32C46.1245 129.32 45.1379 128.973 44.3645 128.28C43.6179 127.56 43.2445 126.68 43.2445 125.64C43.2445 124.573 43.6179 123.68 44.3645 122.96C45.1379 122.24 46.1245 121.88 47.3245 121.88C48.4979 121.88 49.4579 122.24 50.2045 122.96C50.9779 123.68 51.3645 124.573 51.3645 125.64C51.3645 126.68 50.9779 127.56 50.2045 128.28C49.4579 128.973 48.4979 129.32 47.3245 129.32ZM70.6136 129.32C69.4136 129.32 68.4269 128.973 67.6536 128.28C66.9069 127.56 66.5336 126.68 66.5336 125.64C66.5336 124.573 66.9069 123.68 67.6536 122.96C68.4269 122.24 69.4136 121.88 70.6136 121.88C71.7869 121.88 72.7469 122.24 73.4936 122.96C74.2669 123.68 74.6536 124.573 74.6536 125.64C74.6536 126.68 74.2669 127.56 73.4936 128.28C72.7469 128.973 71.7869 129.32 70.6136 129.32ZM93.9027 129.32C92.7027 129.32 91.716 128.973 90.9427 128.28C90.196 127.56 89.8227 126.68 89.8227 125.64C89.8227 124.573 90.196 123.68 90.9427 122.96C91.716 122.24 92.7027 121.88 93.9027 121.88C95.076 121.88 96.036 122.24 96.7827 122.96C97.556 123.68 97.9427 124.573 97.9427 125.64C97.9427 126.68 97.556 127.56 96.7827 128.28C96.036 128.973 95.076 129.32 93.9027 129.32ZM117.192 129.32C115.992 129.32 115.005 128.973 114.232 128.28C113.485 127.56 113.112 126.68 113.112 125.64C113.112 124.573 113.485 123.68 114.232 122.96C115.005 122.24 115.992 121.88 117.192 121.88C118.365 121.88 119.325 122.24 120.072 122.96C120.845 123.68 121.232 124.573 121.232 125.64C121.232 126.68 120.845 127.56 120.072 128.28C119.325 128.973 118.365 129.32 117.192 129.32ZM140.481 129.32C139.281 129.32 138.294 128.973 137.521 128.28C136.774 127.56 136.401 126.68 136.401 125.64C136.401 124.573 136.774 123.68 137.521 122.96C138.294 122.24 139.281 121.88 140.481 121.88C141.654 121.88 142.614 122.24 143.361 122.96C144.134 123.68 144.521 124.573 144.521 125.64C144.521 126.68 144.134 127.56 143.361 128.28C142.614 128.973 141.654 129.32 140.481 129.32ZM163.77 129.32C162.57 129.32 161.583 128.973 160.81 128.28C160.063 127.56 159.69 126.68 159.69 125.64C159.69 124.573 160.063 123.68 160.81 122.96C161.583 122.24 162.57 121.88 163.77 121.88C164.943 121.88 165.903 122.24 166.65 122.96C167.423 123.68 167.81 124.573 167.81 125.64C167.81 126.68 167.423 127.56 166.65 128.28C165.903 128.973 164.943 129.32 163.77 129.32ZM187.059 129.32C185.859 129.32 184.872 128.973 184.099 128.28C183.352 127.56 182.979 126.68 182.979 125.64C182.979 124.573 183.352 123.68 184.099 122.96C184.872 122.24 185.859 121.88 187.059 121.88C188.232 121.88 189.192 122.24 189.939 122.96C190.712 123.68 191.099 124.573 191.099 125.64C191.099 126.68 190.712 127.56 189.939 128.28C189.192 128.973 188.232 129.32 187.059 129.32ZM210.348 129.32C209.148 129.32 208.161 128.973 207.388 128.28C206.641 127.56 206.268 126.68 206.268 125.64C206.268 124.573 206.641 123.68 207.388 122.96C208.161 122.24 209.148 121.88 210.348 121.88C211.521 121.88 212.481 122.24 213.228 122.96C214.001 123.68 214.388 124.573 214.388 125.64C214.388 126.68 214.001 127.56 213.228 128.28C212.481 128.973 211.521 129.32 210.348 129.32ZM-162.277 160.32C-163.477 160.32 -164.464 159.973 -165.237 159.28C-165.984 158.56 -166.357 157.68 -166.357 156.64C-166.357 155.573 -165.984 154.68 -165.237 153.96C-164.464 153.24 -163.477 152.88 -162.277 152.88C-161.104 152.88 -160.144 153.24 -159.397 153.96C-158.624 154.68 -158.237 155.573 -158.237 156.64C-158.237 157.68 -158.624 158.56 -159.397 159.28C-160.144 159.973 -161.104 160.32 -162.277 160.32ZM-138.988 160.32C-140.188 160.32 -141.175 159.973 -141.948 159.28C-142.695 158.56 -143.068 157.68 -143.068 156.64C-143.068 155.573 -142.695 154.68 -141.948 153.96C-141.175 153.24 -140.188 152.88 -138.988 152.88C-137.815 152.88 -136.855 153.24 -136.108 153.96C-135.335 154.68 -134.948 155.573 -134.948 156.64C-134.948 157.68 -135.335 158.56 -136.108 159.28C-136.855 159.973 -137.815 160.32 -138.988 160.32ZM-115.699 160.32C-116.899 160.32 -117.886 159.973 -118.659 159.28C-119.406 158.56 -119.779 157.68 -119.779 156.64C-119.779 155.573 -119.406 154.68 -118.659 153.96C-117.886 153.24 -116.899 152.88 -115.699 152.88C-114.526 152.88 -113.566 153.24 -112.819 153.96C-112.046 154.68 -111.659 155.573 -111.659 156.64C-111.659 157.68 -112.046 158.56 -112.819 159.28C-113.566 159.973 -114.526 160.32 -115.699 160.32ZM-92.4098 160.32C-93.6098 160.32 -94.5965 159.973 -95.3698 159.28C-96.1165 158.56 -96.4898 157.68 -96.4898 156.64C-96.4898 155.573 -96.1165 154.68 -95.3698 153.96C-94.5965 153.24 -93.6098 152.88 -92.4098 152.88C-91.2365 152.88 -90.2765 153.24 -89.5298 153.96C-88.7565 154.68 -88.3698 155.573 -88.3698 156.64C-88.3698 157.68 -88.7565 158.56 -89.5298 159.28C-90.2765 159.973 -91.2365 160.32 -92.4098 160.32ZM-69.1208 160.32C-70.3208 160.32 -71.3074 159.973 -72.0808 159.28C-72.8274 158.56 -73.2008 157.68 -73.2008 156.64C-73.2008 155.573 -72.8274 154.68 -72.0808 153.96C-71.3074 153.24 -70.3208 152.88 -69.1208 152.88C-67.9474 152.88 -66.9874 153.24 -66.2408 153.96C-65.4674 154.68 -65.0808 155.573 -65.0808 156.64C-65.0808 157.68 -65.4674 158.56 -66.2408 159.28C-66.9874 159.973 -67.9474 160.32 -69.1208 160.32ZM-45.8317 160.32C-47.0317 160.32 -48.0184 159.973 -48.7917 159.28C-49.5384 158.56 -49.9117 157.68 -49.9117 156.64C-49.9117 155.573 -49.5384 154.68 -48.7917 153.96C-48.0184 153.24 -47.0317 152.88 -45.8317 152.88C-44.6584 152.88 -43.6984 153.24 -42.9517 153.96C-42.1784 154.68 -41.7917 155.573 -41.7917 156.64C-41.7917 157.68 -42.1784 158.56 -42.9517 159.28C-43.6984 159.973 -44.6584 160.32 -45.8317 160.32ZM-22.5427 160.32C-23.7427 160.32 -24.7293 159.973 -25.5027 159.28C-26.2493 158.56 -26.6227 157.68 -26.6227 156.64C-26.6227 155.573 -26.2493 154.68 -25.5027 153.96C-24.7293 153.24 -23.7427 152.88 -22.5427 152.88C-21.3693 152.88 -20.4093 153.24 -19.6627 153.96C-18.8893 154.68 -18.5027 155.573 -18.5027 156.64C-18.5027 157.68 -18.8893 158.56 -19.6627 159.28C-20.4093 159.973 -21.3693 160.32 -22.5427 160.32ZM0.746406 160.32C-0.453594 160.32 -1.44026 159.973 -2.21359 159.28C-2.96026 158.56 -3.33359 157.68 -3.33359 156.64C-3.33359 155.573 -2.96026 154.68 -2.21359 153.96C-1.44026 153.24 -0.453594 152.88 0.746406 152.88C1.91974 152.88 2.87974 153.24 3.62641 153.96C4.39974 154.68 4.78641 155.573 4.78641 156.64C4.78641 157.68 4.39974 158.56 3.62641 159.28C2.87974 159.973 1.91974 160.32 0.746406 160.32ZM24.0355 160.32C22.8355 160.32 21.8488 159.973 21.0755 159.28C20.3288 158.56 19.9555 157.68 19.9555 156.64C19.9555 155.573 20.3288 154.68 21.0755 153.96C21.8488 153.24 22.8355 152.88 24.0355 152.88C25.2088 152.88 26.1688 153.24 26.9155 153.96C27.6888 154.68 28.0755 155.573 28.0755 156.64C28.0755 157.68 27.6888 158.56 26.9155 159.28C26.1688 159.973 25.2088 160.32 24.0355 160.32ZM47.3245 160.32C46.1245 160.32 45.1379 159.973 44.3645 159.28C43.6179 158.56 43.2445 157.68 43.2445 156.64C43.2445 155.573 43.6179 154.68 44.3645 153.96C45.1379 153.24 46.1245 152.88 47.3245 152.88C48.4979 152.88 49.4579 153.24 50.2045 153.96C50.9779 154.68 51.3645 155.573 51.3645 156.64C51.3645 157.68 50.9779 158.56 50.2045 159.28C49.4579 159.973 48.4979 160.32 47.3245 160.32ZM70.6136 160.32C69.4136 160.32 68.4269 159.973 67.6536 159.28C66.9069 158.56 66.5336 157.68 66.5336 156.64C66.5336 155.573 66.9069 154.68 67.6536 153.96C68.4269 153.24 69.4136 152.88 70.6136 152.88C71.7869 152.88 72.7469 153.24 73.4936 153.96C74.2669 154.68 74.6536 155.573 74.6536 156.64C74.6536 157.68 74.2669 158.56 73.4936 159.28C72.7469 159.973 71.7869 160.32 70.6136 160.32ZM93.9027 160.32C92.7027 160.32 91.716 159.973 90.9427 159.28C90.196 158.56 89.8227 157.68 89.8227 156.64C89.8227 155.573 90.196 154.68 90.9427 153.96C91.716 153.24 92.7027 152.88 93.9027 152.88C95.076 152.88 96.036 153.24 96.7827 153.96C97.556 154.68 97.9427 155.573 97.9427 156.64C97.9427 157.68 97.556 158.56 96.7827 159.28C96.036 159.973 95.076 160.32 93.9027 160.32ZM117.192 160.32C115.992 160.32 115.005 159.973 114.232 159.28C113.485 158.56 113.112 157.68 113.112 156.64C113.112 155.573 113.485 154.68 114.232 153.96C115.005 153.24 115.992 152.88 117.192 152.88C118.365 152.88 119.325 153.24 120.072 153.96C120.845 154.68 121.232 155.573 121.232 156.64C121.232 157.68 120.845 158.56 120.072 159.28C119.325 159.973 118.365 160.32 117.192 160.32ZM140.481 160.32C139.281 160.32 138.294 159.973 137.521 159.28C136.774 158.56 136.401 157.68 136.401 156.64C136.401 155.573 136.774 154.68 137.521 153.96C138.294 153.24 139.281 152.88 140.481 152.88C141.654 152.88 142.614 153.24 143.361 153.96C144.134 154.68 144.521 155.573 144.521 156.64C144.521 157.68 144.134 158.56 143.361 159.28C142.614 159.973 141.654 160.32 140.481 160.32ZM163.77 160.32C162.57 160.32 161.583 159.973 160.81 159.28C160.063 158.56 159.69 157.68 159.69 156.64C159.69 155.573 160.063 154.68 160.81 153.96C161.583 153.24 162.57 152.88 163.77 152.88C164.943 152.88 165.903 153.24 166.65 153.96C167.423 154.68 167.81 155.573 167.81 156.64C167.81 157.68 167.423 158.56 166.65 159.28C165.903 159.973 164.943 160.32 163.77 160.32ZM187.059 160.32C185.859 160.32 184.872 159.973 184.099 159.28C183.352 158.56 182.979 157.68 182.979 156.64C182.979 155.573 183.352 154.68 184.099 153.96C184.872 153.24 185.859 152.88 187.059 152.88C188.232 152.88 189.192 153.24 189.939 153.96C190.712 154.68 191.099 155.573 191.099 156.64C191.099 157.68 190.712 158.56 189.939 159.28C189.192 159.973 188.232 160.32 187.059 160.32ZM210.348 160.32C209.148 160.32 208.161 159.973 207.388 159.28C206.641 158.56 206.268 157.68 206.268 156.64C206.268 155.573 206.641 154.68 207.388 153.96C208.161 153.24 209.148 152.88 210.348 152.88C211.521 152.88 212.481 153.24 213.228 153.96C214.001 154.68 214.388 155.573 214.388 156.64C214.388 157.68 214.001 158.56 213.228 159.28C212.481 159.973 211.521 160.32 210.348 160.32ZM-162.277 191.32C-163.477 191.32 -164.464 190.973 -165.237 190.28C-165.984 189.56 -166.357 188.68 -166.357 187.64C-166.357 186.573 -165.984 185.68 -165.237 184.96C-164.464 184.24 -163.477 183.88 -162.277 183.88C-161.104 183.88 -160.144 184.24 -159.397 184.96C-158.624 185.68 -158.237 186.573 -158.237 187.64C-158.237 188.68 -158.624 189.56 -159.397 190.28C-160.144 190.973 -161.104 191.32 -162.277 191.32ZM-138.988 191.32C-140.188 191.32 -141.175 190.973 -141.948 190.28C-142.695 189.56 -143.068 188.68 -143.068 187.64C-143.068 186.573 -142.695 185.68 -141.948 184.96C-141.175 184.24 -140.188 183.88 -138.988 183.88C-137.815 183.88 -136.855 184.24 -136.108 184.96C-135.335 185.68 -134.948 186.573 -134.948 187.64C-134.948 188.68 -135.335 189.56 -136.108 190.28C-136.855 190.973 -137.815 191.32 -138.988 191.32ZM-115.699 191.32C-116.899 191.32 -117.886 190.973 -118.659 190.28C-119.406 189.56 -119.779 188.68 -119.779 187.64C-119.779 186.573 -119.406 185.68 -118.659 184.96C-117.886 184.24 -116.899 183.88 -115.699 183.88C-114.526 183.88 -113.566 184.24 -112.819 184.96C-112.046 185.68 -111.659 186.573 -111.659 187.64C-111.659 188.68 -112.046 189.56 -112.819 190.28C-113.566 190.973 -114.526 191.32 -115.699 191.32ZM-92.4098 191.32C-93.6098 191.32 -94.5965 190.973 -95.3698 190.28C-96.1165 189.56 -96.4898 188.68 -96.4898 187.64C-96.4898 186.573 -96.1165 185.68 -95.3698 184.96C-94.5965 184.24 -93.6098 183.88 -92.4098 183.88C-91.2365 183.88 -90.2765 184.24 -89.5298 184.96C-88.7565 185.68 -88.3698 186.573 -88.3698 187.64C-88.3698 188.68 -88.7565 189.56 -89.5298 190.28C-90.2765 190.973 -91.2365 191.32 -92.4098 191.32ZM-69.1208 191.32C-70.3208 191.32 -71.3074 190.973 -72.0808 190.28C-72.8274 189.56 -73.2008 188.68 -73.2008 187.64C-73.2008 186.573 -72.8274 185.68 -72.0808 184.96C-71.3074 184.24 -70.3208 183.88 -69.1208 183.88C-67.9474 183.88 -66.9874 184.24 -66.2408 184.96C-65.4674 185.68 -65.0808 186.573 -65.0808 187.64C-65.0808 188.68 -65.4674 189.56 -66.2408 190.28C-66.9874 190.973 -67.9474 191.32 -69.1208 191.32ZM-45.8317 191.32C-47.0317 191.32 -48.0184 190.973 -48.7917 190.28C-49.5384 189.56 -49.9117 188.68 -49.9117 187.64C-49.9117 186.573 -49.5384 185.68 -48.7917 184.96C-48.0184 184.24 -47.0317 183.88 -45.8317 183.88C-44.6584 183.88 -43.6984 184.24 -42.9517 184.96C-42.1784 185.68 -41.7917 186.573 -41.7917 187.64C-41.7917 188.68 -42.1784 189.56 -42.9517 190.28C-43.6984 190.973 -44.6584 191.32 -45.8317 191.32ZM-22.5427 191.32C-23.7427 191.32 -24.7293 190.973 -25.5027 190.28C-26.2493 189.56 -26.6227 188.68 -26.6227 187.64C-26.6227 186.573 -26.2493 185.68 -25.5027 184.96C-24.7293 184.24 -23.7427 183.88 -22.5427 183.88C-21.3693 183.88 -20.4093 184.24 -19.6627 184.96C-18.8893 185.68 -18.5027 186.573 -18.5027 187.64C-18.5027 188.68 -18.8893 189.56 -19.6627 190.28C-20.4093 190.973 -21.3693 191.32 -22.5427 191.32ZM0.746406 191.32C-0.453594 191.32 -1.44026 190.973 -2.21359 190.28C-2.96026 189.56 -3.33359 188.68 -3.33359 187.64C-3.33359 186.573 -2.96026 185.68 -2.21359 184.96C-1.44026 184.24 -0.453594 183.88 0.746406 183.88C1.91974 183.88 2.87974 184.24 3.62641 184.96C4.39974 185.68 4.78641 186.573 4.78641 187.64C4.78641 188.68 4.39974 189.56 3.62641 190.28C2.87974 190.973 1.91974 191.32 0.746406 191.32ZM24.0355 191.32C22.8355 191.32 21.8488 190.973 21.0755 190.28C20.3288 189.56 19.9555 188.68 19.9555 187.64C19.9555 186.573 20.3288 185.68 21.0755 184.96C21.8488 184.24 22.8355 183.88 24.0355 183.88C25.2088 183.88 26.1688 184.24 26.9155 184.96C27.6888 185.68 28.0755 186.573 28.0755 187.64C28.0755 188.68 27.6888 189.56 26.9155 190.28C26.1688 190.973 25.2088 191.32 24.0355 191.32ZM47.3245 191.32C46.1245 191.32 45.1379 190.973 44.3645 190.28C43.6179 189.56 43.2445 188.68 43.2445 187.64C43.2445 186.573 43.6179 185.68 44.3645 184.96C45.1379 184.24 46.1245 183.88 47.3245 183.88C48.4979 183.88 49.4579 184.24 50.2045 184.96C50.9779 185.68 51.3645 186.573 51.3645 187.64C51.3645 188.68 50.9779 189.56 50.2045 190.28C49.4579 190.973 48.4979 191.32 47.3245 191.32ZM70.6136 191.32C69.4136 191.32 68.4269 190.973 67.6536 190.28C66.9069 189.56 66.5336 188.68 66.5336 187.64C66.5336 186.573 66.9069 185.68 67.6536 184.96C68.4269 184.24 69.4136 183.88 70.6136 183.88C71.7869 183.88 72.7469 184.24 73.4936 184.96C74.2669 185.68 74.6536 186.573 74.6536 187.64C74.6536 188.68 74.2669 189.56 73.4936 190.28C72.7469 190.973 71.7869 191.32 70.6136 191.32ZM93.9027 191.32C92.7027 191.32 91.716 190.973 90.9427 190.28C90.196 189.56 89.8227 188.68 89.8227 187.64C89.8227 186.573 90.196 185.68 90.9427 184.96C91.716 184.24 92.7027 183.88 93.9027 183.88C95.076 183.88 96.036 184.24 96.7827 184.96C97.556 185.68 97.9427 186.573 97.9427 187.64C97.9427 188.68 97.556 189.56 96.7827 190.28C96.036 190.973 95.076 191.32 93.9027 191.32ZM117.192 191.32C115.992 191.32 115.005 190.973 114.232 190.28C113.485 189.56 113.112 188.68 113.112 187.64C113.112 186.573 113.485 185.68 114.232 184.96C115.005 184.24 115.992 183.88 117.192 183.88C118.365 183.88 119.325 184.24 120.072 184.96C120.845 185.68 121.232 186.573 121.232 187.64C121.232 188.68 120.845 189.56 120.072 190.28C119.325 190.973 118.365 191.32 117.192 191.32ZM140.481 191.32C139.281 191.32 138.294 190.973 137.521 190.28C136.774 189.56 136.401 188.68 136.401 187.64C136.401 186.573 136.774 185.68 137.521 184.96C138.294 184.24 139.281 183.88 140.481 183.88C141.654 183.88 142.614 184.24 143.361 184.96C144.134 185.68 144.521 186.573 144.521 187.64C144.521 188.68 144.134 189.56 143.361 190.28C142.614 190.973 141.654 191.32 140.481 191.32ZM163.77 191.32C162.57 191.32 161.583 190.973 160.81 190.28C160.063 189.56 159.69 188.68 159.69 187.64C159.69 186.573 160.063 185.68 160.81 184.96C161.583 184.24 162.57 183.88 163.77 183.88C164.943 183.88 165.903 184.24 166.65 184.96C167.423 185.68 167.81 186.573 167.81 187.64C167.81 188.68 167.423 189.56 166.65 190.28C165.903 190.973 164.943 191.32 163.77 191.32ZM187.059 191.32C185.859 191.32 184.872 190.973 184.099 190.28C183.352 189.56 182.979 188.68 182.979 187.64C182.979 186.573 183.352 185.68 184.099 184.96C184.872 184.24 185.859 183.88 187.059 183.88C188.232 183.88 189.192 184.24 189.939 184.96C190.712 185.68 191.099 186.573 191.099 187.64C191.099 188.68 190.712 189.56 189.939 190.28C189.192 190.973 188.232 191.32 187.059 191.32ZM210.348 191.32C209.148 191.32 208.161 190.973 207.388 190.28C206.641 189.56 206.268 188.68 206.268 187.64C206.268 186.573 206.641 185.68 207.388 184.96C208.161 184.24 209.148 183.88 210.348 183.88C211.521 183.88 212.481 184.24 213.228 184.96C214.001 185.68 214.388 186.573 214.388 187.64C214.388 188.68 214.001 189.56 213.228 190.28C212.481 190.973 211.521 191.32 210.348 191.32ZM-162.277 222.32C-163.477 222.32 -164.464 221.973 -165.237 221.28C-165.984 220.56 -166.357 219.68 -166.357 218.64C-166.357 217.573 -165.984 216.68 -165.237 215.96C-164.464 215.24 -163.477 214.88 -162.277 214.88C-161.104 214.88 -160.144 215.24 -159.397 215.96C-158.624 216.68 -158.237 217.573 -158.237 218.64C-158.237 219.68 -158.624 220.56 -159.397 221.28C-160.144 221.973 -161.104 222.32 -162.277 222.32ZM-138.988 222.32C-140.188 222.32 -141.175 221.973 -141.948 221.28C-142.695 220.56 -143.068 219.68 -143.068 218.64C-143.068 217.573 -142.695 216.68 -141.948 215.96C-141.175 215.24 -140.188 214.88 -138.988 214.88C-137.815 214.88 -136.855 215.24 -136.108 215.96C-135.335 216.68 -134.948 217.573 -134.948 218.64C-134.948 219.68 -135.335 220.56 -136.108 221.28C-136.855 221.973 -137.815 222.32 -138.988 222.32ZM-115.699 222.32C-116.899 222.32 -117.886 221.973 -118.659 221.28C-119.406 220.56 -119.779 219.68 -119.779 218.64C-119.779 217.573 -119.406 216.68 -118.659 215.96C-117.886 215.24 -116.899 214.88 -115.699 214.88C-114.526 214.88 -113.566 215.24 -112.819 215.96C-112.046 216.68 -111.659 217.573 -111.659 218.64C-111.659 219.68 -112.046 220.56 -112.819 221.28C-113.566 221.973 -114.526 222.32 -115.699 222.32ZM-92.4098 222.32C-93.6098 222.32 -94.5965 221.973 -95.3698 221.28C-96.1165 220.56 -96.4898 219.68 -96.4898 218.64C-96.4898 217.573 -96.1165 216.68 -95.3698 215.96C-94.5965 215.24 -93.6098 214.88 -92.4098 214.88C-91.2365 214.88 -90.2765 215.24 -89.5298 215.96C-88.7565 216.68 -88.3698 217.573 -88.3698 218.64C-88.3698 219.68 -88.7565 220.56 -89.5298 221.28C-90.2765 221.973 -91.2365 222.32 -92.4098 222.32ZM-69.1208 222.32C-70.3208 222.32 -71.3074 221.973 -72.0808 221.28C-72.8274 220.56 -73.2008 219.68 -73.2008 218.64C-73.2008 217.573 -72.8274 216.68 -72.0808 215.96C-71.3074 215.24 -70.3208 214.88 -69.1208 214.88C-67.9474 214.88 -66.9874 215.24 -66.2408 215.96C-65.4674 216.68 -65.0808 217.573 -65.0808 218.64C-65.0808 219.68 -65.4674 220.56 -66.2408 221.28C-66.9874 221.973 -67.9474 222.32 -69.1208 222.32ZM-45.8317 222.32C-47.0317 222.32 -48.0184 221.973 -48.7917 221.28C-49.5384 220.56 -49.9117 219.68 -49.9117 218.64C-49.9117 217.573 -49.5384 216.68 -48.7917 215.96C-48.0184 215.24 -47.0317 214.88 -45.8317 214.88C-44.6584 214.88 -43.6984 215.24 -42.9517 215.96C-42.1784 216.68 -41.7917 217.573 -41.7917 218.64C-41.7917 219.68 -42.1784 220.56 -42.9517 221.28C-43.6984 221.973 -44.6584 222.32 -45.8317 222.32ZM-22.5427 222.32C-23.7427 222.32 -24.7293 221.973 -25.5027 221.28C-26.2493 220.56 -26.6227 219.68 -26.6227 218.64C-26.6227 217.573 -26.2493 216.68 -25.5027 215.96C-24.7293 215.24 -23.7427 214.88 -22.5427 214.88C-21.3693 214.88 -20.4093 215.24 -19.6627 215.96C-18.8893 216.68 -18.5027 217.573 -18.5027 218.64C-18.5027 219.68 -18.8893 220.56 -19.6627 221.28C-20.4093 221.973 -21.3693 222.32 -22.5427 222.32ZM0.746406 222.32C-0.453594 222.32 -1.44026 221.973 -2.21359 221.28C-2.96026 220.56 -3.33359 219.68 -3.33359 218.64C-3.33359 217.573 -2.96026 216.68 -2.21359 215.96C-1.44026 215.24 -0.453594 214.88 0.746406 214.88C1.91974 214.88 2.87974 215.24 3.62641 215.96C4.39974 216.68 4.78641 217.573 4.78641 218.64C4.78641 219.68 4.39974 220.56 3.62641 221.28C2.87974 221.973 1.91974 222.32 0.746406 222.32ZM24.0355 222.32C22.8355 222.32 21.8488 221.973 21.0755 221.28C20.3288 220.56 19.9555 219.68 19.9555 218.64C19.9555 217.573 20.3288 216.68 21.0755 215.96C21.8488 215.24 22.8355 214.88 24.0355 214.88C25.2088 214.88 26.1688 215.24 26.9155 215.96C27.6888 216.68 28.0755 217.573 28.0755 218.64C28.0755 219.68 27.6888 220.56 26.9155 221.28C26.1688 221.973 25.2088 222.32 24.0355 222.32ZM47.3245 222.32C46.1245 222.32 45.1379 221.973 44.3645 221.28C43.6179 220.56 43.2445 219.68 43.2445 218.64C43.2445 217.573 43.6179 216.68 44.3645 215.96C45.1379 215.24 46.1245 214.88 47.3245 214.88C48.4979 214.88 49.4579 215.24 50.2045 215.96C50.9779 216.68 51.3645 217.573 51.3645 218.64C51.3645 219.68 50.9779 220.56 50.2045 221.28C49.4579 221.973 48.4979 222.32 47.3245 222.32ZM70.6136 222.32C69.4136 222.32 68.4269 221.973 67.6536 221.28C66.9069 220.56 66.5336 219.68 66.5336 218.64C66.5336 217.573 66.9069 216.68 67.6536 215.96C68.4269 215.24 69.4136 214.88 70.6136 214.88C71.7869 214.88 72.7469 215.24 73.4936 215.96C74.2669 216.68 74.6536 217.573 74.6536 218.64C74.6536 219.68 74.2669 220.56 73.4936 221.28C72.7469 221.973 71.7869 222.32 70.6136 222.32ZM93.9027 222.32C92.7027 222.32 91.716 221.973 90.9427 221.28C90.196 220.56 89.8227 219.68 89.8227 218.64C89.8227 217.573 90.196 216.68 90.9427 215.96C91.716 215.24 92.7027 214.88 93.9027 214.88C95.076 214.88 96.036 215.24 96.7827 215.96C97.556 216.68 97.9427 217.573 97.9427 218.64C97.9427 219.68 97.556 220.56 96.7827 221.28C96.036 221.973 95.076 222.32 93.9027 222.32ZM117.192 222.32C115.992 222.32 115.005 221.973 114.232 221.28C113.485 220.56 113.112 219.68 113.112 218.64C113.112 217.573 113.485 216.68 114.232 215.96C115.005 215.24 115.992 214.88 117.192 214.88C118.365 214.88 119.325 215.24 120.072 215.96C120.845 216.68 121.232 217.573 121.232 218.64C121.232 219.68 120.845 220.56 120.072 221.28C119.325 221.973 118.365 222.32 117.192 222.32ZM140.481 222.32C139.281 222.32 138.294 221.973 137.521 221.28C136.774 220.56 136.401 219.68 136.401 218.64C136.401 217.573 136.774 216.68 137.521 215.96C138.294 215.24 139.281 214.88 140.481 214.88C141.654 214.88 142.614 215.24 143.361 215.96C144.134 216.68 144.521 217.573 144.521 218.64C144.521 219.68 144.134 220.56 143.361 221.28C142.614 221.973 141.654 222.32 140.481 222.32ZM163.77 222.32C162.57 222.32 161.583 221.973 160.81 221.28C160.063 220.56 159.69 219.68 159.69 218.64C159.69 217.573 160.063 216.68 160.81 215.96C161.583 215.24 162.57 214.88 163.77 214.88C164.943 214.88 165.903 215.24 166.65 215.96C167.423 216.68 167.81 217.573 167.81 218.64C167.81 219.68 167.423 220.56 166.65 221.28C165.903 221.973 164.943 222.32 163.77 222.32ZM187.059 222.32C185.859 222.32 184.872 221.973 184.099 221.28C183.352 220.56 182.979 219.68 182.979 218.64C182.979 217.573 183.352 216.68 184.099 215.96C184.872 215.24 185.859 214.88 187.059 214.88C188.232 214.88 189.192 215.24 189.939 215.96C190.712 216.68 191.099 217.573 191.099 218.64C191.099 219.68 190.712 220.56 189.939 221.28C189.192 221.973 188.232 222.32 187.059 222.32ZM210.348 222.32C209.148 222.32 208.161 221.973 207.388 221.28C206.641 220.56 206.268 219.68 206.268 218.64C206.268 217.573 206.641 216.68 207.388 215.96C208.161 215.24 209.148 214.88 210.348 214.88C211.521 214.88 212.481 215.24 213.228 215.96C214.001 216.68 214.388 217.573 214.388 218.64C214.388 219.68 214.001 220.56 213.228 221.28C212.481 221.973 211.521 222.32 210.348 222.32ZM-162.277 253.32C-163.477 253.32 -164.464 252.973 -165.237 252.28C-165.984 251.56 -166.357 250.68 -166.357 249.64C-166.357 248.573 -165.984 247.68 -165.237 246.96C-164.464 246.24 -163.477 245.88 -162.277 245.88C-161.104 245.88 -160.144 246.24 -159.397 246.96C-158.624 247.68 -158.237 248.573 -158.237 249.64C-158.237 250.68 -158.624 251.56 -159.397 252.28C-160.144 252.973 -161.104 253.32 -162.277 253.32ZM-138.988 253.32C-140.188 253.32 -141.175 252.973 -141.948 252.28C-142.695 251.56 -143.068 250.68 -143.068 249.64C-143.068 248.573 -142.695 247.68 -141.948 246.96C-141.175 246.24 -140.188 245.88 -138.988 245.88C-137.815 245.88 -136.855 246.24 -136.108 246.96C-135.335 247.68 -134.948 248.573 -134.948 249.64C-134.948 250.68 -135.335 251.56 -136.108 252.28C-136.855 252.973 -137.815 253.32 -138.988 253.32ZM-115.699 253.32C-116.899 253.32 -117.886 252.973 -118.659 252.28C-119.406 251.56 -119.779 250.68 -119.779 249.64C-119.779 248.573 -119.406 247.68 -118.659 246.96C-117.886 246.24 -116.899 245.88 -115.699 245.88C-114.526 245.88 -113.566 246.24 -112.819 246.96C-112.046 247.68 -111.659 248.573 -111.659 249.64C-111.659 250.68 -112.046 251.56 -112.819 252.28C-113.566 252.973 -114.526 253.32 -115.699 253.32ZM-92.4098 253.32C-93.6098 253.32 -94.5965 252.973 -95.3698 252.28C-96.1165 251.56 -96.4898 250.68 -96.4898 249.64C-96.4898 248.573 -96.1165 247.68 -95.3698 246.96C-94.5965 246.24 -93.6098 245.88 -92.4098 245.88C-91.2365 245.88 -90.2765 246.24 -89.5298 246.96C-88.7565 247.68 -88.3698 248.573 -88.3698 249.64C-88.3698 250.68 -88.7565 251.56 -89.5298 252.28C-90.2765 252.973 -91.2365 253.32 -92.4098 253.32ZM-69.1208 253.32C-70.3208 253.32 -71.3074 252.973 -72.0808 252.28C-72.8274 251.56 -73.2008 250.68 -73.2008 249.64C-73.2008 248.573 -72.8274 247.68 -72.0808 246.96C-71.3074 246.24 -70.3208 245.88 -69.1208 245.88C-67.9474 245.88 -66.9874 246.24 -66.2408 246.96C-65.4674 247.68 -65.0808 248.573 -65.0808 249.64C-65.0808 250.68 -65.4674 251.56 -66.2408 252.28C-66.9874 252.973 -67.9474 253.32 -69.1208 253.32ZM-45.8317 253.32C-47.0317 253.32 -48.0184 252.973 -48.7917 252.28C-49.5384 251.56 -49.9117 250.68 -49.9117 249.64C-49.9117 248.573 -49.5384 247.68 -48.7917 246.96C-48.0184 246.24 -47.0317 245.88 -45.8317 245.88C-44.6584 245.88 -43.6984 246.24 -42.9517 246.96C-42.1784 247.68 -41.7917 248.573 -41.7917 249.64C-41.7917 250.68 -42.1784 251.56 -42.9517 252.28C-43.6984 252.973 -44.6584 253.32 -45.8317 253.32ZM-22.5427 253.32C-23.7427 253.32 -24.7293 252.973 -25.5027 252.28C-26.2493 251.56 -26.6227 250.68 -26.6227 249.64C-26.6227 248.573 -26.2493 247.68 -25.5027 246.96C-24.7293 246.24 -23.7427 245.88 -22.5427 245.88C-21.3693 245.88 -20.4093 246.24 -19.6627 246.96C-18.8893 247.68 -18.5027 248.573 -18.5027 249.64C-18.5027 250.68 -18.8893 251.56 -19.6627 252.28C-20.4093 252.973 -21.3693 253.32 -22.5427 253.32ZM0.746406 253.32C-0.453594 253.32 -1.44026 252.973 -2.21359 252.28C-2.96026 251.56 -3.33359 250.68 -3.33359 249.64C-3.33359 248.573 -2.96026 247.68 -2.21359 246.96C-1.44026 246.24 -0.453594 245.88 0.746406 245.88C1.91974 245.88 2.87974 246.24 3.62641 246.96C4.39974 247.68 4.78641 248.573 4.78641 249.64C4.78641 250.68 4.39974 251.56 3.62641 252.28C2.87974 252.973 1.91974 253.32 0.746406 253.32ZM24.0355 253.32C22.8355 253.32 21.8488 252.973 21.0755 252.28C20.3288 251.56 19.9555 250.68 19.9555 249.64C19.9555 248.573 20.3288 247.68 21.0755 246.96C21.8488 246.24 22.8355 245.88 24.0355 245.88C25.2088 245.88 26.1688 246.24 26.9155 246.96C27.6888 247.68 28.0755 248.573 28.0755 249.64C28.0755 250.68 27.6888 251.56 26.9155 252.28C26.1688 252.973 25.2088 253.32 24.0355 253.32ZM47.3245 253.32C46.1245 253.32 45.1379 252.973 44.3645 252.28C43.6179 251.56 43.2445 250.68 43.2445 249.64C43.2445 248.573 43.6179 247.68 44.3645 246.96C45.1379 246.24 46.1245 245.88 47.3245 245.88C48.4979 245.88 49.4579 246.24 50.2045 246.96C50.9779 247.68 51.3645 248.573 51.3645 249.64C51.3645 250.68 50.9779 251.56 50.2045 252.28C49.4579 252.973 48.4979 253.32 47.3245 253.32ZM70.6136 253.32C69.4136 253.32 68.4269 252.973 67.6536 252.28C66.9069 251.56 66.5336 250.68 66.5336 249.64C66.5336 248.573 66.9069 247.68 67.6536 246.96C68.4269 246.24 69.4136 245.88 70.6136 245.88C71.7869 245.88 72.7469 246.24 73.4936 246.96C74.2669 247.68 74.6536 248.573 74.6536 249.64C74.6536 250.68 74.2669 251.56 73.4936 252.28C72.7469 252.973 71.7869 253.32 70.6136 253.32ZM93.9027 253.32C92.7027 253.32 91.716 252.973 90.9427 252.28C90.196 251.56 89.8227 250.68 89.8227 249.64C89.8227 248.573 90.196 247.68 90.9427 246.96C91.716 246.24 92.7027 245.88 93.9027 245.88C95.076 245.88 96.036 246.24 96.7827 246.96C97.556 247.68 97.9427 248.573 97.9427 249.64C97.9427 250.68 97.556 251.56 96.7827 252.28C96.036 252.973 95.076 253.32 93.9027 253.32ZM117.192 253.32C115.992 253.32 115.005 252.973 114.232 252.28C113.485 251.56 113.112 250.68 113.112 249.64C113.112 248.573 113.485 247.68 114.232 246.96C115.005 246.24 115.992 245.88 117.192 245.88C118.365 245.88 119.325 246.24 120.072 246.96C120.845 247.68 121.232 248.573 121.232 249.64C121.232 250.68 120.845 251.56 120.072 252.28C119.325 252.973 118.365 253.32 117.192 253.32ZM140.481 253.32C139.281 253.32 138.294 252.973 137.521 252.28C136.774 251.56 136.401 250.68 136.401 249.64C136.401 248.573 136.774 247.68 137.521 246.96C138.294 246.24 139.281 245.88 140.481 245.88C141.654 245.88 142.614 246.24 143.361 246.96C144.134 247.68 144.521 248.573 144.521 249.64C144.521 250.68 144.134 251.56 143.361 252.28C142.614 252.973 141.654 253.32 140.481 253.32ZM163.77 253.32C162.57 253.32 161.583 252.973 160.81 252.28C160.063 251.56 159.69 250.68 159.69 249.64C159.69 248.573 160.063 247.68 160.81 246.96C161.583 246.24 162.57 245.88 163.77 245.88C164.943 245.88 165.903 246.24 166.65 246.96C167.423 247.68 167.81 248.573 167.81 249.64C167.81 250.68 167.423 251.56 166.65 252.28C165.903 252.973 164.943 253.32 163.77 253.32ZM187.059 253.32C185.859 253.32 184.872 252.973 184.099 252.28C183.352 251.56 182.979 250.68 182.979 249.64C182.979 248.573 183.352 247.68 184.099 246.96C184.872 246.24 185.859 245.88 187.059 245.88C188.232 245.88 189.192 246.24 189.939 246.96C190.712 247.68 191.099 248.573 191.099 249.64C191.099 250.68 190.712 251.56 189.939 252.28C189.192 252.973 188.232 253.32 187.059 253.32ZM210.348 253.32C209.148 253.32 208.161 252.973 207.388 252.28C206.641 251.56 206.268 250.68 206.268 249.64C206.268 248.573 206.641 247.68 207.388 246.96C208.161 246.24 209.148 245.88 210.348 245.88C211.521 245.88 212.481 246.24 213.228 246.96C214.001 247.68 214.388 248.573 214.388 249.64C214.388 250.68 214.001 251.56 213.228 252.28C212.481 252.973 211.521 253.32 210.348 253.32ZM-162.277 284.32C-163.477 284.32 -164.464 283.973 -165.237 283.28C-165.984 282.56 -166.357 281.68 -166.357 280.64C-166.357 279.573 -165.984 278.68 -165.237 277.96C-164.464 277.24 -163.477 276.88 -162.277 276.88C-161.104 276.88 -160.144 277.24 -159.397 277.96C-158.624 278.68 -158.237 279.573 -158.237 280.64C-158.237 281.68 -158.624 282.56 -159.397 283.28C-160.144 283.973 -161.104 284.32 -162.277 284.32ZM-138.988 284.32C-140.188 284.32 -141.175 283.973 -141.948 283.28C-142.695 282.56 -143.068 281.68 -143.068 280.64C-143.068 279.573 -142.695 278.68 -141.948 277.96C-141.175 277.24 -140.188 276.88 -138.988 276.88C-137.815 276.88 -136.855 277.24 -136.108 277.96C-135.335 278.68 -134.948 279.573 -134.948 280.64C-134.948 281.68 -135.335 282.56 -136.108 283.28C-136.855 283.973 -137.815 284.32 -138.988 284.32ZM-115.699 284.32C-116.899 284.32 -117.886 283.973 -118.659 283.28C-119.406 282.56 -119.779 281.68 -119.779 280.64C-119.779 279.573 -119.406 278.68 -118.659 277.96C-117.886 277.24 -116.899 276.88 -115.699 276.88C-114.526 276.88 -113.566 277.24 -112.819 277.96C-112.046 278.68 -111.659 279.573 -111.659 280.64C-111.659 281.68 -112.046 282.56 -112.819 283.28C-113.566 283.973 -114.526 284.32 -115.699 284.32ZM-92.4098 284.32C-93.6098 284.32 -94.5965 283.973 -95.3698 283.28C-96.1165 282.56 -96.4898 281.68 -96.4898 280.64C-96.4898 279.573 -96.1165 278.68 -95.3698 277.96C-94.5965 277.24 -93.6098 276.88 -92.4098 276.88C-91.2365 276.88 -90.2765 277.24 -89.5298 277.96C-88.7565 278.68 -88.3698 279.573 -88.3698 280.64C-88.3698 281.68 -88.7565 282.56 -89.5298 283.28C-90.2765 283.973 -91.2365 284.32 -92.4098 284.32ZM-69.1208 284.32C-70.3208 284.32 -71.3074 283.973 -72.0808 283.28C-72.8274 282.56 -73.2008 281.68 -73.2008 280.64C-73.2008 279.573 -72.8274 278.68 -72.0808 277.96C-71.3074 277.24 -70.3208 276.88 -69.1208 276.88C-67.9474 276.88 -66.9874 277.24 -66.2408 277.96C-65.4674 278.68 -65.0808 279.573 -65.0808 280.64C-65.0808 281.68 -65.4674 282.56 -66.2408 283.28C-66.9874 283.973 -67.9474 284.32 -69.1208 284.32ZM-45.8317 284.32C-47.0317 284.32 -48.0184 283.973 -48.7917 283.28C-49.5384 282.56 -49.9117 281.68 -49.9117 280.64C-49.9117 279.573 -49.5384 278.68 -48.7917 277.96C-48.0184 277.24 -47.0317 276.88 -45.8317 276.88C-44.6584 276.88 -43.6984 277.24 -42.9517 277.96C-42.1784 278.68 -41.7917 279.573 -41.7917 280.64C-41.7917 281.68 -42.1784 282.56 -42.9517 283.28C-43.6984 283.973 -44.6584 284.32 -45.8317 284.32ZM-22.5427 284.32C-23.7427 284.32 -24.7293 283.973 -25.5027 283.28C-26.2493 282.56 -26.6227 281.68 -26.6227 280.64C-26.6227 279.573 -26.2493 278.68 -25.5027 277.96C-24.7293 277.24 -23.7427 276.88 -22.5427 276.88C-21.3693 276.88 -20.4093 277.24 -19.6627 277.96C-18.8893 278.68 -18.5027 279.573 -18.5027 280.64C-18.5027 281.68 -18.8893 282.56 -19.6627 283.28C-20.4093 283.973 -21.3693 284.32 -22.5427 284.32ZM0.746406 284.32C-0.453594 284.32 -1.44026 283.973 -2.21359 283.28C-2.96026 282.56 -3.33359 281.68 -3.33359 280.64C-3.33359 279.573 -2.96026 278.68 -2.21359 277.96C-1.44026 277.24 -0.453594 276.88 0.746406 276.88C1.91974 276.88 2.87974 277.24 3.62641 277.96C4.39974 278.68 4.78641 279.573 4.78641 280.64C4.78641 281.68 4.39974 282.56 3.62641 283.28C2.87974 283.973 1.91974 284.32 0.746406 284.32ZM24.0355 284.32C22.8355 284.32 21.8488 283.973 21.0755 283.28C20.3288 282.56 19.9555 281.68 19.9555 280.64C19.9555 279.573 20.3288 278.68 21.0755 277.96C21.8488 277.24 22.8355 276.88 24.0355 276.88C25.2088 276.88 26.1688 277.24 26.9155 277.96C27.6888 278.68 28.0755 279.573 28.0755 280.64C28.0755 281.68 27.6888 282.56 26.9155 283.28C26.1688 283.973 25.2088 284.32 24.0355 284.32ZM47.3245 284.32C46.1245 284.32 45.1379 283.973 44.3645 283.28C43.6179 282.56 43.2445 281.68 43.2445 280.64C43.2445 279.573 43.6179 278.68 44.3645 277.96C45.1379 277.24 46.1245 276.88 47.3245 276.88C48.4979 276.88 49.4579 277.24 50.2045 277.96C50.9779 278.68 51.3645 279.573 51.3645 280.64C51.3645 281.68 50.9779 282.56 50.2045 283.28C49.4579 283.973 48.4979 284.32 47.3245 284.32ZM70.6136 284.32C69.4136 284.32 68.4269 283.973 67.6536 283.28C66.9069 282.56 66.5336 281.68 66.5336 280.64C66.5336 279.573 66.9069 278.68 67.6536 277.96C68.4269 277.24 69.4136 276.88 70.6136 276.88C71.7869 276.88 72.7469 277.24 73.4936 277.96C74.2669 278.68 74.6536 279.573 74.6536 280.64C74.6536 281.68 74.2669 282.56 73.4936 283.28C72.7469 283.973 71.7869 284.32 70.6136 284.32ZM93.9027 284.32C92.7027 284.32 91.716 283.973 90.9427 283.28C90.196 282.56 89.8227 281.68 89.8227 280.64C89.8227 279.573 90.196 278.68 90.9427 277.96C91.716 277.24 92.7027 276.88 93.9027 276.88C95.076 276.88 96.036 277.24 96.7827 277.96C97.556 278.68 97.9427 279.573 97.9427 280.64C97.9427 281.68 97.556 282.56 96.7827 283.28C96.036 283.973 95.076 284.32 93.9027 284.32ZM117.192 284.32C115.992 284.32 115.005 283.973 114.232 283.28C113.485 282.56 113.112 281.68 113.112 280.64C113.112 279.573 113.485 278.68 114.232 277.96C115.005 277.24 115.992 276.88 117.192 276.88C118.365 276.88 119.325 277.24 120.072 277.96C120.845 278.68 121.232 279.573 121.232 280.64C121.232 281.68 120.845 282.56 120.072 283.28C119.325 283.973 118.365 284.32 117.192 284.32ZM140.481 284.32C139.281 284.32 138.294 283.973 137.521 283.28C136.774 282.56 136.401 281.68 136.401 280.64C136.401 279.573 136.774 278.68 137.521 277.96C138.294 277.24 139.281 276.88 140.481 276.88C141.654 276.88 142.614 277.24 143.361 277.96C144.134 278.68 144.521 279.573 144.521 280.64C144.521 281.68 144.134 282.56 143.361 283.28C142.614 283.973 141.654 284.32 140.481 284.32ZM163.77 284.32C162.57 284.32 161.583 283.973 160.81 283.28C160.063 282.56 159.69 281.68 159.69 280.64C159.69 279.573 160.063 278.68 160.81 277.96C161.583 277.24 162.57 276.88 163.77 276.88C164.943 276.88 165.903 277.24 166.65 277.96C167.423 278.68 167.81 279.573 167.81 280.64C167.81 281.68 167.423 282.56 166.65 283.28C165.903 283.973 164.943 284.32 163.77 284.32ZM187.059 284.32C185.859 284.32 184.872 283.973 184.099 283.28C183.352 282.56 182.979 281.68 182.979 280.64C182.979 279.573 183.352 278.68 184.099 277.96C184.872 277.24 185.859 276.88 187.059 276.88C188.232 276.88 189.192 277.24 189.939 277.96C190.712 278.68 191.099 279.573 191.099 280.64C191.099 281.68 190.712 282.56 189.939 283.28C189.192 283.973 188.232 284.32 187.059 284.32ZM210.348 284.32C209.148 284.32 208.161 283.973 207.388 283.28C206.641 282.56 206.268 281.68 206.268 280.64C206.268 279.573 206.641 278.68 207.388 277.96C208.161 277.24 209.148 276.88 210.348 276.88C211.521 276.88 212.481 277.24 213.228 277.96C214.001 278.68 214.388 279.573 214.388 280.64C214.388 281.68 214.001 282.56 213.228 283.28C212.481 283.973 211.521 284.32 210.348 284.32ZM-162.277 315.32C-163.477 315.32 -164.464 314.973 -165.237 314.28C-165.984 313.56 -166.357 312.68 -166.357 311.64C-166.357 310.573 -165.984 309.68 -165.237 308.96C-164.464 308.24 -163.477 307.88 -162.277 307.88C-161.104 307.88 -160.144 308.24 -159.397 308.96C-158.624 309.68 -158.237 310.573 -158.237 311.64C-158.237 312.68 -158.624 313.56 -159.397 314.28C-160.144 314.973 -161.104 315.32 -162.277 315.32ZM-138.988 315.32C-140.188 315.32 -141.175 314.973 -141.948 314.28C-142.695 313.56 -143.068 312.68 -143.068 311.64C-143.068 310.573 -142.695 309.68 -141.948 308.96C-141.175 308.24 -140.188 307.88 -138.988 307.88C-137.815 307.88 -136.855 308.24 -136.108 308.96C-135.335 309.68 -134.948 310.573 -134.948 311.64C-134.948 312.68 -135.335 313.56 -136.108 314.28C-136.855 314.973 -137.815 315.32 -138.988 315.32ZM-115.699 315.32C-116.899 315.32 -117.886 314.973 -118.659 314.28C-119.406 313.56 -119.779 312.68 -119.779 311.64C-119.779 310.573 -119.406 309.68 -118.659 308.96C-117.886 308.24 -116.899 307.88 -115.699 307.88C-114.526 307.88 -113.566 308.24 -112.819 308.96C-112.046 309.68 -111.659 310.573 -111.659 311.64C-111.659 312.68 -112.046 313.56 -112.819 314.28C-113.566 314.973 -114.526 315.32 -115.699 315.32ZM-92.4098 315.32C-93.6098 315.32 -94.5965 314.973 -95.3698 314.28C-96.1165 313.56 -96.4898 312.68 -96.4898 311.64C-96.4898 310.573 -96.1165 309.68 -95.3698 308.96C-94.5965 308.24 -93.6098 307.88 -92.4098 307.88C-91.2365 307.88 -90.2765 308.24 -89.5298 308.96C-88.7565 309.68 -88.3698 310.573 -88.3698 311.64C-88.3698 312.68 -88.7565 313.56 -89.5298 314.28C-90.2765 314.973 -91.2365 315.32 -92.4098 315.32ZM-69.1208 315.32C-70.3208 315.32 -71.3074 314.973 -72.0808 314.28C-72.8274 313.56 -73.2008 312.68 -73.2008 311.64C-73.2008 310.573 -72.8274 309.68 -72.0808 308.96C-71.3074 308.24 -70.3208 307.88 -69.1208 307.88C-67.9474 307.88 -66.9874 308.24 -66.2408 308.96C-65.4674 309.68 -65.0808 310.573 -65.0808 311.64C-65.0808 312.68 -65.4674 313.56 -66.2408 314.28C-66.9874 314.973 -67.9474 315.32 -69.1208 315.32ZM-45.8317 315.32C-47.0317 315.32 -48.0184 314.973 -48.7917 314.28C-49.5384 313.56 -49.9117 312.68 -49.9117 311.64C-49.9117 310.573 -49.5384 309.68 -48.7917 308.96C-48.0184 308.24 -47.0317 307.88 -45.8317 307.88C-44.6584 307.88 -43.6984 308.24 -42.9517 308.96C-42.1784 309.68 -41.7917 310.573 -41.7917 311.64C-41.7917 312.68 -42.1784 313.56 -42.9517 314.28C-43.6984 314.973 -44.6584 315.32 -45.8317 315.32ZM-22.5427 315.32C-23.7427 315.32 -24.7293 314.973 -25.5027 314.28C-26.2493 313.56 -26.6227 312.68 -26.6227 311.64C-26.6227 310.573 -26.2493 309.68 -25.5027 308.96C-24.7293 308.24 -23.7427 307.88 -22.5427 307.88C-21.3693 307.88 -20.4093 308.24 -19.6627 308.96C-18.8893 309.68 -18.5027 310.573 -18.5027 311.64C-18.5027 312.68 -18.8893 313.56 -19.6627 314.28C-20.4093 314.973 -21.3693 315.32 -22.5427 315.32ZM0.746406 315.32C-0.453594 315.32 -1.44026 314.973 -2.21359 314.28C-2.96026 313.56 -3.33359 312.68 -3.33359 311.64C-3.33359 310.573 -2.96026 309.68 -2.21359 308.96C-1.44026 308.24 -0.453594 307.88 0.746406 307.88C1.91974 307.88 2.87974 308.24 3.62641 308.96C4.39974 309.68 4.78641 310.573 4.78641 311.64C4.78641 312.68 4.39974 313.56 3.62641 314.28C2.87974 314.973 1.91974 315.32 0.746406 315.32ZM24.0355 315.32C22.8355 315.32 21.8488 314.973 21.0755 314.28C20.3288 313.56 19.9555 312.68 19.9555 311.64C19.9555 310.573 20.3288 309.68 21.0755 308.96C21.8488 308.24 22.8355 307.88 24.0355 307.88C25.2088 307.88 26.1688 308.24 26.9155 308.96C27.6888 309.68 28.0755 310.573 28.0755 311.64C28.0755 312.68 27.6888 313.56 26.9155 314.28C26.1688 314.973 25.2088 315.32 24.0355 315.32ZM47.3245 315.32C46.1245 315.32 45.1379 314.973 44.3645 314.28C43.6179 313.56 43.2445 312.68 43.2445 311.64C43.2445 310.573 43.6179 309.68 44.3645 308.96C45.1379 308.24 46.1245 307.88 47.3245 307.88C48.4979 307.88 49.4579 308.24 50.2045 308.96C50.9779 309.68 51.3645 310.573 51.3645 311.64C51.3645 312.68 50.9779 313.56 50.2045 314.28C49.4579 314.973 48.4979 315.32 47.3245 315.32ZM70.6136 315.32C69.4136 315.32 68.4269 314.973 67.6536 314.28C66.9069 313.56 66.5336 312.68 66.5336 311.64C66.5336 310.573 66.9069 309.68 67.6536 308.96C68.4269 308.24 69.4136 307.88 70.6136 307.88C71.7869 307.88 72.7469 308.24 73.4936 308.96C74.2669 309.68 74.6536 310.573 74.6536 311.64C74.6536 312.68 74.2669 313.56 73.4936 314.28C72.7469 314.973 71.7869 315.32 70.6136 315.32ZM93.9027 315.32C92.7027 315.32 91.716 314.973 90.9427 314.28C90.196 313.56 89.8227 312.68 89.8227 311.64C89.8227 310.573 90.196 309.68 90.9427 308.96C91.716 308.24 92.7027 307.88 93.9027 307.88C95.076 307.88 96.036 308.24 96.7827 308.96C97.556 309.68 97.9427 310.573 97.9427 311.64C97.9427 312.68 97.556 313.56 96.7827 314.28C96.036 314.973 95.076 315.32 93.9027 315.32ZM117.192 315.32C115.992 315.32 115.005 314.973 114.232 314.28C113.485 313.56 113.112 312.68 113.112 311.64C113.112 310.573 113.485 309.68 114.232 308.96C115.005 308.24 115.992 307.88 117.192 307.88C118.365 307.88 119.325 308.24 120.072 308.96C120.845 309.68 121.232 310.573 121.232 311.64C121.232 312.68 120.845 313.56 120.072 314.28C119.325 314.973 118.365 315.32 117.192 315.32ZM140.481 315.32C139.281 315.32 138.294 314.973 137.521 314.28C136.774 313.56 136.401 312.68 136.401 311.64C136.401 310.573 136.774 309.68 137.521 308.96C138.294 308.24 139.281 307.88 140.481 307.88C141.654 307.88 142.614 308.24 143.361 308.96C144.134 309.68 144.521 310.573 144.521 311.64C144.521 312.68 144.134 313.56 143.361 314.28C142.614 314.973 141.654 315.32 140.481 315.32ZM163.77 315.32C162.57 315.32 161.583 314.973 160.81 314.28C160.063 313.56 159.69 312.68 159.69 311.64C159.69 310.573 160.063 309.68 160.81 308.96C161.583 308.24 162.57 307.88 163.77 307.88C164.943 307.88 165.903 308.24 166.65 308.96C167.423 309.68 167.81 310.573 167.81 311.64C167.81 312.68 167.423 313.56 166.65 314.28C165.903 314.973 164.943 315.32 163.77 315.32ZM187.059 315.32C185.859 315.32 184.872 314.973 184.099 314.28C183.352 313.56 182.979 312.68 182.979 311.64C182.979 310.573 183.352 309.68 184.099 308.96C184.872 308.24 185.859 307.88 187.059 307.88C188.232 307.88 189.192 308.24 189.939 308.96C190.712 309.68 191.099 310.573 191.099 311.64C191.099 312.68 190.712 313.56 189.939 314.28C189.192 314.973 188.232 315.32 187.059 315.32ZM210.348 315.32C209.148 315.32 208.161 314.973 207.388 314.28C206.641 313.56 206.268 312.68 206.268 311.64C206.268 310.573 206.641 309.68 207.388 308.96C208.161 308.24 209.148 307.88 210.348 307.88C211.521 307.88 212.481 308.24 213.228 308.96C214.001 309.68 214.388 310.573 214.388 311.64C214.388 312.68 214.001 313.56 213.228 314.28C212.481 314.973 211.521 315.32 210.348 315.32ZM-162.277 346.32C-163.477 346.32 -164.464 345.973 -165.237 345.28C-165.984 344.56 -166.357 343.68 -166.357 342.64C-166.357 341.573 -165.984 340.68 -165.237 339.96C-164.464 339.24 -163.477 338.88 -162.277 338.88C-161.104 338.88 -160.144 339.24 -159.397 339.96C-158.624 340.68 -158.237 341.573 -158.237 342.64C-158.237 343.68 -158.624 344.56 -159.397 345.28C-160.144 345.973 -161.104 346.32 -162.277 346.32ZM-138.988 346.32C-140.188 346.32 -141.175 345.973 -141.948 345.28C-142.695 344.56 -143.068 343.68 -143.068 342.64C-143.068 341.573 -142.695 340.68 -141.948 339.96C-141.175 339.24 -140.188 338.88 -138.988 338.88C-137.815 338.88 -136.855 339.24 -136.108 339.96C-135.335 340.68 -134.948 341.573 -134.948 342.64C-134.948 343.68 -135.335 344.56 -136.108 345.28C-136.855 345.973 -137.815 346.32 -138.988 346.32ZM-115.699 346.32C-116.899 346.32 -117.886 345.973 -118.659 345.28C-119.406 344.56 -119.779 343.68 -119.779 342.64C-119.779 341.573 -119.406 340.68 -118.659 339.96C-117.886 339.24 -116.899 338.88 -115.699 338.88C-114.526 338.88 -113.566 339.24 -112.819 339.96C-112.046 340.68 -111.659 341.573 -111.659 342.64C-111.659 343.68 -112.046 344.56 -112.819 345.28C-113.566 345.973 -114.526 346.32 -115.699 346.32ZM-92.4098 346.32C-93.6098 346.32 -94.5965 345.973 -95.3698 345.28C-96.1165 344.56 -96.4898 343.68 -96.4898 342.64C-96.4898 341.573 -96.1165 340.68 -95.3698 339.96C-94.5965 339.24 -93.6098 338.88 -92.4098 338.88C-91.2365 338.88 -90.2765 339.24 -89.5298 339.96C-88.7565 340.68 -88.3698 341.573 -88.3698 342.64C-88.3698 343.68 -88.7565 344.56 -89.5298 345.28C-90.2765 345.973 -91.2365 346.32 -92.4098 346.32ZM-69.1208 346.32C-70.3208 346.32 -71.3074 345.973 -72.0808 345.28C-72.8274 344.56 -73.2008 343.68 -73.2008 342.64C-73.2008 341.573 -72.8274 340.68 -72.0808 339.96C-71.3074 339.24 -70.3208 338.88 -69.1208 338.88C-67.9474 338.88 -66.9874 339.24 -66.2408 339.96C-65.4674 340.68 -65.0808 341.573 -65.0808 342.64C-65.0808 343.68 -65.4674 344.56 -66.2408 345.28C-66.9874 345.973 -67.9474 346.32 -69.1208 346.32ZM-45.8317 346.32C-47.0317 346.32 -48.0184 345.973 -48.7917 345.28C-49.5384 344.56 -49.9117 343.68 -49.9117 342.64C-49.9117 341.573 -49.5384 340.68 -48.7917 339.96C-48.0184 339.24 -47.0317 338.88 -45.8317 338.88C-44.6584 338.88 -43.6984 339.24 -42.9517 339.96C-42.1784 340.68 -41.7917 341.573 -41.7917 342.64C-41.7917 343.68 -42.1784 344.56 -42.9517 345.28C-43.6984 345.973 -44.6584 346.32 -45.8317 346.32ZM-22.5427 346.32C-23.7427 346.32 -24.7293 345.973 -25.5027 345.28C-26.2493 344.56 -26.6227 343.68 -26.6227 342.64C-26.6227 341.573 -26.2493 340.68 -25.5027 339.96C-24.7293 339.24 -23.7427 338.88 -22.5427 338.88C-21.3693 338.88 -20.4093 339.24 -19.6627 339.96C-18.8893 340.68 -18.5027 341.573 -18.5027 342.64C-18.5027 343.68 -18.8893 344.56 -19.6627 345.28C-20.4093 345.973 -21.3693 346.32 -22.5427 346.32ZM0.746406 346.32C-0.453594 346.32 -1.44026 345.973 -2.21359 345.28C-2.96026 344.56 -3.33359 343.68 -3.33359 342.64C-3.33359 341.573 -2.96026 340.68 -2.21359 339.96C-1.44026 339.24 -0.453594 338.88 0.746406 338.88C1.91974 338.88 2.87974 339.24 3.62641 339.96C4.39974 340.68 4.78641 341.573 4.78641 342.64C4.78641 343.68 4.39974 344.56 3.62641 345.28C2.87974 345.973 1.91974 346.32 0.746406 346.32ZM24.0355 346.32C22.8355 346.32 21.8488 345.973 21.0755 345.28C20.3288 344.56 19.9555 343.68 19.9555 342.64C19.9555 341.573 20.3288 340.68 21.0755 339.96C21.8488 339.24 22.8355 338.88 24.0355 338.88C25.2088 338.88 26.1688 339.24 26.9155 339.96C27.6888 340.68 28.0755 341.573 28.0755 342.64C28.0755 343.68 27.6888 344.56 26.9155 345.28C26.1688 345.973 25.2088 346.32 24.0355 346.32ZM47.3245 346.32C46.1245 346.32 45.1379 345.973 44.3645 345.28C43.6179 344.56 43.2445 343.68 43.2445 342.64C43.2445 341.573 43.6179 340.68 44.3645 339.96C45.1379 339.24 46.1245 338.88 47.3245 338.88C48.4979 338.88 49.4579 339.24 50.2045 339.96C50.9779 340.68 51.3645 341.573 51.3645 342.64C51.3645 343.68 50.9779 344.56 50.2045 345.28C49.4579 345.973 48.4979 346.32 47.3245 346.32ZM70.6136 346.32C69.4136 346.32 68.4269 345.973 67.6536 345.28C66.9069 344.56 66.5336 343.68 66.5336 342.64C66.5336 341.573 66.9069 340.68 67.6536 339.96C68.4269 339.24 69.4136 338.88 70.6136 338.88C71.7869 338.88 72.7469 339.24 73.4936 339.96C74.2669 340.68 74.6536 341.573 74.6536 342.64C74.6536 343.68 74.2669 344.56 73.4936 345.28C72.7469 345.973 71.7869 346.32 70.6136 346.32ZM93.9027 346.32C92.7027 346.32 91.716 345.973 90.9427 345.28C90.196 344.56 89.8227 343.68 89.8227 342.64C89.8227 341.573 90.196 340.68 90.9427 339.96C91.716 339.24 92.7027 338.88 93.9027 338.88C95.076 338.88 96.036 339.24 96.7827 339.96C97.556 340.68 97.9427 341.573 97.9427 342.64C97.9427 343.68 97.556 344.56 96.7827 345.28C96.036 345.973 95.076 346.32 93.9027 346.32ZM117.192 346.32C115.992 346.32 115.005 345.973 114.232 345.28C113.485 344.56 113.112 343.68 113.112 342.64C113.112 341.573 113.485 340.68 114.232 339.96C115.005 339.24 115.992 338.88 117.192 338.88C118.365 338.88 119.325 339.24 120.072 339.96C120.845 340.68 121.232 341.573 121.232 342.64C121.232 343.68 120.845 344.56 120.072 345.28C119.325 345.973 118.365 346.32 117.192 346.32ZM140.481 346.32C139.281 346.32 138.294 345.973 137.521 345.28C136.774 344.56 136.401 343.68 136.401 342.64C136.401 341.573 136.774 340.68 137.521 339.96C138.294 339.24 139.281 338.88 140.481 338.88C141.654 338.88 142.614 339.24 143.361 339.96C144.134 340.68 144.521 341.573 144.521 342.64C144.521 343.68 144.134 344.56 143.361 345.28C142.614 345.973 141.654 346.32 140.481 346.32ZM163.77 346.32C162.57 346.32 161.583 345.973 160.81 345.28C160.063 344.56 159.69 343.68 159.69 342.64C159.69 341.573 160.063 340.68 160.81 339.96C161.583 339.24 162.57 338.88 163.77 338.88C164.943 338.88 165.903 339.24 166.65 339.96C167.423 340.68 167.81 341.573 167.81 342.64C167.81 343.68 167.423 344.56 166.65 345.28C165.903 345.973 164.943 346.32 163.77 346.32ZM187.059 346.32C185.859 346.32 184.872 345.973 184.099 345.28C183.352 344.56 182.979 343.68 182.979 342.64C182.979 341.573 183.352 340.68 184.099 339.96C184.872 339.24 185.859 338.88 187.059 338.88C188.232 338.88 189.192 339.24 189.939 339.96C190.712 340.68 191.099 341.573 191.099 342.64C191.099 343.68 190.712 344.56 189.939 345.28C189.192 345.973 188.232 346.32 187.059 346.32ZM210.348 346.32C209.148 346.32 208.161 345.973 207.388 345.28C206.641 344.56 206.268 343.68 206.268 342.64C206.268 341.573 206.641 340.68 207.388 339.96C208.161 339.24 209.148 338.88 210.348 338.88C211.521 338.88 212.481 339.24 213.228 339.96C214.001 340.68 214.388 341.573 214.388 342.64C214.388 343.68 214.001 344.56 213.228 345.28C212.481 345.973 211.521 346.32 210.348 346.32ZM-162.277 377.32C-163.477 377.32 -164.464 376.973 -165.237 376.28C-165.984 375.56 -166.357 374.68 -166.357 373.64C-166.357 372.573 -165.984 371.68 -165.237 370.96C-164.464 370.24 -163.477 369.88 -162.277 369.88C-161.104 369.88 -160.144 370.24 -159.397 370.96C-158.624 371.68 -158.237 372.573 -158.237 373.64C-158.237 374.68 -158.624 375.56 -159.397 376.28C-160.144 376.973 -161.104 377.32 -162.277 377.32ZM-138.988 377.32C-140.188 377.32 -141.175 376.973 -141.948 376.28C-142.695 375.56 -143.068 374.68 -143.068 373.64C-143.068 372.573 -142.695 371.68 -141.948 370.96C-141.175 370.24 -140.188 369.88 -138.988 369.88C-137.815 369.88 -136.855 370.24 -136.108 370.96C-135.335 371.68 -134.948 372.573 -134.948 373.64C-134.948 374.68 -135.335 375.56 -136.108 376.28C-136.855 376.973 -137.815 377.32 -138.988 377.32ZM-115.699 377.32C-116.899 377.32 -117.886 376.973 -118.659 376.28C-119.406 375.56 -119.779 374.68 -119.779 373.64C-119.779 372.573 -119.406 371.68 -118.659 370.96C-117.886 370.24 -116.899 369.88 -115.699 369.88C-114.526 369.88 -113.566 370.24 -112.819 370.96C-112.046 371.68 -111.659 372.573 -111.659 373.64C-111.659 374.68 -112.046 375.56 -112.819 376.28C-113.566 376.973 -114.526 377.32 -115.699 377.32ZM-92.4098 377.32C-93.6098 377.32 -94.5965 376.973 -95.3698 376.28C-96.1165 375.56 -96.4898 374.68 -96.4898 373.64C-96.4898 372.573 -96.1165 371.68 -95.3698 370.96C-94.5965 370.24 -93.6098 369.88 -92.4098 369.88C-91.2365 369.88 -90.2765 370.24 -89.5298 370.96C-88.7565 371.68 -88.3698 372.573 -88.3698 373.64C-88.3698 374.68 -88.7565 375.56 -89.5298 376.28C-90.2765 376.973 -91.2365 377.32 -92.4098 377.32ZM-69.1208 377.32C-70.3208 377.32 -71.3074 376.973 -72.0808 376.28C-72.8274 375.56 -73.2008 374.68 -73.2008 373.64C-73.2008 372.573 -72.8274 371.68 -72.0808 370.96C-71.3074 370.24 -70.3208 369.88 -69.1208 369.88C-67.9474 369.88 -66.9874 370.24 -66.2408 370.96C-65.4674 371.68 -65.0808 372.573 -65.0808 373.64C-65.0808 374.68 -65.4674 375.56 -66.2408 376.28C-66.9874 376.973 -67.9474 377.32 -69.1208 377.32ZM-45.8317 377.32C-47.0317 377.32 -48.0184 376.973 -48.7917 376.28C-49.5384 375.56 -49.9117 374.68 -49.9117 373.64C-49.9117 372.573 -49.5384 371.68 -48.7917 370.96C-48.0184 370.24 -47.0317 369.88 -45.8317 369.88C-44.6584 369.88 -43.6984 370.24 -42.9517 370.96C-42.1784 371.68 -41.7917 372.573 -41.7917 373.64C-41.7917 374.68 -42.1784 375.56 -42.9517 376.28C-43.6984 376.973 -44.6584 377.32 -45.8317 377.32ZM-22.5427 377.32C-23.7427 377.32 -24.7293 376.973 -25.5027 376.28C-26.2493 375.56 -26.6227 374.68 -26.6227 373.64C-26.6227 372.573 -26.2493 371.68 -25.5027 370.96C-24.7293 370.24 -23.7427 369.88 -22.5427 369.88C-21.3693 369.88 -20.4093 370.24 -19.6627 370.96C-18.8893 371.68 -18.5027 372.573 -18.5027 373.64C-18.5027 374.68 -18.8893 375.56 -19.6627 376.28C-20.4093 376.973 -21.3693 377.32 -22.5427 377.32ZM0.746406 377.32C-0.453594 377.32 -1.44026 376.973 -2.21359 376.28C-2.96026 375.56 -3.33359 374.68 -3.33359 373.64C-3.33359 372.573 -2.96026 371.68 -2.21359 370.96C-1.44026 370.24 -0.453594 369.88 0.746406 369.88C1.91974 369.88 2.87974 370.24 3.62641 370.96C4.39974 371.68 4.78641 372.573 4.78641 373.64C4.78641 374.68 4.39974 375.56 3.62641 376.28C2.87974 376.973 1.91974 377.32 0.746406 377.32ZM24.0355 377.32C22.8355 377.32 21.8488 376.973 21.0755 376.28C20.3288 375.56 19.9555 374.68 19.9555 373.64C19.9555 372.573 20.3288 371.68 21.0755 370.96C21.8488 370.24 22.8355 369.88 24.0355 369.88C25.2088 369.88 26.1688 370.24 26.9155 370.96C27.6888 371.68 28.0755 372.573 28.0755 373.64C28.0755 374.68 27.6888 375.56 26.9155 376.28C26.1688 376.973 25.2088 377.32 24.0355 377.32ZM47.3245 377.32C46.1245 377.32 45.1379 376.973 44.3645 376.28C43.6179 375.56 43.2445 374.68 43.2445 373.64C43.2445 372.573 43.6179 371.68 44.3645 370.96C45.1379 370.24 46.1245 369.88 47.3245 369.88C48.4979 369.88 49.4579 370.24 50.2045 370.96C50.9779 371.68 51.3645 372.573 51.3645 373.64C51.3645 374.68 50.9779 375.56 50.2045 376.28C49.4579 376.973 48.4979 377.32 47.3245 377.32ZM70.6136 377.32C69.4136 377.32 68.4269 376.973 67.6536 376.28C66.9069 375.56 66.5336 374.68 66.5336 373.64C66.5336 372.573 66.9069 371.68 67.6536 370.96C68.4269 370.24 69.4136 369.88 70.6136 369.88C71.7869 369.88 72.7469 370.24 73.4936 370.96C74.2669 371.68 74.6536 372.573 74.6536 373.64C74.6536 374.68 74.2669 375.56 73.4936 376.28C72.7469 376.973 71.7869 377.32 70.6136 377.32ZM93.9027 377.32C92.7027 377.32 91.716 376.973 90.9427 376.28C90.196 375.56 89.8227 374.68 89.8227 373.64C89.8227 372.573 90.196 371.68 90.9427 370.96C91.716 370.24 92.7027 369.88 93.9027 369.88C95.076 369.88 96.036 370.24 96.7827 370.96C97.556 371.68 97.9427 372.573 97.9427 373.64C97.9427 374.68 97.556 375.56 96.7827 376.28C96.036 376.973 95.076 377.32 93.9027 377.32ZM117.192 377.32C115.992 377.32 115.005 376.973 114.232 376.28C113.485 375.56 113.112 374.68 113.112 373.64C113.112 372.573 113.485 371.68 114.232 370.96C115.005 370.24 115.992 369.88 117.192 369.88C118.365 369.88 119.325 370.24 120.072 370.96C120.845 371.68 121.232 372.573 121.232 373.64C121.232 374.68 120.845 375.56 120.072 376.28C119.325 376.973 118.365 377.32 117.192 377.32ZM140.481 377.32C139.281 377.32 138.294 376.973 137.521 376.28C136.774 375.56 136.401 374.68 136.401 373.64C136.401 372.573 136.774 371.68 137.521 370.96C138.294 370.24 139.281 369.88 140.481 369.88C141.654 369.88 142.614 370.24 143.361 370.96C144.134 371.68 144.521 372.573 144.521 373.64C144.521 374.68 144.134 375.56 143.361 376.28C142.614 376.973 141.654 377.32 140.481 377.32ZM163.77 377.32C162.57 377.32 161.583 376.973 160.81 376.28C160.063 375.56 159.69 374.68 159.69 373.64C159.69 372.573 160.063 371.68 160.81 370.96C161.583 370.24 162.57 369.88 163.77 369.88C164.943 369.88 165.903 370.24 166.65 370.96C167.423 371.68 167.81 372.573 167.81 373.64C167.81 374.68 167.423 375.56 166.65 376.28C165.903 376.973 164.943 377.32 163.77 377.32ZM187.059 377.32C185.859 377.32 184.872 376.973 184.099 376.28C183.352 375.56 182.979 374.68 182.979 373.64C182.979 372.573 183.352 371.68 184.099 370.96C184.872 370.24 185.859 369.88 187.059 369.88C188.232 369.88 189.192 370.24 189.939 370.96C190.712 371.68 191.099 372.573 191.099 373.64C191.099 374.68 190.712 375.56 189.939 376.28C189.192 376.973 188.232 377.32 187.059 377.32ZM210.348 377.32C209.148 377.32 208.161 376.973 207.388 376.28C206.641 375.56 206.268 374.68 206.268 373.64C206.268 372.573 206.641 371.68 207.388 370.96C208.161 370.24 209.148 369.88 210.348 369.88C211.521 369.88 212.481 370.24 213.228 370.96C214.001 371.68 214.388 372.573 214.388 373.64C214.388 374.68 214.001 375.56 213.228 376.28C212.481 376.973 211.521 377.32 210.348 377.32ZM0.746406 408.32C-0.453594 408.32 -1.44026 407.973 -2.21359 407.28C-2.96026 406.56 -3.33359 405.68 -3.33359 404.64C-3.33359 403.573 -2.96026 402.68 -2.21359 401.96C-1.44026 401.24 -0.453594 400.88 0.746406 400.88C1.91974 400.88 2.87974 401.24 3.62641 401.96C4.39974 402.68 4.78641 403.573 4.78641 404.64C4.78641 405.68 4.39974 406.56 3.62641 407.28C2.87974 407.973 1.91974 408.32 0.746406 408.32ZM24.0355 408.32C22.8355 408.32 21.8488 407.973 21.0755 407.28C20.3288 406.56 19.9555 405.68 19.9555 404.64C19.9555 403.573 20.3288 402.68 21.0755 401.96C21.8488 401.24 22.8355 400.88 24.0355 400.88C25.2088 400.88 26.1688 401.24 26.9155 401.96C27.6888 402.68 28.0755 403.573 28.0755 404.64C28.0755 405.68 27.6888 406.56 26.9155 407.28C26.1688 407.973 25.2088 408.32 24.0355 408.32ZM47.3245 408.32C46.1245 408.32 45.1379 407.973 44.3645 407.28C43.6179 406.56 43.2445 405.68 43.2445 404.64C43.2445 403.573 43.6179 402.68 44.3645 401.96C45.1379 401.24 46.1245 400.88 47.3245 400.88C48.4979 400.88 49.4579 401.24 50.2045 401.96C50.9779 402.68 51.3645 403.573 51.3645 404.64C51.3645 405.68 50.9779 406.56 50.2045 407.28C49.4579 407.973 48.4979 408.32 47.3245 408.32Z" fill="white" fill-opacity="0.4"/>
</g>
<defs>
<clipPath id="clip0_22_132">
<path d="M0 150C0 67.1573 67.1573 0 150 0H477C515.66 0 547 31.3401 547 70V243C547 281.66 515.66 313 477 313H150C67.1573 313 0 245.843 0 163V150Z" fill="white"/>
</clipPath>
</defs>
</svg>
