<svg width="1206" height="342" viewBox="0 0 1206 342" fill="none" xmlns="http://www.w3.org/2000/svg">
<g clip-path="url(#clip0_72_1111)">
<path d="M0 30C0 13.4315 13.4315 0 30 0H1106C1161.23 0 1206 44.7715 1206 100V312C1206 328.569 1192.57 342 1176 342H30C13.4315 342 0 328.569 0 312V30Z" fill="#FFC226"/>
<rect x="1031" y="179" width="230" height="230" rx="115" fill="#FFD978"/>
<rect width="22.1266" height="7.16933" rx="3.58467" transform="matrix(-0.477452 -0.878658 0.854358 -0.519685 1156.56 238.167)" fill="white"/>
<rect width="57.793" height="7.32189" rx="3.66094" transform="matrix(0.76964 -0.638479 0.595406 0.803425 593.161 272.574)" fill="#00E1D4"/>
<rect x="21" y="56" width="39.5657" height="47.8417" rx="19.7829" fill="#03EDB5"/>
<path d="M194.081 317.087C197.872 310.14 207.847 310.14 211.637 317.087L228.441 347.881C232.078 354.545 227.255 362.671 219.663 362.671H186.055C178.464 362.671 173.641 354.545 177.277 347.881L194.081 317.087Z" fill="#6E56FF"/>
<path d="M840.987 -14.8571L894.262 -0.0935589C905.117 2.91438 908.829 17.2254 900.943 25.6631L862.221 67.0964C854.335 75.534 840.768 71.768 837.803 60.3184L823.25 4.12151C820.286 -7.32263 830.137 -17.8637 840.987 -14.8571Z" stroke="#E4153A" stroke-width="10"/>
<rect x="-31" y="211" width="169.567" height="179.406" rx="84.7837" fill="white" fill-opacity="0.2"/>
<path d="M311.393 185.338C312.261 182.513 316.261 182.513 317.129 185.338L319.955 194.542C320.342 195.801 321.506 196.661 322.823 196.661L332.314 196.661C335.179 196.661 336.414 200.293 334.142 202.04L326.178 208.161C325.186 208.925 324.771 210.224 325.139 211.421L328.111 221.1C328.969 223.894 325.732 226.14 323.415 224.359L316.09 218.728C315.012 217.899 313.511 217.899 312.433 218.728L305.107 224.359C302.79 226.14 299.553 223.894 300.411 221.1L303.384 211.421C303.751 210.224 303.337 208.925 302.344 208.161L294.38 202.04C292.109 200.293 293.343 196.661 296.208 196.661L305.699 196.661C307.017 196.661 308.18 195.801 308.567 194.542L311.393 185.338Z" fill="#9E00FF"/>
<path d="M-64.277 145.32C-65.477 145.32 -66.4637 144.973 -67.237 144.28C-67.9837 143.56 -68.357 142.68 -68.357 141.64C-68.357 140.573 -67.9837 139.68 -67.237 138.96C-66.4637 138.24 -65.477 137.88 -64.277 137.88C-63.1037 137.88 -62.1437 138.24 -61.397 138.96C-60.6237 139.68 -60.237 140.573 -60.237 141.64C-60.237 142.68 -60.6237 143.56 -61.397 144.28C-62.1437 144.973 -63.1037 145.32 -64.277 145.32ZM-40.988 145.32C-42.188 145.32 -43.1746 144.973 -43.948 144.28C-44.6946 143.56 -45.068 142.68 -45.068 141.64C-45.068 140.573 -44.6946 139.68 -43.948 138.96C-43.1746 138.24 -42.188 137.88 -40.988 137.88C-39.8146 137.88 -38.8546 138.24 -38.108 138.96C-37.3346 139.68 -36.948 140.573 -36.948 141.64C-36.948 142.68 -37.3346 143.56 -38.108 144.28C-38.8546 144.973 -39.8146 145.32 -40.988 145.32ZM-17.6989 145.32C-18.8989 145.32 -19.8856 144.973 -20.6589 144.28C-21.4056 143.56 -21.7789 142.68 -21.7789 141.64C-21.7789 140.573 -21.4056 139.68 -20.6589 138.96C-19.8856 138.24 -18.8989 137.88 -17.6989 137.88C-16.5256 137.88 -15.5656 138.24 -14.8189 138.96C-14.0456 139.68 -13.6589 140.573 -13.6589 141.64C-13.6589 142.68 -14.0456 143.56 -14.8189 144.28C-15.5656 144.973 -16.5256 145.32 -17.6989 145.32ZM5.59016 145.32C4.39016 145.32 3.40349 144.973 2.63016 144.28C1.88349 143.56 1.51016 142.68 1.51016 141.64C1.51016 140.573 1.88349 139.68 2.63016 138.96C3.40349 138.24 4.39016 137.88 5.59016 137.88C6.76349 137.88 7.72349 138.24 8.47016 138.96C9.24349 139.68 9.63016 140.573 9.63016 141.64C9.63016 142.68 9.24349 143.56 8.47016 144.28C7.72349 144.973 6.76349 145.32 5.59016 145.32ZM28.8792 145.32C27.6792 145.32 26.6926 144.973 25.9192 144.28C25.1726 143.56 24.7992 142.68 24.7992 141.64C24.7992 140.573 25.1726 139.68 25.9192 138.96C26.6926 138.24 27.6792 137.88 28.8792 137.88C30.0526 137.88 31.0126 138.24 31.7592 138.96C32.5326 139.68 32.9192 140.573 32.9192 141.64C32.9192 142.68 32.5326 143.56 31.7592 144.28C31.0126 144.973 30.0526 145.32 28.8792 145.32ZM52.1683 145.32C50.9683 145.32 49.9816 144.973 49.2083 144.28C48.4616 143.56 48.0883 142.68 48.0883 141.64C48.0883 140.573 48.4616 139.68 49.2083 138.96C49.9816 138.24 50.9683 137.88 52.1683 137.88C53.3416 137.88 54.3016 138.24 55.0483 138.96C55.8216 139.68 56.2083 140.573 56.2083 141.64C56.2083 142.68 55.8216 143.56 55.0483 144.28C54.3016 144.973 53.3416 145.32 52.1683 145.32ZM75.4573 145.32C74.2573 145.32 73.2707 144.973 72.4973 144.28C71.7507 143.56 71.3773 142.68 71.3773 141.64C71.3773 140.573 71.7507 139.68 72.4973 138.96C73.2707 138.24 74.2573 137.88 75.4573 137.88C76.6307 137.88 77.5907 138.24 78.3373 138.96C79.1107 139.68 79.4973 140.573 79.4973 141.64C79.4973 142.68 79.1107 143.56 78.3373 144.28C77.5907 144.973 76.6307 145.32 75.4573 145.32ZM98.7464 145.32C97.5464 145.32 96.5597 144.973 95.7864 144.28C95.0397 143.56 94.6664 142.68 94.6664 141.64C94.6664 140.573 95.0397 139.68 95.7864 138.96C96.5597 138.24 97.5464 137.88 98.7464 137.88C99.9197 137.88 100.88 138.24 101.626 138.96C102.4 139.68 102.786 140.573 102.786 141.64C102.786 142.68 102.4 143.56 101.626 144.28C100.88 144.973 99.9197 145.32 98.7464 145.32ZM122.035 145.32C120.835 145.32 119.849 144.973 119.075 144.28C118.329 143.56 117.955 142.68 117.955 141.64C117.955 140.573 118.329 139.68 119.075 138.96C119.849 138.24 120.835 137.88 122.035 137.88C123.209 137.88 124.169 138.24 124.915 138.96C125.689 139.68 126.075 140.573 126.075 141.64C126.075 142.68 125.689 143.56 124.915 144.28C124.169 144.973 123.209 145.32 122.035 145.32ZM145.325 145.32C144.125 145.32 143.138 144.973 142.365 144.28C141.618 143.56 141.245 142.68 141.245 141.64C141.245 140.573 141.618 139.68 142.365 138.96C143.138 138.24 144.125 137.88 145.325 137.88C146.498 137.88 147.458 138.24 148.205 138.96C148.978 139.68 149.365 140.573 149.365 141.64C149.365 142.68 148.978 143.56 148.205 144.28C147.458 144.973 146.498 145.32 145.325 145.32ZM168.614 145.32C167.414 145.32 166.427 144.973 165.654 144.28C164.907 143.56 164.534 142.68 164.534 141.64C164.534 140.573 164.907 139.68 165.654 138.96C166.427 138.24 167.414 137.88 168.614 137.88C169.787 137.88 170.747 138.24 171.494 138.96C172.267 139.68 172.654 140.573 172.654 141.64C172.654 142.68 172.267 143.56 171.494 144.28C170.747 144.973 169.787 145.32 168.614 145.32ZM191.903 145.32C190.703 145.32 189.716 144.973 188.943 144.28C188.196 143.56 187.823 142.68 187.823 141.64C187.823 140.573 188.196 139.68 188.943 138.96C189.716 138.24 190.703 137.88 191.903 137.88C193.076 137.88 194.036 138.24 194.783 138.96C195.556 139.68 195.943 140.573 195.943 141.64C195.943 142.68 195.556 143.56 194.783 144.28C194.036 144.973 193.076 145.32 191.903 145.32ZM215.192 145.32C213.992 145.32 213.005 144.973 212.232 144.28C211.485 143.56 211.112 142.68 211.112 141.64C211.112 140.573 211.485 139.68 212.232 138.96C213.005 138.24 213.992 137.88 215.192 137.88C216.365 137.88 217.325 138.24 218.072 138.96C218.845 139.68 219.232 140.573 219.232 141.64C219.232 142.68 218.845 143.56 218.072 144.28C217.325 144.973 216.365 145.32 215.192 145.32ZM238.481 145.32C237.281 145.32 236.294 144.973 235.521 144.28C234.774 143.56 234.401 142.68 234.401 141.64C234.401 140.573 234.774 139.68 235.521 138.96C236.294 138.24 237.281 137.88 238.481 137.88C239.654 137.88 240.614 138.24 241.361 138.96C242.134 139.68 242.521 140.573 242.521 141.64C242.521 142.68 242.134 143.56 241.361 144.28C240.614 144.973 239.654 145.32 238.481 145.32ZM261.77 145.32C260.57 145.32 259.583 144.973 258.81 144.28C258.063 143.56 257.69 142.68 257.69 141.64C257.69 140.573 258.063 139.68 258.81 138.96C259.583 138.24 260.57 137.88 261.77 137.88C262.943 137.88 263.903 138.24 264.65 138.96C265.423 139.68 265.81 140.573 265.81 141.64C265.81 142.68 265.423 143.56 264.65 144.28C263.903 144.973 262.943 145.32 261.77 145.32ZM285.059 145.32C283.859 145.32 282.872 144.973 282.099 144.28C281.352 143.56 280.979 142.68 280.979 141.64C280.979 140.573 281.352 139.68 282.099 138.96C282.872 138.24 283.859 137.88 285.059 137.88C286.232 137.88 287.192 138.24 287.939 138.96C288.712 139.68 289.099 140.573 289.099 141.64C289.099 142.68 288.712 143.56 287.939 144.28C287.192 144.973 286.232 145.32 285.059 145.32ZM308.348 145.32C307.148 145.32 306.161 144.973 305.388 144.28C304.641 143.56 304.268 142.68 304.268 141.64C304.268 140.573 304.641 139.68 305.388 138.96C306.161 138.24 307.148 137.88 308.348 137.88C309.521 137.88 310.481 138.24 311.228 138.96C312.001 139.68 312.388 140.573 312.388 141.64C312.388 142.68 312.001 143.56 311.228 144.28C310.481 144.973 309.521 145.32 308.348 145.32ZM-64.277 176.32C-65.477 176.32 -66.4637 175.973 -67.237 175.28C-67.9837 174.56 -68.357 173.68 -68.357 172.64C-68.357 171.573 -67.9837 170.68 -67.237 169.96C-66.4637 169.24 -65.477 168.88 -64.277 168.88C-63.1037 168.88 -62.1437 169.24 -61.397 169.96C-60.6237 170.68 -60.237 171.573 -60.237 172.64C-60.237 173.68 -60.6237 174.56 -61.397 175.28C-62.1437 175.973 -63.1037 176.32 -64.277 176.32ZM-40.988 176.32C-42.188 176.32 -43.1746 175.973 -43.948 175.28C-44.6946 174.56 -45.068 173.68 -45.068 172.64C-45.068 171.573 -44.6946 170.68 -43.948 169.96C-43.1746 169.24 -42.188 168.88 -40.988 168.88C-39.8146 168.88 -38.8546 169.24 -38.108 169.96C-37.3346 170.68 -36.948 171.573 -36.948 172.64C-36.948 173.68 -37.3346 174.56 -38.108 175.28C-38.8546 175.973 -39.8146 176.32 -40.988 176.32ZM-17.6989 176.32C-18.8989 176.32 -19.8856 175.973 -20.6589 175.28C-21.4056 174.56 -21.7789 173.68 -21.7789 172.64C-21.7789 171.573 -21.4056 170.68 -20.6589 169.96C-19.8856 169.24 -18.8989 168.88 -17.6989 168.88C-16.5256 168.88 -15.5656 169.24 -14.8189 169.96C-14.0456 170.68 -13.6589 171.573 -13.6589 172.64C-13.6589 173.68 -14.0456 174.56 -14.8189 175.28C-15.5656 175.973 -16.5256 176.32 -17.6989 176.32ZM5.59016 176.32C4.39016 176.32 3.40349 175.973 2.63016 175.28C1.88349 174.56 1.51016 173.68 1.51016 172.64C1.51016 171.573 1.88349 170.68 2.63016 169.96C3.40349 169.24 4.39016 168.88 5.59016 168.88C6.76349 168.88 7.72349 169.24 8.47016 169.96C9.24349 170.68 9.63016 171.573 9.63016 172.64C9.63016 173.68 9.24349 174.56 8.47016 175.28C7.72349 175.973 6.76349 176.32 5.59016 176.32ZM28.8792 176.32C27.6792 176.32 26.6926 175.973 25.9192 175.28C25.1726 174.56 24.7992 173.68 24.7992 172.64C24.7992 171.573 25.1726 170.68 25.9192 169.96C26.6926 169.24 27.6792 168.88 28.8792 168.88C30.0526 168.88 31.0126 169.24 31.7592 169.96C32.5326 170.68 32.9192 171.573 32.9192 172.64C32.9192 173.68 32.5326 174.56 31.7592 175.28C31.0126 175.973 30.0526 176.32 28.8792 176.32ZM52.1683 176.32C50.9683 176.32 49.9816 175.973 49.2083 175.28C48.4616 174.56 48.0883 173.68 48.0883 172.64C48.0883 171.573 48.4616 170.68 49.2083 169.96C49.9816 169.24 50.9683 168.88 52.1683 168.88C53.3416 168.88 54.3016 169.24 55.0483 169.96C55.8216 170.68 56.2083 171.573 56.2083 172.64C56.2083 173.68 55.8216 174.56 55.0483 175.28C54.3016 175.973 53.3416 176.32 52.1683 176.32ZM75.4573 176.32C74.2573 176.32 73.2707 175.973 72.4973 175.28C71.7507 174.56 71.3773 173.68 71.3773 172.64C71.3773 171.573 71.7507 170.68 72.4973 169.96C73.2707 169.24 74.2573 168.88 75.4573 168.88C76.6307 168.88 77.5907 169.24 78.3373 169.96C79.1107 170.68 79.4973 171.573 79.4973 172.64C79.4973 173.68 79.1107 174.56 78.3373 175.28C77.5907 175.973 76.6307 176.32 75.4573 176.32ZM98.7464 176.32C97.5464 176.32 96.5597 175.973 95.7864 175.28C95.0397 174.56 94.6664 173.68 94.6664 172.64C94.6664 171.573 95.0397 170.68 95.7864 169.96C96.5597 169.24 97.5464 168.88 98.7464 168.88C99.9197 168.88 100.88 169.24 101.626 169.96C102.4 170.68 102.786 171.573 102.786 172.64C102.786 173.68 102.4 174.56 101.626 175.28C100.88 175.973 99.9197 176.32 98.7464 176.32ZM122.035 176.32C120.835 176.32 119.849 175.973 119.075 175.28C118.329 174.56 117.955 173.68 117.955 172.64C117.955 171.573 118.329 170.68 119.075 169.96C119.849 169.24 120.835 168.88 122.035 168.88C123.209 168.88 124.169 169.24 124.915 169.96C125.689 170.68 126.075 171.573 126.075 172.64C126.075 173.68 125.689 174.56 124.915 175.28C124.169 175.973 123.209 176.32 122.035 176.32ZM145.325 176.32C144.125 176.32 143.138 175.973 142.365 175.28C141.618 174.56 141.245 173.68 141.245 172.64C141.245 171.573 141.618 170.68 142.365 169.96C143.138 169.24 144.125 168.88 145.325 168.88C146.498 168.88 147.458 169.24 148.205 169.96C148.978 170.68 149.365 171.573 149.365 172.64C149.365 173.68 148.978 174.56 148.205 175.28C147.458 175.973 146.498 176.32 145.325 176.32ZM168.614 176.32C167.414 176.32 166.427 175.973 165.654 175.28C164.907 174.56 164.534 173.68 164.534 172.64C164.534 171.573 164.907 170.68 165.654 169.96C166.427 169.24 167.414 168.88 168.614 168.88C169.787 168.88 170.747 169.24 171.494 169.96C172.267 170.68 172.654 171.573 172.654 172.64C172.654 173.68 172.267 174.56 171.494 175.28C170.747 175.973 169.787 176.32 168.614 176.32ZM191.903 176.32C190.703 176.32 189.716 175.973 188.943 175.28C188.196 174.56 187.823 173.68 187.823 172.64C187.823 171.573 188.196 170.68 188.943 169.96C189.716 169.24 190.703 168.88 191.903 168.88C193.076 168.88 194.036 169.24 194.783 169.96C195.556 170.68 195.943 171.573 195.943 172.64C195.943 173.68 195.556 174.56 194.783 175.28C194.036 175.973 193.076 176.32 191.903 176.32ZM215.192 176.32C213.992 176.32 213.005 175.973 212.232 175.28C211.485 174.56 211.112 173.68 211.112 172.64C211.112 171.573 211.485 170.68 212.232 169.96C213.005 169.24 213.992 168.88 215.192 168.88C216.365 168.88 217.325 169.24 218.072 169.96C218.845 170.68 219.232 171.573 219.232 172.64C219.232 173.68 218.845 174.56 218.072 175.28C217.325 175.973 216.365 176.32 215.192 176.32ZM238.481 176.32C237.281 176.32 236.294 175.973 235.521 175.28C234.774 174.56 234.401 173.68 234.401 172.64C234.401 171.573 234.774 170.68 235.521 169.96C236.294 169.24 237.281 168.88 238.481 168.88C239.654 168.88 240.614 169.24 241.361 169.96C242.134 170.68 242.521 171.573 242.521 172.64C242.521 173.68 242.134 174.56 241.361 175.28C240.614 175.973 239.654 176.32 238.481 176.32ZM261.77 176.32C260.57 176.32 259.583 175.973 258.81 175.28C258.063 174.56 257.69 173.68 257.69 172.64C257.69 171.573 258.063 170.68 258.81 169.96C259.583 169.24 260.57 168.88 261.77 168.88C262.943 168.88 263.903 169.24 264.65 169.96C265.423 170.68 265.81 171.573 265.81 172.64C265.81 173.68 265.423 174.56 264.65 175.28C263.903 175.973 262.943 176.32 261.77 176.32ZM285.059 176.32C283.859 176.32 282.872 175.973 282.099 175.28C281.352 174.56 280.979 173.68 280.979 172.64C280.979 171.573 281.352 170.68 282.099 169.96C282.872 169.24 283.859 168.88 285.059 168.88C286.232 168.88 287.192 169.24 287.939 169.96C288.712 170.68 289.099 171.573 289.099 172.64C289.099 173.68 288.712 174.56 287.939 175.28C287.192 175.973 286.232 176.32 285.059 176.32ZM308.348 176.32C307.148 176.32 306.161 175.973 305.388 175.28C304.641 174.56 304.268 173.68 304.268 172.64C304.268 171.573 304.641 170.68 305.388 169.96C306.161 169.24 307.148 168.88 308.348 168.88C309.521 168.88 310.481 169.24 311.228 169.96C312.001 170.68 312.388 171.573 312.388 172.64C312.388 173.68 312.001 174.56 311.228 175.28C310.481 175.973 309.521 176.32 308.348 176.32ZM-64.277 207.32C-65.477 207.32 -66.4637 206.973 -67.237 206.28C-67.9837 205.56 -68.357 204.68 -68.357 203.64C-68.357 202.573 -67.9837 201.68 -67.237 200.96C-66.4637 200.24 -65.477 199.88 -64.277 199.88C-63.1037 199.88 -62.1437 200.24 -61.397 200.96C-60.6237 201.68 -60.237 202.573 -60.237 203.64C-60.237 204.68 -60.6237 205.56 -61.397 206.28C-62.1437 206.973 -63.1037 207.32 -64.277 207.32ZM-40.988 207.32C-42.188 207.32 -43.1746 206.973 -43.948 206.28C-44.6946 205.56 -45.068 204.68 -45.068 203.64C-45.068 202.573 -44.6946 201.68 -43.948 200.96C-43.1746 200.24 -42.188 199.88 -40.988 199.88C-39.8146 199.88 -38.8546 200.24 -38.108 200.96C-37.3346 201.68 -36.948 202.573 -36.948 203.64C-36.948 204.68 -37.3346 205.56 -38.108 206.28C-38.8546 206.973 -39.8146 207.32 -40.988 207.32ZM-17.6989 207.32C-18.8989 207.32 -19.8856 206.973 -20.6589 206.28C-21.4056 205.56 -21.7789 204.68 -21.7789 203.64C-21.7789 202.573 -21.4056 201.68 -20.6589 200.96C-19.8856 200.24 -18.8989 199.88 -17.6989 199.88C-16.5256 199.88 -15.5656 200.24 -14.8189 200.96C-14.0456 201.68 -13.6589 202.573 -13.6589 203.64C-13.6589 204.68 -14.0456 205.56 -14.8189 206.28C-15.5656 206.973 -16.5256 207.32 -17.6989 207.32ZM5.59016 207.32C4.39016 207.32 3.40349 206.973 2.63016 206.28C1.88349 205.56 1.51016 204.68 1.51016 203.64C1.51016 202.573 1.88349 201.68 2.63016 200.96C3.40349 200.24 4.39016 199.88 5.59016 199.88C6.76349 199.88 7.72349 200.24 8.47016 200.96C9.24349 201.68 9.63016 202.573 9.63016 203.64C9.63016 204.68 9.24349 205.56 8.47016 206.28C7.72349 206.973 6.76349 207.32 5.59016 207.32ZM28.8792 207.32C27.6792 207.32 26.6926 206.973 25.9192 206.28C25.1726 205.56 24.7992 204.68 24.7992 203.64C24.7992 202.573 25.1726 201.68 25.9192 200.96C26.6926 200.24 27.6792 199.88 28.8792 199.88C30.0526 199.88 31.0126 200.24 31.7592 200.96C32.5326 201.68 32.9192 202.573 32.9192 203.64C32.9192 204.68 32.5326 205.56 31.7592 206.28C31.0126 206.973 30.0526 207.32 28.8792 207.32ZM52.1683 207.32C50.9683 207.32 49.9816 206.973 49.2083 206.28C48.4616 205.56 48.0883 204.68 48.0883 203.64C48.0883 202.573 48.4616 201.68 49.2083 200.96C49.9816 200.24 50.9683 199.88 52.1683 199.88C53.3416 199.88 54.3016 200.24 55.0483 200.96C55.8216 201.68 56.2083 202.573 56.2083 203.64C56.2083 204.68 55.8216 205.56 55.0483 206.28C54.3016 206.973 53.3416 207.32 52.1683 207.32ZM75.4573 207.32C74.2573 207.32 73.2707 206.973 72.4973 206.28C71.7507 205.56 71.3773 204.68 71.3773 203.64C71.3773 202.573 71.7507 201.68 72.4973 200.96C73.2707 200.24 74.2573 199.88 75.4573 199.88C76.6307 199.88 77.5907 200.24 78.3373 200.96C79.1107 201.68 79.4973 202.573 79.4973 203.64C79.4973 204.68 79.1107 205.56 78.3373 206.28C77.5907 206.973 76.6307 207.32 75.4573 207.32ZM98.7464 207.32C97.5464 207.32 96.5597 206.973 95.7864 206.28C95.0397 205.56 94.6664 204.68 94.6664 203.64C94.6664 202.573 95.0397 201.68 95.7864 200.96C96.5597 200.24 97.5464 199.88 98.7464 199.88C99.9197 199.88 100.88 200.24 101.626 200.96C102.4 201.68 102.786 202.573 102.786 203.64C102.786 204.68 102.4 205.56 101.626 206.28C100.88 206.973 99.9197 207.32 98.7464 207.32ZM122.035 207.32C120.835 207.32 119.849 206.973 119.075 206.28C118.329 205.56 117.955 204.68 117.955 203.64C117.955 202.573 118.329 201.68 119.075 200.96C119.849 200.24 120.835 199.88 122.035 199.88C123.209 199.88 124.169 200.24 124.915 200.96C125.689 201.68 126.075 202.573 126.075 203.64C126.075 204.68 125.689 205.56 124.915 206.28C124.169 206.973 123.209 207.32 122.035 207.32ZM145.325 207.32C144.125 207.32 143.138 206.973 142.365 206.28C141.618 205.56 141.245 204.68 141.245 203.64C141.245 202.573 141.618 201.68 142.365 200.96C143.138 200.24 144.125 199.88 145.325 199.88C146.498 199.88 147.458 200.24 148.205 200.96C148.978 201.68 149.365 202.573 149.365 203.64C149.365 204.68 148.978 205.56 148.205 206.28C147.458 206.973 146.498 207.32 145.325 207.32ZM168.614 207.32C167.414 207.32 166.427 206.973 165.654 206.28C164.907 205.56 164.534 204.68 164.534 203.64C164.534 202.573 164.907 201.68 165.654 200.96C166.427 200.24 167.414 199.88 168.614 199.88C169.787 199.88 170.747 200.24 171.494 200.96C172.267 201.68 172.654 202.573 172.654 203.64C172.654 204.68 172.267 205.56 171.494 206.28C170.747 206.973 169.787 207.32 168.614 207.32ZM191.903 207.32C190.703 207.32 189.716 206.973 188.943 206.28C188.196 205.56 187.823 204.68 187.823 203.64C187.823 202.573 188.196 201.68 188.943 200.96C189.716 200.24 190.703 199.88 191.903 199.88C193.076 199.88 194.036 200.24 194.783 200.96C195.556 201.68 195.943 202.573 195.943 203.64C195.943 204.68 195.556 205.56 194.783 206.28C194.036 206.973 193.076 207.32 191.903 207.32ZM215.192 207.32C213.992 207.32 213.005 206.973 212.232 206.28C211.485 205.56 211.112 204.68 211.112 203.64C211.112 202.573 211.485 201.68 212.232 200.96C213.005 200.24 213.992 199.88 215.192 199.88C216.365 199.88 217.325 200.24 218.072 200.96C218.845 201.68 219.232 202.573 219.232 203.64C219.232 204.68 218.845 205.56 218.072 206.28C217.325 206.973 216.365 207.32 215.192 207.32ZM238.481 207.32C237.281 207.32 236.294 206.973 235.521 206.28C234.774 205.56 234.401 204.68 234.401 203.64C234.401 202.573 234.774 201.68 235.521 200.96C236.294 200.24 237.281 199.88 238.481 199.88C239.654 199.88 240.614 200.24 241.361 200.96C242.134 201.68 242.521 202.573 242.521 203.64C242.521 204.68 242.134 205.56 241.361 206.28C240.614 206.973 239.654 207.32 238.481 207.32ZM261.77 207.32C260.57 207.32 259.583 206.973 258.81 206.28C258.063 205.56 257.69 204.68 257.69 203.64C257.69 202.573 258.063 201.68 258.81 200.96C259.583 200.24 260.57 199.88 261.77 199.88C262.943 199.88 263.903 200.24 264.65 200.96C265.423 201.68 265.81 202.573 265.81 203.64C265.81 204.68 265.423 205.56 264.65 206.28C263.903 206.973 262.943 207.32 261.77 207.32ZM285.059 207.32C283.859 207.32 282.872 206.973 282.099 206.28C281.352 205.56 280.979 204.68 280.979 203.64C280.979 202.573 281.352 201.68 282.099 200.96C282.872 200.24 283.859 199.88 285.059 199.88C286.232 199.88 287.192 200.24 287.939 200.96C288.712 201.68 289.099 202.573 289.099 203.64C289.099 204.68 288.712 205.56 287.939 206.28C287.192 206.973 286.232 207.32 285.059 207.32ZM308.348 207.32C307.148 207.32 306.161 206.973 305.388 206.28C304.641 205.56 304.268 204.68 304.268 203.64C304.268 202.573 304.641 201.68 305.388 200.96C306.161 200.24 307.148 199.88 308.348 199.88C309.521 199.88 310.481 200.24 311.228 200.96C312.001 201.68 312.388 202.573 312.388 203.64C312.388 204.68 312.001 205.56 311.228 206.28C310.481 206.973 309.521 207.32 308.348 207.32ZM-64.277 238.32C-65.477 238.32 -66.4637 237.973 -67.237 237.28C-67.9837 236.56 -68.357 235.68 -68.357 234.64C-68.357 233.573 -67.9837 232.68 -67.237 231.96C-66.4637 231.24 -65.477 230.88 -64.277 230.88C-63.1037 230.88 -62.1437 231.24 -61.397 231.96C-60.6237 232.68 -60.237 233.573 -60.237 234.64C-60.237 235.68 -60.6237 236.56 -61.397 237.28C-62.1437 237.973 -63.1037 238.32 -64.277 238.32ZM-40.988 238.32C-42.188 238.32 -43.1746 237.973 -43.948 237.28C-44.6946 236.56 -45.068 235.68 -45.068 234.64C-45.068 233.573 -44.6946 232.68 -43.948 231.96C-43.1746 231.24 -42.188 230.88 -40.988 230.88C-39.8146 230.88 -38.8546 231.24 -38.108 231.96C-37.3346 232.68 -36.948 233.573 -36.948 234.64C-36.948 235.68 -37.3346 236.56 -38.108 237.28C-38.8546 237.973 -39.8146 238.32 -40.988 238.32ZM-17.6989 238.32C-18.8989 238.32 -19.8856 237.973 -20.6589 237.28C-21.4056 236.56 -21.7789 235.68 -21.7789 234.64C-21.7789 233.573 -21.4056 232.68 -20.6589 231.96C-19.8856 231.24 -18.8989 230.88 -17.6989 230.88C-16.5256 230.88 -15.5656 231.24 -14.8189 231.96C-14.0456 232.68 -13.6589 233.573 -13.6589 234.64C-13.6589 235.68 -14.0456 236.56 -14.8189 237.28C-15.5656 237.973 -16.5256 238.32 -17.6989 238.32ZM5.59016 238.32C4.39016 238.32 3.40349 237.973 2.63016 237.28C1.88349 236.56 1.51016 235.68 1.51016 234.64C1.51016 233.573 1.88349 232.68 2.63016 231.96C3.40349 231.24 4.39016 230.88 5.59016 230.88C6.76349 230.88 7.72349 231.24 8.47016 231.96C9.24349 232.68 9.63016 233.573 9.63016 234.64C9.63016 235.68 9.24349 236.56 8.47016 237.28C7.72349 237.973 6.76349 238.32 5.59016 238.32ZM28.8792 238.32C27.6792 238.32 26.6926 237.973 25.9192 237.28C25.1726 236.56 24.7992 235.68 24.7992 234.64C24.7992 233.573 25.1726 232.68 25.9192 231.96C26.6926 231.24 27.6792 230.88 28.8792 230.88C30.0526 230.88 31.0126 231.24 31.7592 231.96C32.5326 232.68 32.9192 233.573 32.9192 234.64C32.9192 235.68 32.5326 236.56 31.7592 237.28C31.0126 237.973 30.0526 238.32 28.8792 238.32ZM52.1683 238.32C50.9683 238.32 49.9816 237.973 49.2083 237.28C48.4616 236.56 48.0883 235.68 48.0883 234.64C48.0883 233.573 48.4616 232.68 49.2083 231.96C49.9816 231.24 50.9683 230.88 52.1683 230.88C53.3416 230.88 54.3016 231.24 55.0483 231.96C55.8216 232.68 56.2083 233.573 56.2083 234.64C56.2083 235.68 55.8216 236.56 55.0483 237.28C54.3016 237.973 53.3416 238.32 52.1683 238.32ZM75.4573 238.32C74.2573 238.32 73.2707 237.973 72.4973 237.28C71.7507 236.56 71.3773 235.68 71.3773 234.64C71.3773 233.573 71.7507 232.68 72.4973 231.96C73.2707 231.24 74.2573 230.88 75.4573 230.88C76.6307 230.88 77.5907 231.24 78.3373 231.96C79.1107 232.68 79.4973 233.573 79.4973 234.64C79.4973 235.68 79.1107 236.56 78.3373 237.28C77.5907 237.973 76.6307 238.32 75.4573 238.32ZM98.7464 238.32C97.5464 238.32 96.5597 237.973 95.7864 237.28C95.0397 236.56 94.6664 235.68 94.6664 234.64C94.6664 233.573 95.0397 232.68 95.7864 231.96C96.5597 231.24 97.5464 230.88 98.7464 230.88C99.9197 230.88 100.88 231.24 101.626 231.96C102.4 232.68 102.786 233.573 102.786 234.64C102.786 235.68 102.4 236.56 101.626 237.28C100.88 237.973 99.9197 238.32 98.7464 238.32ZM122.035 238.32C120.835 238.32 119.849 237.973 119.075 237.28C118.329 236.56 117.955 235.68 117.955 234.64C117.955 233.573 118.329 232.68 119.075 231.96C119.849 231.24 120.835 230.88 122.035 230.88C123.209 230.88 124.169 231.24 124.915 231.96C125.689 232.68 126.075 233.573 126.075 234.64C126.075 235.68 125.689 236.56 124.915 237.28C124.169 237.973 123.209 238.32 122.035 238.32ZM145.325 238.32C144.125 238.32 143.138 237.973 142.365 237.28C141.618 236.56 141.245 235.68 141.245 234.64C141.245 233.573 141.618 232.68 142.365 231.96C143.138 231.24 144.125 230.88 145.325 230.88C146.498 230.88 147.458 231.24 148.205 231.96C148.978 232.68 149.365 233.573 149.365 234.64C149.365 235.68 148.978 236.56 148.205 237.28C147.458 237.973 146.498 238.32 145.325 238.32ZM168.614 238.32C167.414 238.32 166.427 237.973 165.654 237.28C164.907 236.56 164.534 235.68 164.534 234.64C164.534 233.573 164.907 232.68 165.654 231.96C166.427 231.24 167.414 230.88 168.614 230.88C169.787 230.88 170.747 231.24 171.494 231.96C172.267 232.68 172.654 233.573 172.654 234.64C172.654 235.68 172.267 236.56 171.494 237.28C170.747 237.973 169.787 238.32 168.614 238.32ZM191.903 238.32C190.703 238.32 189.716 237.973 188.943 237.28C188.196 236.56 187.823 235.68 187.823 234.64C187.823 233.573 188.196 232.68 188.943 231.96C189.716 231.24 190.703 230.88 191.903 230.88C193.076 230.88 194.036 231.24 194.783 231.96C195.556 232.68 195.943 233.573 195.943 234.64C195.943 235.68 195.556 236.56 194.783 237.28C194.036 237.973 193.076 238.32 191.903 238.32ZM215.192 238.32C213.992 238.32 213.005 237.973 212.232 237.28C211.485 236.56 211.112 235.68 211.112 234.64C211.112 233.573 211.485 232.68 212.232 231.96C213.005 231.24 213.992 230.88 215.192 230.88C216.365 230.88 217.325 231.24 218.072 231.96C218.845 232.68 219.232 233.573 219.232 234.64C219.232 235.68 218.845 236.56 218.072 237.28C217.325 237.973 216.365 238.32 215.192 238.32ZM238.481 238.32C237.281 238.32 236.294 237.973 235.521 237.28C234.774 236.56 234.401 235.68 234.401 234.64C234.401 233.573 234.774 232.68 235.521 231.96C236.294 231.24 237.281 230.88 238.481 230.88C239.654 230.88 240.614 231.24 241.361 231.96C242.134 232.68 242.521 233.573 242.521 234.64C242.521 235.68 242.134 236.56 241.361 237.28C240.614 237.973 239.654 238.32 238.481 238.32ZM261.77 238.32C260.57 238.32 259.583 237.973 258.81 237.28C258.063 236.56 257.69 235.68 257.69 234.64C257.69 233.573 258.063 232.68 258.81 231.96C259.583 231.24 260.57 230.88 261.77 230.88C262.943 230.88 263.903 231.24 264.65 231.96C265.423 232.68 265.81 233.573 265.81 234.64C265.81 235.68 265.423 236.56 264.65 237.28C263.903 237.973 262.943 238.32 261.77 238.32ZM285.059 238.32C283.859 238.32 282.872 237.973 282.099 237.28C281.352 236.56 280.979 235.68 280.979 234.64C280.979 233.573 281.352 232.68 282.099 231.96C282.872 231.24 283.859 230.88 285.059 230.88C286.232 230.88 287.192 231.24 287.939 231.96C288.712 232.68 289.099 233.573 289.099 234.64C289.099 235.68 288.712 236.56 287.939 237.28C287.192 237.973 286.232 238.32 285.059 238.32ZM308.348 238.32C307.148 238.32 306.161 237.973 305.388 237.28C304.641 236.56 304.268 235.68 304.268 234.64C304.268 233.573 304.641 232.68 305.388 231.96C306.161 231.24 307.148 230.88 308.348 230.88C309.521 230.88 310.481 231.24 311.228 231.96C312.001 232.68 312.388 233.573 312.388 234.64C312.388 235.68 312.001 236.56 311.228 237.28C310.481 237.973 309.521 238.32 308.348 238.32ZM-64.277 269.32C-65.477 269.32 -66.4637 268.973 -67.237 268.28C-67.9837 267.56 -68.357 266.68 -68.357 265.64C-68.357 264.573 -67.9837 263.68 -67.237 262.96C-66.4637 262.24 -65.477 261.88 -64.277 261.88C-63.1037 261.88 -62.1437 262.24 -61.397 262.96C-60.6237 263.68 -60.237 264.573 -60.237 265.64C-60.237 266.68 -60.6237 267.56 -61.397 268.28C-62.1437 268.973 -63.1037 269.32 -64.277 269.32ZM-40.988 269.32C-42.188 269.32 -43.1746 268.973 -43.948 268.28C-44.6946 267.56 -45.068 266.68 -45.068 265.64C-45.068 264.573 -44.6946 263.68 -43.948 262.96C-43.1746 262.24 -42.188 261.88 -40.988 261.88C-39.8146 261.88 -38.8546 262.24 -38.108 262.96C-37.3346 263.68 -36.948 264.573 -36.948 265.64C-36.948 266.68 -37.3346 267.56 -38.108 268.28C-38.8546 268.973 -39.8146 269.32 -40.988 269.32ZM-17.6989 269.32C-18.8989 269.32 -19.8856 268.973 -20.6589 268.28C-21.4056 267.56 -21.7789 266.68 -21.7789 265.64C-21.7789 264.573 -21.4056 263.68 -20.6589 262.96C-19.8856 262.24 -18.8989 261.88 -17.6989 261.88C-16.5256 261.88 -15.5656 262.24 -14.8189 262.96C-14.0456 263.68 -13.6589 264.573 -13.6589 265.64C-13.6589 266.68 -14.0456 267.56 -14.8189 268.28C-15.5656 268.973 -16.5256 269.32 -17.6989 269.32ZM5.59016 269.32C4.39016 269.32 3.40349 268.973 2.63016 268.28C1.88349 267.56 1.51016 266.68 1.51016 265.64C1.51016 264.573 1.88349 263.68 2.63016 262.96C3.40349 262.24 4.39016 261.88 5.59016 261.88C6.76349 261.88 7.72349 262.24 8.47016 262.96C9.24349 263.68 9.63016 264.573 9.63016 265.64C9.63016 266.68 9.24349 267.56 8.47016 268.28C7.72349 268.973 6.76349 269.32 5.59016 269.32ZM28.8792 269.32C27.6792 269.32 26.6926 268.973 25.9192 268.28C25.1726 267.56 24.7992 266.68 24.7992 265.64C24.7992 264.573 25.1726 263.68 25.9192 262.96C26.6926 262.24 27.6792 261.88 28.8792 261.88C30.0526 261.88 31.0126 262.24 31.7592 262.96C32.5326 263.68 32.9192 264.573 32.9192 265.64C32.9192 266.68 32.5326 267.56 31.7592 268.28C31.0126 268.973 30.0526 269.32 28.8792 269.32ZM52.1683 269.32C50.9683 269.32 49.9816 268.973 49.2083 268.28C48.4616 267.56 48.0883 266.68 48.0883 265.64C48.0883 264.573 48.4616 263.68 49.2083 262.96C49.9816 262.24 50.9683 261.88 52.1683 261.88C53.3416 261.88 54.3016 262.24 55.0483 262.96C55.8216 263.68 56.2083 264.573 56.2083 265.64C56.2083 266.68 55.8216 267.56 55.0483 268.28C54.3016 268.973 53.3416 269.32 52.1683 269.32ZM75.4573 269.32C74.2573 269.32 73.2707 268.973 72.4973 268.28C71.7507 267.56 71.3773 266.68 71.3773 265.64C71.3773 264.573 71.7507 263.68 72.4973 262.96C73.2707 262.24 74.2573 261.88 75.4573 261.88C76.6307 261.88 77.5907 262.24 78.3373 262.96C79.1107 263.68 79.4973 264.573 79.4973 265.64C79.4973 266.68 79.1107 267.56 78.3373 268.28C77.5907 268.973 76.6307 269.32 75.4573 269.32ZM98.7464 269.32C97.5464 269.32 96.5597 268.973 95.7864 268.28C95.0397 267.56 94.6664 266.68 94.6664 265.64C94.6664 264.573 95.0397 263.68 95.7864 262.96C96.5597 262.24 97.5464 261.88 98.7464 261.88C99.9197 261.88 100.88 262.24 101.626 262.96C102.4 263.68 102.786 264.573 102.786 265.64C102.786 266.68 102.4 267.56 101.626 268.28C100.88 268.973 99.9197 269.32 98.7464 269.32ZM122.035 269.32C120.835 269.32 119.849 268.973 119.075 268.28C118.329 267.56 117.955 266.68 117.955 265.64C117.955 264.573 118.329 263.68 119.075 262.96C119.849 262.24 120.835 261.88 122.035 261.88C123.209 261.88 124.169 262.24 124.915 262.96C125.689 263.68 126.075 264.573 126.075 265.64C126.075 266.68 125.689 267.56 124.915 268.28C124.169 268.973 123.209 269.32 122.035 269.32ZM145.325 269.32C144.125 269.32 143.138 268.973 142.365 268.28C141.618 267.56 141.245 266.68 141.245 265.64C141.245 264.573 141.618 263.68 142.365 262.96C143.138 262.24 144.125 261.88 145.325 261.88C146.498 261.88 147.458 262.24 148.205 262.96C148.978 263.68 149.365 264.573 149.365 265.64C149.365 266.68 148.978 267.56 148.205 268.28C147.458 268.973 146.498 269.32 145.325 269.32ZM168.614 269.32C167.414 269.32 166.427 268.973 165.654 268.28C164.907 267.56 164.534 266.68 164.534 265.64C164.534 264.573 164.907 263.68 165.654 262.96C166.427 262.24 167.414 261.88 168.614 261.88C169.787 261.88 170.747 262.24 171.494 262.96C172.267 263.68 172.654 264.573 172.654 265.64C172.654 266.68 172.267 267.56 171.494 268.28C170.747 268.973 169.787 269.32 168.614 269.32ZM191.903 269.32C190.703 269.32 189.716 268.973 188.943 268.28C188.196 267.56 187.823 266.68 187.823 265.64C187.823 264.573 188.196 263.68 188.943 262.96C189.716 262.24 190.703 261.88 191.903 261.88C193.076 261.88 194.036 262.24 194.783 262.96C195.556 263.68 195.943 264.573 195.943 265.64C195.943 266.68 195.556 267.56 194.783 268.28C194.036 268.973 193.076 269.32 191.903 269.32ZM215.192 269.32C213.992 269.32 213.005 268.973 212.232 268.28C211.485 267.56 211.112 266.68 211.112 265.64C211.112 264.573 211.485 263.68 212.232 262.96C213.005 262.24 213.992 261.88 215.192 261.88C216.365 261.88 217.325 262.24 218.072 262.96C218.845 263.68 219.232 264.573 219.232 265.64C219.232 266.68 218.845 267.56 218.072 268.28C217.325 268.973 216.365 269.32 215.192 269.32ZM238.481 269.32C237.281 269.32 236.294 268.973 235.521 268.28C234.774 267.56 234.401 266.68 234.401 265.64C234.401 264.573 234.774 263.68 235.521 262.96C236.294 262.24 237.281 261.88 238.481 261.88C239.654 261.88 240.614 262.24 241.361 262.96C242.134 263.68 242.521 264.573 242.521 265.64C242.521 266.68 242.134 267.56 241.361 268.28C240.614 268.973 239.654 269.32 238.481 269.32ZM261.77 269.32C260.57 269.32 259.583 268.973 258.81 268.28C258.063 267.56 257.69 266.68 257.69 265.64C257.69 264.573 258.063 263.68 258.81 262.96C259.583 262.24 260.57 261.88 261.77 261.88C262.943 261.88 263.903 262.24 264.65 262.96C265.423 263.68 265.81 264.573 265.81 265.64C265.81 266.68 265.423 267.56 264.65 268.28C263.903 268.973 262.943 269.32 261.77 269.32ZM285.059 269.32C283.859 269.32 282.872 268.973 282.099 268.28C281.352 267.56 280.979 266.68 280.979 265.64C280.979 264.573 281.352 263.68 282.099 262.96C282.872 262.24 283.859 261.88 285.059 261.88C286.232 261.88 287.192 262.24 287.939 262.96C288.712 263.68 289.099 264.573 289.099 265.64C289.099 266.68 288.712 267.56 287.939 268.28C287.192 268.973 286.232 269.32 285.059 269.32ZM308.348 269.32C307.148 269.32 306.161 268.973 305.388 268.28C304.641 267.56 304.268 266.68 304.268 265.64C304.268 264.573 304.641 263.68 305.388 262.96C306.161 262.24 307.148 261.88 308.348 261.88C309.521 261.88 310.481 262.24 311.228 262.96C312.001 263.68 312.388 264.573 312.388 265.64C312.388 266.68 312.001 267.56 311.228 268.28C310.481 268.973 309.521 269.32 308.348 269.32ZM-64.277 300.32C-65.477 300.32 -66.4637 299.973 -67.237 299.28C-67.9837 298.56 -68.357 297.68 -68.357 296.64C-68.357 295.573 -67.9837 294.68 -67.237 293.96C-66.4637 293.24 -65.477 292.88 -64.277 292.88C-63.1037 292.88 -62.1437 293.24 -61.397 293.96C-60.6237 294.68 -60.237 295.573 -60.237 296.64C-60.237 297.68 -60.6237 298.56 -61.397 299.28C-62.1437 299.973 -63.1037 300.32 -64.277 300.32ZM-40.988 300.32C-42.188 300.32 -43.1746 299.973 -43.948 299.28C-44.6946 298.56 -45.068 297.68 -45.068 296.64C-45.068 295.573 -44.6946 294.68 -43.948 293.96C-43.1746 293.24 -42.188 292.88 -40.988 292.88C-39.8146 292.88 -38.8546 293.24 -38.108 293.96C-37.3346 294.68 -36.948 295.573 -36.948 296.64C-36.948 297.68 -37.3346 298.56 -38.108 299.28C-38.8546 299.973 -39.8146 300.32 -40.988 300.32ZM-17.6989 300.32C-18.8989 300.32 -19.8856 299.973 -20.6589 299.28C-21.4056 298.56 -21.7789 297.68 -21.7789 296.64C-21.7789 295.573 -21.4056 294.68 -20.6589 293.96C-19.8856 293.24 -18.8989 292.88 -17.6989 292.88C-16.5256 292.88 -15.5656 293.24 -14.8189 293.96C-14.0456 294.68 -13.6589 295.573 -13.6589 296.64C-13.6589 297.68 -14.0456 298.56 -14.8189 299.28C-15.5656 299.973 -16.5256 300.32 -17.6989 300.32ZM5.59016 300.32C4.39016 300.32 3.40349 299.973 2.63016 299.28C1.88349 298.56 1.51016 297.68 1.51016 296.64C1.51016 295.573 1.88349 294.68 2.63016 293.96C3.40349 293.24 4.39016 292.88 5.59016 292.88C6.76349 292.88 7.72349 293.24 8.47016 293.96C9.24349 294.68 9.63016 295.573 9.63016 296.64C9.63016 297.68 9.24349 298.56 8.47016 299.28C7.72349 299.973 6.76349 300.32 5.59016 300.32ZM28.8792 300.32C27.6792 300.32 26.6926 299.973 25.9192 299.28C25.1726 298.56 24.7992 297.68 24.7992 296.64C24.7992 295.573 25.1726 294.68 25.9192 293.96C26.6926 293.24 27.6792 292.88 28.8792 292.88C30.0526 292.88 31.0126 293.24 31.7592 293.96C32.5326 294.68 32.9192 295.573 32.9192 296.64C32.9192 297.68 32.5326 298.56 31.7592 299.28C31.0126 299.973 30.0526 300.32 28.8792 300.32ZM52.1683 300.32C50.9683 300.32 49.9816 299.973 49.2083 299.28C48.4616 298.56 48.0883 297.68 48.0883 296.64C48.0883 295.573 48.4616 294.68 49.2083 293.96C49.9816 293.24 50.9683 292.88 52.1683 292.88C53.3416 292.88 54.3016 293.24 55.0483 293.96C55.8216 294.68 56.2083 295.573 56.2083 296.64C56.2083 297.68 55.8216 298.56 55.0483 299.28C54.3016 299.973 53.3416 300.32 52.1683 300.32ZM75.4573 300.32C74.2573 300.32 73.2707 299.973 72.4973 299.28C71.7507 298.56 71.3773 297.68 71.3773 296.64C71.3773 295.573 71.7507 294.68 72.4973 293.96C73.2707 293.24 74.2573 292.88 75.4573 292.88C76.6307 292.88 77.5907 293.24 78.3373 293.96C79.1107 294.68 79.4973 295.573 79.4973 296.64C79.4973 297.68 79.1107 298.56 78.3373 299.28C77.5907 299.973 76.6307 300.32 75.4573 300.32ZM98.7464 300.32C97.5464 300.32 96.5597 299.973 95.7864 299.28C95.0397 298.56 94.6664 297.68 94.6664 296.64C94.6664 295.573 95.0397 294.68 95.7864 293.96C96.5597 293.24 97.5464 292.88 98.7464 292.88C99.9197 292.88 100.88 293.24 101.626 293.96C102.4 294.68 102.786 295.573 102.786 296.64C102.786 297.68 102.4 298.56 101.626 299.28C100.88 299.973 99.9197 300.32 98.7464 300.32ZM122.035 300.32C120.835 300.32 119.849 299.973 119.075 299.28C118.329 298.56 117.955 297.68 117.955 296.64C117.955 295.573 118.329 294.68 119.075 293.96C119.849 293.24 120.835 292.88 122.035 292.88C123.209 292.88 124.169 293.24 124.915 293.96C125.689 294.68 126.075 295.573 126.075 296.64C126.075 297.68 125.689 298.56 124.915 299.28C124.169 299.973 123.209 300.32 122.035 300.32ZM145.325 300.32C144.125 300.32 143.138 299.973 142.365 299.28C141.618 298.56 141.245 297.68 141.245 296.64C141.245 295.573 141.618 294.68 142.365 293.96C143.138 293.24 144.125 292.88 145.325 292.88C146.498 292.88 147.458 293.24 148.205 293.96C148.978 294.68 149.365 295.573 149.365 296.64C149.365 297.68 148.978 298.56 148.205 299.28C147.458 299.973 146.498 300.32 145.325 300.32ZM168.614 300.32C167.414 300.32 166.427 299.973 165.654 299.28C164.907 298.56 164.534 297.68 164.534 296.64C164.534 295.573 164.907 294.68 165.654 293.96C166.427 293.24 167.414 292.88 168.614 292.88C169.787 292.88 170.747 293.24 171.494 293.96C172.267 294.68 172.654 295.573 172.654 296.64C172.654 297.68 172.267 298.56 171.494 299.28C170.747 299.973 169.787 300.32 168.614 300.32ZM191.903 300.32C190.703 300.32 189.716 299.973 188.943 299.28C188.196 298.56 187.823 297.68 187.823 296.64C187.823 295.573 188.196 294.68 188.943 293.96C189.716 293.24 190.703 292.88 191.903 292.88C193.076 292.88 194.036 293.24 194.783 293.96C195.556 294.68 195.943 295.573 195.943 296.64C195.943 297.68 195.556 298.56 194.783 299.28C194.036 299.973 193.076 300.32 191.903 300.32ZM215.192 300.32C213.992 300.32 213.005 299.973 212.232 299.28C211.485 298.56 211.112 297.68 211.112 296.64C211.112 295.573 211.485 294.68 212.232 293.96C213.005 293.24 213.992 292.88 215.192 292.88C216.365 292.88 217.325 293.24 218.072 293.96C218.845 294.68 219.232 295.573 219.232 296.64C219.232 297.68 218.845 298.56 218.072 299.28C217.325 299.973 216.365 300.32 215.192 300.32ZM238.481 300.32C237.281 300.32 236.294 299.973 235.521 299.28C234.774 298.56 234.401 297.68 234.401 296.64C234.401 295.573 234.774 294.68 235.521 293.96C236.294 293.24 237.281 292.88 238.481 292.88C239.654 292.88 240.614 293.24 241.361 293.96C242.134 294.68 242.521 295.573 242.521 296.64C242.521 297.68 242.134 298.56 241.361 299.28C240.614 299.973 239.654 300.32 238.481 300.32ZM261.77 300.32C260.57 300.32 259.583 299.973 258.81 299.28C258.063 298.56 257.69 297.68 257.69 296.64C257.69 295.573 258.063 294.68 258.81 293.96C259.583 293.24 260.57 292.88 261.77 292.88C262.943 292.88 263.903 293.24 264.65 293.96C265.423 294.68 265.81 295.573 265.81 296.64C265.81 297.68 265.423 298.56 264.65 299.28C263.903 299.973 262.943 300.32 261.77 300.32ZM285.059 300.32C283.859 300.32 282.872 299.973 282.099 299.28C281.352 298.56 280.979 297.68 280.979 296.64C280.979 295.573 281.352 294.68 282.099 293.96C282.872 293.24 283.859 292.88 285.059 292.88C286.232 292.88 287.192 293.24 287.939 293.96C288.712 294.68 289.099 295.573 289.099 296.64C289.099 297.68 288.712 298.56 287.939 299.28C287.192 299.973 286.232 300.32 285.059 300.32ZM308.348 300.32C307.148 300.32 306.161 299.973 305.388 299.28C304.641 298.56 304.268 297.68 304.268 296.64C304.268 295.573 304.641 294.68 305.388 293.96C306.161 293.24 307.148 292.88 308.348 292.88C309.521 292.88 310.481 293.24 311.228 293.96C312.001 294.68 312.388 295.573 312.388 296.64C312.388 297.68 312.001 298.56 311.228 299.28C310.481 299.973 309.521 300.32 308.348 300.32ZM-64.277 331.32C-65.477 331.32 -66.4637 330.973 -67.237 330.28C-67.9837 329.56 -68.357 328.68 -68.357 327.64C-68.357 326.573 -67.9837 325.68 -67.237 324.96C-66.4637 324.24 -65.477 323.88 -64.277 323.88C-63.1037 323.88 -62.1437 324.24 -61.397 324.96C-60.6237 325.68 -60.237 326.573 -60.237 327.64C-60.237 328.68 -60.6237 329.56 -61.397 330.28C-62.1437 330.973 -63.1037 331.32 -64.277 331.32ZM-40.988 331.32C-42.188 331.32 -43.1746 330.973 -43.948 330.28C-44.6946 329.56 -45.068 328.68 -45.068 327.64C-45.068 326.573 -44.6946 325.68 -43.948 324.96C-43.1746 324.24 -42.188 323.88 -40.988 323.88C-39.8146 323.88 -38.8546 324.24 -38.108 324.96C-37.3346 325.68 -36.948 326.573 -36.948 327.64C-36.948 328.68 -37.3346 329.56 -38.108 330.28C-38.8546 330.973 -39.8146 331.32 -40.988 331.32ZM-17.6989 331.32C-18.8989 331.32 -19.8856 330.973 -20.6589 330.28C-21.4056 329.56 -21.7789 328.68 -21.7789 327.64C-21.7789 326.573 -21.4056 325.68 -20.6589 324.96C-19.8856 324.24 -18.8989 323.88 -17.6989 323.88C-16.5256 323.88 -15.5656 324.24 -14.8189 324.96C-14.0456 325.68 -13.6589 326.573 -13.6589 327.64C-13.6589 328.68 -14.0456 329.56 -14.8189 330.28C-15.5656 330.973 -16.5256 331.32 -17.6989 331.32ZM5.59016 331.32C4.39016 331.32 3.40349 330.973 2.63016 330.28C1.88349 329.56 1.51016 328.68 1.51016 327.64C1.51016 326.573 1.88349 325.68 2.63016 324.96C3.40349 324.24 4.39016 323.88 5.59016 323.88C6.76349 323.88 7.72349 324.24 8.47016 324.96C9.24349 325.68 9.63016 326.573 9.63016 327.64C9.63016 328.68 9.24349 329.56 8.47016 330.28C7.72349 330.973 6.76349 331.32 5.59016 331.32ZM28.8792 331.32C27.6792 331.32 26.6926 330.973 25.9192 330.28C25.1726 329.56 24.7992 328.68 24.7992 327.64C24.7992 326.573 25.1726 325.68 25.9192 324.96C26.6926 324.24 27.6792 323.88 28.8792 323.88C30.0526 323.88 31.0126 324.24 31.7592 324.96C32.5326 325.68 32.9192 326.573 32.9192 327.64C32.9192 328.68 32.5326 329.56 31.7592 330.28C31.0126 330.973 30.0526 331.32 28.8792 331.32ZM52.1683 331.32C50.9683 331.32 49.9816 330.973 49.2083 330.28C48.4616 329.56 48.0883 328.68 48.0883 327.64C48.0883 326.573 48.4616 325.68 49.2083 324.96C49.9816 324.24 50.9683 323.88 52.1683 323.88C53.3416 323.88 54.3016 324.24 55.0483 324.96C55.8216 325.68 56.2083 326.573 56.2083 327.64C56.2083 328.68 55.8216 329.56 55.0483 330.28C54.3016 330.973 53.3416 331.32 52.1683 331.32ZM75.4573 331.32C74.2573 331.32 73.2707 330.973 72.4973 330.28C71.7507 329.56 71.3773 328.68 71.3773 327.64C71.3773 326.573 71.7507 325.68 72.4973 324.96C73.2707 324.24 74.2573 323.88 75.4573 323.88C76.6307 323.88 77.5907 324.24 78.3373 324.96C79.1107 325.68 79.4973 326.573 79.4973 327.64C79.4973 328.68 79.1107 329.56 78.3373 330.28C77.5907 330.973 76.6307 331.32 75.4573 331.32ZM98.7464 331.32C97.5464 331.32 96.5597 330.973 95.7864 330.28C95.0397 329.56 94.6664 328.68 94.6664 327.64C94.6664 326.573 95.0397 325.68 95.7864 324.96C96.5597 324.24 97.5464 323.88 98.7464 323.88C99.9197 323.88 100.88 324.24 101.626 324.96C102.4 325.68 102.786 326.573 102.786 327.64C102.786 328.68 102.4 329.56 101.626 330.28C100.88 330.973 99.9197 331.32 98.7464 331.32ZM122.035 331.32C120.835 331.32 119.849 330.973 119.075 330.28C118.329 329.56 117.955 328.68 117.955 327.64C117.955 326.573 118.329 325.68 119.075 324.96C119.849 324.24 120.835 323.88 122.035 323.88C123.209 323.88 124.169 324.24 124.915 324.96C125.689 325.68 126.075 326.573 126.075 327.64C126.075 328.68 125.689 329.56 124.915 330.28C124.169 330.973 123.209 331.32 122.035 331.32ZM145.325 331.32C144.125 331.32 143.138 330.973 142.365 330.28C141.618 329.56 141.245 328.68 141.245 327.64C141.245 326.573 141.618 325.68 142.365 324.96C143.138 324.24 144.125 323.88 145.325 323.88C146.498 323.88 147.458 324.24 148.205 324.96C148.978 325.68 149.365 326.573 149.365 327.64C149.365 328.68 148.978 329.56 148.205 330.28C147.458 330.973 146.498 331.32 145.325 331.32ZM168.614 331.32C167.414 331.32 166.427 330.973 165.654 330.28C164.907 329.56 164.534 328.68 164.534 327.64C164.534 326.573 164.907 325.68 165.654 324.96C166.427 324.24 167.414 323.88 168.614 323.88C169.787 323.88 170.747 324.24 171.494 324.96C172.267 325.68 172.654 326.573 172.654 327.64C172.654 328.68 172.267 329.56 171.494 330.28C170.747 330.973 169.787 331.32 168.614 331.32ZM191.903 331.32C190.703 331.32 189.716 330.973 188.943 330.28C188.196 329.56 187.823 328.68 187.823 327.64C187.823 326.573 188.196 325.68 188.943 324.96C189.716 324.24 190.703 323.88 191.903 323.88C193.076 323.88 194.036 324.24 194.783 324.96C195.556 325.68 195.943 326.573 195.943 327.64C195.943 328.68 195.556 329.56 194.783 330.28C194.036 330.973 193.076 331.32 191.903 331.32ZM215.192 331.32C213.992 331.32 213.005 330.973 212.232 330.28C211.485 329.56 211.112 328.68 211.112 327.64C211.112 326.573 211.485 325.68 212.232 324.96C213.005 324.24 213.992 323.88 215.192 323.88C216.365 323.88 217.325 324.24 218.072 324.96C218.845 325.68 219.232 326.573 219.232 327.64C219.232 328.68 218.845 329.56 218.072 330.28C217.325 330.973 216.365 331.32 215.192 331.32ZM238.481 331.32C237.281 331.32 236.294 330.973 235.521 330.28C234.774 329.56 234.401 328.68 234.401 327.64C234.401 326.573 234.774 325.68 235.521 324.96C236.294 324.24 237.281 323.88 238.481 323.88C239.654 323.88 240.614 324.24 241.361 324.96C242.134 325.68 242.521 326.573 242.521 327.64C242.521 328.68 242.134 329.56 241.361 330.28C240.614 330.973 239.654 331.32 238.481 331.32ZM261.77 331.32C260.57 331.32 259.583 330.973 258.81 330.28C258.063 329.56 257.69 328.68 257.69 327.64C257.69 326.573 258.063 325.68 258.81 324.96C259.583 324.24 260.57 323.88 261.77 323.88C262.943 323.88 263.903 324.24 264.65 324.96C265.423 325.68 265.81 326.573 265.81 327.64C265.81 328.68 265.423 329.56 264.65 330.28C263.903 330.973 262.943 331.32 261.77 331.32ZM285.059 331.32C283.859 331.32 282.872 330.973 282.099 330.28C281.352 329.56 280.979 328.68 280.979 327.64C280.979 326.573 281.352 325.68 282.099 324.96C282.872 324.24 283.859 323.88 285.059 323.88C286.232 323.88 287.192 324.24 287.939 324.96C288.712 325.68 289.099 326.573 289.099 327.64C289.099 328.68 288.712 329.56 287.939 330.28C287.192 330.973 286.232 331.32 285.059 331.32ZM308.348 331.32C307.148 331.32 306.161 330.973 305.388 330.28C304.641 329.56 304.268 328.68 304.268 327.64C304.268 326.573 304.641 325.68 305.388 324.96C306.161 324.24 307.148 323.88 308.348 323.88C309.521 323.88 310.481 324.24 311.228 324.96C312.001 325.68 312.388 326.573 312.388 327.64C312.388 328.68 312.001 329.56 311.228 330.28C310.481 330.973 309.521 331.32 308.348 331.32ZM-64.277 362.32C-65.477 362.32 -66.4637 361.973 -67.237 361.28C-67.9837 360.56 -68.357 359.68 -68.357 358.64C-68.357 357.573 -67.9837 356.68 -67.237 355.96C-66.4637 355.24 -65.477 354.88 -64.277 354.88C-63.1037 354.88 -62.1437 355.24 -61.397 355.96C-60.6237 356.68 -60.237 357.573 -60.237 358.64C-60.237 359.68 -60.6237 360.56 -61.397 361.28C-62.1437 361.973 -63.1037 362.32 -64.277 362.32ZM-40.988 362.32C-42.188 362.32 -43.1746 361.973 -43.948 361.28C-44.6946 360.56 -45.068 359.68 -45.068 358.64C-45.068 357.573 -44.6946 356.68 -43.948 355.96C-43.1746 355.24 -42.188 354.88 -40.988 354.88C-39.8146 354.88 -38.8546 355.24 -38.108 355.96C-37.3346 356.68 -36.948 357.573 -36.948 358.64C-36.948 359.68 -37.3346 360.56 -38.108 361.28C-38.8546 361.973 -39.8146 362.32 -40.988 362.32ZM-17.6989 362.32C-18.8989 362.32 -19.8856 361.973 -20.6589 361.28C-21.4056 360.56 -21.7789 359.68 -21.7789 358.64C-21.7789 357.573 -21.4056 356.68 -20.6589 355.96C-19.8856 355.24 -18.8989 354.88 -17.6989 354.88C-16.5256 354.88 -15.5656 355.24 -14.8189 355.96C-14.0456 356.68 -13.6589 357.573 -13.6589 358.64C-13.6589 359.68 -14.0456 360.56 -14.8189 361.28C-15.5656 361.973 -16.5256 362.32 -17.6989 362.32ZM5.59016 362.32C4.39016 362.32 3.40349 361.973 2.63016 361.28C1.88349 360.56 1.51016 359.68 1.51016 358.64C1.51016 357.573 1.88349 356.68 2.63016 355.96C3.40349 355.24 4.39016 354.88 5.59016 354.88C6.76349 354.88 7.72349 355.24 8.47016 355.96C9.24349 356.68 9.63016 357.573 9.63016 358.64C9.63016 359.68 9.24349 360.56 8.47016 361.28C7.72349 361.973 6.76349 362.32 5.59016 362.32ZM28.8792 362.32C27.6792 362.32 26.6926 361.973 25.9192 361.28C25.1726 360.56 24.7992 359.68 24.7992 358.64C24.7992 357.573 25.1726 356.68 25.9192 355.96C26.6926 355.24 27.6792 354.88 28.8792 354.88C30.0526 354.88 31.0126 355.24 31.7592 355.96C32.5326 356.68 32.9192 357.573 32.9192 358.64C32.9192 359.68 32.5326 360.56 31.7592 361.28C31.0126 361.973 30.0526 362.32 28.8792 362.32ZM52.1683 362.32C50.9683 362.32 49.9816 361.973 49.2083 361.28C48.4616 360.56 48.0883 359.68 48.0883 358.64C48.0883 357.573 48.4616 356.68 49.2083 355.96C49.9816 355.24 50.9683 354.88 52.1683 354.88C53.3416 354.88 54.3016 355.24 55.0483 355.96C55.8216 356.68 56.2083 357.573 56.2083 358.64C56.2083 359.68 55.8216 360.56 55.0483 361.28C54.3016 361.973 53.3416 362.32 52.1683 362.32ZM75.4573 362.32C74.2573 362.32 73.2707 361.973 72.4973 361.28C71.7507 360.56 71.3773 359.68 71.3773 358.64C71.3773 357.573 71.7507 356.68 72.4973 355.96C73.2707 355.24 74.2573 354.88 75.4573 354.88C76.6307 354.88 77.5907 355.24 78.3373 355.96C79.1107 356.68 79.4973 357.573 79.4973 358.64C79.4973 359.68 79.1107 360.56 78.3373 361.28C77.5907 361.973 76.6307 362.32 75.4573 362.32ZM98.7464 362.32C97.5464 362.32 96.5597 361.973 95.7864 361.28C95.0397 360.56 94.6664 359.68 94.6664 358.64C94.6664 357.573 95.0397 356.68 95.7864 355.96C96.5597 355.24 97.5464 354.88 98.7464 354.88C99.9197 354.88 100.88 355.24 101.626 355.96C102.4 356.68 102.786 357.573 102.786 358.64C102.786 359.68 102.4 360.56 101.626 361.28C100.88 361.973 99.9197 362.32 98.7464 362.32ZM122.035 362.32C120.835 362.32 119.849 361.973 119.075 361.28C118.329 360.56 117.955 359.68 117.955 358.64C117.955 357.573 118.329 356.68 119.075 355.96C119.849 355.24 120.835 354.88 122.035 354.88C123.209 354.88 124.169 355.24 124.915 355.96C125.689 356.68 126.075 357.573 126.075 358.64C126.075 359.68 125.689 360.56 124.915 361.28C124.169 361.973 123.209 362.32 122.035 362.32ZM145.325 362.32C144.125 362.32 143.138 361.973 142.365 361.28C141.618 360.56 141.245 359.68 141.245 358.64C141.245 357.573 141.618 356.68 142.365 355.96C143.138 355.24 144.125 354.88 145.325 354.88C146.498 354.88 147.458 355.24 148.205 355.96C148.978 356.68 149.365 357.573 149.365 358.64C149.365 359.68 148.978 360.56 148.205 361.28C147.458 361.973 146.498 362.32 145.325 362.32ZM168.614 362.32C167.414 362.32 166.427 361.973 165.654 361.28C164.907 360.56 164.534 359.68 164.534 358.64C164.534 357.573 164.907 356.68 165.654 355.96C166.427 355.24 167.414 354.88 168.614 354.88C169.787 354.88 170.747 355.24 171.494 355.96C172.267 356.68 172.654 357.573 172.654 358.64C172.654 359.68 172.267 360.56 171.494 361.28C170.747 361.973 169.787 362.32 168.614 362.32ZM191.903 362.32C190.703 362.32 189.716 361.973 188.943 361.28C188.196 360.56 187.823 359.68 187.823 358.64C187.823 357.573 188.196 356.68 188.943 355.96C189.716 355.24 190.703 354.88 191.903 354.88C193.076 354.88 194.036 355.24 194.783 355.96C195.556 356.68 195.943 357.573 195.943 358.64C195.943 359.68 195.556 360.56 194.783 361.28C194.036 361.973 193.076 362.32 191.903 362.32ZM215.192 362.32C213.992 362.32 213.005 361.973 212.232 361.28C211.485 360.56 211.112 359.68 211.112 358.64C211.112 357.573 211.485 356.68 212.232 355.96C213.005 355.24 213.992 354.88 215.192 354.88C216.365 354.88 217.325 355.24 218.072 355.96C218.845 356.68 219.232 357.573 219.232 358.64C219.232 359.68 218.845 360.56 218.072 361.28C217.325 361.973 216.365 362.32 215.192 362.32ZM238.481 362.32C237.281 362.32 236.294 361.973 235.521 361.28C234.774 360.56 234.401 359.68 234.401 358.64C234.401 357.573 234.774 356.68 235.521 355.96C236.294 355.24 237.281 354.88 238.481 354.88C239.654 354.88 240.614 355.24 241.361 355.96C242.134 356.68 242.521 357.573 242.521 358.64C242.521 359.68 242.134 360.56 241.361 361.28C240.614 361.973 239.654 362.32 238.481 362.32ZM261.77 362.32C260.57 362.32 259.583 361.973 258.81 361.28C258.063 360.56 257.69 359.68 257.69 358.64C257.69 357.573 258.063 356.68 258.81 355.96C259.583 355.24 260.57 354.88 261.77 354.88C262.943 354.88 263.903 355.24 264.65 355.96C265.423 356.68 265.81 357.573 265.81 358.64C265.81 359.68 265.423 360.56 264.65 361.28C263.903 361.973 262.943 362.32 261.77 362.32ZM285.059 362.32C283.859 362.32 282.872 361.973 282.099 361.28C281.352 360.56 280.979 359.68 280.979 358.64C280.979 357.573 281.352 356.68 282.099 355.96C282.872 355.24 283.859 354.88 285.059 354.88C286.232 354.88 287.192 355.24 287.939 355.96C288.712 356.68 289.099 357.573 289.099 358.64C289.099 359.68 288.712 360.56 287.939 361.28C287.192 361.973 286.232 362.32 285.059 362.32ZM308.348 362.32C307.148 362.32 306.161 361.973 305.388 361.28C304.641 360.56 304.268 359.68 304.268 358.64C304.268 357.573 304.641 356.68 305.388 355.96C306.161 355.24 307.148 354.88 308.348 354.88C309.521 354.88 310.481 355.24 311.228 355.96C312.001 356.68 312.388 357.573 312.388 358.64C312.388 359.68 312.001 360.56 311.228 361.28C310.481 361.973 309.521 362.32 308.348 362.32ZM28.8792 393.32C27.6792 393.32 26.6926 392.973 25.9192 392.28C25.1726 391.56 24.7992 390.68 24.7992 389.64C24.7992 388.573 25.1726 387.68 25.9192 386.96C26.6926 386.24 27.6792 385.88 28.8792 385.88C30.0526 385.88 31.0126 386.24 31.7592 386.96C32.5326 387.68 32.9192 388.573 32.9192 389.64C32.9192 390.68 32.5326 391.56 31.7592 392.28C31.0126 392.973 30.0526 393.32 28.8792 393.32ZM52.1683 393.32C50.9683 393.32 49.9816 392.973 49.2083 392.28C48.4616 391.56 48.0883 390.68 48.0883 389.64C48.0883 388.573 48.4616 387.68 49.2083 386.96C49.9816 386.24 50.9683 385.88 52.1683 385.88C53.3416 385.88 54.3016 386.24 55.0483 386.96C55.8216 387.68 56.2083 388.573 56.2083 389.64C56.2083 390.68 55.8216 391.56 55.0483 392.28C54.3016 392.973 53.3416 393.32 52.1683 393.32ZM75.4573 393.32C74.2573 393.32 73.2707 392.973 72.4973 392.28C71.7507 391.56 71.3773 390.68 71.3773 389.64C71.3773 388.573 71.7507 387.68 72.4973 386.96C73.2707 386.24 74.2573 385.88 75.4573 385.88C76.6307 385.88 77.5907 386.24 78.3373 386.96C79.1107 387.68 79.4973 388.573 79.4973 389.64C79.4973 390.68 79.1107 391.56 78.3373 392.28C77.5907 392.973 76.6307 393.32 75.4573 393.32ZM98.7464 393.32C97.5464 393.32 96.5597 392.973 95.7864 392.28C95.0397 391.56 94.6664 390.68 94.6664 389.64C94.6664 388.573 95.0397 387.68 95.7864 386.96C96.5597 386.24 97.5464 385.88 98.7464 385.88C99.9197 385.88 100.88 386.24 101.626 386.96C102.4 387.68 102.786 388.573 102.786 389.64C102.786 390.68 102.4 391.56 101.626 392.28C100.88 392.973 99.9197 393.32 98.7464 393.32ZM122.035 393.32C120.835 393.32 119.849 392.973 119.075 392.28C118.329 391.56 117.955 390.68 117.955 389.64C117.955 388.573 118.329 387.68 119.075 386.96C119.849 386.24 120.835 385.88 122.035 385.88C123.209 385.88 124.169 386.24 124.915 386.96C125.689 387.68 126.075 388.573 126.075 389.64C126.075 390.68 125.689 391.56 124.915 392.28C124.169 392.973 123.209 393.32 122.035 393.32ZM145.325 393.32C144.125 393.32 143.138 392.973 142.365 392.28C141.618 391.56 141.245 390.68 141.245 389.64C141.245 388.573 141.618 387.68 142.365 386.96C143.138 386.24 144.125 385.88 145.325 385.88C146.498 385.88 147.458 386.24 148.205 386.96C148.978 387.68 149.365 388.573 149.365 389.64C149.365 390.68 148.978 391.56 148.205 392.28C147.458 392.973 146.498 393.32 145.325 393.32ZM168.614 393.32C167.414 393.32 166.427 392.973 165.654 392.28C164.907 391.56 164.534 390.68 164.534 389.64C164.534 388.573 164.907 387.68 165.654 386.96C166.427 386.24 167.414 385.88 168.614 385.88C169.787 385.88 170.747 386.24 171.494 386.96C172.267 387.68 172.654 388.573 172.654 389.64C172.654 390.68 172.267 391.56 171.494 392.28C170.747 392.973 169.787 393.32 168.614 393.32ZM191.903 393.32C190.703 393.32 189.716 392.973 188.943 392.28C188.196 391.56 187.823 390.68 187.823 389.64C187.823 388.573 188.196 387.68 188.943 386.96C189.716 386.24 190.703 385.88 191.903 385.88C193.076 385.88 194.036 386.24 194.783 386.96C195.556 387.68 195.943 388.573 195.943 389.64C195.943 390.68 195.556 391.56 194.783 392.28C194.036 392.973 193.076 393.32 191.903 393.32ZM215.192 393.32C213.992 393.32 213.005 392.973 212.232 392.28C211.485 391.56 211.112 390.68 211.112 389.64C211.112 388.573 211.485 387.68 212.232 386.96C213.005 386.24 213.992 385.88 215.192 385.88C216.365 385.88 217.325 386.24 218.072 386.96C218.845 387.68 219.232 388.573 219.232 389.64C219.232 390.68 218.845 391.56 218.072 392.28C217.325 392.973 216.365 393.32 215.192 393.32Z" fill="white"/>
</g>
<defs>
<clipPath id="clip0_72_1111">
<path d="M0 30C0 13.4315 13.4315 0 30 0H1106C1161.23 0 1206 44.7715 1206 100V312C1206 328.569 1192.57 342 1176 342H30C13.4315 342 0 328.569 0 312V30Z" fill="white"/>
</clipPath>
</defs>
</svg>
