<svg width="1292" height="288" viewBox="0 0 1292 288" fill="none" xmlns="http://www.w3.org/2000/svg">
<g clip-path="url(#clip0_31_825)">
<path d="M0 30C0 13.4315 13.4315 0 30 0H1262C1278.57 0 1292 13.4315 1292 30V138C1292 220.843 1224.84 288 1142 288H30C13.4315 288 0 274.569 0 258V30Z" fill="#FF1F8A"/>
<rect x="49" y="204.447" width="30" height="5" rx="2.5" transform="rotate(-35.561 49 204.447)" fill="#00F09A"/>
<rect x="497" y="117.511" width="40" height="5" rx="2.5" transform="rotate(-38.0995 497 117.511)" fill="#00E1D4"/>
<rect x="268.656" y="64.473" width="15" height="5" rx="2.5" transform="rotate(-119.895 268.656 64.473)" fill="white"/>
<rect x="86" y="17" width="28" height="32" rx="14" fill="#03EDB5"/>
<rect x="10" y="116" width="28" height="32" rx="14" fill="#FFB800"/>
<path d="M186.84 67C190.689 60.3333 200.311 60.3333 204.16 67L210.655 78.25C214.504 84.9167 209.693 93.25 201.995 93.25H189.005C181.307 93.25 176.496 84.9167 180.345 78.25L186.84 67Z" fill="#6E56FF"/>
<path d="M423.132 45.6437C420.081 34.5072 430.229 24.2436 441.399 27.1693L458.155 31.5579C469.325 34.4836 473.139 48.4042 465.02 56.6151L452.842 68.9313C444.723 77.1422 430.76 73.4851 427.709 62.3485L423.132 45.6437Z" stroke="#E4153A" stroke-width="10"/>
<rect x="586" y="33" width="206" height="195" rx="97.5" fill="white" fill-opacity="0.2"/>
<path d="M412.147 246.781C413.045 244.017 416.955 244.017 417.853 246.781L418.817 249.747C419.218 250.983 420.37 251.82 421.67 251.82H424.788C427.694 251.82 428.903 255.539 426.551 257.247L424.029 259.08C422.977 259.843 422.537 261.198 422.939 262.434L423.903 265.399C424.801 268.163 421.637 270.461 419.286 268.753L416.763 266.92C415.712 266.157 414.288 266.157 413.237 266.92L410.714 268.753C408.363 270.461 405.199 268.163 406.097 265.399L407.061 262.434C407.463 261.198 407.023 259.843 405.971 259.08L403.449 257.247C401.097 255.539 402.306 251.82 405.212 251.82H408.33C409.63 251.82 410.782 250.983 411.183 249.747L412.147 246.781Z" fill="#9E00FF"/>
<rect x="118" y="204" width="42" height="36" rx="7" fill="white"/>
<rect x="134" y="216" width="34" height="32" rx="7" fill="#FF7816"/>
<path d="M940.723 -22.68C939.523 -22.68 938.536 -23.0267 937.763 -23.72C937.016 -24.44 936.643 -25.32 936.643 -26.36C936.643 -27.4267 937.016 -28.32 937.763 -29.04C938.536 -29.76 939.523 -30.12 940.723 -30.12C941.896 -30.12 942.856 -29.76 943.603 -29.04C944.376 -28.32 944.763 -27.4267 944.763 -26.36C944.763 -25.32 944.376 -24.44 943.603 -23.72C942.856 -23.0267 941.896 -22.68 940.723 -22.68ZM964.012 -22.68C962.812 -22.68 961.825 -23.0267 961.052 -23.72C960.305 -24.44 959.932 -25.32 959.932 -26.36C959.932 -27.4267 960.305 -28.32 961.052 -29.04C961.825 -29.76 962.812 -30.12 964.012 -30.12C965.185 -30.12 966.145 -29.76 966.892 -29.04C967.665 -28.32 968.052 -27.4267 968.052 -26.36C968.052 -25.32 967.665 -24.44 966.892 -23.72C966.145 -23.0267 965.185 -22.68 964.012 -22.68ZM987.301 -22.68C986.101 -22.68 985.114 -23.0267 984.341 -23.72C983.594 -24.44 983.221 -25.32 983.221 -26.36C983.221 -27.4267 983.594 -28.32 984.341 -29.04C985.114 -29.76 986.101 -30.12 987.301 -30.12C988.474 -30.12 989.434 -29.76 990.181 -29.04C990.954 -28.32 991.341 -27.4267 991.341 -26.36C991.341 -25.32 990.954 -24.44 990.181 -23.72C989.434 -23.0267 988.474 -22.68 987.301 -22.68ZM1010.59 -22.68C1009.39 -22.68 1008.4 -23.0267 1007.63 -23.72C1006.88 -24.44 1006.51 -25.32 1006.51 -26.36C1006.51 -27.4267 1006.88 -28.32 1007.63 -29.04C1008.4 -29.76 1009.39 -30.12 1010.59 -30.12C1011.76 -30.12 1012.72 -29.76 1013.47 -29.04C1014.24 -28.32 1014.63 -27.4267 1014.63 -26.36C1014.63 -25.32 1014.24 -24.44 1013.47 -23.72C1012.72 -23.0267 1011.76 -22.68 1010.59 -22.68ZM1033.88 -22.68C1032.68 -22.68 1031.69 -23.0267 1030.92 -23.72C1030.17 -24.44 1029.8 -25.32 1029.8 -26.36C1029.8 -27.4267 1030.17 -28.32 1030.92 -29.04C1031.69 -29.76 1032.68 -30.12 1033.88 -30.12C1035.05 -30.12 1036.01 -29.76 1036.76 -29.04C1037.53 -28.32 1037.92 -27.4267 1037.92 -26.36C1037.92 -25.32 1037.53 -24.44 1036.76 -23.72C1036.01 -23.0267 1035.05 -22.68 1033.88 -22.68ZM1057.17 -22.68C1055.97 -22.68 1054.98 -23.0267 1054.21 -23.72C1053.46 -24.44 1053.09 -25.32 1053.09 -26.36C1053.09 -27.4267 1053.46 -28.32 1054.21 -29.04C1054.98 -29.76 1055.97 -30.12 1057.17 -30.12C1058.34 -30.12 1059.3 -29.76 1060.05 -29.04C1060.82 -28.32 1061.21 -27.4267 1061.21 -26.36C1061.21 -25.32 1060.82 -24.44 1060.05 -23.72C1059.3 -23.0267 1058.34 -22.68 1057.17 -22.68ZM1080.46 -22.68C1079.26 -22.68 1078.27 -23.0267 1077.5 -23.72C1076.75 -24.44 1076.38 -25.32 1076.38 -26.36C1076.38 -27.4267 1076.75 -28.32 1077.5 -29.04C1078.27 -29.76 1079.26 -30.12 1080.46 -30.12C1081.63 -30.12 1082.59 -29.76 1083.34 -29.04C1084.11 -28.32 1084.5 -27.4267 1084.5 -26.36C1084.5 -25.32 1084.11 -24.44 1083.34 -23.72C1082.59 -23.0267 1081.63 -22.68 1080.46 -22.68ZM1103.75 -22.68C1102.55 -22.68 1101.56 -23.0267 1100.79 -23.72C1100.04 -24.44 1099.67 -25.32 1099.67 -26.36C1099.67 -27.4267 1100.04 -28.32 1100.79 -29.04C1101.56 -29.76 1102.55 -30.12 1103.75 -30.12C1104.92 -30.12 1105.88 -29.76 1106.63 -29.04C1107.4 -28.32 1107.79 -27.4267 1107.79 -26.36C1107.79 -25.32 1107.4 -24.44 1106.63 -23.72C1105.88 -23.0267 1104.92 -22.68 1103.75 -22.68ZM1127.04 -22.68C1125.84 -22.68 1124.85 -23.0267 1124.08 -23.72C1123.33 -24.44 1122.96 -25.32 1122.96 -26.36C1122.96 -27.4267 1123.33 -28.32 1124.08 -29.04C1124.85 -29.76 1125.84 -30.12 1127.04 -30.12C1128.21 -30.12 1129.17 -29.76 1129.92 -29.04C1130.69 -28.32 1131.08 -27.4267 1131.08 -26.36C1131.08 -25.32 1130.69 -24.44 1129.92 -23.72C1129.17 -23.0267 1128.21 -22.68 1127.04 -22.68ZM1150.32 -22.68C1149.12 -22.68 1148.14 -23.0267 1147.36 -23.72C1146.62 -24.44 1146.24 -25.32 1146.24 -26.36C1146.24 -27.4267 1146.62 -28.32 1147.36 -29.04C1148.14 -29.76 1149.12 -30.12 1150.32 -30.12C1151.5 -30.12 1152.46 -29.76 1153.2 -29.04C1153.98 -28.32 1154.36 -27.4267 1154.36 -26.36C1154.36 -25.32 1153.98 -24.44 1153.2 -23.72C1152.46 -23.0267 1151.5 -22.68 1150.32 -22.68ZM1173.61 -22.68C1172.41 -22.68 1171.43 -23.0267 1170.65 -23.72C1169.91 -24.44 1169.53 -25.32 1169.53 -26.36C1169.53 -27.4267 1169.91 -28.32 1170.65 -29.04C1171.43 -29.76 1172.41 -30.12 1173.61 -30.12C1174.79 -30.12 1175.75 -29.76 1176.49 -29.04C1177.27 -28.32 1177.65 -27.4267 1177.65 -26.36C1177.65 -25.32 1177.27 -24.44 1176.49 -23.72C1175.75 -23.0267 1174.79 -22.68 1173.61 -22.68ZM1196.9 -22.68C1195.7 -22.68 1194.72 -23.0267 1193.94 -23.72C1193.2 -24.44 1192.82 -25.32 1192.82 -26.36C1192.82 -27.4267 1193.2 -28.32 1193.94 -29.04C1194.72 -29.76 1195.7 -30.12 1196.9 -30.12C1198.08 -30.12 1199.04 -29.76 1199.78 -29.04C1200.56 -28.32 1200.94 -27.4267 1200.94 -26.36C1200.94 -25.32 1200.56 -24.44 1199.78 -23.72C1199.04 -23.0267 1198.08 -22.68 1196.9 -22.68ZM1220.19 -22.68C1218.99 -22.68 1218.01 -23.0267 1217.23 -23.72C1216.49 -24.44 1216.11 -25.32 1216.11 -26.36C1216.11 -27.4267 1216.49 -28.32 1217.23 -29.04C1218.01 -29.76 1218.99 -30.12 1220.19 -30.12C1221.37 -30.12 1222.33 -29.76 1223.07 -29.04C1223.85 -28.32 1224.23 -27.4267 1224.23 -26.36C1224.23 -25.32 1223.85 -24.44 1223.07 -23.72C1222.33 -23.0267 1221.37 -22.68 1220.19 -22.68ZM1243.48 -22.68C1242.28 -22.68 1241.29 -23.0267 1240.52 -23.72C1239.77 -24.44 1239.4 -25.32 1239.4 -26.36C1239.4 -27.4267 1239.77 -28.32 1240.52 -29.04C1241.29 -29.76 1242.28 -30.12 1243.48 -30.12C1244.65 -30.12 1245.61 -29.76 1246.36 -29.04C1247.13 -28.32 1247.52 -27.4267 1247.52 -26.36C1247.52 -25.32 1247.13 -24.44 1246.36 -23.72C1245.61 -23.0267 1244.65 -22.68 1243.48 -22.68ZM1266.77 -22.68C1265.57 -22.68 1264.58 -23.0267 1263.81 -23.72C1263.06 -24.44 1262.69 -25.32 1262.69 -26.36C1262.69 -27.4267 1263.06 -28.32 1263.81 -29.04C1264.58 -29.76 1265.57 -30.12 1266.77 -30.12C1267.94 -30.12 1268.9 -29.76 1269.65 -29.04C1270.42 -28.32 1270.81 -27.4267 1270.81 -26.36C1270.81 -25.32 1270.42 -24.44 1269.65 -23.72C1268.9 -23.0267 1267.94 -22.68 1266.77 -22.68ZM1290.06 -22.68C1288.86 -22.68 1287.87 -23.0267 1287.1 -23.72C1286.35 -24.44 1285.98 -25.32 1285.98 -26.36C1285.98 -27.4267 1286.35 -28.32 1287.1 -29.04C1287.87 -29.76 1288.86 -30.12 1290.06 -30.12C1291.23 -30.12 1292.19 -29.76 1292.94 -29.04C1293.71 -28.32 1294.1 -27.4267 1294.1 -26.36C1294.1 -25.32 1293.71 -24.44 1292.94 -23.72C1292.19 -23.0267 1291.23 -22.68 1290.06 -22.68ZM1313.35 -22.68C1312.15 -22.68 1311.16 -23.0267 1310.39 -23.72C1309.64 -24.44 1309.27 -25.32 1309.27 -26.36C1309.27 -27.4267 1309.64 -28.32 1310.39 -29.04C1311.16 -29.76 1312.15 -30.12 1313.35 -30.12C1314.52 -30.12 1315.48 -29.76 1316.23 -29.04C1317 -28.32 1317.39 -27.4267 1317.39 -26.36C1317.39 -25.32 1317 -24.44 1316.23 -23.72C1315.48 -23.0267 1314.52 -22.68 1313.35 -22.68ZM940.723 8.32C939.523 8.32 938.536 7.97333 937.763 7.28C937.016 6.56 936.643 5.68 936.643 4.64C936.643 3.57333 937.016 2.68 937.763 1.96C938.536 1.24 939.523 0.88 940.723 0.88C941.896 0.88 942.856 1.24 943.603 1.96C944.376 2.68 944.763 3.57333 944.763 4.64C944.763 5.68 944.376 6.56 943.603 7.28C942.856 7.97333 941.896 8.32 940.723 8.32ZM964.012 8.32C962.812 8.32 961.825 7.97333 961.052 7.28C960.305 6.56 959.932 5.68 959.932 4.64C959.932 3.57333 960.305 2.68 961.052 1.96C961.825 1.24 962.812 0.88 964.012 0.88C965.185 0.88 966.145 1.24 966.892 1.96C967.665 2.68 968.052 3.57333 968.052 4.64C968.052 5.68 967.665 6.56 966.892 7.28C966.145 7.97333 965.185 8.32 964.012 8.32ZM987.301 8.32C986.101 8.32 985.114 7.97333 984.341 7.28C983.594 6.56 983.221 5.68 983.221 4.64C983.221 3.57333 983.594 2.68 984.341 1.96C985.114 1.24 986.101 0.88 987.301 0.88C988.474 0.88 989.434 1.24 990.181 1.96C990.954 2.68 991.341 3.57333 991.341 4.64C991.341 5.68 990.954 6.56 990.181 7.28C989.434 7.97333 988.474 8.32 987.301 8.32ZM1010.59 8.32C1009.39 8.32 1008.4 7.97333 1007.63 7.28C1006.88 6.56 1006.51 5.68 1006.51 4.64C1006.51 3.57333 1006.88 2.68 1007.63 1.96C1008.4 1.24 1009.39 0.88 1010.59 0.88C1011.76 0.88 1012.72 1.24 1013.47 1.96C1014.24 2.68 1014.63 3.57333 1014.63 4.64C1014.63 5.68 1014.24 6.56 1013.47 7.28C1012.72 7.97333 1011.76 8.32 1010.59 8.32ZM1033.88 8.32C1032.68 8.32 1031.69 7.97333 1030.92 7.28C1030.17 6.56 1029.8 5.68 1029.8 4.64C1029.8 3.57333 1030.17 2.68 1030.92 1.96C1031.69 1.24 1032.68 0.88 1033.88 0.88C1035.05 0.88 1036.01 1.24 1036.76 1.96C1037.53 2.68 1037.92 3.57333 1037.92 4.64C1037.92 5.68 1037.53 6.56 1036.76 7.28C1036.01 7.97333 1035.05 8.32 1033.88 8.32ZM1057.17 8.32C1055.97 8.32 1054.98 7.97333 1054.21 7.28C1053.46 6.56 1053.09 5.68 1053.09 4.64C1053.09 3.57333 1053.46 2.68 1054.21 1.96C1054.98 1.24 1055.97 0.88 1057.17 0.88C1058.34 0.88 1059.3 1.24 1060.05 1.96C1060.82 2.68 1061.21 3.57333 1061.21 4.64C1061.21 5.68 1060.82 6.56 1060.05 7.28C1059.3 7.97333 1058.34 8.32 1057.17 8.32ZM1080.46 8.32C1079.26 8.32 1078.27 7.97333 1077.5 7.28C1076.75 6.56 1076.38 5.68 1076.38 4.64C1076.38 3.57333 1076.75 2.68 1077.5 1.96C1078.27 1.24 1079.26 0.88 1080.46 0.88C1081.63 0.88 1082.59 1.24 1083.34 1.96C1084.11 2.68 1084.5 3.57333 1084.5 4.64C1084.5 5.68 1084.11 6.56 1083.34 7.28C1082.59 7.97333 1081.63 8.32 1080.46 8.32ZM1103.75 8.32C1102.55 8.32 1101.56 7.97333 1100.79 7.28C1100.04 6.56 1099.67 5.68 1099.67 4.64C1099.67 3.57333 1100.04 2.68 1100.79 1.96C1101.56 1.24 1102.55 0.88 1103.75 0.88C1104.92 0.88 1105.88 1.24 1106.63 1.96C1107.4 2.68 1107.79 3.57333 1107.79 4.64C1107.79 5.68 1107.4 6.56 1106.63 7.28C1105.88 7.97333 1104.92 8.32 1103.75 8.32ZM1127.04 8.32C1125.84 8.32 1124.85 7.97333 1124.08 7.28C1123.33 6.56 1122.96 5.68 1122.96 4.64C1122.96 3.57333 1123.33 2.68 1124.08 1.96C1124.85 1.24 1125.84 0.88 1127.04 0.88C1128.21 0.88 1129.17 1.24 1129.92 1.96C1130.69 2.68 1131.08 3.57333 1131.08 4.64C1131.08 5.68 1130.69 6.56 1129.92 7.28C1129.17 7.97333 1128.21 8.32 1127.04 8.32ZM1150.32 8.32C1149.12 8.32 1148.14 7.97333 1147.36 7.28C1146.62 6.56 1146.24 5.68 1146.24 4.64C1146.24 3.57333 1146.62 2.68 1147.36 1.96C1148.14 1.24 1149.12 0.88 1150.32 0.88C1151.5 0.88 1152.46 1.24 1153.2 1.96C1153.98 2.68 1154.36 3.57333 1154.36 4.64C1154.36 5.68 1153.98 6.56 1153.2 7.28C1152.46 7.97333 1151.5 8.32 1150.32 8.32ZM1173.61 8.32C1172.41 8.32 1171.43 7.97333 1170.65 7.28C1169.91 6.56 1169.53 5.68 1169.53 4.64C1169.53 3.57333 1169.91 2.68 1170.65 1.96C1171.43 1.24 1172.41 0.88 1173.61 0.88C1174.79 0.88 1175.75 1.24 1176.49 1.96C1177.27 2.68 1177.65 3.57333 1177.65 4.64C1177.65 5.68 1177.27 6.56 1176.49 7.28C1175.75 7.97333 1174.79 8.32 1173.61 8.32ZM1196.9 8.32C1195.7 8.32 1194.72 7.97333 1193.94 7.28C1193.2 6.56 1192.82 5.68 1192.82 4.64C1192.82 3.57333 1193.2 2.68 1193.94 1.96C1194.72 1.24 1195.7 0.88 1196.9 0.88C1198.08 0.88 1199.04 1.24 1199.78 1.96C1200.56 2.68 1200.94 3.57333 1200.94 4.64C1200.94 5.68 1200.56 6.56 1199.78 7.28C1199.04 7.97333 1198.08 8.32 1196.9 8.32ZM1220.19 8.32C1218.99 8.32 1218.01 7.97333 1217.23 7.28C1216.49 6.56 1216.11 5.68 1216.11 4.64C1216.11 3.57333 1216.49 2.68 1217.23 1.96C1218.01 1.24 1218.99 0.88 1220.19 0.88C1221.37 0.88 1222.33 1.24 1223.07 1.96C1223.85 2.68 1224.23 3.57333 1224.23 4.64C1224.23 5.68 1223.85 6.56 1223.07 7.28C1222.33 7.97333 1221.37 8.32 1220.19 8.32ZM1243.48 8.32C1242.28 8.32 1241.29 7.97333 1240.52 7.28C1239.77 6.56 1239.4 5.68 1239.4 4.64C1239.4 3.57333 1239.77 2.68 1240.52 1.96C1241.29 1.24 1242.28 0.88 1243.48 0.88C1244.65 0.88 1245.61 1.24 1246.36 1.96C1247.13 2.68 1247.52 3.57333 1247.52 4.64C1247.52 5.68 1247.13 6.56 1246.36 7.28C1245.61 7.97333 1244.65 8.32 1243.48 8.32ZM1266.77 8.32C1265.57 8.32 1264.58 7.97333 1263.81 7.28C1263.06 6.56 1262.69 5.68 1262.69 4.64C1262.69 3.57333 1263.06 2.68 1263.81 1.96C1264.58 1.24 1265.57 0.88 1266.77 0.88C1267.94 0.88 1268.9 1.24 1269.65 1.96C1270.42 2.68 1270.81 3.57333 1270.81 4.64C1270.81 5.68 1270.42 6.56 1269.65 7.28C1268.9 7.97333 1267.94 8.32 1266.77 8.32ZM1290.06 8.32C1288.86 8.32 1287.87 7.97333 1287.1 7.28C1286.35 6.56 1285.98 5.68 1285.98 4.64C1285.98 3.57333 1286.35 2.68 1287.1 1.96C1287.87 1.24 1288.86 0.88 1290.06 0.88C1291.23 0.88 1292.19 1.24 1292.94 1.96C1293.71 2.68 1294.1 3.57333 1294.1 4.64C1294.1 5.68 1293.71 6.56 1292.94 7.28C1292.19 7.97333 1291.23 8.32 1290.06 8.32ZM1313.35 8.32C1312.15 8.32 1311.16 7.97333 1310.39 7.28C1309.64 6.56 1309.27 5.68 1309.27 4.64C1309.27 3.57333 1309.64 2.68 1310.39 1.96C1311.16 1.24 1312.15 0.88 1313.35 0.88C1314.52 0.88 1315.48 1.24 1316.23 1.96C1317 2.68 1317.39 3.57333 1317.39 4.64C1317.39 5.68 1317 6.56 1316.23 7.28C1315.48 7.97333 1314.52 8.32 1313.35 8.32ZM940.723 39.32C939.523 39.32 938.536 38.9733 937.763 38.28C937.016 37.56 936.643 36.68 936.643 35.64C936.643 34.5733 937.016 33.68 937.763 32.96C938.536 32.24 939.523 31.88 940.723 31.88C941.896 31.88 942.856 32.24 943.603 32.96C944.376 33.68 944.763 34.5733 944.763 35.64C944.763 36.68 944.376 37.56 943.603 38.28C942.856 38.9733 941.896 39.32 940.723 39.32ZM964.012 39.32C962.812 39.32 961.825 38.9733 961.052 38.28C960.305 37.56 959.932 36.68 959.932 35.64C959.932 34.5733 960.305 33.68 961.052 32.96C961.825 32.24 962.812 31.88 964.012 31.88C965.185 31.88 966.145 32.24 966.892 32.96C967.665 33.68 968.052 34.5733 968.052 35.64C968.052 36.68 967.665 37.56 966.892 38.28C966.145 38.9733 965.185 39.32 964.012 39.32ZM987.301 39.32C986.101 39.32 985.114 38.9733 984.341 38.28C983.594 37.56 983.221 36.68 983.221 35.64C983.221 34.5733 983.594 33.68 984.341 32.96C985.114 32.24 986.101 31.88 987.301 31.88C988.474 31.88 989.434 32.24 990.181 32.96C990.954 33.68 991.341 34.5733 991.341 35.64C991.341 36.68 990.954 37.56 990.181 38.28C989.434 38.9733 988.474 39.32 987.301 39.32ZM1010.59 39.32C1009.39 39.32 1008.4 38.9733 1007.63 38.28C1006.88 37.56 1006.51 36.68 1006.51 35.64C1006.51 34.5733 1006.88 33.68 1007.63 32.96C1008.4 32.24 1009.39 31.88 1010.59 31.88C1011.76 31.88 1012.72 32.24 1013.47 32.96C1014.24 33.68 1014.63 34.5733 1014.63 35.64C1014.63 36.68 1014.24 37.56 1013.47 38.28C1012.72 38.9733 1011.76 39.32 1010.59 39.32ZM1033.88 39.32C1032.68 39.32 1031.69 38.9733 1030.92 38.28C1030.17 37.56 1029.8 36.68 1029.8 35.64C1029.8 34.5733 1030.17 33.68 1030.92 32.96C1031.69 32.24 1032.68 31.88 1033.88 31.88C1035.05 31.88 1036.01 32.24 1036.76 32.96C1037.53 33.68 1037.92 34.5733 1037.92 35.64C1037.92 36.68 1037.53 37.56 1036.76 38.28C1036.01 38.9733 1035.05 39.32 1033.88 39.32ZM1057.17 39.32C1055.97 39.32 1054.98 38.9733 1054.21 38.28C1053.46 37.56 1053.09 36.68 1053.09 35.64C1053.09 34.5733 1053.46 33.68 1054.21 32.96C1054.98 32.24 1055.97 31.88 1057.17 31.88C1058.34 31.88 1059.3 32.24 1060.05 32.96C1060.82 33.68 1061.21 34.5733 1061.21 35.64C1061.21 36.68 1060.82 37.56 1060.05 38.28C1059.3 38.9733 1058.34 39.32 1057.17 39.32ZM1080.46 39.32C1079.26 39.32 1078.27 38.9733 1077.5 38.28C1076.75 37.56 1076.38 36.68 1076.38 35.64C1076.38 34.5733 1076.75 33.68 1077.5 32.96C1078.27 32.24 1079.26 31.88 1080.46 31.88C1081.63 31.88 1082.59 32.24 1083.34 32.96C1084.11 33.68 1084.5 34.5733 1084.5 35.64C1084.5 36.68 1084.11 37.56 1083.34 38.28C1082.59 38.9733 1081.63 39.32 1080.46 39.32ZM1103.75 39.32C1102.55 39.32 1101.56 38.9733 1100.79 38.28C1100.04 37.56 1099.67 36.68 1099.67 35.64C1099.67 34.5733 1100.04 33.68 1100.79 32.96C1101.56 32.24 1102.55 31.88 1103.75 31.88C1104.92 31.88 1105.88 32.24 1106.63 32.96C1107.4 33.68 1107.79 34.5733 1107.79 35.64C1107.79 36.68 1107.4 37.56 1106.63 38.28C1105.88 38.9733 1104.92 39.32 1103.75 39.32ZM1127.04 39.32C1125.84 39.32 1124.85 38.9733 1124.08 38.28C1123.33 37.56 1122.96 36.68 1122.96 35.64C1122.96 34.5733 1123.33 33.68 1124.08 32.96C1124.85 32.24 1125.84 31.88 1127.04 31.88C1128.21 31.88 1129.17 32.24 1129.92 32.96C1130.69 33.68 1131.08 34.5733 1131.08 35.64C1131.08 36.68 1130.69 37.56 1129.92 38.28C1129.17 38.9733 1128.21 39.32 1127.04 39.32ZM1150.32 39.32C1149.12 39.32 1148.14 38.9733 1147.36 38.28C1146.62 37.56 1146.24 36.68 1146.24 35.64C1146.24 34.5733 1146.62 33.68 1147.36 32.96C1148.14 32.24 1149.12 31.88 1150.32 31.88C1151.5 31.88 1152.46 32.24 1153.2 32.96C1153.98 33.68 1154.36 34.5733 1154.36 35.64C1154.36 36.68 1153.98 37.56 1153.2 38.28C1152.46 38.9733 1151.5 39.32 1150.32 39.32ZM1173.61 39.32C1172.41 39.32 1171.43 38.9733 1170.65 38.28C1169.91 37.56 1169.53 36.68 1169.53 35.64C1169.53 34.5733 1169.91 33.68 1170.65 32.96C1171.43 32.24 1172.41 31.88 1173.61 31.88C1174.79 31.88 1175.75 32.24 1176.49 32.96C1177.27 33.68 1177.65 34.5733 1177.65 35.64C1177.65 36.68 1177.27 37.56 1176.49 38.28C1175.75 38.9733 1174.79 39.32 1173.61 39.32ZM1196.9 39.32C1195.7 39.32 1194.72 38.9733 1193.94 38.28C1193.2 37.56 1192.82 36.68 1192.82 35.64C1192.82 34.5733 1193.2 33.68 1193.94 32.96C1194.72 32.24 1195.7 31.88 1196.9 31.88C1198.08 31.88 1199.04 32.24 1199.78 32.96C1200.56 33.68 1200.94 34.5733 1200.94 35.64C1200.94 36.68 1200.56 37.56 1199.78 38.28C1199.04 38.9733 1198.08 39.32 1196.9 39.32ZM1220.19 39.32C1218.99 39.32 1218.01 38.9733 1217.23 38.28C1216.49 37.56 1216.11 36.68 1216.11 35.64C1216.11 34.5733 1216.49 33.68 1217.23 32.96C1218.01 32.24 1218.99 31.88 1220.19 31.88C1221.37 31.88 1222.33 32.24 1223.07 32.96C1223.85 33.68 1224.23 34.5733 1224.23 35.64C1224.23 36.68 1223.85 37.56 1223.07 38.28C1222.33 38.9733 1221.37 39.32 1220.19 39.32ZM1243.48 39.32C1242.28 39.32 1241.29 38.9733 1240.52 38.28C1239.77 37.56 1239.4 36.68 1239.4 35.64C1239.4 34.5733 1239.77 33.68 1240.52 32.96C1241.29 32.24 1242.28 31.88 1243.48 31.88C1244.65 31.88 1245.61 32.24 1246.36 32.96C1247.13 33.68 1247.52 34.5733 1247.52 35.64C1247.52 36.68 1247.13 37.56 1246.36 38.28C1245.61 38.9733 1244.65 39.32 1243.48 39.32ZM1266.77 39.32C1265.57 39.32 1264.58 38.9733 1263.81 38.28C1263.06 37.56 1262.69 36.68 1262.69 35.64C1262.69 34.5733 1263.06 33.68 1263.81 32.96C1264.58 32.24 1265.57 31.88 1266.77 31.88C1267.94 31.88 1268.9 32.24 1269.65 32.96C1270.42 33.68 1270.81 34.5733 1270.81 35.64C1270.81 36.68 1270.42 37.56 1269.65 38.28C1268.9 38.9733 1267.94 39.32 1266.77 39.32ZM1290.06 39.32C1288.86 39.32 1287.87 38.9733 1287.1 38.28C1286.35 37.56 1285.98 36.68 1285.98 35.64C1285.98 34.5733 1286.35 33.68 1287.1 32.96C1287.87 32.24 1288.86 31.88 1290.06 31.88C1291.23 31.88 1292.19 32.24 1292.94 32.96C1293.71 33.68 1294.1 34.5733 1294.1 35.64C1294.1 36.68 1293.71 37.56 1292.94 38.28C1292.19 38.9733 1291.23 39.32 1290.06 39.32ZM1313.35 39.32C1312.15 39.32 1311.16 38.9733 1310.39 38.28C1309.64 37.56 1309.27 36.68 1309.27 35.64C1309.27 34.5733 1309.64 33.68 1310.39 32.96C1311.16 32.24 1312.15 31.88 1313.35 31.88C1314.52 31.88 1315.48 32.24 1316.23 32.96C1317 33.68 1317.39 34.5733 1317.39 35.64C1317.39 36.68 1317 37.56 1316.23 38.28C1315.48 38.9733 1314.52 39.32 1313.35 39.32ZM940.723 70.32C939.523 70.32 938.536 69.9733 937.763 69.28C937.016 68.56 936.643 67.68 936.643 66.64C936.643 65.5733 937.016 64.68 937.763 63.96C938.536 63.24 939.523 62.88 940.723 62.88C941.896 62.88 942.856 63.24 943.603 63.96C944.376 64.68 944.763 65.5733 944.763 66.64C944.763 67.68 944.376 68.56 943.603 69.28C942.856 69.9733 941.896 70.32 940.723 70.32ZM964.012 70.32C962.812 70.32 961.825 69.9733 961.052 69.28C960.305 68.56 959.932 67.68 959.932 66.64C959.932 65.5733 960.305 64.68 961.052 63.96C961.825 63.24 962.812 62.88 964.012 62.88C965.185 62.88 966.145 63.24 966.892 63.96C967.665 64.68 968.052 65.5733 968.052 66.64C968.052 67.68 967.665 68.56 966.892 69.28C966.145 69.9733 965.185 70.32 964.012 70.32ZM987.301 70.32C986.101 70.32 985.114 69.9733 984.341 69.28C983.594 68.56 983.221 67.68 983.221 66.64C983.221 65.5733 983.594 64.68 984.341 63.96C985.114 63.24 986.101 62.88 987.301 62.88C988.474 62.88 989.434 63.24 990.181 63.96C990.954 64.68 991.341 65.5733 991.341 66.64C991.341 67.68 990.954 68.56 990.181 69.28C989.434 69.9733 988.474 70.32 987.301 70.32ZM1010.59 70.32C1009.39 70.32 1008.4 69.9733 1007.63 69.28C1006.88 68.56 1006.51 67.68 1006.51 66.64C1006.51 65.5733 1006.88 64.68 1007.63 63.96C1008.4 63.24 1009.39 62.88 1010.59 62.88C1011.76 62.88 1012.72 63.24 1013.47 63.96C1014.24 64.68 1014.63 65.5733 1014.63 66.64C1014.63 67.68 1014.24 68.56 1013.47 69.28C1012.72 69.9733 1011.76 70.32 1010.59 70.32ZM1033.88 70.32C1032.68 70.32 1031.69 69.9733 1030.92 69.28C1030.17 68.56 1029.8 67.68 1029.8 66.64C1029.8 65.5733 1030.17 64.68 1030.92 63.96C1031.69 63.24 1032.68 62.88 1033.88 62.88C1035.05 62.88 1036.01 63.24 1036.76 63.96C1037.53 64.68 1037.92 65.5733 1037.92 66.64C1037.92 67.68 1037.53 68.56 1036.76 69.28C1036.01 69.9733 1035.05 70.32 1033.88 70.32ZM1057.17 70.32C1055.97 70.32 1054.98 69.9733 1054.21 69.28C1053.46 68.56 1053.09 67.68 1053.09 66.64C1053.09 65.5733 1053.46 64.68 1054.21 63.96C1054.98 63.24 1055.97 62.88 1057.17 62.88C1058.34 62.88 1059.3 63.24 1060.05 63.96C1060.82 64.68 1061.21 65.5733 1061.21 66.64C1061.21 67.68 1060.82 68.56 1060.05 69.28C1059.3 69.9733 1058.34 70.32 1057.17 70.32ZM1080.46 70.32C1079.26 70.32 1078.27 69.9733 1077.5 69.28C1076.75 68.56 1076.38 67.68 1076.38 66.64C1076.38 65.5733 1076.75 64.68 1077.5 63.96C1078.27 63.24 1079.26 62.88 1080.46 62.88C1081.63 62.88 1082.59 63.24 1083.34 63.96C1084.11 64.68 1084.5 65.5733 1084.5 66.64C1084.5 67.68 1084.11 68.56 1083.34 69.28C1082.59 69.9733 1081.63 70.32 1080.46 70.32ZM1103.75 70.32C1102.55 70.32 1101.56 69.9733 1100.79 69.28C1100.04 68.56 1099.67 67.68 1099.67 66.64C1099.67 65.5733 1100.04 64.68 1100.79 63.96C1101.56 63.24 1102.55 62.88 1103.75 62.88C1104.92 62.88 1105.88 63.24 1106.63 63.96C1107.4 64.68 1107.79 65.5733 1107.79 66.64C1107.79 67.68 1107.4 68.56 1106.63 69.28C1105.88 69.9733 1104.92 70.32 1103.75 70.32ZM1127.04 70.32C1125.84 70.32 1124.85 69.9733 1124.08 69.28C1123.33 68.56 1122.96 67.68 1122.96 66.64C1122.96 65.5733 1123.33 64.68 1124.08 63.96C1124.85 63.24 1125.84 62.88 1127.04 62.88C1128.21 62.88 1129.17 63.24 1129.92 63.96C1130.69 64.68 1131.08 65.5733 1131.08 66.64C1131.08 67.68 1130.69 68.56 1129.92 69.28C1129.17 69.9733 1128.21 70.32 1127.04 70.32ZM1150.32 70.32C1149.12 70.32 1148.14 69.9733 1147.36 69.28C1146.62 68.56 1146.24 67.68 1146.24 66.64C1146.24 65.5733 1146.62 64.68 1147.36 63.96C1148.14 63.24 1149.12 62.88 1150.32 62.88C1151.5 62.88 1152.46 63.24 1153.2 63.96C1153.98 64.68 1154.36 65.5733 1154.36 66.64C1154.36 67.68 1153.98 68.56 1153.2 69.28C1152.46 69.9733 1151.5 70.32 1150.32 70.32ZM1173.61 70.32C1172.41 70.32 1171.43 69.9733 1170.65 69.28C1169.91 68.56 1169.53 67.68 1169.53 66.64C1169.53 65.5733 1169.91 64.68 1170.65 63.96C1171.43 63.24 1172.41 62.88 1173.61 62.88C1174.79 62.88 1175.75 63.24 1176.49 63.96C1177.27 64.68 1177.65 65.5733 1177.65 66.64C1177.65 67.68 1177.27 68.56 1176.49 69.28C1175.75 69.9733 1174.79 70.32 1173.61 70.32ZM1196.9 70.32C1195.7 70.32 1194.72 69.9733 1193.94 69.28C1193.2 68.56 1192.82 67.68 1192.82 66.64C1192.82 65.5733 1193.2 64.68 1193.94 63.96C1194.72 63.24 1195.7 62.88 1196.9 62.88C1198.08 62.88 1199.04 63.24 1199.78 63.96C1200.56 64.68 1200.94 65.5733 1200.94 66.64C1200.94 67.68 1200.56 68.56 1199.78 69.28C1199.04 69.9733 1198.08 70.32 1196.9 70.32ZM1220.19 70.32C1218.99 70.32 1218.01 69.9733 1217.23 69.28C1216.49 68.56 1216.11 67.68 1216.11 66.64C1216.11 65.5733 1216.49 64.68 1217.23 63.96C1218.01 63.24 1218.99 62.88 1220.19 62.88C1221.37 62.88 1222.33 63.24 1223.07 63.96C1223.85 64.68 1224.23 65.5733 1224.23 66.64C1224.23 67.68 1223.85 68.56 1223.07 69.28C1222.33 69.9733 1221.37 70.32 1220.19 70.32ZM1243.48 70.32C1242.28 70.32 1241.29 69.9733 1240.52 69.28C1239.77 68.56 1239.4 67.68 1239.4 66.64C1239.4 65.5733 1239.77 64.68 1240.52 63.96C1241.29 63.24 1242.28 62.88 1243.48 62.88C1244.65 62.88 1245.61 63.24 1246.36 63.96C1247.13 64.68 1247.52 65.5733 1247.52 66.64C1247.52 67.68 1247.13 68.56 1246.36 69.28C1245.61 69.9733 1244.65 70.32 1243.48 70.32ZM1266.77 70.32C1265.57 70.32 1264.58 69.9733 1263.81 69.28C1263.06 68.56 1262.69 67.68 1262.69 66.64C1262.69 65.5733 1263.06 64.68 1263.81 63.96C1264.58 63.24 1265.57 62.88 1266.77 62.88C1267.94 62.88 1268.9 63.24 1269.65 63.96C1270.42 64.68 1270.81 65.5733 1270.81 66.64C1270.81 67.68 1270.42 68.56 1269.65 69.28C1268.9 69.9733 1267.94 70.32 1266.77 70.32ZM1290.06 70.32C1288.86 70.32 1287.87 69.9733 1287.1 69.28C1286.35 68.56 1285.98 67.68 1285.98 66.64C1285.98 65.5733 1286.35 64.68 1287.1 63.96C1287.87 63.24 1288.86 62.88 1290.06 62.88C1291.23 62.88 1292.19 63.24 1292.94 63.96C1293.71 64.68 1294.1 65.5733 1294.1 66.64C1294.1 67.68 1293.71 68.56 1292.94 69.28C1292.19 69.9733 1291.23 70.32 1290.06 70.32ZM1313.35 70.32C1312.15 70.32 1311.16 69.9733 1310.39 69.28C1309.64 68.56 1309.27 67.68 1309.27 66.64C1309.27 65.5733 1309.64 64.68 1310.39 63.96C1311.16 63.24 1312.15 62.88 1313.35 62.88C1314.52 62.88 1315.48 63.24 1316.23 63.96C1317 64.68 1317.39 65.5733 1317.39 66.64C1317.39 67.68 1317 68.56 1316.23 69.28C1315.48 69.9733 1314.52 70.32 1313.35 70.32ZM940.723 101.32C939.523 101.32 938.536 100.973 937.763 100.28C937.016 99.56 936.643 98.68 936.643 97.64C936.643 96.5733 937.016 95.68 937.763 94.96C938.536 94.24 939.523 93.88 940.723 93.88C941.896 93.88 942.856 94.24 943.603 94.96C944.376 95.68 944.763 96.5733 944.763 97.64C944.763 98.68 944.376 99.56 943.603 100.28C942.856 100.973 941.896 101.32 940.723 101.32ZM964.012 101.32C962.812 101.32 961.825 100.973 961.052 100.28C960.305 99.56 959.932 98.68 959.932 97.64C959.932 96.5733 960.305 95.68 961.052 94.96C961.825 94.24 962.812 93.88 964.012 93.88C965.185 93.88 966.145 94.24 966.892 94.96C967.665 95.68 968.052 96.5733 968.052 97.64C968.052 98.68 967.665 99.56 966.892 100.28C966.145 100.973 965.185 101.32 964.012 101.32ZM987.301 101.32C986.101 101.32 985.114 100.973 984.341 100.28C983.594 99.56 983.221 98.68 983.221 97.64C983.221 96.5733 983.594 95.68 984.341 94.96C985.114 94.24 986.101 93.88 987.301 93.88C988.474 93.88 989.434 94.24 990.181 94.96C990.954 95.68 991.341 96.5733 991.341 97.64C991.341 98.68 990.954 99.56 990.181 100.28C989.434 100.973 988.474 101.32 987.301 101.32ZM1010.59 101.32C1009.39 101.32 1008.4 100.973 1007.63 100.28C1006.88 99.56 1006.51 98.68 1006.51 97.64C1006.51 96.5733 1006.88 95.68 1007.63 94.96C1008.4 94.24 1009.39 93.88 1010.59 93.88C1011.76 93.88 1012.72 94.24 1013.47 94.96C1014.24 95.68 1014.63 96.5733 1014.63 97.64C1014.63 98.68 1014.24 99.56 1013.47 100.28C1012.72 100.973 1011.76 101.32 1010.59 101.32ZM1033.88 101.32C1032.68 101.32 1031.69 100.973 1030.92 100.28C1030.17 99.56 1029.8 98.68 1029.8 97.64C1029.8 96.5733 1030.17 95.68 1030.92 94.96C1031.69 94.24 1032.68 93.88 1033.88 93.88C1035.05 93.88 1036.01 94.24 1036.76 94.96C1037.53 95.68 1037.92 96.5733 1037.92 97.64C1037.92 98.68 1037.53 99.56 1036.76 100.28C1036.01 100.973 1035.05 101.32 1033.88 101.32ZM1057.17 101.32C1055.97 101.32 1054.98 100.973 1054.21 100.28C1053.46 99.56 1053.09 98.68 1053.09 97.64C1053.09 96.5733 1053.46 95.68 1054.21 94.96C1054.98 94.24 1055.97 93.88 1057.17 93.88C1058.34 93.88 1059.3 94.24 1060.05 94.96C1060.82 95.68 1061.21 96.5733 1061.21 97.64C1061.21 98.68 1060.82 99.56 1060.05 100.28C1059.3 100.973 1058.34 101.32 1057.17 101.32ZM1080.46 101.32C1079.26 101.32 1078.27 100.973 1077.5 100.28C1076.75 99.56 1076.38 98.68 1076.38 97.64C1076.38 96.5733 1076.75 95.68 1077.5 94.96C1078.27 94.24 1079.26 93.88 1080.46 93.88C1081.63 93.88 1082.59 94.24 1083.34 94.96C1084.11 95.68 1084.5 96.5733 1084.5 97.64C1084.5 98.68 1084.11 99.56 1083.34 100.28C1082.59 100.973 1081.63 101.32 1080.46 101.32ZM1103.75 101.32C1102.55 101.32 1101.56 100.973 1100.79 100.28C1100.04 99.56 1099.67 98.68 1099.67 97.64C1099.67 96.5733 1100.04 95.68 1100.79 94.96C1101.56 94.24 1102.55 93.88 1103.75 93.88C1104.92 93.88 1105.88 94.24 1106.63 94.96C1107.4 95.68 1107.79 96.5733 1107.79 97.64C1107.79 98.68 1107.4 99.56 1106.63 100.28C1105.88 100.973 1104.92 101.32 1103.75 101.32ZM1127.04 101.32C1125.84 101.32 1124.85 100.973 1124.08 100.28C1123.33 99.56 1122.96 98.68 1122.96 97.64C1122.96 96.5733 1123.33 95.68 1124.08 94.96C1124.85 94.24 1125.84 93.88 1127.04 93.88C1128.21 93.88 1129.17 94.24 1129.92 94.96C1130.69 95.68 1131.08 96.5733 1131.08 97.64C1131.08 98.68 1130.69 99.56 1129.92 100.28C1129.17 100.973 1128.21 101.32 1127.04 101.32ZM1150.32 101.32C1149.12 101.32 1148.14 100.973 1147.36 100.28C1146.62 99.56 1146.24 98.68 1146.24 97.64C1146.24 96.5733 1146.62 95.68 1147.36 94.96C1148.14 94.24 1149.12 93.88 1150.32 93.88C1151.5 93.88 1152.46 94.24 1153.2 94.96C1153.98 95.68 1154.36 96.5733 1154.36 97.64C1154.36 98.68 1153.98 99.56 1153.2 100.28C1152.46 100.973 1151.5 101.32 1150.32 101.32ZM1173.61 101.32C1172.41 101.32 1171.43 100.973 1170.65 100.28C1169.91 99.56 1169.53 98.68 1169.53 97.64C1169.53 96.5733 1169.91 95.68 1170.65 94.96C1171.43 94.24 1172.41 93.88 1173.61 93.88C1174.79 93.88 1175.75 94.24 1176.49 94.96C1177.27 95.68 1177.65 96.5733 1177.65 97.64C1177.65 98.68 1177.27 99.56 1176.49 100.28C1175.75 100.973 1174.79 101.32 1173.61 101.32ZM1196.9 101.32C1195.7 101.32 1194.72 100.973 1193.94 100.28C1193.2 99.56 1192.82 98.68 1192.82 97.64C1192.82 96.5733 1193.2 95.68 1193.94 94.96C1194.72 94.24 1195.7 93.88 1196.9 93.88C1198.08 93.88 1199.04 94.24 1199.78 94.96C1200.56 95.68 1200.94 96.5733 1200.94 97.64C1200.94 98.68 1200.56 99.56 1199.78 100.28C1199.04 100.973 1198.08 101.32 1196.9 101.32ZM1220.19 101.32C1218.99 101.32 1218.01 100.973 1217.23 100.28C1216.49 99.56 1216.11 98.68 1216.11 97.64C1216.11 96.5733 1216.49 95.68 1217.23 94.96C1218.01 94.24 1218.99 93.88 1220.19 93.88C1221.37 93.88 1222.33 94.24 1223.07 94.96C1223.85 95.68 1224.23 96.5733 1224.23 97.64C1224.23 98.68 1223.85 99.56 1223.07 100.28C1222.33 100.973 1221.37 101.32 1220.19 101.32ZM1243.48 101.32C1242.28 101.32 1241.29 100.973 1240.52 100.28C1239.77 99.56 1239.4 98.68 1239.4 97.64C1239.4 96.5733 1239.77 95.68 1240.52 94.96C1241.29 94.24 1242.28 93.88 1243.48 93.88C1244.65 93.88 1245.61 94.24 1246.36 94.96C1247.13 95.68 1247.52 96.5733 1247.52 97.64C1247.52 98.68 1247.13 99.56 1246.36 100.28C1245.61 100.973 1244.65 101.32 1243.48 101.32ZM1266.77 101.32C1265.57 101.32 1264.58 100.973 1263.81 100.28C1263.06 99.56 1262.69 98.68 1262.69 97.64C1262.69 96.5733 1263.06 95.68 1263.81 94.96C1264.58 94.24 1265.57 93.88 1266.77 93.88C1267.94 93.88 1268.9 94.24 1269.65 94.96C1270.42 95.68 1270.81 96.5733 1270.81 97.64C1270.81 98.68 1270.42 99.56 1269.65 100.28C1268.9 100.973 1267.94 101.32 1266.77 101.32ZM1290.06 101.32C1288.86 101.32 1287.87 100.973 1287.1 100.28C1286.35 99.56 1285.98 98.68 1285.98 97.64C1285.98 96.5733 1286.35 95.68 1287.1 94.96C1287.87 94.24 1288.86 93.88 1290.06 93.88C1291.23 93.88 1292.19 94.24 1292.94 94.96C1293.71 95.68 1294.1 96.5733 1294.1 97.64C1294.1 98.68 1293.71 99.56 1292.94 100.28C1292.19 100.973 1291.23 101.32 1290.06 101.32ZM1313.35 101.32C1312.15 101.32 1311.16 100.973 1310.39 100.28C1309.64 99.56 1309.27 98.68 1309.27 97.64C1309.27 96.5733 1309.64 95.68 1310.39 94.96C1311.16 94.24 1312.15 93.88 1313.35 93.88C1314.52 93.88 1315.48 94.24 1316.23 94.96C1317 95.68 1317.39 96.5733 1317.39 97.64C1317.39 98.68 1317 99.56 1316.23 100.28C1315.48 100.973 1314.52 101.32 1313.35 101.32ZM940.723 132.32C939.523 132.32 938.536 131.973 937.763 131.28C937.016 130.56 936.643 129.68 936.643 128.64C936.643 127.573 937.016 126.68 937.763 125.96C938.536 125.24 939.523 124.88 940.723 124.88C941.896 124.88 942.856 125.24 943.603 125.96C944.376 126.68 944.763 127.573 944.763 128.64C944.763 129.68 944.376 130.56 943.603 131.28C942.856 131.973 941.896 132.32 940.723 132.32ZM964.012 132.32C962.812 132.32 961.825 131.973 961.052 131.28C960.305 130.56 959.932 129.68 959.932 128.64C959.932 127.573 960.305 126.68 961.052 125.96C961.825 125.24 962.812 124.88 964.012 124.88C965.185 124.88 966.145 125.24 966.892 125.96C967.665 126.68 968.052 127.573 968.052 128.64C968.052 129.68 967.665 130.56 966.892 131.28C966.145 131.973 965.185 132.32 964.012 132.32ZM987.301 132.32C986.101 132.32 985.114 131.973 984.341 131.28C983.594 130.56 983.221 129.68 983.221 128.64C983.221 127.573 983.594 126.68 984.341 125.96C985.114 125.24 986.101 124.88 987.301 124.88C988.474 124.88 989.434 125.24 990.181 125.96C990.954 126.68 991.341 127.573 991.341 128.64C991.341 129.68 990.954 130.56 990.181 131.28C989.434 131.973 988.474 132.32 987.301 132.32ZM1010.59 132.32C1009.39 132.32 1008.4 131.973 1007.63 131.28C1006.88 130.56 1006.51 129.68 1006.51 128.64C1006.51 127.573 1006.88 126.68 1007.63 125.96C1008.4 125.24 1009.39 124.88 1010.59 124.88C1011.76 124.88 1012.72 125.24 1013.47 125.96C1014.24 126.68 1014.63 127.573 1014.63 128.64C1014.63 129.68 1014.24 130.56 1013.47 131.28C1012.72 131.973 1011.76 132.32 1010.59 132.32ZM1033.88 132.32C1032.68 132.32 1031.69 131.973 1030.92 131.28C1030.17 130.56 1029.8 129.68 1029.8 128.64C1029.8 127.573 1030.17 126.68 1030.92 125.96C1031.69 125.24 1032.68 124.88 1033.88 124.88C1035.05 124.88 1036.01 125.24 1036.76 125.96C1037.53 126.68 1037.92 127.573 1037.92 128.64C1037.92 129.68 1037.53 130.56 1036.76 131.28C1036.01 131.973 1035.05 132.32 1033.88 132.32ZM1057.17 132.32C1055.97 132.32 1054.98 131.973 1054.21 131.28C1053.46 130.56 1053.09 129.68 1053.09 128.64C1053.09 127.573 1053.46 126.68 1054.21 125.96C1054.98 125.24 1055.97 124.88 1057.17 124.88C1058.34 124.88 1059.3 125.24 1060.05 125.96C1060.82 126.68 1061.21 127.573 1061.21 128.64C1061.21 129.68 1060.82 130.56 1060.05 131.28C1059.3 131.973 1058.34 132.32 1057.17 132.32ZM1080.46 132.32C1079.26 132.32 1078.27 131.973 1077.5 131.28C1076.75 130.56 1076.38 129.68 1076.38 128.64C1076.38 127.573 1076.75 126.68 1077.5 125.96C1078.27 125.24 1079.26 124.88 1080.46 124.88C1081.63 124.88 1082.59 125.24 1083.34 125.96C1084.11 126.68 1084.5 127.573 1084.5 128.64C1084.5 129.68 1084.11 130.56 1083.34 131.28C1082.59 131.973 1081.63 132.32 1080.46 132.32ZM1103.75 132.32C1102.55 132.32 1101.56 131.973 1100.79 131.28C1100.04 130.56 1099.67 129.68 1099.67 128.64C1099.67 127.573 1100.04 126.68 1100.79 125.96C1101.56 125.24 1102.55 124.88 1103.75 124.88C1104.92 124.88 1105.88 125.24 1106.63 125.96C1107.4 126.68 1107.79 127.573 1107.79 128.64C1107.79 129.68 1107.4 130.56 1106.63 131.28C1105.88 131.973 1104.92 132.32 1103.75 132.32ZM1127.04 132.32C1125.84 132.32 1124.85 131.973 1124.08 131.28C1123.33 130.56 1122.96 129.68 1122.96 128.64C1122.96 127.573 1123.33 126.68 1124.08 125.96C1124.85 125.24 1125.84 124.88 1127.04 124.88C1128.21 124.88 1129.17 125.24 1129.92 125.96C1130.69 126.68 1131.08 127.573 1131.08 128.64C1131.08 129.68 1130.69 130.56 1129.92 131.28C1129.17 131.973 1128.21 132.32 1127.04 132.32ZM1150.32 132.32C1149.12 132.32 1148.14 131.973 1147.36 131.28C1146.62 130.56 1146.24 129.68 1146.24 128.64C1146.24 127.573 1146.62 126.68 1147.36 125.96C1148.14 125.24 1149.12 124.88 1150.32 124.88C1151.5 124.88 1152.46 125.24 1153.2 125.96C1153.98 126.68 1154.36 127.573 1154.36 128.64C1154.36 129.68 1153.98 130.56 1153.2 131.28C1152.46 131.973 1151.5 132.32 1150.32 132.32ZM1173.61 132.32C1172.41 132.32 1171.43 131.973 1170.65 131.28C1169.91 130.56 1169.53 129.68 1169.53 128.64C1169.53 127.573 1169.91 126.68 1170.65 125.96C1171.43 125.24 1172.41 124.88 1173.61 124.88C1174.79 124.88 1175.75 125.24 1176.49 125.96C1177.27 126.68 1177.65 127.573 1177.65 128.64C1177.65 129.68 1177.27 130.56 1176.49 131.28C1175.75 131.973 1174.79 132.32 1173.61 132.32ZM1196.9 132.32C1195.7 132.32 1194.72 131.973 1193.94 131.28C1193.2 130.56 1192.82 129.68 1192.82 128.64C1192.82 127.573 1193.2 126.68 1193.94 125.96C1194.72 125.24 1195.7 124.88 1196.9 124.88C1198.08 124.88 1199.04 125.24 1199.78 125.96C1200.56 126.68 1200.94 127.573 1200.94 128.64C1200.94 129.68 1200.56 130.56 1199.78 131.28C1199.04 131.973 1198.08 132.32 1196.9 132.32ZM1220.19 132.32C1218.99 132.32 1218.01 131.973 1217.23 131.28C1216.49 130.56 1216.11 129.68 1216.11 128.64C1216.11 127.573 1216.49 126.68 1217.23 125.96C1218.01 125.24 1218.99 124.88 1220.19 124.88C1221.37 124.88 1222.33 125.24 1223.07 125.96C1223.85 126.68 1224.23 127.573 1224.23 128.64C1224.23 129.68 1223.85 130.56 1223.07 131.28C1222.33 131.973 1221.37 132.32 1220.19 132.32ZM1243.48 132.32C1242.28 132.32 1241.29 131.973 1240.52 131.28C1239.77 130.56 1239.4 129.68 1239.4 128.64C1239.4 127.573 1239.77 126.68 1240.52 125.96C1241.29 125.24 1242.28 124.88 1243.48 124.88C1244.65 124.88 1245.61 125.24 1246.36 125.96C1247.13 126.68 1247.52 127.573 1247.52 128.64C1247.52 129.68 1247.13 130.56 1246.36 131.28C1245.61 131.973 1244.65 132.32 1243.48 132.32ZM1266.77 132.32C1265.57 132.32 1264.58 131.973 1263.81 131.28C1263.06 130.56 1262.69 129.68 1262.69 128.64C1262.69 127.573 1263.06 126.68 1263.81 125.96C1264.58 125.24 1265.57 124.88 1266.77 124.88C1267.94 124.88 1268.9 125.24 1269.65 125.96C1270.42 126.68 1270.81 127.573 1270.81 128.64C1270.81 129.68 1270.42 130.56 1269.65 131.28C1268.9 131.973 1267.94 132.32 1266.77 132.32ZM1290.06 132.32C1288.86 132.32 1287.87 131.973 1287.1 131.28C1286.35 130.56 1285.98 129.68 1285.98 128.64C1285.98 127.573 1286.35 126.68 1287.1 125.96C1287.87 125.24 1288.86 124.88 1290.06 124.88C1291.23 124.88 1292.19 125.24 1292.94 125.96C1293.71 126.68 1294.1 127.573 1294.1 128.64C1294.1 129.68 1293.71 130.56 1292.94 131.28C1292.19 131.973 1291.23 132.32 1290.06 132.32ZM1313.35 132.32C1312.15 132.32 1311.16 131.973 1310.39 131.28C1309.64 130.56 1309.27 129.68 1309.27 128.64C1309.27 127.573 1309.64 126.68 1310.39 125.96C1311.16 125.24 1312.15 124.88 1313.35 124.88C1314.52 124.88 1315.48 125.24 1316.23 125.96C1317 126.68 1317.39 127.573 1317.39 128.64C1317.39 129.68 1317 130.56 1316.23 131.28C1315.48 131.973 1314.52 132.32 1313.35 132.32ZM940.723 163.32C939.523 163.32 938.536 162.973 937.763 162.28C937.016 161.56 936.643 160.68 936.643 159.64C936.643 158.573 937.016 157.68 937.763 156.96C938.536 156.24 939.523 155.88 940.723 155.88C941.896 155.88 942.856 156.24 943.603 156.96C944.376 157.68 944.763 158.573 944.763 159.64C944.763 160.68 944.376 161.56 943.603 162.28C942.856 162.973 941.896 163.32 940.723 163.32ZM964.012 163.32C962.812 163.32 961.825 162.973 961.052 162.28C960.305 161.56 959.932 160.68 959.932 159.64C959.932 158.573 960.305 157.68 961.052 156.96C961.825 156.24 962.812 155.88 964.012 155.88C965.185 155.88 966.145 156.24 966.892 156.96C967.665 157.68 968.052 158.573 968.052 159.64C968.052 160.68 967.665 161.56 966.892 162.28C966.145 162.973 965.185 163.32 964.012 163.32ZM987.301 163.32C986.101 163.32 985.114 162.973 984.341 162.28C983.594 161.56 983.221 160.68 983.221 159.64C983.221 158.573 983.594 157.68 984.341 156.96C985.114 156.24 986.101 155.88 987.301 155.88C988.474 155.88 989.434 156.24 990.181 156.96C990.954 157.68 991.341 158.573 991.341 159.64C991.341 160.68 990.954 161.56 990.181 162.28C989.434 162.973 988.474 163.32 987.301 163.32ZM1010.59 163.32C1009.39 163.32 1008.4 162.973 1007.63 162.28C1006.88 161.56 1006.51 160.68 1006.51 159.64C1006.51 158.573 1006.88 157.68 1007.63 156.96C1008.4 156.24 1009.39 155.88 1010.59 155.88C1011.76 155.88 1012.72 156.24 1013.47 156.96C1014.24 157.68 1014.63 158.573 1014.63 159.64C1014.63 160.68 1014.24 161.56 1013.47 162.28C1012.72 162.973 1011.76 163.32 1010.59 163.32ZM1033.88 163.32C1032.68 163.32 1031.69 162.973 1030.92 162.28C1030.17 161.56 1029.8 160.68 1029.8 159.64C1029.8 158.573 1030.17 157.68 1030.92 156.96C1031.69 156.24 1032.68 155.88 1033.88 155.88C1035.05 155.88 1036.01 156.24 1036.76 156.96C1037.53 157.68 1037.92 158.573 1037.92 159.64C1037.92 160.68 1037.53 161.56 1036.76 162.28C1036.01 162.973 1035.05 163.32 1033.88 163.32ZM1057.17 163.32C1055.97 163.32 1054.98 162.973 1054.21 162.28C1053.46 161.56 1053.09 160.68 1053.09 159.64C1053.09 158.573 1053.46 157.68 1054.21 156.96C1054.98 156.24 1055.97 155.88 1057.17 155.88C1058.34 155.88 1059.3 156.24 1060.05 156.96C1060.82 157.68 1061.21 158.573 1061.21 159.64C1061.21 160.68 1060.82 161.56 1060.05 162.28C1059.3 162.973 1058.34 163.32 1057.17 163.32ZM1080.46 163.32C1079.26 163.32 1078.27 162.973 1077.5 162.28C1076.75 161.56 1076.38 160.68 1076.38 159.64C1076.38 158.573 1076.75 157.68 1077.5 156.96C1078.27 156.24 1079.26 155.88 1080.46 155.88C1081.63 155.88 1082.59 156.24 1083.34 156.96C1084.11 157.68 1084.5 158.573 1084.5 159.64C1084.5 160.68 1084.11 161.56 1083.34 162.28C1082.59 162.973 1081.63 163.32 1080.46 163.32ZM1103.75 163.32C1102.55 163.32 1101.56 162.973 1100.79 162.28C1100.04 161.56 1099.67 160.68 1099.67 159.64C1099.67 158.573 1100.04 157.68 1100.79 156.96C1101.56 156.24 1102.55 155.88 1103.75 155.88C1104.92 155.88 1105.88 156.24 1106.63 156.96C1107.4 157.68 1107.79 158.573 1107.79 159.64C1107.79 160.68 1107.4 161.56 1106.63 162.28C1105.88 162.973 1104.92 163.32 1103.75 163.32ZM1127.04 163.32C1125.84 163.32 1124.85 162.973 1124.08 162.28C1123.33 161.56 1122.96 160.68 1122.96 159.64C1122.96 158.573 1123.33 157.68 1124.08 156.96C1124.85 156.24 1125.84 155.88 1127.04 155.88C1128.21 155.88 1129.17 156.24 1129.92 156.96C1130.69 157.68 1131.08 158.573 1131.08 159.64C1131.08 160.68 1130.69 161.56 1129.92 162.28C1129.17 162.973 1128.21 163.32 1127.04 163.32ZM1150.32 163.32C1149.12 163.32 1148.14 162.973 1147.36 162.28C1146.62 161.56 1146.24 160.68 1146.24 159.64C1146.24 158.573 1146.62 157.68 1147.36 156.96C1148.14 156.24 1149.12 155.88 1150.32 155.88C1151.5 155.88 1152.46 156.24 1153.2 156.96C1153.98 157.68 1154.36 158.573 1154.36 159.64C1154.36 160.68 1153.98 161.56 1153.2 162.28C1152.46 162.973 1151.5 163.32 1150.32 163.32ZM1173.61 163.32C1172.41 163.32 1171.43 162.973 1170.65 162.28C1169.91 161.56 1169.53 160.68 1169.53 159.64C1169.53 158.573 1169.91 157.68 1170.65 156.96C1171.43 156.24 1172.41 155.88 1173.61 155.88C1174.79 155.88 1175.75 156.24 1176.49 156.96C1177.27 157.68 1177.65 158.573 1177.65 159.64C1177.65 160.68 1177.27 161.56 1176.49 162.28C1175.75 162.973 1174.79 163.32 1173.61 163.32ZM1196.9 163.32C1195.7 163.32 1194.72 162.973 1193.94 162.28C1193.2 161.56 1192.82 160.68 1192.82 159.64C1192.82 158.573 1193.2 157.68 1193.94 156.96C1194.72 156.24 1195.7 155.88 1196.9 155.88C1198.08 155.88 1199.04 156.24 1199.78 156.96C1200.56 157.68 1200.94 158.573 1200.94 159.64C1200.94 160.68 1200.56 161.56 1199.78 162.28C1199.04 162.973 1198.08 163.32 1196.9 163.32ZM1220.19 163.32C1218.99 163.32 1218.01 162.973 1217.23 162.28C1216.49 161.56 1216.11 160.68 1216.11 159.64C1216.11 158.573 1216.49 157.68 1217.23 156.96C1218.01 156.24 1218.99 155.88 1220.19 155.88C1221.37 155.88 1222.33 156.24 1223.07 156.96C1223.85 157.68 1224.23 158.573 1224.23 159.64C1224.23 160.68 1223.85 161.56 1223.07 162.28C1222.33 162.973 1221.37 163.32 1220.19 163.32ZM1243.48 163.32C1242.28 163.32 1241.29 162.973 1240.52 162.28C1239.77 161.56 1239.4 160.68 1239.4 159.64C1239.4 158.573 1239.77 157.68 1240.52 156.96C1241.29 156.24 1242.28 155.88 1243.48 155.88C1244.65 155.88 1245.61 156.24 1246.36 156.96C1247.13 157.68 1247.52 158.573 1247.52 159.64C1247.52 160.68 1247.13 161.56 1246.36 162.28C1245.61 162.973 1244.65 163.32 1243.48 163.32ZM1266.77 163.32C1265.57 163.32 1264.58 162.973 1263.81 162.28C1263.06 161.56 1262.69 160.68 1262.69 159.64C1262.69 158.573 1263.06 157.68 1263.81 156.96C1264.58 156.24 1265.57 155.88 1266.77 155.88C1267.94 155.88 1268.9 156.24 1269.65 156.96C1270.42 157.68 1270.81 158.573 1270.81 159.64C1270.81 160.68 1270.42 161.56 1269.65 162.28C1268.9 162.973 1267.94 163.32 1266.77 163.32ZM1290.06 163.32C1288.86 163.32 1287.87 162.973 1287.1 162.28C1286.35 161.56 1285.98 160.68 1285.98 159.64C1285.98 158.573 1286.35 157.68 1287.1 156.96C1287.87 156.24 1288.86 155.88 1290.06 155.88C1291.23 155.88 1292.19 156.24 1292.94 156.96C1293.71 157.68 1294.1 158.573 1294.1 159.64C1294.1 160.68 1293.71 161.56 1292.94 162.28C1292.19 162.973 1291.23 163.32 1290.06 163.32ZM1313.35 163.32C1312.15 163.32 1311.16 162.973 1310.39 162.28C1309.64 161.56 1309.27 160.68 1309.27 159.64C1309.27 158.573 1309.64 157.68 1310.39 156.96C1311.16 156.24 1312.15 155.88 1313.35 155.88C1314.52 155.88 1315.48 156.24 1316.23 156.96C1317 157.68 1317.39 158.573 1317.39 159.64C1317.39 160.68 1317 161.56 1316.23 162.28C1315.48 162.973 1314.52 163.32 1313.35 163.32Z" fill="white" fill-opacity="0.3"/>
</g>
<defs>
<clipPath id="clip0_31_825">
<path d="M0 30C0 13.4315 13.4315 0 30 0H1262C1278.57 0 1292 13.4315 1292 30V138C1292 220.843 1224.84 288 1142 288H30C13.4315 288 0 274.569 0 258V30Z" fill="white"/>
</clipPath>
</defs>
</svg>
