<svg width="532" height="657" viewBox="0 0 532 657" fill="none" xmlns="http://www.w3.org/2000/svg">
<g clip-path="url(#clip0_22_133)">
<path d="M0 30C0 13.4315 13.4315 0 30 0H432C487.228 0 532 44.7715 532 100V627C532 643.569 518.569 657 502 657H30C13.4315 657 0 643.569 0 627V30Z" fill="#FFC226"/>
<rect x="375" y="290" width="230" height="230" rx="115" fill="#FFD978"/>
<rect width="22.1266" height="7.16933" rx="3.58467" transform="matrix(-0.477452 -0.878658 0.854358 -0.519685 500.564 349.167)" fill="white"/>
<rect x="21" y="56" width="39.5657" height="47.8417" rx="19.7829" fill="#03EDB5"/>
<path d="M194.081 317.086C197.872 310.14 207.847 310.14 211.637 317.086L228.441 347.881C232.078 354.545 227.255 362.671 219.663 362.671H186.055C178.464 362.671 173.641 354.545 177.277 347.881L194.081 317.086Z" fill="#6E56FF"/>
<path d="M482.604 150.122C479.64 138.677 489.492 128.136 500.341 131.143L553.616 145.906C564.471 148.914 568.183 163.225 560.297 171.663L521.575 213.096C513.69 221.534 500.122 217.768 497.157 206.318L482.604 150.122Z" stroke="#E4153A" stroke-width="10"/>
<rect x="-6" y="513" width="169.567" height="179.406" rx="84.7837" fill="white" fill-opacity="0.2"/>
<path d="M474.422 462.05C475.29 459.224 479.29 459.224 480.158 462.05L482.984 471.253C483.371 472.513 484.534 473.373 485.852 473.373L495.343 473.373C498.208 473.373 499.442 477.005 497.171 478.751L489.207 484.873C488.214 485.636 487.8 486.935 488.167 488.132L491.14 497.811C491.998 500.605 488.761 502.852 486.444 501.07L479.118 495.439C478.04 494.61 476.539 494.61 475.461 495.439L468.136 501.07C465.818 502.852 462.582 500.605 463.44 497.811L466.412 488.132C466.78 486.935 466.365 485.636 465.373 484.873L457.409 478.751C455.137 477.005 456.372 473.373 459.237 473.373L468.728 473.373C470.045 473.373 471.209 472.513 471.596 471.253L474.422 462.05Z" fill="#9E00FF"/>
<path d="M-122.277 481.32C-123.477 481.32 -124.464 480.973 -125.237 480.28C-125.984 479.56 -126.357 478.68 -126.357 477.64C-126.357 476.573 -125.984 475.68 -125.237 474.96C-124.464 474.24 -123.477 473.88 -122.277 473.88C-121.104 473.88 -120.144 474.24 -119.397 474.96C-118.624 475.68 -118.237 476.573 -118.237 477.64C-118.237 478.68 -118.624 479.56 -119.397 480.28C-120.144 480.973 -121.104 481.32 -122.277 481.32ZM-98.988 481.32C-100.188 481.32 -101.175 480.973 -101.948 480.28C-102.695 479.56 -103.068 478.68 -103.068 477.64C-103.068 476.573 -102.695 475.68 -101.948 474.96C-101.175 474.24 -100.188 473.88 -98.988 473.88C-97.8146 473.88 -96.8546 474.24 -96.108 474.96C-95.3346 475.68 -94.948 476.573 -94.948 477.64C-94.948 478.68 -95.3346 479.56 -96.108 480.28C-96.8546 480.973 -97.8146 481.32 -98.988 481.32ZM-75.6989 481.32C-76.8989 481.32 -77.8856 480.973 -78.6589 480.28C-79.4056 479.56 -79.7789 478.68 -79.7789 477.64C-79.7789 476.573 -79.4056 475.68 -78.6589 474.96C-77.8856 474.24 -76.8989 473.88 -75.6989 473.88C-74.5256 473.88 -73.5656 474.24 -72.8189 474.96C-72.0456 475.68 -71.6589 476.573 -71.6589 477.64C-71.6589 478.68 -72.0456 479.56 -72.8189 480.28C-73.5656 480.973 -74.5256 481.32 -75.6989 481.32ZM-52.4098 481.32C-53.6098 481.32 -54.5965 480.973 -55.3698 480.28C-56.1165 479.56 -56.4898 478.68 -56.4898 477.64C-56.4898 476.573 -56.1165 475.68 -55.3698 474.96C-54.5965 474.24 -53.6098 473.88 -52.4098 473.88C-51.2365 473.88 -50.2765 474.24 -49.5298 474.96C-48.7565 475.68 -48.3698 476.573 -48.3698 477.64C-48.3698 478.68 -48.7565 479.56 -49.5298 480.28C-50.2765 480.973 -51.2365 481.32 -52.4098 481.32ZM-29.1208 481.32C-30.3208 481.32 -31.3074 480.973 -32.0808 480.28C-32.8274 479.56 -33.2008 478.68 -33.2008 477.64C-33.2008 476.573 -32.8274 475.68 -32.0808 474.96C-31.3074 474.24 -30.3208 473.88 -29.1208 473.88C-27.9474 473.88 -26.9874 474.24 -26.2408 474.96C-25.4674 475.68 -25.0808 476.573 -25.0808 477.64C-25.0808 478.68 -25.4674 479.56 -26.2408 480.28C-26.9874 480.973 -27.9474 481.32 -29.1208 481.32ZM-5.83172 481.32C-7.03172 481.32 -8.01839 480.973 -8.79172 480.28C-9.53839 479.56 -9.91172 478.68 -9.91172 477.64C-9.91172 476.573 -9.53839 475.68 -8.79172 474.96C-8.01839 474.24 -7.03172 473.88 -5.83172 473.88C-4.65839 473.88 -3.69839 474.24 -2.95172 474.96C-2.17838 475.68 -1.79172 476.573 -1.79172 477.64C-1.79172 478.68 -2.17838 479.56 -2.95172 480.28C-3.69839 480.973 -4.65839 481.32 -5.83172 481.32ZM17.4573 481.32C16.2573 481.32 15.2707 480.973 14.4973 480.28C13.7507 479.56 13.3773 478.68 13.3773 477.64C13.3773 476.573 13.7507 475.68 14.4973 474.96C15.2707 474.24 16.2573 473.88 17.4573 473.88C18.6307 473.88 19.5907 474.24 20.3373 474.96C21.1107 475.68 21.4973 476.573 21.4973 477.64C21.4973 478.68 21.1107 479.56 20.3373 480.28C19.5907 480.973 18.6307 481.32 17.4573 481.32ZM40.7464 481.32C39.5464 481.32 38.5597 480.973 37.7864 480.28C37.0397 479.56 36.6664 478.68 36.6664 477.64C36.6664 476.573 37.0397 475.68 37.7864 474.96C38.5597 474.24 39.5464 473.88 40.7464 473.88C41.9197 473.88 42.8797 474.24 43.6264 474.96C44.3997 475.68 44.7864 476.573 44.7864 477.64C44.7864 478.68 44.3997 479.56 43.6264 480.28C42.8797 480.973 41.9197 481.32 40.7464 481.32ZM64.0355 481.32C62.8355 481.32 61.8488 480.973 61.0755 480.28C60.3288 479.56 59.9555 478.68 59.9555 477.64C59.9555 476.573 60.3288 475.68 61.0755 474.96C61.8488 474.24 62.8355 473.88 64.0355 473.88C65.2088 473.88 66.1688 474.24 66.9155 474.96C67.6888 475.68 68.0755 476.573 68.0755 477.64C68.0755 478.68 67.6888 479.56 66.9155 480.28C66.1688 480.973 65.2088 481.32 64.0355 481.32ZM87.3245 481.32C86.1245 481.32 85.1379 480.973 84.3645 480.28C83.6179 479.56 83.2445 478.68 83.2445 477.64C83.2445 476.573 83.6179 475.68 84.3645 474.96C85.1379 474.24 86.1245 473.88 87.3245 473.88C88.4979 473.88 89.4579 474.24 90.2045 474.96C90.9779 475.68 91.3645 476.573 91.3645 477.64C91.3645 478.68 90.9779 479.56 90.2045 480.28C89.4579 480.973 88.4979 481.32 87.3245 481.32ZM110.614 481.32C109.414 481.32 108.427 480.973 107.654 480.28C106.907 479.56 106.534 478.68 106.534 477.64C106.534 476.573 106.907 475.68 107.654 474.96C108.427 474.24 109.414 473.88 110.614 473.88C111.787 473.88 112.747 474.24 113.494 474.96C114.267 475.68 114.654 476.573 114.654 477.64C114.654 478.68 114.267 479.56 113.494 480.28C112.747 480.973 111.787 481.32 110.614 481.32ZM133.903 481.32C132.703 481.32 131.716 480.973 130.943 480.28C130.196 479.56 129.823 478.68 129.823 477.64C129.823 476.573 130.196 475.68 130.943 474.96C131.716 474.24 132.703 473.88 133.903 473.88C135.076 473.88 136.036 474.24 136.783 474.96C137.556 475.68 137.943 476.573 137.943 477.64C137.943 478.68 137.556 479.56 136.783 480.28C136.036 480.973 135.076 481.32 133.903 481.32ZM157.192 481.32C155.992 481.32 155.005 480.973 154.232 480.28C153.485 479.56 153.112 478.68 153.112 477.64C153.112 476.573 153.485 475.68 154.232 474.96C155.005 474.24 155.992 473.88 157.192 473.88C158.365 473.88 159.325 474.24 160.072 474.96C160.845 475.68 161.232 476.573 161.232 477.64C161.232 478.68 160.845 479.56 160.072 480.28C159.325 480.973 158.365 481.32 157.192 481.32ZM180.481 481.32C179.281 481.32 178.294 480.973 177.521 480.28C176.774 479.56 176.401 478.68 176.401 477.64C176.401 476.573 176.774 475.68 177.521 474.96C178.294 474.24 179.281 473.88 180.481 473.88C181.654 473.88 182.614 474.24 183.361 474.96C184.134 475.68 184.521 476.573 184.521 477.64C184.521 478.68 184.134 479.56 183.361 480.28C182.614 480.973 181.654 481.32 180.481 481.32ZM203.77 481.32C202.57 481.32 201.583 480.973 200.81 480.28C200.063 479.56 199.69 478.68 199.69 477.64C199.69 476.573 200.063 475.68 200.81 474.96C201.583 474.24 202.57 473.88 203.77 473.88C204.943 473.88 205.903 474.24 206.65 474.96C207.423 475.68 207.81 476.573 207.81 477.64C207.81 478.68 207.423 479.56 206.65 480.28C205.903 480.973 204.943 481.32 203.77 481.32ZM227.059 481.32C225.859 481.32 224.872 480.973 224.099 480.28C223.352 479.56 222.979 478.68 222.979 477.64C222.979 476.573 223.352 475.68 224.099 474.96C224.872 474.24 225.859 473.88 227.059 473.88C228.232 473.88 229.192 474.24 229.939 474.96C230.712 475.68 231.099 476.573 231.099 477.64C231.099 478.68 230.712 479.56 229.939 480.28C229.192 480.973 228.232 481.32 227.059 481.32ZM250.348 481.32C249.148 481.32 248.161 480.973 247.388 480.28C246.641 479.56 246.268 478.68 246.268 477.64C246.268 476.573 246.641 475.68 247.388 474.96C248.161 474.24 249.148 473.88 250.348 473.88C251.521 473.88 252.481 474.24 253.228 474.96C254.001 475.68 254.388 476.573 254.388 477.64C254.388 478.68 254.001 479.56 253.228 480.28C252.481 480.973 251.521 481.32 250.348 481.32ZM-122.277 512.32C-123.477 512.32 -124.464 511.973 -125.237 511.28C-125.984 510.56 -126.357 509.68 -126.357 508.64C-126.357 507.573 -125.984 506.68 -125.237 505.96C-124.464 505.24 -123.477 504.88 -122.277 504.88C-121.104 504.88 -120.144 505.24 -119.397 505.96C-118.624 506.68 -118.237 507.573 -118.237 508.64C-118.237 509.68 -118.624 510.56 -119.397 511.28C-120.144 511.973 -121.104 512.32 -122.277 512.32ZM-98.988 512.32C-100.188 512.32 -101.175 511.973 -101.948 511.28C-102.695 510.56 -103.068 509.68 -103.068 508.64C-103.068 507.573 -102.695 506.68 -101.948 505.96C-101.175 505.24 -100.188 504.88 -98.988 504.88C-97.8146 504.88 -96.8546 505.24 -96.108 505.96C-95.3346 506.68 -94.948 507.573 -94.948 508.64C-94.948 509.68 -95.3346 510.56 -96.108 511.28C-96.8546 511.973 -97.8146 512.32 -98.988 512.32ZM-75.6989 512.32C-76.8989 512.32 -77.8856 511.973 -78.6589 511.28C-79.4056 510.56 -79.7789 509.68 -79.7789 508.64C-79.7789 507.573 -79.4056 506.68 -78.6589 505.96C-77.8856 505.24 -76.8989 504.88 -75.6989 504.88C-74.5256 504.88 -73.5656 505.24 -72.8189 505.96C-72.0456 506.68 -71.6589 507.573 -71.6589 508.64C-71.6589 509.68 -72.0456 510.56 -72.8189 511.28C-73.5656 511.973 -74.5256 512.32 -75.6989 512.32ZM-52.4098 512.32C-53.6098 512.32 -54.5965 511.973 -55.3698 511.28C-56.1165 510.56 -56.4898 509.68 -56.4898 508.64C-56.4898 507.573 -56.1165 506.68 -55.3698 505.96C-54.5965 505.24 -53.6098 504.88 -52.4098 504.88C-51.2365 504.88 -50.2765 505.24 -49.5298 505.96C-48.7565 506.68 -48.3698 507.573 -48.3698 508.64C-48.3698 509.68 -48.7565 510.56 -49.5298 511.28C-50.2765 511.973 -51.2365 512.32 -52.4098 512.32ZM-29.1208 512.32C-30.3208 512.32 -31.3074 511.973 -32.0808 511.28C-32.8274 510.56 -33.2008 509.68 -33.2008 508.64C-33.2008 507.573 -32.8274 506.68 -32.0808 505.96C-31.3074 505.24 -30.3208 504.88 -29.1208 504.88C-27.9474 504.88 -26.9874 505.24 -26.2408 505.96C-25.4674 506.68 -25.0808 507.573 -25.0808 508.64C-25.0808 509.68 -25.4674 510.56 -26.2408 511.28C-26.9874 511.973 -27.9474 512.32 -29.1208 512.32ZM-5.83172 512.32C-7.03172 512.32 -8.01839 511.973 -8.79172 511.28C-9.53839 510.56 -9.91172 509.68 -9.91172 508.64C-9.91172 507.573 -9.53839 506.68 -8.79172 505.96C-8.01839 505.24 -7.03172 504.88 -5.83172 504.88C-4.65839 504.88 -3.69839 505.24 -2.95172 505.96C-2.17838 506.68 -1.79172 507.573 -1.79172 508.64C-1.79172 509.68 -2.17838 510.56 -2.95172 511.28C-3.69839 511.973 -4.65839 512.32 -5.83172 512.32ZM17.4573 512.32C16.2573 512.32 15.2707 511.973 14.4973 511.28C13.7507 510.56 13.3773 509.68 13.3773 508.64C13.3773 507.573 13.7507 506.68 14.4973 505.96C15.2707 505.24 16.2573 504.88 17.4573 504.88C18.6307 504.88 19.5907 505.24 20.3373 505.96C21.1107 506.68 21.4973 507.573 21.4973 508.64C21.4973 509.68 21.1107 510.56 20.3373 511.28C19.5907 511.973 18.6307 512.32 17.4573 512.32ZM40.7464 512.32C39.5464 512.32 38.5597 511.973 37.7864 511.28C37.0397 510.56 36.6664 509.68 36.6664 508.64C36.6664 507.573 37.0397 506.68 37.7864 505.96C38.5597 505.24 39.5464 504.88 40.7464 504.88C41.9197 504.88 42.8797 505.24 43.6264 505.96C44.3997 506.68 44.7864 507.573 44.7864 508.64C44.7864 509.68 44.3997 510.56 43.6264 511.28C42.8797 511.973 41.9197 512.32 40.7464 512.32ZM64.0355 512.32C62.8355 512.32 61.8488 511.973 61.0755 511.28C60.3288 510.56 59.9555 509.68 59.9555 508.64C59.9555 507.573 60.3288 506.68 61.0755 505.96C61.8488 505.24 62.8355 504.88 64.0355 504.88C65.2088 504.88 66.1688 505.24 66.9155 505.96C67.6888 506.68 68.0755 507.573 68.0755 508.64C68.0755 509.68 67.6888 510.56 66.9155 511.28C66.1688 511.973 65.2088 512.32 64.0355 512.32ZM87.3245 512.32C86.1245 512.32 85.1379 511.973 84.3645 511.28C83.6179 510.56 83.2445 509.68 83.2445 508.64C83.2445 507.573 83.6179 506.68 84.3645 505.96C85.1379 505.24 86.1245 504.88 87.3245 504.88C88.4979 504.88 89.4579 505.24 90.2045 505.96C90.9779 506.68 91.3645 507.573 91.3645 508.64C91.3645 509.68 90.9779 510.56 90.2045 511.28C89.4579 511.973 88.4979 512.32 87.3245 512.32ZM110.614 512.32C109.414 512.32 108.427 511.973 107.654 511.28C106.907 510.56 106.534 509.68 106.534 508.64C106.534 507.573 106.907 506.68 107.654 505.96C108.427 505.24 109.414 504.88 110.614 504.88C111.787 504.88 112.747 505.24 113.494 505.96C114.267 506.68 114.654 507.573 114.654 508.64C114.654 509.68 114.267 510.56 113.494 511.28C112.747 511.973 111.787 512.32 110.614 512.32ZM133.903 512.32C132.703 512.32 131.716 511.973 130.943 511.28C130.196 510.56 129.823 509.68 129.823 508.64C129.823 507.573 130.196 506.68 130.943 505.96C131.716 505.24 132.703 504.88 133.903 504.88C135.076 504.88 136.036 505.24 136.783 505.96C137.556 506.68 137.943 507.573 137.943 508.64C137.943 509.68 137.556 510.56 136.783 511.28C136.036 511.973 135.076 512.32 133.903 512.32ZM157.192 512.32C155.992 512.32 155.005 511.973 154.232 511.28C153.485 510.56 153.112 509.68 153.112 508.64C153.112 507.573 153.485 506.68 154.232 505.96C155.005 505.24 155.992 504.88 157.192 504.88C158.365 504.88 159.325 505.24 160.072 505.96C160.845 506.68 161.232 507.573 161.232 508.64C161.232 509.68 160.845 510.56 160.072 511.28C159.325 511.973 158.365 512.32 157.192 512.32ZM180.481 512.32C179.281 512.32 178.294 511.973 177.521 511.28C176.774 510.56 176.401 509.68 176.401 508.64C176.401 507.573 176.774 506.68 177.521 505.96C178.294 505.24 179.281 504.88 180.481 504.88C181.654 504.88 182.614 505.24 183.361 505.96C184.134 506.68 184.521 507.573 184.521 508.64C184.521 509.68 184.134 510.56 183.361 511.28C182.614 511.973 181.654 512.32 180.481 512.32ZM203.77 512.32C202.57 512.32 201.583 511.973 200.81 511.28C200.063 510.56 199.69 509.68 199.69 508.64C199.69 507.573 200.063 506.68 200.81 505.96C201.583 505.24 202.57 504.88 203.77 504.88C204.943 504.88 205.903 505.24 206.65 505.96C207.423 506.68 207.81 507.573 207.81 508.64C207.81 509.68 207.423 510.56 206.65 511.28C205.903 511.973 204.943 512.32 203.77 512.32ZM227.059 512.32C225.859 512.32 224.872 511.973 224.099 511.28C223.352 510.56 222.979 509.68 222.979 508.64C222.979 507.573 223.352 506.68 224.099 505.96C224.872 505.24 225.859 504.88 227.059 504.88C228.232 504.88 229.192 505.24 229.939 505.96C230.712 506.68 231.099 507.573 231.099 508.64C231.099 509.68 230.712 510.56 229.939 511.28C229.192 511.973 228.232 512.32 227.059 512.32ZM250.348 512.32C249.148 512.32 248.161 511.973 247.388 511.28C246.641 510.56 246.268 509.68 246.268 508.64C246.268 507.573 246.641 506.68 247.388 505.96C248.161 505.24 249.148 504.88 250.348 504.88C251.521 504.88 252.481 505.24 253.228 505.96C254.001 506.68 254.388 507.573 254.388 508.64C254.388 509.68 254.001 510.56 253.228 511.28C252.481 511.973 251.521 512.32 250.348 512.32ZM-122.277 543.32C-123.477 543.32 -124.464 542.973 -125.237 542.28C-125.984 541.56 -126.357 540.68 -126.357 539.64C-126.357 538.573 -125.984 537.68 -125.237 536.96C-124.464 536.24 -123.477 535.88 -122.277 535.88C-121.104 535.88 -120.144 536.24 -119.397 536.96C-118.624 537.68 -118.237 538.573 -118.237 539.64C-118.237 540.68 -118.624 541.56 -119.397 542.28C-120.144 542.973 -121.104 543.32 -122.277 543.32ZM-98.988 543.32C-100.188 543.32 -101.175 542.973 -101.948 542.28C-102.695 541.56 -103.068 540.68 -103.068 539.64C-103.068 538.573 -102.695 537.68 -101.948 536.96C-101.175 536.24 -100.188 535.88 -98.988 535.88C-97.8146 535.88 -96.8546 536.24 -96.108 536.96C-95.3346 537.68 -94.948 538.573 -94.948 539.64C-94.948 540.68 -95.3346 541.56 -96.108 542.28C-96.8546 542.973 -97.8146 543.32 -98.988 543.32ZM-75.6989 543.32C-76.8989 543.32 -77.8856 542.973 -78.6589 542.28C-79.4056 541.56 -79.7789 540.68 -79.7789 539.64C-79.7789 538.573 -79.4056 537.68 -78.6589 536.96C-77.8856 536.24 -76.8989 535.88 -75.6989 535.88C-74.5256 535.88 -73.5656 536.24 -72.8189 536.96C-72.0456 537.68 -71.6589 538.573 -71.6589 539.64C-71.6589 540.68 -72.0456 541.56 -72.8189 542.28C-73.5656 542.973 -74.5256 543.32 -75.6989 543.32ZM-52.4098 543.32C-53.6098 543.32 -54.5965 542.973 -55.3698 542.28C-56.1165 541.56 -56.4898 540.68 -56.4898 539.64C-56.4898 538.573 -56.1165 537.68 -55.3698 536.96C-54.5965 536.24 -53.6098 535.88 -52.4098 535.88C-51.2365 535.88 -50.2765 536.24 -49.5298 536.96C-48.7565 537.68 -48.3698 538.573 -48.3698 539.64C-48.3698 540.68 -48.7565 541.56 -49.5298 542.28C-50.2765 542.973 -51.2365 543.32 -52.4098 543.32ZM-29.1208 543.32C-30.3208 543.32 -31.3074 542.973 -32.0808 542.28C-32.8274 541.56 -33.2008 540.68 -33.2008 539.64C-33.2008 538.573 -32.8274 537.68 -32.0808 536.96C-31.3074 536.24 -30.3208 535.88 -29.1208 535.88C-27.9474 535.88 -26.9874 536.24 -26.2408 536.96C-25.4674 537.68 -25.0808 538.573 -25.0808 539.64C-25.0808 540.68 -25.4674 541.56 -26.2408 542.28C-26.9874 542.973 -27.9474 543.32 -29.1208 543.32ZM-5.83172 543.32C-7.03172 543.32 -8.01839 542.973 -8.79172 542.28C-9.53839 541.56 -9.91172 540.68 -9.91172 539.64C-9.91172 538.573 -9.53839 537.68 -8.79172 536.96C-8.01839 536.24 -7.03172 535.88 -5.83172 535.88C-4.65839 535.88 -3.69839 536.24 -2.95172 536.96C-2.17838 537.68 -1.79172 538.573 -1.79172 539.64C-1.79172 540.68 -2.17838 541.56 -2.95172 542.28C-3.69839 542.973 -4.65839 543.32 -5.83172 543.32ZM17.4573 543.32C16.2573 543.32 15.2707 542.973 14.4973 542.28C13.7507 541.56 13.3773 540.68 13.3773 539.64C13.3773 538.573 13.7507 537.68 14.4973 536.96C15.2707 536.24 16.2573 535.88 17.4573 535.88C18.6307 535.88 19.5907 536.24 20.3373 536.96C21.1107 537.68 21.4973 538.573 21.4973 539.64C21.4973 540.68 21.1107 541.56 20.3373 542.28C19.5907 542.973 18.6307 543.32 17.4573 543.32ZM40.7464 543.32C39.5464 543.32 38.5597 542.973 37.7864 542.28C37.0397 541.56 36.6664 540.68 36.6664 539.64C36.6664 538.573 37.0397 537.68 37.7864 536.96C38.5597 536.24 39.5464 535.88 40.7464 535.88C41.9197 535.88 42.8797 536.24 43.6264 536.96C44.3997 537.68 44.7864 538.573 44.7864 539.64C44.7864 540.68 44.3997 541.56 43.6264 542.28C42.8797 542.973 41.9197 543.32 40.7464 543.32ZM64.0355 543.32C62.8355 543.32 61.8488 542.973 61.0755 542.28C60.3288 541.56 59.9555 540.68 59.9555 539.64C59.9555 538.573 60.3288 537.68 61.0755 536.96C61.8488 536.24 62.8355 535.88 64.0355 535.88C65.2088 535.88 66.1688 536.24 66.9155 536.96C67.6888 537.68 68.0755 538.573 68.0755 539.64C68.0755 540.68 67.6888 541.56 66.9155 542.28C66.1688 542.973 65.2088 543.32 64.0355 543.32ZM87.3245 543.32C86.1245 543.32 85.1379 542.973 84.3645 542.28C83.6179 541.56 83.2445 540.68 83.2445 539.64C83.2445 538.573 83.6179 537.68 84.3645 536.96C85.1379 536.24 86.1245 535.88 87.3245 535.88C88.4979 535.88 89.4579 536.24 90.2045 536.96C90.9779 537.68 91.3645 538.573 91.3645 539.64C91.3645 540.68 90.9779 541.56 90.2045 542.28C89.4579 542.973 88.4979 543.32 87.3245 543.32ZM110.614 543.32C109.414 543.32 108.427 542.973 107.654 542.28C106.907 541.56 106.534 540.68 106.534 539.64C106.534 538.573 106.907 537.68 107.654 536.96C108.427 536.24 109.414 535.88 110.614 535.88C111.787 535.88 112.747 536.24 113.494 536.96C114.267 537.68 114.654 538.573 114.654 539.64C114.654 540.68 114.267 541.56 113.494 542.28C112.747 542.973 111.787 543.32 110.614 543.32ZM133.903 543.32C132.703 543.32 131.716 542.973 130.943 542.28C130.196 541.56 129.823 540.68 129.823 539.64C129.823 538.573 130.196 537.68 130.943 536.96C131.716 536.24 132.703 535.88 133.903 535.88C135.076 535.88 136.036 536.24 136.783 536.96C137.556 537.68 137.943 538.573 137.943 539.64C137.943 540.68 137.556 541.56 136.783 542.28C136.036 542.973 135.076 543.32 133.903 543.32ZM157.192 543.32C155.992 543.32 155.005 542.973 154.232 542.28C153.485 541.56 153.112 540.68 153.112 539.64C153.112 538.573 153.485 537.68 154.232 536.96C155.005 536.24 155.992 535.88 157.192 535.88C158.365 535.88 159.325 536.24 160.072 536.96C160.845 537.68 161.232 538.573 161.232 539.64C161.232 540.68 160.845 541.56 160.072 542.28C159.325 542.973 158.365 543.32 157.192 543.32ZM180.481 543.32C179.281 543.32 178.294 542.973 177.521 542.28C176.774 541.56 176.401 540.68 176.401 539.64C176.401 538.573 176.774 537.68 177.521 536.96C178.294 536.24 179.281 535.88 180.481 535.88C181.654 535.88 182.614 536.24 183.361 536.96C184.134 537.68 184.521 538.573 184.521 539.64C184.521 540.68 184.134 541.56 183.361 542.28C182.614 542.973 181.654 543.32 180.481 543.32ZM203.77 543.32C202.57 543.32 201.583 542.973 200.81 542.28C200.063 541.56 199.69 540.68 199.69 539.64C199.69 538.573 200.063 537.68 200.81 536.96C201.583 536.24 202.57 535.88 203.77 535.88C204.943 535.88 205.903 536.24 206.65 536.96C207.423 537.68 207.81 538.573 207.81 539.64C207.81 540.68 207.423 541.56 206.65 542.28C205.903 542.973 204.943 543.32 203.77 543.32ZM227.059 543.32C225.859 543.32 224.872 542.973 224.099 542.28C223.352 541.56 222.979 540.68 222.979 539.64C222.979 538.573 223.352 537.68 224.099 536.96C224.872 536.24 225.859 535.88 227.059 535.88C228.232 535.88 229.192 536.24 229.939 536.96C230.712 537.68 231.099 538.573 231.099 539.64C231.099 540.68 230.712 541.56 229.939 542.28C229.192 542.973 228.232 543.32 227.059 543.32ZM250.348 543.32C249.148 543.32 248.161 542.973 247.388 542.28C246.641 541.56 246.268 540.68 246.268 539.64C246.268 538.573 246.641 537.68 247.388 536.96C248.161 536.24 249.148 535.88 250.348 535.88C251.521 535.88 252.481 536.24 253.228 536.96C254.001 537.68 254.388 538.573 254.388 539.64C254.388 540.68 254.001 541.56 253.228 542.28C252.481 542.973 251.521 543.32 250.348 543.32ZM-122.277 574.32C-123.477 574.32 -124.464 573.973 -125.237 573.28C-125.984 572.56 -126.357 571.68 -126.357 570.64C-126.357 569.573 -125.984 568.68 -125.237 567.96C-124.464 567.24 -123.477 566.88 -122.277 566.88C-121.104 566.88 -120.144 567.24 -119.397 567.96C-118.624 568.68 -118.237 569.573 -118.237 570.64C-118.237 571.68 -118.624 572.56 -119.397 573.28C-120.144 573.973 -121.104 574.32 -122.277 574.32ZM-98.988 574.32C-100.188 574.32 -101.175 573.973 -101.948 573.28C-102.695 572.56 -103.068 571.68 -103.068 570.64C-103.068 569.573 -102.695 568.68 -101.948 567.96C-101.175 567.24 -100.188 566.88 -98.988 566.88C-97.8146 566.88 -96.8546 567.24 -96.108 567.96C-95.3346 568.68 -94.948 569.573 -94.948 570.64C-94.948 571.68 -95.3346 572.56 -96.108 573.28C-96.8546 573.973 -97.8146 574.32 -98.988 574.32ZM-75.6989 574.32C-76.8989 574.32 -77.8856 573.973 -78.6589 573.28C-79.4056 572.56 -79.7789 571.68 -79.7789 570.64C-79.7789 569.573 -79.4056 568.68 -78.6589 567.96C-77.8856 567.24 -76.8989 566.88 -75.6989 566.88C-74.5256 566.88 -73.5656 567.24 -72.8189 567.96C-72.0456 568.68 -71.6589 569.573 -71.6589 570.64C-71.6589 571.68 -72.0456 572.56 -72.8189 573.28C-73.5656 573.973 -74.5256 574.32 -75.6989 574.32ZM-52.4098 574.32C-53.6098 574.32 -54.5965 573.973 -55.3698 573.28C-56.1165 572.56 -56.4898 571.68 -56.4898 570.64C-56.4898 569.573 -56.1165 568.68 -55.3698 567.96C-54.5965 567.24 -53.6098 566.88 -52.4098 566.88C-51.2365 566.88 -50.2765 567.24 -49.5298 567.96C-48.7565 568.68 -48.3698 569.573 -48.3698 570.64C-48.3698 571.68 -48.7565 572.56 -49.5298 573.28C-50.2765 573.973 -51.2365 574.32 -52.4098 574.32ZM-29.1208 574.32C-30.3208 574.32 -31.3074 573.973 -32.0808 573.28C-32.8274 572.56 -33.2008 571.68 -33.2008 570.64C-33.2008 569.573 -32.8274 568.68 -32.0808 567.96C-31.3074 567.24 -30.3208 566.88 -29.1208 566.88C-27.9474 566.88 -26.9874 567.24 -26.2408 567.96C-25.4674 568.68 -25.0808 569.573 -25.0808 570.64C-25.0808 571.68 -25.4674 572.56 -26.2408 573.28C-26.9874 573.973 -27.9474 574.32 -29.1208 574.32ZM-5.83172 574.32C-7.03172 574.32 -8.01839 573.973 -8.79172 573.28C-9.53839 572.56 -9.91172 571.68 -9.91172 570.64C-9.91172 569.573 -9.53839 568.68 -8.79172 567.96C-8.01839 567.24 -7.03172 566.88 -5.83172 566.88C-4.65839 566.88 -3.69839 567.24 -2.95172 567.96C-2.17838 568.68 -1.79172 569.573 -1.79172 570.64C-1.79172 571.68 -2.17838 572.56 -2.95172 573.28C-3.69839 573.973 -4.65839 574.32 -5.83172 574.32ZM17.4573 574.32C16.2573 574.32 15.2707 573.973 14.4973 573.28C13.7507 572.56 13.3773 571.68 13.3773 570.64C13.3773 569.573 13.7507 568.68 14.4973 567.96C15.2707 567.24 16.2573 566.88 17.4573 566.88C18.6307 566.88 19.5907 567.24 20.3373 567.96C21.1107 568.68 21.4973 569.573 21.4973 570.64C21.4973 571.68 21.1107 572.56 20.3373 573.28C19.5907 573.973 18.6307 574.32 17.4573 574.32ZM40.7464 574.32C39.5464 574.32 38.5597 573.973 37.7864 573.28C37.0397 572.56 36.6664 571.68 36.6664 570.64C36.6664 569.573 37.0397 568.68 37.7864 567.96C38.5597 567.24 39.5464 566.88 40.7464 566.88C41.9197 566.88 42.8797 567.24 43.6264 567.96C44.3997 568.68 44.7864 569.573 44.7864 570.64C44.7864 571.68 44.3997 572.56 43.6264 573.28C42.8797 573.973 41.9197 574.32 40.7464 574.32ZM64.0355 574.32C62.8355 574.32 61.8488 573.973 61.0755 573.28C60.3288 572.56 59.9555 571.68 59.9555 570.64C59.9555 569.573 60.3288 568.68 61.0755 567.96C61.8488 567.24 62.8355 566.88 64.0355 566.88C65.2088 566.88 66.1688 567.24 66.9155 567.96C67.6888 568.68 68.0755 569.573 68.0755 570.64C68.0755 571.68 67.6888 572.56 66.9155 573.28C66.1688 573.973 65.2088 574.32 64.0355 574.32ZM87.3245 574.32C86.1245 574.32 85.1379 573.973 84.3645 573.28C83.6179 572.56 83.2445 571.68 83.2445 570.64C83.2445 569.573 83.6179 568.68 84.3645 567.96C85.1379 567.24 86.1245 566.88 87.3245 566.88C88.4979 566.88 89.4579 567.24 90.2045 567.96C90.9779 568.68 91.3645 569.573 91.3645 570.64C91.3645 571.68 90.9779 572.56 90.2045 573.28C89.4579 573.973 88.4979 574.32 87.3245 574.32ZM110.614 574.32C109.414 574.32 108.427 573.973 107.654 573.28C106.907 572.56 106.534 571.68 106.534 570.64C106.534 569.573 106.907 568.68 107.654 567.96C108.427 567.24 109.414 566.88 110.614 566.88C111.787 566.88 112.747 567.24 113.494 567.96C114.267 568.68 114.654 569.573 114.654 570.64C114.654 571.68 114.267 572.56 113.494 573.28C112.747 573.973 111.787 574.32 110.614 574.32ZM133.903 574.32C132.703 574.32 131.716 573.973 130.943 573.28C130.196 572.56 129.823 571.68 129.823 570.64C129.823 569.573 130.196 568.68 130.943 567.96C131.716 567.24 132.703 566.88 133.903 566.88C135.076 566.88 136.036 567.24 136.783 567.96C137.556 568.68 137.943 569.573 137.943 570.64C137.943 571.68 137.556 572.56 136.783 573.28C136.036 573.973 135.076 574.32 133.903 574.32ZM157.192 574.32C155.992 574.32 155.005 573.973 154.232 573.28C153.485 572.56 153.112 571.68 153.112 570.64C153.112 569.573 153.485 568.68 154.232 567.96C155.005 567.24 155.992 566.88 157.192 566.88C158.365 566.88 159.325 567.24 160.072 567.96C160.845 568.68 161.232 569.573 161.232 570.64C161.232 571.68 160.845 572.56 160.072 573.28C159.325 573.973 158.365 574.32 157.192 574.32ZM180.481 574.32C179.281 574.32 178.294 573.973 177.521 573.28C176.774 572.56 176.401 571.68 176.401 570.64C176.401 569.573 176.774 568.68 177.521 567.96C178.294 567.24 179.281 566.88 180.481 566.88C181.654 566.88 182.614 567.24 183.361 567.96C184.134 568.68 184.521 569.573 184.521 570.64C184.521 571.68 184.134 572.56 183.361 573.28C182.614 573.973 181.654 574.32 180.481 574.32ZM203.77 574.32C202.57 574.32 201.583 573.973 200.81 573.28C200.063 572.56 199.69 571.68 199.69 570.64C199.69 569.573 200.063 568.68 200.81 567.96C201.583 567.24 202.57 566.88 203.77 566.88C204.943 566.88 205.903 567.24 206.65 567.96C207.423 568.68 207.81 569.573 207.81 570.64C207.81 571.68 207.423 572.56 206.65 573.28C205.903 573.973 204.943 574.32 203.77 574.32ZM227.059 574.32C225.859 574.32 224.872 573.973 224.099 573.28C223.352 572.56 222.979 571.68 222.979 570.64C222.979 569.573 223.352 568.68 224.099 567.96C224.872 567.24 225.859 566.88 227.059 566.88C228.232 566.88 229.192 567.24 229.939 567.96C230.712 568.68 231.099 569.573 231.099 570.64C231.099 571.68 230.712 572.56 229.939 573.28C229.192 573.973 228.232 574.32 227.059 574.32ZM250.348 574.32C249.148 574.32 248.161 573.973 247.388 573.28C246.641 572.56 246.268 571.68 246.268 570.64C246.268 569.573 246.641 568.68 247.388 567.96C248.161 567.24 249.148 566.88 250.348 566.88C251.521 566.88 252.481 567.24 253.228 567.96C254.001 568.68 254.388 569.573 254.388 570.64C254.388 571.68 254.001 572.56 253.228 573.28C252.481 573.973 251.521 574.32 250.348 574.32ZM-122.277 605.32C-123.477 605.32 -124.464 604.973 -125.237 604.28C-125.984 603.56 -126.357 602.68 -126.357 601.64C-126.357 600.573 -125.984 599.68 -125.237 598.96C-124.464 598.24 -123.477 597.88 -122.277 597.88C-121.104 597.88 -120.144 598.24 -119.397 598.96C-118.624 599.68 -118.237 600.573 -118.237 601.64C-118.237 602.68 -118.624 603.56 -119.397 604.28C-120.144 604.973 -121.104 605.32 -122.277 605.32ZM-98.988 605.32C-100.188 605.32 -101.175 604.973 -101.948 604.28C-102.695 603.56 -103.068 602.68 -103.068 601.64C-103.068 600.573 -102.695 599.68 -101.948 598.96C-101.175 598.24 -100.188 597.88 -98.988 597.88C-97.8146 597.88 -96.8546 598.24 -96.108 598.96C-95.3346 599.68 -94.948 600.573 -94.948 601.64C-94.948 602.68 -95.3346 603.56 -96.108 604.28C-96.8546 604.973 -97.8146 605.32 -98.988 605.32ZM-75.6989 605.32C-76.8989 605.32 -77.8856 604.973 -78.6589 604.28C-79.4056 603.56 -79.7789 602.68 -79.7789 601.64C-79.7789 600.573 -79.4056 599.68 -78.6589 598.96C-77.8856 598.24 -76.8989 597.88 -75.6989 597.88C-74.5256 597.88 -73.5656 598.24 -72.8189 598.96C-72.0456 599.68 -71.6589 600.573 -71.6589 601.64C-71.6589 602.68 -72.0456 603.56 -72.8189 604.28C-73.5656 604.973 -74.5256 605.32 -75.6989 605.32ZM-52.4098 605.32C-53.6098 605.32 -54.5965 604.973 -55.3698 604.28C-56.1165 603.56 -56.4898 602.68 -56.4898 601.64C-56.4898 600.573 -56.1165 599.68 -55.3698 598.96C-54.5965 598.24 -53.6098 597.88 -52.4098 597.88C-51.2365 597.88 -50.2765 598.24 -49.5298 598.96C-48.7565 599.68 -48.3698 600.573 -48.3698 601.64C-48.3698 602.68 -48.7565 603.56 -49.5298 604.28C-50.2765 604.973 -51.2365 605.32 -52.4098 605.32ZM-29.1208 605.32C-30.3208 605.32 -31.3074 604.973 -32.0808 604.28C-32.8274 603.56 -33.2008 602.68 -33.2008 601.64C-33.2008 600.573 -32.8274 599.68 -32.0808 598.96C-31.3074 598.24 -30.3208 597.88 -29.1208 597.88C-27.9474 597.88 -26.9874 598.24 -26.2408 598.96C-25.4674 599.68 -25.0808 600.573 -25.0808 601.64C-25.0808 602.68 -25.4674 603.56 -26.2408 604.28C-26.9874 604.973 -27.9474 605.32 -29.1208 605.32ZM-5.83172 605.32C-7.03172 605.32 -8.01839 604.973 -8.79172 604.28C-9.53839 603.56 -9.91172 602.68 -9.91172 601.64C-9.91172 600.573 -9.53839 599.68 -8.79172 598.96C-8.01839 598.24 -7.03172 597.88 -5.83172 597.88C-4.65839 597.88 -3.69839 598.24 -2.95172 598.96C-2.17838 599.68 -1.79172 600.573 -1.79172 601.64C-1.79172 602.68 -2.17838 603.56 -2.95172 604.28C-3.69839 604.973 -4.65839 605.32 -5.83172 605.32ZM17.4573 605.32C16.2573 605.32 15.2707 604.973 14.4973 604.28C13.7507 603.56 13.3773 602.68 13.3773 601.64C13.3773 600.573 13.7507 599.68 14.4973 598.96C15.2707 598.24 16.2573 597.88 17.4573 597.88C18.6307 597.88 19.5907 598.24 20.3373 598.96C21.1107 599.68 21.4973 600.573 21.4973 601.64C21.4973 602.68 21.1107 603.56 20.3373 604.28C19.5907 604.973 18.6307 605.32 17.4573 605.32ZM40.7464 605.32C39.5464 605.32 38.5597 604.973 37.7864 604.28C37.0397 603.56 36.6664 602.68 36.6664 601.64C36.6664 600.573 37.0397 599.68 37.7864 598.96C38.5597 598.24 39.5464 597.88 40.7464 597.88C41.9197 597.88 42.8797 598.24 43.6264 598.96C44.3997 599.68 44.7864 600.573 44.7864 601.64C44.7864 602.68 44.3997 603.56 43.6264 604.28C42.8797 604.973 41.9197 605.32 40.7464 605.32ZM64.0355 605.32C62.8355 605.32 61.8488 604.973 61.0755 604.28C60.3288 603.56 59.9555 602.68 59.9555 601.64C59.9555 600.573 60.3288 599.68 61.0755 598.96C61.8488 598.24 62.8355 597.88 64.0355 597.88C65.2088 597.88 66.1688 598.24 66.9155 598.96C67.6888 599.68 68.0755 600.573 68.0755 601.64C68.0755 602.68 67.6888 603.56 66.9155 604.28C66.1688 604.973 65.2088 605.32 64.0355 605.32ZM87.3245 605.32C86.1245 605.32 85.1379 604.973 84.3645 604.28C83.6179 603.56 83.2445 602.68 83.2445 601.64C83.2445 600.573 83.6179 599.68 84.3645 598.96C85.1379 598.24 86.1245 597.88 87.3245 597.88C88.4979 597.88 89.4579 598.24 90.2045 598.96C90.9779 599.68 91.3645 600.573 91.3645 601.64C91.3645 602.68 90.9779 603.56 90.2045 604.28C89.4579 604.973 88.4979 605.32 87.3245 605.32ZM110.614 605.32C109.414 605.32 108.427 604.973 107.654 604.28C106.907 603.56 106.534 602.68 106.534 601.64C106.534 600.573 106.907 599.68 107.654 598.96C108.427 598.24 109.414 597.88 110.614 597.88C111.787 597.88 112.747 598.24 113.494 598.96C114.267 599.68 114.654 600.573 114.654 601.64C114.654 602.68 114.267 603.56 113.494 604.28C112.747 604.973 111.787 605.32 110.614 605.32ZM133.903 605.32C132.703 605.32 131.716 604.973 130.943 604.28C130.196 603.56 129.823 602.68 129.823 601.64C129.823 600.573 130.196 599.68 130.943 598.96C131.716 598.24 132.703 597.88 133.903 597.88C135.076 597.88 136.036 598.24 136.783 598.96C137.556 599.68 137.943 600.573 137.943 601.64C137.943 602.68 137.556 603.56 136.783 604.28C136.036 604.973 135.076 605.32 133.903 605.32ZM157.192 605.32C155.992 605.32 155.005 604.973 154.232 604.28C153.485 603.56 153.112 602.68 153.112 601.64C153.112 600.573 153.485 599.68 154.232 598.96C155.005 598.24 155.992 597.88 157.192 597.88C158.365 597.88 159.325 598.24 160.072 598.96C160.845 599.68 161.232 600.573 161.232 601.64C161.232 602.68 160.845 603.56 160.072 604.28C159.325 604.973 158.365 605.32 157.192 605.32ZM180.481 605.32C179.281 605.32 178.294 604.973 177.521 604.28C176.774 603.56 176.401 602.68 176.401 601.64C176.401 600.573 176.774 599.68 177.521 598.96C178.294 598.24 179.281 597.88 180.481 597.88C181.654 597.88 182.614 598.24 183.361 598.96C184.134 599.68 184.521 600.573 184.521 601.64C184.521 602.68 184.134 603.56 183.361 604.28C182.614 604.973 181.654 605.32 180.481 605.32ZM203.77 605.32C202.57 605.32 201.583 604.973 200.81 604.28C200.063 603.56 199.69 602.68 199.69 601.64C199.69 600.573 200.063 599.68 200.81 598.96C201.583 598.24 202.57 597.88 203.77 597.88C204.943 597.88 205.903 598.24 206.65 598.96C207.423 599.68 207.81 600.573 207.81 601.64C207.81 602.68 207.423 603.56 206.65 604.28C205.903 604.973 204.943 605.32 203.77 605.32ZM227.059 605.32C225.859 605.32 224.872 604.973 224.099 604.28C223.352 603.56 222.979 602.68 222.979 601.64C222.979 600.573 223.352 599.68 224.099 598.96C224.872 598.24 225.859 597.88 227.059 597.88C228.232 597.88 229.192 598.24 229.939 598.96C230.712 599.68 231.099 600.573 231.099 601.64C231.099 602.68 230.712 603.56 229.939 604.28C229.192 604.973 228.232 605.32 227.059 605.32ZM250.348 605.32C249.148 605.32 248.161 604.973 247.388 604.28C246.641 603.56 246.268 602.68 246.268 601.64C246.268 600.573 246.641 599.68 247.388 598.96C248.161 598.24 249.148 597.88 250.348 597.88C251.521 597.88 252.481 598.24 253.228 598.96C254.001 599.68 254.388 600.573 254.388 601.64C254.388 602.68 254.001 603.56 253.228 604.28C252.481 604.973 251.521 605.32 250.348 605.32ZM-122.277 636.32C-123.477 636.32 -124.464 635.973 -125.237 635.28C-125.984 634.56 -126.357 633.68 -126.357 632.64C-126.357 631.573 -125.984 630.68 -125.237 629.96C-124.464 629.24 -123.477 628.88 -122.277 628.88C-121.104 628.88 -120.144 629.24 -119.397 629.96C-118.624 630.68 -118.237 631.573 -118.237 632.64C-118.237 633.68 -118.624 634.56 -119.397 635.28C-120.144 635.973 -121.104 636.32 -122.277 636.32ZM-98.988 636.32C-100.188 636.32 -101.175 635.973 -101.948 635.28C-102.695 634.56 -103.068 633.68 -103.068 632.64C-103.068 631.573 -102.695 630.68 -101.948 629.96C-101.175 629.24 -100.188 628.88 -98.988 628.88C-97.8146 628.88 -96.8546 629.24 -96.108 629.96C-95.3346 630.68 -94.948 631.573 -94.948 632.64C-94.948 633.68 -95.3346 634.56 -96.108 635.28C-96.8546 635.973 -97.8146 636.32 -98.988 636.32ZM-75.6989 636.32C-76.8989 636.32 -77.8856 635.973 -78.6589 635.28C-79.4056 634.56 -79.7789 633.68 -79.7789 632.64C-79.7789 631.573 -79.4056 630.68 -78.6589 629.96C-77.8856 629.24 -76.8989 628.88 -75.6989 628.88C-74.5256 628.88 -73.5656 629.24 -72.8189 629.96C-72.0456 630.68 -71.6589 631.573 -71.6589 632.64C-71.6589 633.68 -72.0456 634.56 -72.8189 635.28C-73.5656 635.973 -74.5256 636.32 -75.6989 636.32ZM-52.4098 636.32C-53.6098 636.32 -54.5965 635.973 -55.3698 635.28C-56.1165 634.56 -56.4898 633.68 -56.4898 632.64C-56.4898 631.573 -56.1165 630.68 -55.3698 629.96C-54.5965 629.24 -53.6098 628.88 -52.4098 628.88C-51.2365 628.88 -50.2765 629.24 -49.5298 629.96C-48.7565 630.68 -48.3698 631.573 -48.3698 632.64C-48.3698 633.68 -48.7565 634.56 -49.5298 635.28C-50.2765 635.973 -51.2365 636.32 -52.4098 636.32ZM-29.1208 636.32C-30.3208 636.32 -31.3074 635.973 -32.0808 635.28C-32.8274 634.56 -33.2008 633.68 -33.2008 632.64C-33.2008 631.573 -32.8274 630.68 -32.0808 629.96C-31.3074 629.24 -30.3208 628.88 -29.1208 628.88C-27.9474 628.88 -26.9874 629.24 -26.2408 629.96C-25.4674 630.68 -25.0808 631.573 -25.0808 632.64C-25.0808 633.68 -25.4674 634.56 -26.2408 635.28C-26.9874 635.973 -27.9474 636.32 -29.1208 636.32ZM-5.83172 636.32C-7.03172 636.32 -8.01839 635.973 -8.79172 635.28C-9.53839 634.56 -9.91172 633.68 -9.91172 632.64C-9.91172 631.573 -9.53839 630.68 -8.79172 629.96C-8.01839 629.24 -7.03172 628.88 -5.83172 628.88C-4.65839 628.88 -3.69839 629.24 -2.95172 629.96C-2.17838 630.68 -1.79172 631.573 -1.79172 632.64C-1.79172 633.68 -2.17838 634.56 -2.95172 635.28C-3.69839 635.973 -4.65839 636.32 -5.83172 636.32ZM17.4573 636.32C16.2573 636.32 15.2707 635.973 14.4973 635.28C13.7507 634.56 13.3773 633.68 13.3773 632.64C13.3773 631.573 13.7507 630.68 14.4973 629.96C15.2707 629.24 16.2573 628.88 17.4573 628.88C18.6307 628.88 19.5907 629.24 20.3373 629.96C21.1107 630.68 21.4973 631.573 21.4973 632.64C21.4973 633.68 21.1107 634.56 20.3373 635.28C19.5907 635.973 18.6307 636.32 17.4573 636.32ZM40.7464 636.32C39.5464 636.32 38.5597 635.973 37.7864 635.28C37.0397 634.56 36.6664 633.68 36.6664 632.64C36.6664 631.573 37.0397 630.68 37.7864 629.96C38.5597 629.24 39.5464 628.88 40.7464 628.88C41.9197 628.88 42.8797 629.24 43.6264 629.96C44.3997 630.68 44.7864 631.573 44.7864 632.64C44.7864 633.68 44.3997 634.56 43.6264 635.28C42.8797 635.973 41.9197 636.32 40.7464 636.32ZM64.0355 636.32C62.8355 636.32 61.8488 635.973 61.0755 635.28C60.3288 634.56 59.9555 633.68 59.9555 632.64C59.9555 631.573 60.3288 630.68 61.0755 629.96C61.8488 629.24 62.8355 628.88 64.0355 628.88C65.2088 628.88 66.1688 629.24 66.9155 629.96C67.6888 630.68 68.0755 631.573 68.0755 632.64C68.0755 633.68 67.6888 634.56 66.9155 635.28C66.1688 635.973 65.2088 636.32 64.0355 636.32ZM87.3245 636.32C86.1245 636.32 85.1379 635.973 84.3645 635.28C83.6179 634.56 83.2445 633.68 83.2445 632.64C83.2445 631.573 83.6179 630.68 84.3645 629.96C85.1379 629.24 86.1245 628.88 87.3245 628.88C88.4979 628.88 89.4579 629.24 90.2045 629.96C90.9779 630.68 91.3645 631.573 91.3645 632.64C91.3645 633.68 90.9779 634.56 90.2045 635.28C89.4579 635.973 88.4979 636.32 87.3245 636.32ZM110.614 636.32C109.414 636.32 108.427 635.973 107.654 635.28C106.907 634.56 106.534 633.68 106.534 632.64C106.534 631.573 106.907 630.68 107.654 629.96C108.427 629.24 109.414 628.88 110.614 628.88C111.787 628.88 112.747 629.24 113.494 629.96C114.267 630.68 114.654 631.573 114.654 632.64C114.654 633.68 114.267 634.56 113.494 635.28C112.747 635.973 111.787 636.32 110.614 636.32ZM133.903 636.32C132.703 636.32 131.716 635.973 130.943 635.28C130.196 634.56 129.823 633.68 129.823 632.64C129.823 631.573 130.196 630.68 130.943 629.96C131.716 629.24 132.703 628.88 133.903 628.88C135.076 628.88 136.036 629.24 136.783 629.96C137.556 630.68 137.943 631.573 137.943 632.64C137.943 633.68 137.556 634.56 136.783 635.28C136.036 635.973 135.076 636.32 133.903 636.32ZM157.192 636.32C155.992 636.32 155.005 635.973 154.232 635.28C153.485 634.56 153.112 633.68 153.112 632.64C153.112 631.573 153.485 630.68 154.232 629.96C155.005 629.24 155.992 628.88 157.192 628.88C158.365 628.88 159.325 629.24 160.072 629.96C160.845 630.68 161.232 631.573 161.232 632.64C161.232 633.68 160.845 634.56 160.072 635.28C159.325 635.973 158.365 636.32 157.192 636.32ZM180.481 636.32C179.281 636.32 178.294 635.973 177.521 635.28C176.774 634.56 176.401 633.68 176.401 632.64C176.401 631.573 176.774 630.68 177.521 629.96C178.294 629.24 179.281 628.88 180.481 628.88C181.654 628.88 182.614 629.24 183.361 629.96C184.134 630.68 184.521 631.573 184.521 632.64C184.521 633.68 184.134 634.56 183.361 635.28C182.614 635.973 181.654 636.32 180.481 636.32ZM203.77 636.32C202.57 636.32 201.583 635.973 200.81 635.28C200.063 634.56 199.69 633.68 199.69 632.64C199.69 631.573 200.063 630.68 200.81 629.96C201.583 629.24 202.57 628.88 203.77 628.88C204.943 628.88 205.903 629.24 206.65 629.96C207.423 630.68 207.81 631.573 207.81 632.64C207.81 633.68 207.423 634.56 206.65 635.28C205.903 635.973 204.943 636.32 203.77 636.32ZM227.059 636.32C225.859 636.32 224.872 635.973 224.099 635.28C223.352 634.56 222.979 633.68 222.979 632.64C222.979 631.573 223.352 630.68 224.099 629.96C224.872 629.24 225.859 628.88 227.059 628.88C228.232 628.88 229.192 629.24 229.939 629.96C230.712 630.68 231.099 631.573 231.099 632.64C231.099 633.68 230.712 634.56 229.939 635.28C229.192 635.973 228.232 636.32 227.059 636.32ZM250.348 636.32C249.148 636.32 248.161 635.973 247.388 635.28C246.641 634.56 246.268 633.68 246.268 632.64C246.268 631.573 246.641 630.68 247.388 629.96C248.161 629.24 249.148 628.88 250.348 628.88C251.521 628.88 252.481 629.24 253.228 629.96C254.001 630.68 254.388 631.573 254.388 632.64C254.388 633.68 254.001 634.56 253.228 635.28C252.481 635.973 251.521 636.32 250.348 636.32ZM-122.277 667.32C-123.477 667.32 -124.464 666.973 -125.237 666.28C-125.984 665.56 -126.357 664.68 -126.357 663.64C-126.357 662.573 -125.984 661.68 -125.237 660.96C-124.464 660.24 -123.477 659.88 -122.277 659.88C-121.104 659.88 -120.144 660.24 -119.397 660.96C-118.624 661.68 -118.237 662.573 -118.237 663.64C-118.237 664.68 -118.624 665.56 -119.397 666.28C-120.144 666.973 -121.104 667.32 -122.277 667.32ZM-98.988 667.32C-100.188 667.32 -101.175 666.973 -101.948 666.28C-102.695 665.56 -103.068 664.68 -103.068 663.64C-103.068 662.573 -102.695 661.68 -101.948 660.96C-101.175 660.24 -100.188 659.88 -98.988 659.88C-97.8146 659.88 -96.8546 660.24 -96.108 660.96C-95.3346 661.68 -94.948 662.573 -94.948 663.64C-94.948 664.68 -95.3346 665.56 -96.108 666.28C-96.8546 666.973 -97.8146 667.32 -98.988 667.32ZM-75.6989 667.32C-76.8989 667.32 -77.8856 666.973 -78.6589 666.28C-79.4056 665.56 -79.7789 664.68 -79.7789 663.64C-79.7789 662.573 -79.4056 661.68 -78.6589 660.96C-77.8856 660.24 -76.8989 659.88 -75.6989 659.88C-74.5256 659.88 -73.5656 660.24 -72.8189 660.96C-72.0456 661.68 -71.6589 662.573 -71.6589 663.64C-71.6589 664.68 -72.0456 665.56 -72.8189 666.28C-73.5656 666.973 -74.5256 667.32 -75.6989 667.32ZM-52.4098 667.32C-53.6098 667.32 -54.5965 666.973 -55.3698 666.28C-56.1165 665.56 -56.4898 664.68 -56.4898 663.64C-56.4898 662.573 -56.1165 661.68 -55.3698 660.96C-54.5965 660.24 -53.6098 659.88 -52.4098 659.88C-51.2365 659.88 -50.2765 660.24 -49.5298 660.96C-48.7565 661.68 -48.3698 662.573 -48.3698 663.64C-48.3698 664.68 -48.7565 665.56 -49.5298 666.28C-50.2765 666.973 -51.2365 667.32 -52.4098 667.32ZM-29.1208 667.32C-30.3208 667.32 -31.3074 666.973 -32.0808 666.28C-32.8274 665.56 -33.2008 664.68 -33.2008 663.64C-33.2008 662.573 -32.8274 661.68 -32.0808 660.96C-31.3074 660.24 -30.3208 659.88 -29.1208 659.88C-27.9474 659.88 -26.9874 660.24 -26.2408 660.96C-25.4674 661.68 -25.0808 662.573 -25.0808 663.64C-25.0808 664.68 -25.4674 665.56 -26.2408 666.28C-26.9874 666.973 -27.9474 667.32 -29.1208 667.32ZM-5.83172 667.32C-7.03172 667.32 -8.01839 666.973 -8.79172 666.28C-9.53839 665.56 -9.91172 664.68 -9.91172 663.64C-9.91172 662.573 -9.53839 661.68 -8.79172 660.96C-8.01839 660.24 -7.03172 659.88 -5.83172 659.88C-4.65839 659.88 -3.69839 660.24 -2.95172 660.96C-2.17838 661.68 -1.79172 662.573 -1.79172 663.64C-1.79172 664.68 -2.17838 665.56 -2.95172 666.28C-3.69839 666.973 -4.65839 667.32 -5.83172 667.32ZM17.4573 667.32C16.2573 667.32 15.2707 666.973 14.4973 666.28C13.7507 665.56 13.3773 664.68 13.3773 663.64C13.3773 662.573 13.7507 661.68 14.4973 660.96C15.2707 660.24 16.2573 659.88 17.4573 659.88C18.6307 659.88 19.5907 660.24 20.3373 660.96C21.1107 661.68 21.4973 662.573 21.4973 663.64C21.4973 664.68 21.1107 665.56 20.3373 666.28C19.5907 666.973 18.6307 667.32 17.4573 667.32ZM40.7464 667.32C39.5464 667.32 38.5597 666.973 37.7864 666.28C37.0397 665.56 36.6664 664.68 36.6664 663.64C36.6664 662.573 37.0397 661.68 37.7864 660.96C38.5597 660.24 39.5464 659.88 40.7464 659.88C41.9197 659.88 42.8797 660.24 43.6264 660.96C44.3997 661.68 44.7864 662.573 44.7864 663.64C44.7864 664.68 44.3997 665.56 43.6264 666.28C42.8797 666.973 41.9197 667.32 40.7464 667.32ZM64.0355 667.32C62.8355 667.32 61.8488 666.973 61.0755 666.28C60.3288 665.56 59.9555 664.68 59.9555 663.64C59.9555 662.573 60.3288 661.68 61.0755 660.96C61.8488 660.24 62.8355 659.88 64.0355 659.88C65.2088 659.88 66.1688 660.24 66.9155 660.96C67.6888 661.68 68.0755 662.573 68.0755 663.64C68.0755 664.68 67.6888 665.56 66.9155 666.28C66.1688 666.973 65.2088 667.32 64.0355 667.32ZM87.3245 667.32C86.1245 667.32 85.1379 666.973 84.3645 666.28C83.6179 665.56 83.2445 664.68 83.2445 663.64C83.2445 662.573 83.6179 661.68 84.3645 660.96C85.1379 660.24 86.1245 659.88 87.3245 659.88C88.4979 659.88 89.4579 660.24 90.2045 660.96C90.9779 661.68 91.3645 662.573 91.3645 663.64C91.3645 664.68 90.9779 665.56 90.2045 666.28C89.4579 666.973 88.4979 667.32 87.3245 667.32ZM110.614 667.32C109.414 667.32 108.427 666.973 107.654 666.28C106.907 665.56 106.534 664.68 106.534 663.64C106.534 662.573 106.907 661.68 107.654 660.96C108.427 660.24 109.414 659.88 110.614 659.88C111.787 659.88 112.747 660.24 113.494 660.96C114.267 661.68 114.654 662.573 114.654 663.64C114.654 664.68 114.267 665.56 113.494 666.28C112.747 666.973 111.787 667.32 110.614 667.32ZM133.903 667.32C132.703 667.32 131.716 666.973 130.943 666.28C130.196 665.56 129.823 664.68 129.823 663.64C129.823 662.573 130.196 661.68 130.943 660.96C131.716 660.24 132.703 659.88 133.903 659.88C135.076 659.88 136.036 660.24 136.783 660.96C137.556 661.68 137.943 662.573 137.943 663.64C137.943 664.68 137.556 665.56 136.783 666.28C136.036 666.973 135.076 667.32 133.903 667.32ZM157.192 667.32C155.992 667.32 155.005 666.973 154.232 666.28C153.485 665.56 153.112 664.68 153.112 663.64C153.112 662.573 153.485 661.68 154.232 660.96C155.005 660.24 155.992 659.88 157.192 659.88C158.365 659.88 159.325 660.24 160.072 660.96C160.845 661.68 161.232 662.573 161.232 663.64C161.232 664.68 160.845 665.56 160.072 666.28C159.325 666.973 158.365 667.32 157.192 667.32ZM180.481 667.32C179.281 667.32 178.294 666.973 177.521 666.28C176.774 665.56 176.401 664.68 176.401 663.64C176.401 662.573 176.774 661.68 177.521 660.96C178.294 660.24 179.281 659.88 180.481 659.88C181.654 659.88 182.614 660.24 183.361 660.96C184.134 661.68 184.521 662.573 184.521 663.64C184.521 664.68 184.134 665.56 183.361 666.28C182.614 666.973 181.654 667.32 180.481 667.32ZM203.77 667.32C202.57 667.32 201.583 666.973 200.81 666.28C200.063 665.56 199.69 664.68 199.69 663.64C199.69 662.573 200.063 661.68 200.81 660.96C201.583 660.24 202.57 659.88 203.77 659.88C204.943 659.88 205.903 660.24 206.65 660.96C207.423 661.68 207.81 662.573 207.81 663.64C207.81 664.68 207.423 665.56 206.65 666.28C205.903 666.973 204.943 667.32 203.77 667.32ZM227.059 667.32C225.859 667.32 224.872 666.973 224.099 666.28C223.352 665.56 222.979 664.68 222.979 663.64C222.979 662.573 223.352 661.68 224.099 660.96C224.872 660.24 225.859 659.88 227.059 659.88C228.232 659.88 229.192 660.24 229.939 660.96C230.712 661.68 231.099 662.573 231.099 663.64C231.099 664.68 230.712 665.56 229.939 666.28C229.192 666.973 228.232 667.32 227.059 667.32ZM250.348 667.32C249.148 667.32 248.161 666.973 247.388 666.28C246.641 665.56 246.268 664.68 246.268 663.64C246.268 662.573 246.641 661.68 247.388 660.96C248.161 660.24 249.148 659.88 250.348 659.88C251.521 659.88 252.481 660.24 253.228 660.96C254.001 661.68 254.388 662.573 254.388 663.64C254.388 664.68 254.001 665.56 253.228 666.28C252.481 666.973 251.521 667.32 250.348 667.32ZM-122.277 698.32C-123.477 698.32 -124.464 697.973 -125.237 697.28C-125.984 696.56 -126.357 695.68 -126.357 694.64C-126.357 693.573 -125.984 692.68 -125.237 691.96C-124.464 691.24 -123.477 690.88 -122.277 690.88C-121.104 690.88 -120.144 691.24 -119.397 691.96C-118.624 692.68 -118.237 693.573 -118.237 694.64C-118.237 695.68 -118.624 696.56 -119.397 697.28C-120.144 697.973 -121.104 698.32 -122.277 698.32ZM-98.988 698.32C-100.188 698.32 -101.175 697.973 -101.948 697.28C-102.695 696.56 -103.068 695.68 -103.068 694.64C-103.068 693.573 -102.695 692.68 -101.948 691.96C-101.175 691.24 -100.188 690.88 -98.988 690.88C-97.8146 690.88 -96.8546 691.24 -96.108 691.96C-95.3346 692.68 -94.948 693.573 -94.948 694.64C-94.948 695.68 -95.3346 696.56 -96.108 697.28C-96.8546 697.973 -97.8146 698.32 -98.988 698.32ZM-75.6989 698.32C-76.8989 698.32 -77.8856 697.973 -78.6589 697.28C-79.4056 696.56 -79.7789 695.68 -79.7789 694.64C-79.7789 693.573 -79.4056 692.68 -78.6589 691.96C-77.8856 691.24 -76.8989 690.88 -75.6989 690.88C-74.5256 690.88 -73.5656 691.24 -72.8189 691.96C-72.0456 692.68 -71.6589 693.573 -71.6589 694.64C-71.6589 695.68 -72.0456 696.56 -72.8189 697.28C-73.5656 697.973 -74.5256 698.32 -75.6989 698.32ZM-52.4098 698.32C-53.6098 698.32 -54.5965 697.973 -55.3698 697.28C-56.1165 696.56 -56.4898 695.68 -56.4898 694.64C-56.4898 693.573 -56.1165 692.68 -55.3698 691.96C-54.5965 691.24 -53.6098 690.88 -52.4098 690.88C-51.2365 690.88 -50.2765 691.24 -49.5298 691.96C-48.7565 692.68 -48.3698 693.573 -48.3698 694.64C-48.3698 695.68 -48.7565 696.56 -49.5298 697.28C-50.2765 697.973 -51.2365 698.32 -52.4098 698.32ZM-29.1208 698.32C-30.3208 698.32 -31.3074 697.973 -32.0808 697.28C-32.8274 696.56 -33.2008 695.68 -33.2008 694.64C-33.2008 693.573 -32.8274 692.68 -32.0808 691.96C-31.3074 691.24 -30.3208 690.88 -29.1208 690.88C-27.9474 690.88 -26.9874 691.24 -26.2408 691.96C-25.4674 692.68 -25.0808 693.573 -25.0808 694.64C-25.0808 695.68 -25.4674 696.56 -26.2408 697.28C-26.9874 697.973 -27.9474 698.32 -29.1208 698.32ZM-5.83172 698.32C-7.03172 698.32 -8.01839 697.973 -8.79172 697.28C-9.53839 696.56 -9.91172 695.68 -9.91172 694.64C-9.91172 693.573 -9.53839 692.68 -8.79172 691.96C-8.01839 691.24 -7.03172 690.88 -5.83172 690.88C-4.65839 690.88 -3.69839 691.24 -2.95172 691.96C-2.17838 692.68 -1.79172 693.573 -1.79172 694.64C-1.79172 695.68 -2.17838 696.56 -2.95172 697.28C-3.69839 697.973 -4.65839 698.32 -5.83172 698.32ZM17.4573 698.32C16.2573 698.32 15.2707 697.973 14.4973 697.28C13.7507 696.56 13.3773 695.68 13.3773 694.64C13.3773 693.573 13.7507 692.68 14.4973 691.96C15.2707 691.24 16.2573 690.88 17.4573 690.88C18.6307 690.88 19.5907 691.24 20.3373 691.96C21.1107 692.68 21.4973 693.573 21.4973 694.64C21.4973 695.68 21.1107 696.56 20.3373 697.28C19.5907 697.973 18.6307 698.32 17.4573 698.32ZM40.7464 698.32C39.5464 698.32 38.5597 697.973 37.7864 697.28C37.0397 696.56 36.6664 695.68 36.6664 694.64C36.6664 693.573 37.0397 692.68 37.7864 691.96C38.5597 691.24 39.5464 690.88 40.7464 690.88C41.9197 690.88 42.8797 691.24 43.6264 691.96C44.3997 692.68 44.7864 693.573 44.7864 694.64C44.7864 695.68 44.3997 696.56 43.6264 697.28C42.8797 697.973 41.9197 698.32 40.7464 698.32ZM64.0355 698.32C62.8355 698.32 61.8488 697.973 61.0755 697.28C60.3288 696.56 59.9555 695.68 59.9555 694.64C59.9555 693.573 60.3288 692.68 61.0755 691.96C61.8488 691.24 62.8355 690.88 64.0355 690.88C65.2088 690.88 66.1688 691.24 66.9155 691.96C67.6888 692.68 68.0755 693.573 68.0755 694.64C68.0755 695.68 67.6888 696.56 66.9155 697.28C66.1688 697.973 65.2088 698.32 64.0355 698.32ZM87.3245 698.32C86.1245 698.32 85.1379 697.973 84.3645 697.28C83.6179 696.56 83.2445 695.68 83.2445 694.64C83.2445 693.573 83.6179 692.68 84.3645 691.96C85.1379 691.24 86.1245 690.88 87.3245 690.88C88.4979 690.88 89.4579 691.24 90.2045 691.96C90.9779 692.68 91.3645 693.573 91.3645 694.64C91.3645 695.68 90.9779 696.56 90.2045 697.28C89.4579 697.973 88.4979 698.32 87.3245 698.32ZM110.614 698.32C109.414 698.32 108.427 697.973 107.654 697.28C106.907 696.56 106.534 695.68 106.534 694.64C106.534 693.573 106.907 692.68 107.654 691.96C108.427 691.24 109.414 690.88 110.614 690.88C111.787 690.88 112.747 691.24 113.494 691.96C114.267 692.68 114.654 693.573 114.654 694.64C114.654 695.68 114.267 696.56 113.494 697.28C112.747 697.973 111.787 698.32 110.614 698.32ZM133.903 698.32C132.703 698.32 131.716 697.973 130.943 697.28C130.196 696.56 129.823 695.68 129.823 694.64C129.823 693.573 130.196 692.68 130.943 691.96C131.716 691.24 132.703 690.88 133.903 690.88C135.076 690.88 136.036 691.24 136.783 691.96C137.556 692.68 137.943 693.573 137.943 694.64C137.943 695.68 137.556 696.56 136.783 697.28C136.036 697.973 135.076 698.32 133.903 698.32ZM157.192 698.32C155.992 698.32 155.005 697.973 154.232 697.28C153.485 696.56 153.112 695.68 153.112 694.64C153.112 693.573 153.485 692.68 154.232 691.96C155.005 691.24 155.992 690.88 157.192 690.88C158.365 690.88 159.325 691.24 160.072 691.96C160.845 692.68 161.232 693.573 161.232 694.64C161.232 695.68 160.845 696.56 160.072 697.28C159.325 697.973 158.365 698.32 157.192 698.32ZM180.481 698.32C179.281 698.32 178.294 697.973 177.521 697.28C176.774 696.56 176.401 695.68 176.401 694.64C176.401 693.573 176.774 692.68 177.521 691.96C178.294 691.24 179.281 690.88 180.481 690.88C181.654 690.88 182.614 691.24 183.361 691.96C184.134 692.68 184.521 693.573 184.521 694.64C184.521 695.68 184.134 696.56 183.361 697.28C182.614 697.973 181.654 698.32 180.481 698.32ZM203.77 698.32C202.57 698.32 201.583 697.973 200.81 697.28C200.063 696.56 199.69 695.68 199.69 694.64C199.69 693.573 200.063 692.68 200.81 691.96C201.583 691.24 202.57 690.88 203.77 690.88C204.943 690.88 205.903 691.24 206.65 691.96C207.423 692.68 207.81 693.573 207.81 694.64C207.81 695.68 207.423 696.56 206.65 697.28C205.903 697.973 204.943 698.32 203.77 698.32ZM227.059 698.32C225.859 698.32 224.872 697.973 224.099 697.28C223.352 696.56 222.979 695.68 222.979 694.64C222.979 693.573 223.352 692.68 224.099 691.96C224.872 691.24 225.859 690.88 227.059 690.88C228.232 690.88 229.192 691.24 229.939 691.96C230.712 692.68 231.099 693.573 231.099 694.64C231.099 695.68 230.712 696.56 229.939 697.28C229.192 697.973 228.232 698.32 227.059 698.32ZM250.348 698.32C249.148 698.32 248.161 697.973 247.388 697.28C246.641 696.56 246.268 695.68 246.268 694.64C246.268 693.573 246.641 692.68 247.388 691.96C248.161 691.24 249.148 690.88 250.348 690.88C251.521 690.88 252.481 691.24 253.228 691.96C254.001 692.68 254.388 693.573 254.388 694.64C254.388 695.68 254.001 696.56 253.228 697.28C252.481 697.973 251.521 698.32 250.348 698.32ZM-122.277 729.32C-123.477 729.32 -124.464 728.973 -125.237 728.28C-125.984 727.56 -126.357 726.68 -126.357 725.64C-126.357 724.573 -125.984 723.68 -125.237 722.96C-124.464 722.24 -123.477 721.88 -122.277 721.88C-121.104 721.88 -120.144 722.24 -119.397 722.96C-118.624 723.68 -118.237 724.573 -118.237 725.64C-118.237 726.68 -118.624 727.56 -119.397 728.28C-120.144 728.973 -121.104 729.32 -122.277 729.32ZM-98.988 729.32C-100.188 729.32 -101.175 728.973 -101.948 728.28C-102.695 727.56 -103.068 726.68 -103.068 725.64C-103.068 724.573 -102.695 723.68 -101.948 722.96C-101.175 722.24 -100.188 721.88 -98.988 721.88C-97.8146 721.88 -96.8546 722.24 -96.108 722.96C-95.3346 723.68 -94.948 724.573 -94.948 725.64C-94.948 726.68 -95.3346 727.56 -96.108 728.28C-96.8546 728.973 -97.8146 729.32 -98.988 729.32ZM-75.6989 729.32C-76.8989 729.32 -77.8856 728.973 -78.6589 728.28C-79.4056 727.56 -79.7789 726.68 -79.7789 725.64C-79.7789 724.573 -79.4056 723.68 -78.6589 722.96C-77.8856 722.24 -76.8989 721.88 -75.6989 721.88C-74.5256 721.88 -73.5656 722.24 -72.8189 722.96C-72.0456 723.68 -71.6589 724.573 -71.6589 725.64C-71.6589 726.68 -72.0456 727.56 -72.8189 728.28C-73.5656 728.973 -74.5256 729.32 -75.6989 729.32ZM-52.4098 729.32C-53.6098 729.32 -54.5965 728.973 -55.3698 728.28C-56.1165 727.56 -56.4898 726.68 -56.4898 725.64C-56.4898 724.573 -56.1165 723.68 -55.3698 722.96C-54.5965 722.24 -53.6098 721.88 -52.4098 721.88C-51.2365 721.88 -50.2765 722.24 -49.5298 722.96C-48.7565 723.68 -48.3698 724.573 -48.3698 725.64C-48.3698 726.68 -48.7565 727.56 -49.5298 728.28C-50.2765 728.973 -51.2365 729.32 -52.4098 729.32ZM-29.1208 729.32C-30.3208 729.32 -31.3074 728.973 -32.0808 728.28C-32.8274 727.56 -33.2008 726.68 -33.2008 725.64C-33.2008 724.573 -32.8274 723.68 -32.0808 722.96C-31.3074 722.24 -30.3208 721.88 -29.1208 721.88C-27.9474 721.88 -26.9874 722.24 -26.2408 722.96C-25.4674 723.68 -25.0808 724.573 -25.0808 725.64C-25.0808 726.68 -25.4674 727.56 -26.2408 728.28C-26.9874 728.973 -27.9474 729.32 -29.1208 729.32ZM-5.83172 729.32C-7.03172 729.32 -8.01839 728.973 -8.79172 728.28C-9.53839 727.56 -9.91172 726.68 -9.91172 725.64C-9.91172 724.573 -9.53839 723.68 -8.79172 722.96C-8.01839 722.24 -7.03172 721.88 -5.83172 721.88C-4.65839 721.88 -3.69839 722.24 -2.95172 722.96C-2.17838 723.68 -1.79172 724.573 -1.79172 725.64C-1.79172 726.68 -2.17838 727.56 -2.95172 728.28C-3.69839 728.973 -4.65839 729.32 -5.83172 729.32ZM17.4573 729.32C16.2573 729.32 15.2707 728.973 14.4973 728.28C13.7507 727.56 13.3773 726.68 13.3773 725.64C13.3773 724.573 13.7507 723.68 14.4973 722.96C15.2707 722.24 16.2573 721.88 17.4573 721.88C18.6307 721.88 19.5907 722.24 20.3373 722.96C21.1107 723.68 21.4973 724.573 21.4973 725.64C21.4973 726.68 21.1107 727.56 20.3373 728.28C19.5907 728.973 18.6307 729.32 17.4573 729.32ZM40.7464 729.32C39.5464 729.32 38.5597 728.973 37.7864 728.28C37.0397 727.56 36.6664 726.68 36.6664 725.64C36.6664 724.573 37.0397 723.68 37.7864 722.96C38.5597 722.24 39.5464 721.88 40.7464 721.88C41.9197 721.88 42.8797 722.24 43.6264 722.96C44.3997 723.68 44.7864 724.573 44.7864 725.64C44.7864 726.68 44.3997 727.56 43.6264 728.28C42.8797 728.973 41.9197 729.32 40.7464 729.32ZM64.0355 729.32C62.8355 729.32 61.8488 728.973 61.0755 728.28C60.3288 727.56 59.9555 726.68 59.9555 725.64C59.9555 724.573 60.3288 723.68 61.0755 722.96C61.8488 722.24 62.8355 721.88 64.0355 721.88C65.2088 721.88 66.1688 722.24 66.9155 722.96C67.6888 723.68 68.0755 724.573 68.0755 725.64C68.0755 726.68 67.6888 727.56 66.9155 728.28C66.1688 728.973 65.2088 729.32 64.0355 729.32ZM87.3245 729.32C86.1245 729.32 85.1379 728.973 84.3645 728.28C83.6179 727.56 83.2445 726.68 83.2445 725.64C83.2445 724.573 83.6179 723.68 84.3645 722.96C85.1379 722.24 86.1245 721.88 87.3245 721.88C88.4979 721.88 89.4579 722.24 90.2045 722.96C90.9779 723.68 91.3645 724.573 91.3645 725.64C91.3645 726.68 90.9779 727.56 90.2045 728.28C89.4579 728.973 88.4979 729.32 87.3245 729.32ZM110.614 729.32C109.414 729.32 108.427 728.973 107.654 728.28C106.907 727.56 106.534 726.68 106.534 725.64C106.534 724.573 106.907 723.68 107.654 722.96C108.427 722.24 109.414 721.88 110.614 721.88C111.787 721.88 112.747 722.24 113.494 722.96C114.267 723.68 114.654 724.573 114.654 725.64C114.654 726.68 114.267 727.56 113.494 728.28C112.747 728.973 111.787 729.32 110.614 729.32ZM133.903 729.32C132.703 729.32 131.716 728.973 130.943 728.28C130.196 727.56 129.823 726.68 129.823 725.64C129.823 724.573 130.196 723.68 130.943 722.96C131.716 722.24 132.703 721.88 133.903 721.88C135.076 721.88 136.036 722.24 136.783 722.96C137.556 723.68 137.943 724.573 137.943 725.64C137.943 726.68 137.556 727.56 136.783 728.28C136.036 728.973 135.076 729.32 133.903 729.32ZM157.192 729.32C155.992 729.32 155.005 728.973 154.232 728.28C153.485 727.56 153.112 726.68 153.112 725.64C153.112 724.573 153.485 723.68 154.232 722.96C155.005 722.24 155.992 721.88 157.192 721.88C158.365 721.88 159.325 722.24 160.072 722.96C160.845 723.68 161.232 724.573 161.232 725.64C161.232 726.68 160.845 727.56 160.072 728.28C159.325 728.973 158.365 729.32 157.192 729.32ZM180.481 729.32C179.281 729.32 178.294 728.973 177.521 728.28C176.774 727.56 176.401 726.68 176.401 725.64C176.401 724.573 176.774 723.68 177.521 722.96C178.294 722.24 179.281 721.88 180.481 721.88C181.654 721.88 182.614 722.24 183.361 722.96C184.134 723.68 184.521 724.573 184.521 725.64C184.521 726.68 184.134 727.56 183.361 728.28C182.614 728.973 181.654 729.32 180.481 729.32ZM203.77 729.32C202.57 729.32 201.583 728.973 200.81 728.28C200.063 727.56 199.69 726.68 199.69 725.64C199.69 724.573 200.063 723.68 200.81 722.96C201.583 722.24 202.57 721.88 203.77 721.88C204.943 721.88 205.903 722.24 206.65 722.96C207.423 723.68 207.81 724.573 207.81 725.64C207.81 726.68 207.423 727.56 206.65 728.28C205.903 728.973 204.943 729.32 203.77 729.32ZM227.059 729.32C225.859 729.32 224.872 728.973 224.099 728.28C223.352 727.56 222.979 726.68 222.979 725.64C222.979 724.573 223.352 723.68 224.099 722.96C224.872 722.24 225.859 721.88 227.059 721.88C228.232 721.88 229.192 722.24 229.939 722.96C230.712 723.68 231.099 724.573 231.099 725.64C231.099 726.68 230.712 727.56 229.939 728.28C229.192 728.973 228.232 729.32 227.059 729.32ZM250.348 729.32C249.148 729.32 248.161 728.973 247.388 728.28C246.641 727.56 246.268 726.68 246.268 725.64C246.268 724.573 246.641 723.68 247.388 722.96C248.161 722.24 249.148 721.88 250.348 721.88C251.521 721.88 252.481 722.24 253.228 722.96C254.001 723.68 254.388 724.573 254.388 725.64C254.388 726.68 254.001 727.56 253.228 728.28C252.481 728.973 251.521 729.32 250.348 729.32ZM-122.277 760.32C-123.477 760.32 -124.464 759.973 -125.237 759.28C-125.984 758.56 -126.357 757.68 -126.357 756.64C-126.357 755.573 -125.984 754.68 -125.237 753.96C-124.464 753.24 -123.477 752.88 -122.277 752.88C-121.104 752.88 -120.144 753.24 -119.397 753.96C-118.624 754.68 -118.237 755.573 -118.237 756.64C-118.237 757.68 -118.624 758.56 -119.397 759.28C-120.144 759.973 -121.104 760.32 -122.277 760.32ZM-98.988 760.32C-100.188 760.32 -101.175 759.973 -101.948 759.28C-102.695 758.56 -103.068 757.68 -103.068 756.64C-103.068 755.573 -102.695 754.68 -101.948 753.96C-101.175 753.24 -100.188 752.88 -98.988 752.88C-97.8146 752.88 -96.8546 753.24 -96.108 753.96C-95.3346 754.68 -94.948 755.573 -94.948 756.64C-94.948 757.68 -95.3346 758.56 -96.108 759.28C-96.8546 759.973 -97.8146 760.32 -98.988 760.32ZM-75.6989 760.32C-76.8989 760.32 -77.8856 759.973 -78.6589 759.28C-79.4056 758.56 -79.7789 757.68 -79.7789 756.64C-79.7789 755.573 -79.4056 754.68 -78.6589 753.96C-77.8856 753.24 -76.8989 752.88 -75.6989 752.88C-74.5256 752.88 -73.5656 753.24 -72.8189 753.96C-72.0456 754.68 -71.6589 755.573 -71.6589 756.64C-71.6589 757.68 -72.0456 758.56 -72.8189 759.28C-73.5656 759.973 -74.5256 760.32 -75.6989 760.32ZM-52.4098 760.32C-53.6098 760.32 -54.5965 759.973 -55.3698 759.28C-56.1165 758.56 -56.4898 757.68 -56.4898 756.64C-56.4898 755.573 -56.1165 754.68 -55.3698 753.96C-54.5965 753.24 -53.6098 752.88 -52.4098 752.88C-51.2365 752.88 -50.2765 753.24 -49.5298 753.96C-48.7565 754.68 -48.3698 755.573 -48.3698 756.64C-48.3698 757.68 -48.7565 758.56 -49.5298 759.28C-50.2765 759.973 -51.2365 760.32 -52.4098 760.32ZM-29.1208 760.32C-30.3208 760.32 -31.3074 759.973 -32.0808 759.28C-32.8274 758.56 -33.2008 757.68 -33.2008 756.64C-33.2008 755.573 -32.8274 754.68 -32.0808 753.96C-31.3074 753.24 -30.3208 752.88 -29.1208 752.88C-27.9474 752.88 -26.9874 753.24 -26.2408 753.96C-25.4674 754.68 -25.0808 755.573 -25.0808 756.64C-25.0808 757.68 -25.4674 758.56 -26.2408 759.28C-26.9874 759.973 -27.9474 760.32 -29.1208 760.32ZM-5.83172 760.32C-7.03172 760.32 -8.01839 759.973 -8.79172 759.28C-9.53839 758.56 -9.91172 757.68 -9.91172 756.64C-9.91172 755.573 -9.53839 754.68 -8.79172 753.96C-8.01839 753.24 -7.03172 752.88 -5.83172 752.88C-4.65839 752.88 -3.69839 753.24 -2.95172 753.96C-2.17838 754.68 -1.79172 755.573 -1.79172 756.64C-1.79172 757.68 -2.17838 758.56 -2.95172 759.28C-3.69839 759.973 -4.65839 760.32 -5.83172 760.32ZM17.4573 760.32C16.2573 760.32 15.2707 759.973 14.4973 759.28C13.7507 758.56 13.3773 757.68 13.3773 756.64C13.3773 755.573 13.7507 754.68 14.4973 753.96C15.2707 753.24 16.2573 752.88 17.4573 752.88C18.6307 752.88 19.5907 753.24 20.3373 753.96C21.1107 754.68 21.4973 755.573 21.4973 756.64C21.4973 757.68 21.1107 758.56 20.3373 759.28C19.5907 759.973 18.6307 760.32 17.4573 760.32ZM40.7464 760.32C39.5464 760.32 38.5597 759.973 37.7864 759.28C37.0397 758.56 36.6664 757.68 36.6664 756.64C36.6664 755.573 37.0397 754.68 37.7864 753.96C38.5597 753.24 39.5464 752.88 40.7464 752.88C41.9197 752.88 42.8797 753.24 43.6264 753.96C44.3997 754.68 44.7864 755.573 44.7864 756.64C44.7864 757.68 44.3997 758.56 43.6264 759.28C42.8797 759.973 41.9197 760.32 40.7464 760.32ZM64.0355 760.32C62.8355 760.32 61.8488 759.973 61.0755 759.28C60.3288 758.56 59.9555 757.68 59.9555 756.64C59.9555 755.573 60.3288 754.68 61.0755 753.96C61.8488 753.24 62.8355 752.88 64.0355 752.88C65.2088 752.88 66.1688 753.24 66.9155 753.96C67.6888 754.68 68.0755 755.573 68.0755 756.64C68.0755 757.68 67.6888 758.56 66.9155 759.28C66.1688 759.973 65.2088 760.32 64.0355 760.32ZM87.3245 760.32C86.1245 760.32 85.1379 759.973 84.3645 759.28C83.6179 758.56 83.2445 757.68 83.2445 756.64C83.2445 755.573 83.6179 754.68 84.3645 753.96C85.1379 753.24 86.1245 752.88 87.3245 752.88C88.4979 752.88 89.4579 753.24 90.2045 753.96C90.9779 754.68 91.3645 755.573 91.3645 756.64C91.3645 757.68 90.9779 758.56 90.2045 759.28C89.4579 759.973 88.4979 760.32 87.3245 760.32ZM110.614 760.32C109.414 760.32 108.427 759.973 107.654 759.28C106.907 758.56 106.534 757.68 106.534 756.64C106.534 755.573 106.907 754.68 107.654 753.96C108.427 753.24 109.414 752.88 110.614 752.88C111.787 752.88 112.747 753.24 113.494 753.96C114.267 754.68 114.654 755.573 114.654 756.64C114.654 757.68 114.267 758.56 113.494 759.28C112.747 759.973 111.787 760.32 110.614 760.32ZM133.903 760.32C132.703 760.32 131.716 759.973 130.943 759.28C130.196 758.56 129.823 757.68 129.823 756.64C129.823 755.573 130.196 754.68 130.943 753.96C131.716 753.24 132.703 752.88 133.903 752.88C135.076 752.88 136.036 753.24 136.783 753.96C137.556 754.68 137.943 755.573 137.943 756.64C137.943 757.68 137.556 758.56 136.783 759.28C136.036 759.973 135.076 760.32 133.903 760.32ZM157.192 760.32C155.992 760.32 155.005 759.973 154.232 759.28C153.485 758.56 153.112 757.68 153.112 756.64C153.112 755.573 153.485 754.68 154.232 753.96C155.005 753.24 155.992 752.88 157.192 752.88C158.365 752.88 159.325 753.24 160.072 753.96C160.845 754.68 161.232 755.573 161.232 756.64C161.232 757.68 160.845 758.56 160.072 759.28C159.325 759.973 158.365 760.32 157.192 760.32ZM180.481 760.32C179.281 760.32 178.294 759.973 177.521 759.28C176.774 758.56 176.401 757.68 176.401 756.64C176.401 755.573 176.774 754.68 177.521 753.96C178.294 753.24 179.281 752.88 180.481 752.88C181.654 752.88 182.614 753.24 183.361 753.96C184.134 754.68 184.521 755.573 184.521 756.64C184.521 757.68 184.134 758.56 183.361 759.28C182.614 759.973 181.654 760.32 180.481 760.32ZM203.77 760.32C202.57 760.32 201.583 759.973 200.81 759.28C200.063 758.56 199.69 757.68 199.69 756.64C199.69 755.573 200.063 754.68 200.81 753.96C201.583 753.24 202.57 752.88 203.77 752.88C204.943 752.88 205.903 753.24 206.65 753.96C207.423 754.68 207.81 755.573 207.81 756.64C207.81 757.68 207.423 758.56 206.65 759.28C205.903 759.973 204.943 760.32 203.77 760.32ZM227.059 760.32C225.859 760.32 224.872 759.973 224.099 759.28C223.352 758.56 222.979 757.68 222.979 756.64C222.979 755.573 223.352 754.68 224.099 753.96C224.872 753.24 225.859 752.88 227.059 752.88C228.232 752.88 229.192 753.24 229.939 753.96C230.712 754.68 231.099 755.573 231.099 756.64C231.099 757.68 230.712 758.56 229.939 759.28C229.192 759.973 228.232 760.32 227.059 760.32ZM250.348 760.32C249.148 760.32 248.161 759.973 247.388 759.28C246.641 758.56 246.268 757.68 246.268 756.64C246.268 755.573 246.641 754.68 247.388 753.96C248.161 753.24 249.148 752.88 250.348 752.88C251.521 752.88 252.481 753.24 253.228 753.96C254.001 754.68 254.388 755.573 254.388 756.64C254.388 757.68 254.001 758.56 253.228 759.28C252.481 759.973 251.521 760.32 250.348 760.32ZM-122.277 791.32C-123.477 791.32 -124.464 790.973 -125.237 790.28C-125.984 789.56 -126.357 788.68 -126.357 787.64C-126.357 786.573 -125.984 785.68 -125.237 784.96C-124.464 784.24 -123.477 783.88 -122.277 783.88C-121.104 783.88 -120.144 784.24 -119.397 784.96C-118.624 785.68 -118.237 786.573 -118.237 787.64C-118.237 788.68 -118.624 789.56 -119.397 790.28C-120.144 790.973 -121.104 791.32 -122.277 791.32ZM-98.988 791.32C-100.188 791.32 -101.175 790.973 -101.948 790.28C-102.695 789.56 -103.068 788.68 -103.068 787.64C-103.068 786.573 -102.695 785.68 -101.948 784.96C-101.175 784.24 -100.188 783.88 -98.988 783.88C-97.8146 783.88 -96.8546 784.24 -96.108 784.96C-95.3346 785.68 -94.948 786.573 -94.948 787.64C-94.948 788.68 -95.3346 789.56 -96.108 790.28C-96.8546 790.973 -97.8146 791.32 -98.988 791.32ZM-75.6989 791.32C-76.8989 791.32 -77.8856 790.973 -78.6589 790.28C-79.4056 789.56 -79.7789 788.68 -79.7789 787.64C-79.7789 786.573 -79.4056 785.68 -78.6589 784.96C-77.8856 784.24 -76.8989 783.88 -75.6989 783.88C-74.5256 783.88 -73.5656 784.24 -72.8189 784.96C-72.0456 785.68 -71.6589 786.573 -71.6589 787.64C-71.6589 788.68 -72.0456 789.56 -72.8189 790.28C-73.5656 790.973 -74.5256 791.32 -75.6989 791.32ZM-52.4098 791.32C-53.6098 791.32 -54.5965 790.973 -55.3698 790.28C-56.1165 789.56 -56.4898 788.68 -56.4898 787.64C-56.4898 786.573 -56.1165 785.68 -55.3698 784.96C-54.5965 784.24 -53.6098 783.88 -52.4098 783.88C-51.2365 783.88 -50.2765 784.24 -49.5298 784.96C-48.7565 785.68 -48.3698 786.573 -48.3698 787.64C-48.3698 788.68 -48.7565 789.56 -49.5298 790.28C-50.2765 790.973 -51.2365 791.32 -52.4098 791.32ZM-29.1208 791.32C-30.3208 791.32 -31.3074 790.973 -32.0808 790.28C-32.8274 789.56 -33.2008 788.68 -33.2008 787.64C-33.2008 786.573 -32.8274 785.68 -32.0808 784.96C-31.3074 784.24 -30.3208 783.88 -29.1208 783.88C-27.9474 783.88 -26.9874 784.24 -26.2408 784.96C-25.4674 785.68 -25.0808 786.573 -25.0808 787.64C-25.0808 788.68 -25.4674 789.56 -26.2408 790.28C-26.9874 790.973 -27.9474 791.32 -29.1208 791.32ZM-5.83172 791.32C-7.03172 791.32 -8.01839 790.973 -8.79172 790.28C-9.53839 789.56 -9.91172 788.68 -9.91172 787.64C-9.91172 786.573 -9.53839 785.68 -8.79172 784.96C-8.01839 784.24 -7.03172 783.88 -5.83172 783.88C-4.65839 783.88 -3.69839 784.24 -2.95172 784.96C-2.17838 785.68 -1.79172 786.573 -1.79172 787.64C-1.79172 788.68 -2.17838 789.56 -2.95172 790.28C-3.69839 790.973 -4.65839 791.32 -5.83172 791.32ZM17.4573 791.32C16.2573 791.32 15.2707 790.973 14.4973 790.28C13.7507 789.56 13.3773 788.68 13.3773 787.64C13.3773 786.573 13.7507 785.68 14.4973 784.96C15.2707 784.24 16.2573 783.88 17.4573 783.88C18.6307 783.88 19.5907 784.24 20.3373 784.96C21.1107 785.68 21.4973 786.573 21.4973 787.64C21.4973 788.68 21.1107 789.56 20.3373 790.28C19.5907 790.973 18.6307 791.32 17.4573 791.32ZM40.7464 791.32C39.5464 791.32 38.5597 790.973 37.7864 790.28C37.0397 789.56 36.6664 788.68 36.6664 787.64C36.6664 786.573 37.0397 785.68 37.7864 784.96C38.5597 784.24 39.5464 783.88 40.7464 783.88C41.9197 783.88 42.8797 784.24 43.6264 784.96C44.3997 785.68 44.7864 786.573 44.7864 787.64C44.7864 788.68 44.3997 789.56 43.6264 790.28C42.8797 790.973 41.9197 791.32 40.7464 791.32ZM64.0355 791.32C62.8355 791.32 61.8488 790.973 61.0755 790.28C60.3288 789.56 59.9555 788.68 59.9555 787.64C59.9555 786.573 60.3288 785.68 61.0755 784.96C61.8488 784.24 62.8355 783.88 64.0355 783.88C65.2088 783.88 66.1688 784.24 66.9155 784.96C67.6888 785.68 68.0755 786.573 68.0755 787.64C68.0755 788.68 67.6888 789.56 66.9155 790.28C66.1688 790.973 65.2088 791.32 64.0355 791.32ZM87.3245 791.32C86.1245 791.32 85.1379 790.973 84.3645 790.28C83.6179 789.56 83.2445 788.68 83.2445 787.64C83.2445 786.573 83.6179 785.68 84.3645 784.96C85.1379 784.24 86.1245 783.88 87.3245 783.88C88.4979 783.88 89.4579 784.24 90.2045 784.96C90.9779 785.68 91.3645 786.573 91.3645 787.64C91.3645 788.68 90.9779 789.56 90.2045 790.28C89.4579 790.973 88.4979 791.32 87.3245 791.32ZM110.614 791.32C109.414 791.32 108.427 790.973 107.654 790.28C106.907 789.56 106.534 788.68 106.534 787.64C106.534 786.573 106.907 785.68 107.654 784.96C108.427 784.24 109.414 783.88 110.614 783.88C111.787 783.88 112.747 784.24 113.494 784.96C114.267 785.68 114.654 786.573 114.654 787.64C114.654 788.68 114.267 789.56 113.494 790.28C112.747 790.973 111.787 791.32 110.614 791.32ZM133.903 791.32C132.703 791.32 131.716 790.973 130.943 790.28C130.196 789.56 129.823 788.68 129.823 787.64C129.823 786.573 130.196 785.68 130.943 784.96C131.716 784.24 132.703 783.88 133.903 783.88C135.076 783.88 136.036 784.24 136.783 784.96C137.556 785.68 137.943 786.573 137.943 787.64C137.943 788.68 137.556 789.56 136.783 790.28C136.036 790.973 135.076 791.32 133.903 791.32ZM157.192 791.32C155.992 791.32 155.005 790.973 154.232 790.28C153.485 789.56 153.112 788.68 153.112 787.64C153.112 786.573 153.485 785.68 154.232 784.96C155.005 784.24 155.992 783.88 157.192 783.88C158.365 783.88 159.325 784.24 160.072 784.96C160.845 785.68 161.232 786.573 161.232 787.64C161.232 788.68 160.845 789.56 160.072 790.28C159.325 790.973 158.365 791.32 157.192 791.32ZM180.481 791.32C179.281 791.32 178.294 790.973 177.521 790.28C176.774 789.56 176.401 788.68 176.401 787.64C176.401 786.573 176.774 785.68 177.521 784.96C178.294 784.24 179.281 783.88 180.481 783.88C181.654 783.88 182.614 784.24 183.361 784.96C184.134 785.68 184.521 786.573 184.521 787.64C184.521 788.68 184.134 789.56 183.361 790.28C182.614 790.973 181.654 791.32 180.481 791.32ZM203.77 791.32C202.57 791.32 201.583 790.973 200.81 790.28C200.063 789.56 199.69 788.68 199.69 787.64C199.69 786.573 200.063 785.68 200.81 784.96C201.583 784.24 202.57 783.88 203.77 783.88C204.943 783.88 205.903 784.24 206.65 784.96C207.423 785.68 207.81 786.573 207.81 787.64C207.81 788.68 207.423 789.56 206.65 790.28C205.903 790.973 204.943 791.32 203.77 791.32ZM227.059 791.32C225.859 791.32 224.872 790.973 224.099 790.28C223.352 789.56 222.979 788.68 222.979 787.64C222.979 786.573 223.352 785.68 224.099 784.96C224.872 784.24 225.859 783.88 227.059 783.88C228.232 783.88 229.192 784.24 229.939 784.96C230.712 785.68 231.099 786.573 231.099 787.64C231.099 788.68 230.712 789.56 229.939 790.28C229.192 790.973 228.232 791.32 227.059 791.32ZM250.348 791.32C249.148 791.32 248.161 790.973 247.388 790.28C246.641 789.56 246.268 788.68 246.268 787.64C246.268 786.573 246.641 785.68 247.388 784.96C248.161 784.24 249.148 783.88 250.348 783.88C251.521 783.88 252.481 784.24 253.228 784.96C254.001 785.68 254.388 786.573 254.388 787.64C254.388 788.68 254.001 789.56 253.228 790.28C252.481 790.973 251.521 791.32 250.348 791.32ZM40.7464 822.32C39.5464 822.32 38.5597 821.973 37.7864 821.28C37.0397 820.56 36.6664 819.68 36.6664 818.64C36.6664 817.573 37.0397 816.68 37.7864 815.96C38.5597 815.24 39.5464 814.88 40.7464 814.88C41.9197 814.88 42.8797 815.24 43.6264 815.96C44.3997 816.68 44.7864 817.573 44.7864 818.64C44.7864 819.68 44.3997 820.56 43.6264 821.28C42.8797 821.973 41.9197 822.32 40.7464 822.32ZM64.0355 822.32C62.8355 822.32 61.8488 821.973 61.0755 821.28C60.3288 820.56 59.9555 819.68 59.9555 818.64C59.9555 817.573 60.3288 816.68 61.0755 815.96C61.8488 815.24 62.8355 814.88 64.0355 814.88C65.2088 814.88 66.1688 815.24 66.9155 815.96C67.6888 816.68 68.0755 817.573 68.0755 818.64C68.0755 819.68 67.6888 820.56 66.9155 821.28C66.1688 821.973 65.2088 822.32 64.0355 822.32ZM87.3245 822.32C86.1245 822.32 85.1379 821.973 84.3645 821.28C83.6179 820.56 83.2445 819.68 83.2445 818.64C83.2445 817.573 83.6179 816.68 84.3645 815.96C85.1379 815.24 86.1245 814.88 87.3245 814.88C88.4979 814.88 89.4579 815.24 90.2045 815.96C90.9779 816.68 91.3645 817.573 91.3645 818.64C91.3645 819.68 90.9779 820.56 90.2045 821.28C89.4579 821.973 88.4979 822.32 87.3245 822.32Z" fill="white"/>
</g>
<defs>
<clipPath id="clip0_22_133">
<path d="M0 30C0 13.4315 13.4315 0 30 0H432C487.228 0 532 44.7715 532 100V627C532 643.569 518.569 657 502 657H30C13.4315 657 0 643.569 0 627V30Z" fill="white"/>
</clipPath>
</defs>
</svg>
