<svg width="547" height="288" viewBox="0 0 547 288" fill="none" xmlns="http://www.w3.org/2000/svg">
<g clip-path="url(#clip0_22_131)">
<path d="M0 30C0 13.4315 13.4315 0 30 0H517C533.569 0 547 13.4315 547 30V138C547 220.843 479.843 288 397 288H30C13.4315 288 0 274.569 0 258V30Z" fill="#FF1F8A"/>
<rect x="49" y="204.447" width="30" height="5" rx="2.5" transform="rotate(-35.561 49 204.447)" fill="#00F09A"/>
<rect x="497" y="117.511" width="40" height="5" rx="2.5" transform="rotate(-38.0995 497 117.511)" fill="#00E1D4"/>
<rect x="268.656" y="64.4729" width="15" height="5" rx="2.5" transform="rotate(-119.895 268.656 64.4729)" fill="white"/>
<rect x="86" y="17" width="28" height="32" rx="14" fill="#03EDB5"/>
<rect x="10" y="116" width="28" height="32" rx="14" fill="#FFB800"/>
<path d="M186.84 67C190.689 60.3333 200.311 60.3333 204.16 67L210.655 78.25C214.504 84.9167 209.693 93.25 201.995 93.25H189.005C181.307 93.25 176.496 84.9167 180.345 78.25L186.84 67Z" fill="#6E56FF"/>
<path d="M441.399 27.1693L458.155 31.5579C469.325 34.4836 473.139 48.4042 465.02 56.6151L452.842 68.9313C444.723 77.1422 430.76 73.4851 427.709 62.3485L423.132 45.6437C420.081 34.5072 430.229 24.2436 441.399 27.1693Z" stroke="#E4153A" stroke-width="10"/>
<rect x="223" y="161" width="120" height="120" rx="60" fill="white" fill-opacity="0.2"/>
<path d="M412.147 246.781C413.045 244.017 416.955 244.017 417.853 246.781L418.817 249.747C419.218 250.983 420.37 251.82 421.67 251.82H424.788C427.694 251.82 428.903 255.539 426.551 257.247L424.029 259.08C422.977 259.843 422.537 261.198 422.939 262.434L423.903 265.399C424.801 268.163 421.637 270.461 419.286 268.753L416.763 266.92C415.712 266.157 414.288 266.157 413.237 266.92L410.714 268.753C408.363 270.461 405.199 268.163 406.097 265.399L407.061 262.434C407.463 261.198 407.023 259.843 405.971 259.08L403.449 257.247C401.097 255.539 402.306 251.82 405.212 251.82H408.33C409.63 251.82 410.782 250.983 411.183 249.747L412.147 246.781Z" fill="#9E00FF"/>
<rect x="118" y="204" width="42" height="36" rx="7" fill="white"/>
<rect x="134" y="216" width="34" height="32" rx="7" fill="#FF7816"/>
<path d="M262.723 -99.68C261.523 -99.68 260.536 -100.027 259.763 -100.72C259.016 -101.44 258.643 -102.32 258.643 -103.36C258.643 -104.427 259.016 -105.32 259.763 -106.04C260.536 -106.76 261.523 -107.12 262.723 -107.12C263.896 -107.12 264.856 -106.76 265.603 -106.04C266.376 -105.32 266.763 -104.427 266.763 -103.36C266.763 -102.32 266.376 -101.44 265.603 -100.72C264.856 -100.027 263.896 -99.68 262.723 -99.68ZM286.012 -99.68C284.812 -99.68 283.825 -100.027 283.052 -100.72C282.305 -101.44 281.932 -102.32 281.932 -103.36C281.932 -104.427 282.305 -105.32 283.052 -106.04C283.825 -106.76 284.812 -107.12 286.012 -107.12C287.185 -107.12 288.145 -106.76 288.892 -106.04C289.665 -105.32 290.052 -104.427 290.052 -103.36C290.052 -102.32 289.665 -101.44 288.892 -100.72C288.145 -100.027 287.185 -99.68 286.012 -99.68ZM309.301 -99.68C308.101 -99.68 307.114 -100.027 306.341 -100.72C305.594 -101.44 305.221 -102.32 305.221 -103.36C305.221 -104.427 305.594 -105.32 306.341 -106.04C307.114 -106.76 308.101 -107.12 309.301 -107.12C310.474 -107.12 311.434 -106.76 312.181 -106.04C312.954 -105.32 313.341 -104.427 313.341 -103.36C313.341 -102.32 312.954 -101.44 312.181 -100.72C311.434 -100.027 310.474 -99.68 309.301 -99.68ZM332.59 -99.68C331.39 -99.68 330.403 -100.027 329.63 -100.72C328.883 -101.44 328.51 -102.32 328.51 -103.36C328.51 -104.427 328.883 -105.32 329.63 -106.04C330.403 -106.76 331.39 -107.12 332.59 -107.12C333.763 -107.12 334.723 -106.76 335.47 -106.04C336.243 -105.32 336.63 -104.427 336.63 -103.36C336.63 -102.32 336.243 -101.44 335.47 -100.72C334.723 -100.027 333.763 -99.68 332.59 -99.68ZM355.879 -99.68C354.679 -99.68 353.693 -100.027 352.919 -100.72C352.173 -101.44 351.799 -102.32 351.799 -103.36C351.799 -104.427 352.173 -105.32 352.919 -106.04C353.693 -106.76 354.679 -107.12 355.879 -107.12C357.053 -107.12 358.013 -106.76 358.759 -106.04C359.533 -105.32 359.919 -104.427 359.919 -103.36C359.919 -102.32 359.533 -101.44 358.759 -100.72C358.013 -100.027 357.053 -99.68 355.879 -99.68ZM379.168 -99.68C377.968 -99.68 376.982 -100.027 376.208 -100.72C375.462 -101.44 375.088 -102.32 375.088 -103.36C375.088 -104.427 375.462 -105.32 376.208 -106.04C376.982 -106.76 377.968 -107.12 379.168 -107.12C380.342 -107.12 381.302 -106.76 382.048 -106.04C382.822 -105.32 383.208 -104.427 383.208 -103.36C383.208 -102.32 382.822 -101.44 382.048 -100.72C381.302 -100.027 380.342 -99.68 379.168 -99.68ZM402.457 -99.68C401.257 -99.68 400.271 -100.027 399.497 -100.72C398.751 -101.44 398.377 -102.32 398.377 -103.36C398.377 -104.427 398.751 -105.32 399.497 -106.04C400.271 -106.76 401.257 -107.12 402.457 -107.12C403.631 -107.12 404.591 -106.76 405.337 -106.04C406.111 -105.32 406.497 -104.427 406.497 -103.36C406.497 -102.32 406.111 -101.44 405.337 -100.72C404.591 -100.027 403.631 -99.68 402.457 -99.68ZM425.746 -99.68C424.546 -99.68 423.56 -100.027 422.786 -100.72C422.04 -101.44 421.666 -102.32 421.666 -103.36C421.666 -104.427 422.04 -105.32 422.786 -106.04C423.56 -106.76 424.546 -107.12 425.746 -107.12C426.92 -107.12 427.88 -106.76 428.626 -106.04C429.4 -105.32 429.786 -104.427 429.786 -103.36C429.786 -102.32 429.4 -101.44 428.626 -100.72C427.88 -100.027 426.92 -99.68 425.746 -99.68ZM449.035 -99.68C447.835 -99.68 446.849 -100.027 446.075 -100.72C445.329 -101.44 444.955 -102.32 444.955 -103.36C444.955 -104.427 445.329 -105.32 446.075 -106.04C446.849 -106.76 447.835 -107.12 449.035 -107.12C450.209 -107.12 451.169 -106.76 451.915 -106.04C452.689 -105.32 453.075 -104.427 453.075 -103.36C453.075 -102.32 452.689 -101.44 451.915 -100.72C451.169 -100.027 450.209 -99.68 449.035 -99.68ZM472.325 -99.68C471.125 -99.68 470.138 -100.027 469.365 -100.72C468.618 -101.44 468.245 -102.32 468.245 -103.36C468.245 -104.427 468.618 -105.32 469.365 -106.04C470.138 -106.76 471.125 -107.12 472.325 -107.12C473.498 -107.12 474.458 -106.76 475.205 -106.04C475.978 -105.32 476.365 -104.427 476.365 -103.36C476.365 -102.32 475.978 -101.44 475.205 -100.72C474.458 -100.027 473.498 -99.68 472.325 -99.68ZM495.614 -99.68C494.414 -99.68 493.427 -100.027 492.654 -100.72C491.907 -101.44 491.534 -102.32 491.534 -103.36C491.534 -104.427 491.907 -105.32 492.654 -106.04C493.427 -106.76 494.414 -107.12 495.614 -107.12C496.787 -107.12 497.747 -106.76 498.494 -106.04C499.267 -105.32 499.654 -104.427 499.654 -103.36C499.654 -102.32 499.267 -101.44 498.494 -100.72C497.747 -100.027 496.787 -99.68 495.614 -99.68ZM518.903 -99.68C517.703 -99.68 516.716 -100.027 515.943 -100.72C515.196 -101.44 514.823 -102.32 514.823 -103.36C514.823 -104.427 515.196 -105.32 515.943 -106.04C516.716 -106.76 517.703 -107.12 518.903 -107.12C520.076 -107.12 521.036 -106.76 521.783 -106.04C522.556 -105.32 522.943 -104.427 522.943 -103.36C522.943 -102.32 522.556 -101.44 521.783 -100.72C521.036 -100.027 520.076 -99.68 518.903 -99.68ZM542.192 -99.68C540.992 -99.68 540.005 -100.027 539.232 -100.72C538.485 -101.44 538.112 -102.32 538.112 -103.36C538.112 -104.427 538.485 -105.32 539.232 -106.04C540.005 -106.76 540.992 -107.12 542.192 -107.12C543.365 -107.12 544.325 -106.76 545.072 -106.04C545.845 -105.32 546.232 -104.427 546.232 -103.36C546.232 -102.32 545.845 -101.44 545.072 -100.72C544.325 -100.027 543.365 -99.68 542.192 -99.68ZM565.481 -99.68C564.281 -99.68 563.294 -100.027 562.521 -100.72C561.774 -101.44 561.401 -102.32 561.401 -103.36C561.401 -104.427 561.774 -105.32 562.521 -106.04C563.294 -106.76 564.281 -107.12 565.481 -107.12C566.654 -107.12 567.614 -106.76 568.361 -106.04C569.134 -105.32 569.521 -104.427 569.521 -103.36C569.521 -102.32 569.134 -101.44 568.361 -100.72C567.614 -100.027 566.654 -99.68 565.481 -99.68ZM588.77 -99.68C587.57 -99.68 586.583 -100.027 585.81 -100.72C585.063 -101.44 584.69 -102.32 584.69 -103.36C584.69 -104.427 585.063 -105.32 585.81 -106.04C586.583 -106.76 587.57 -107.12 588.77 -107.12C589.943 -107.12 590.903 -106.76 591.65 -106.04C592.423 -105.32 592.81 -104.427 592.81 -103.36C592.81 -102.32 592.423 -101.44 591.65 -100.72C590.903 -100.027 589.943 -99.68 588.77 -99.68ZM612.059 -99.68C610.859 -99.68 609.872 -100.027 609.099 -100.72C608.352 -101.44 607.979 -102.32 607.979 -103.36C607.979 -104.427 608.352 -105.32 609.099 -106.04C609.872 -106.76 610.859 -107.12 612.059 -107.12C613.232 -107.12 614.192 -106.76 614.939 -106.04C615.712 -105.32 616.099 -104.427 616.099 -103.36C616.099 -102.32 615.712 -101.44 614.939 -100.72C614.192 -100.027 613.232 -99.68 612.059 -99.68ZM635.348 -99.68C634.148 -99.68 633.161 -100.027 632.388 -100.72C631.641 -101.44 631.268 -102.32 631.268 -103.36C631.268 -104.427 631.641 -105.32 632.388 -106.04C633.161 -106.76 634.148 -107.12 635.348 -107.12C636.521 -107.12 637.481 -106.76 638.228 -106.04C639.001 -105.32 639.388 -104.427 639.388 -103.36C639.388 -102.32 639.001 -101.44 638.228 -100.72C637.481 -100.027 636.521 -99.68 635.348 -99.68ZM262.723 -68.68C261.523 -68.68 260.536 -69.0267 259.763 -69.72C259.016 -70.44 258.643 -71.32 258.643 -72.36C258.643 -73.4267 259.016 -74.32 259.763 -75.04C260.536 -75.76 261.523 -76.12 262.723 -76.12C263.896 -76.12 264.856 -75.76 265.603 -75.04C266.376 -74.32 266.763 -73.4267 266.763 -72.36C266.763 -71.32 266.376 -70.44 265.603 -69.72C264.856 -69.0267 263.896 -68.68 262.723 -68.68ZM286.012 -68.68C284.812 -68.68 283.825 -69.0267 283.052 -69.72C282.305 -70.44 281.932 -71.32 281.932 -72.36C281.932 -73.4267 282.305 -74.32 283.052 -75.04C283.825 -75.76 284.812 -76.12 286.012 -76.12C287.185 -76.12 288.145 -75.76 288.892 -75.04C289.665 -74.32 290.052 -73.4267 290.052 -72.36C290.052 -71.32 289.665 -70.44 288.892 -69.72C288.145 -69.0267 287.185 -68.68 286.012 -68.68ZM309.301 -68.68C308.101 -68.68 307.114 -69.0267 306.341 -69.72C305.594 -70.44 305.221 -71.32 305.221 -72.36C305.221 -73.4267 305.594 -74.32 306.341 -75.04C307.114 -75.76 308.101 -76.12 309.301 -76.12C310.474 -76.12 311.434 -75.76 312.181 -75.04C312.954 -74.32 313.341 -73.4267 313.341 -72.36C313.341 -71.32 312.954 -70.44 312.181 -69.72C311.434 -69.0267 310.474 -68.68 309.301 -68.68ZM332.59 -68.68C331.39 -68.68 330.403 -69.0267 329.63 -69.72C328.883 -70.44 328.51 -71.32 328.51 -72.36C328.51 -73.4267 328.883 -74.32 329.63 -75.04C330.403 -75.76 331.39 -76.12 332.59 -76.12C333.763 -76.12 334.723 -75.76 335.47 -75.04C336.243 -74.32 336.63 -73.4267 336.63 -72.36C336.63 -71.32 336.243 -70.44 335.47 -69.72C334.723 -69.0267 333.763 -68.68 332.59 -68.68ZM355.879 -68.68C354.679 -68.68 353.693 -69.0267 352.919 -69.72C352.173 -70.44 351.799 -71.32 351.799 -72.36C351.799 -73.4267 352.173 -74.32 352.919 -75.04C353.693 -75.76 354.679 -76.12 355.879 -76.12C357.053 -76.12 358.013 -75.76 358.759 -75.04C359.533 -74.32 359.919 -73.4267 359.919 -72.36C359.919 -71.32 359.533 -70.44 358.759 -69.72C358.013 -69.0267 357.053 -68.68 355.879 -68.68ZM379.168 -68.68C377.968 -68.68 376.982 -69.0267 376.208 -69.72C375.462 -70.44 375.088 -71.32 375.088 -72.36C375.088 -73.4267 375.462 -74.32 376.208 -75.04C376.982 -75.76 377.968 -76.12 379.168 -76.12C380.342 -76.12 381.302 -75.76 382.048 -75.04C382.822 -74.32 383.208 -73.4267 383.208 -72.36C383.208 -71.32 382.822 -70.44 382.048 -69.72C381.302 -69.0267 380.342 -68.68 379.168 -68.68ZM402.457 -68.68C401.257 -68.68 400.271 -69.0267 399.497 -69.72C398.751 -70.44 398.377 -71.32 398.377 -72.36C398.377 -73.4267 398.751 -74.32 399.497 -75.04C400.271 -75.76 401.257 -76.12 402.457 -76.12C403.631 -76.12 404.591 -75.76 405.337 -75.04C406.111 -74.32 406.497 -73.4267 406.497 -72.36C406.497 -71.32 406.111 -70.44 405.337 -69.72C404.591 -69.0267 403.631 -68.68 402.457 -68.68ZM425.746 -68.68C424.546 -68.68 423.56 -69.0267 422.786 -69.72C422.04 -70.44 421.666 -71.32 421.666 -72.36C421.666 -73.4267 422.04 -74.32 422.786 -75.04C423.56 -75.76 424.546 -76.12 425.746 -76.12C426.92 -76.12 427.88 -75.76 428.626 -75.04C429.4 -74.32 429.786 -73.4267 429.786 -72.36C429.786 -71.32 429.4 -70.44 428.626 -69.72C427.88 -69.0267 426.92 -68.68 425.746 -68.68ZM449.035 -68.68C447.835 -68.68 446.849 -69.0267 446.075 -69.72C445.329 -70.44 444.955 -71.32 444.955 -72.36C444.955 -73.4267 445.329 -74.32 446.075 -75.04C446.849 -75.76 447.835 -76.12 449.035 -76.12C450.209 -76.12 451.169 -75.76 451.915 -75.04C452.689 -74.32 453.075 -73.4267 453.075 -72.36C453.075 -71.32 452.689 -70.44 451.915 -69.72C451.169 -69.0267 450.209 -68.68 449.035 -68.68ZM472.325 -68.68C471.125 -68.68 470.138 -69.0267 469.365 -69.72C468.618 -70.44 468.245 -71.32 468.245 -72.36C468.245 -73.4267 468.618 -74.32 469.365 -75.04C470.138 -75.76 471.125 -76.12 472.325 -76.12C473.498 -76.12 474.458 -75.76 475.205 -75.04C475.978 -74.32 476.365 -73.4267 476.365 -72.36C476.365 -71.32 475.978 -70.44 475.205 -69.72C474.458 -69.0267 473.498 -68.68 472.325 -68.68ZM495.614 -68.68C494.414 -68.68 493.427 -69.0267 492.654 -69.72C491.907 -70.44 491.534 -71.32 491.534 -72.36C491.534 -73.4267 491.907 -74.32 492.654 -75.04C493.427 -75.76 494.414 -76.12 495.614 -76.12C496.787 -76.12 497.747 -75.76 498.494 -75.04C499.267 -74.32 499.654 -73.4267 499.654 -72.36C499.654 -71.32 499.267 -70.44 498.494 -69.72C497.747 -69.0267 496.787 -68.68 495.614 -68.68ZM518.903 -68.68C517.703 -68.68 516.716 -69.0267 515.943 -69.72C515.196 -70.44 514.823 -71.32 514.823 -72.36C514.823 -73.4267 515.196 -74.32 515.943 -75.04C516.716 -75.76 517.703 -76.12 518.903 -76.12C520.076 -76.12 521.036 -75.76 521.783 -75.04C522.556 -74.32 522.943 -73.4267 522.943 -72.36C522.943 -71.32 522.556 -70.44 521.783 -69.72C521.036 -69.0267 520.076 -68.68 518.903 -68.68ZM542.192 -68.68C540.992 -68.68 540.005 -69.0267 539.232 -69.72C538.485 -70.44 538.112 -71.32 538.112 -72.36C538.112 -73.4267 538.485 -74.32 539.232 -75.04C540.005 -75.76 540.992 -76.12 542.192 -76.12C543.365 -76.12 544.325 -75.76 545.072 -75.04C545.845 -74.32 546.232 -73.4267 546.232 -72.36C546.232 -71.32 545.845 -70.44 545.072 -69.72C544.325 -69.0267 543.365 -68.68 542.192 -68.68ZM565.481 -68.68C564.281 -68.68 563.294 -69.0267 562.521 -69.72C561.774 -70.44 561.401 -71.32 561.401 -72.36C561.401 -73.4267 561.774 -74.32 562.521 -75.04C563.294 -75.76 564.281 -76.12 565.481 -76.12C566.654 -76.12 567.614 -75.76 568.361 -75.04C569.134 -74.32 569.521 -73.4267 569.521 -72.36C569.521 -71.32 569.134 -70.44 568.361 -69.72C567.614 -69.0267 566.654 -68.68 565.481 -68.68ZM588.77 -68.68C587.57 -68.68 586.583 -69.0267 585.81 -69.72C585.063 -70.44 584.69 -71.32 584.69 -72.36C584.69 -73.4267 585.063 -74.32 585.81 -75.04C586.583 -75.76 587.57 -76.12 588.77 -76.12C589.943 -76.12 590.903 -75.76 591.65 -75.04C592.423 -74.32 592.81 -73.4267 592.81 -72.36C592.81 -71.32 592.423 -70.44 591.65 -69.72C590.903 -69.0267 589.943 -68.68 588.77 -68.68ZM612.059 -68.68C610.859 -68.68 609.872 -69.0267 609.099 -69.72C608.352 -70.44 607.979 -71.32 607.979 -72.36C607.979 -73.4267 608.352 -74.32 609.099 -75.04C609.872 -75.76 610.859 -76.12 612.059 -76.12C613.232 -76.12 614.192 -75.76 614.939 -75.04C615.712 -74.32 616.099 -73.4267 616.099 -72.36C616.099 -71.32 615.712 -70.44 614.939 -69.72C614.192 -69.0267 613.232 -68.68 612.059 -68.68ZM635.348 -68.68C634.148 -68.68 633.161 -69.0267 632.388 -69.72C631.641 -70.44 631.268 -71.32 631.268 -72.36C631.268 -73.4267 631.641 -74.32 632.388 -75.04C633.161 -75.76 634.148 -76.12 635.348 -76.12C636.521 -76.12 637.481 -75.76 638.228 -75.04C639.001 -74.32 639.388 -73.4267 639.388 -72.36C639.388 -71.32 639.001 -70.44 638.228 -69.72C637.481 -69.0267 636.521 -68.68 635.348 -68.68ZM262.723 -37.68C261.523 -37.68 260.536 -38.0267 259.763 -38.72C259.016 -39.44 258.643 -40.32 258.643 -41.36C258.643 -42.4267 259.016 -43.32 259.763 -44.04C260.536 -44.76 261.523 -45.12 262.723 -45.12C263.896 -45.12 264.856 -44.76 265.603 -44.04C266.376 -43.32 266.763 -42.4267 266.763 -41.36C266.763 -40.32 266.376 -39.44 265.603 -38.72C264.856 -38.0267 263.896 -37.68 262.723 -37.68ZM286.012 -37.68C284.812 -37.68 283.825 -38.0267 283.052 -38.72C282.305 -39.44 281.932 -40.32 281.932 -41.36C281.932 -42.4267 282.305 -43.32 283.052 -44.04C283.825 -44.76 284.812 -45.12 286.012 -45.12C287.185 -45.12 288.145 -44.76 288.892 -44.04C289.665 -43.32 290.052 -42.4267 290.052 -41.36C290.052 -40.32 289.665 -39.44 288.892 -38.72C288.145 -38.0267 287.185 -37.68 286.012 -37.68ZM309.301 -37.68C308.101 -37.68 307.114 -38.0267 306.341 -38.72C305.594 -39.44 305.221 -40.32 305.221 -41.36C305.221 -42.4267 305.594 -43.32 306.341 -44.04C307.114 -44.76 308.101 -45.12 309.301 -45.12C310.474 -45.12 311.434 -44.76 312.181 -44.04C312.954 -43.32 313.341 -42.4267 313.341 -41.36C313.341 -40.32 312.954 -39.44 312.181 -38.72C311.434 -38.0267 310.474 -37.68 309.301 -37.68ZM332.59 -37.68C331.39 -37.68 330.403 -38.0267 329.63 -38.72C328.883 -39.44 328.51 -40.32 328.51 -41.36C328.51 -42.4267 328.883 -43.32 329.63 -44.04C330.403 -44.76 331.39 -45.12 332.59 -45.12C333.763 -45.12 334.723 -44.76 335.47 -44.04C336.243 -43.32 336.63 -42.4267 336.63 -41.36C336.63 -40.32 336.243 -39.44 335.47 -38.72C334.723 -38.0267 333.763 -37.68 332.59 -37.68ZM355.879 -37.68C354.679 -37.68 353.693 -38.0267 352.919 -38.72C352.173 -39.44 351.799 -40.32 351.799 -41.36C351.799 -42.4267 352.173 -43.32 352.919 -44.04C353.693 -44.76 354.679 -45.12 355.879 -45.12C357.053 -45.12 358.013 -44.76 358.759 -44.04C359.533 -43.32 359.919 -42.4267 359.919 -41.36C359.919 -40.32 359.533 -39.44 358.759 -38.72C358.013 -38.0267 357.053 -37.68 355.879 -37.68ZM379.168 -37.68C377.968 -37.68 376.982 -38.0267 376.208 -38.72C375.462 -39.44 375.088 -40.32 375.088 -41.36C375.088 -42.4267 375.462 -43.32 376.208 -44.04C376.982 -44.76 377.968 -45.12 379.168 -45.12C380.342 -45.12 381.302 -44.76 382.048 -44.04C382.822 -43.32 383.208 -42.4267 383.208 -41.36C383.208 -40.32 382.822 -39.44 382.048 -38.72C381.302 -38.0267 380.342 -37.68 379.168 -37.68ZM402.457 -37.68C401.257 -37.68 400.271 -38.0267 399.497 -38.72C398.751 -39.44 398.377 -40.32 398.377 -41.36C398.377 -42.4267 398.751 -43.32 399.497 -44.04C400.271 -44.76 401.257 -45.12 402.457 -45.12C403.631 -45.12 404.591 -44.76 405.337 -44.04C406.111 -43.32 406.497 -42.4267 406.497 -41.36C406.497 -40.32 406.111 -39.44 405.337 -38.72C404.591 -38.0267 403.631 -37.68 402.457 -37.68ZM425.746 -37.68C424.546 -37.68 423.56 -38.0267 422.786 -38.72C422.04 -39.44 421.666 -40.32 421.666 -41.36C421.666 -42.4267 422.04 -43.32 422.786 -44.04C423.56 -44.76 424.546 -45.12 425.746 -45.12C426.92 -45.12 427.88 -44.76 428.626 -44.04C429.4 -43.32 429.786 -42.4267 429.786 -41.36C429.786 -40.32 429.4 -39.44 428.626 -38.72C427.88 -38.0267 426.92 -37.68 425.746 -37.68ZM449.035 -37.68C447.835 -37.68 446.849 -38.0267 446.075 -38.72C445.329 -39.44 444.955 -40.32 444.955 -41.36C444.955 -42.4267 445.329 -43.32 446.075 -44.04C446.849 -44.76 447.835 -45.12 449.035 -45.12C450.209 -45.12 451.169 -44.76 451.915 -44.04C452.689 -43.32 453.075 -42.4267 453.075 -41.36C453.075 -40.32 452.689 -39.44 451.915 -38.72C451.169 -38.0267 450.209 -37.68 449.035 -37.68ZM472.325 -37.68C471.125 -37.68 470.138 -38.0267 469.365 -38.72C468.618 -39.44 468.245 -40.32 468.245 -41.36C468.245 -42.4267 468.618 -43.32 469.365 -44.04C470.138 -44.76 471.125 -45.12 472.325 -45.12C473.498 -45.12 474.458 -44.76 475.205 -44.04C475.978 -43.32 476.365 -42.4267 476.365 -41.36C476.365 -40.32 475.978 -39.44 475.205 -38.72C474.458 -38.0267 473.498 -37.68 472.325 -37.68ZM495.614 -37.68C494.414 -37.68 493.427 -38.0267 492.654 -38.72C491.907 -39.44 491.534 -40.32 491.534 -41.36C491.534 -42.4267 491.907 -43.32 492.654 -44.04C493.427 -44.76 494.414 -45.12 495.614 -45.12C496.787 -45.12 497.747 -44.76 498.494 -44.04C499.267 -43.32 499.654 -42.4267 499.654 -41.36C499.654 -40.32 499.267 -39.44 498.494 -38.72C497.747 -38.0267 496.787 -37.68 495.614 -37.68ZM518.903 -37.68C517.703 -37.68 516.716 -38.0267 515.943 -38.72C515.196 -39.44 514.823 -40.32 514.823 -41.36C514.823 -42.4267 515.196 -43.32 515.943 -44.04C516.716 -44.76 517.703 -45.12 518.903 -45.12C520.076 -45.12 521.036 -44.76 521.783 -44.04C522.556 -43.32 522.943 -42.4267 522.943 -41.36C522.943 -40.32 522.556 -39.44 521.783 -38.72C521.036 -38.0267 520.076 -37.68 518.903 -37.68ZM542.192 -37.68C540.992 -37.68 540.005 -38.0267 539.232 -38.72C538.485 -39.44 538.112 -40.32 538.112 -41.36C538.112 -42.4267 538.485 -43.32 539.232 -44.04C540.005 -44.76 540.992 -45.12 542.192 -45.12C543.365 -45.12 544.325 -44.76 545.072 -44.04C545.845 -43.32 546.232 -42.4267 546.232 -41.36C546.232 -40.32 545.845 -39.44 545.072 -38.72C544.325 -38.0267 543.365 -37.68 542.192 -37.68ZM565.481 -37.68C564.281 -37.68 563.294 -38.0267 562.521 -38.72C561.774 -39.44 561.401 -40.32 561.401 -41.36C561.401 -42.4267 561.774 -43.32 562.521 -44.04C563.294 -44.76 564.281 -45.12 565.481 -45.12C566.654 -45.12 567.614 -44.76 568.361 -44.04C569.134 -43.32 569.521 -42.4267 569.521 -41.36C569.521 -40.32 569.134 -39.44 568.361 -38.72C567.614 -38.0267 566.654 -37.68 565.481 -37.68ZM588.77 -37.68C587.57 -37.68 586.583 -38.0267 585.81 -38.72C585.063 -39.44 584.69 -40.32 584.69 -41.36C584.69 -42.4267 585.063 -43.32 585.81 -44.04C586.583 -44.76 587.57 -45.12 588.77 -45.12C589.943 -45.12 590.903 -44.76 591.65 -44.04C592.423 -43.32 592.81 -42.4267 592.81 -41.36C592.81 -40.32 592.423 -39.44 591.65 -38.72C590.903 -38.0267 589.943 -37.68 588.77 -37.68ZM612.059 -37.68C610.859 -37.68 609.872 -38.0267 609.099 -38.72C608.352 -39.44 607.979 -40.32 607.979 -41.36C607.979 -42.4267 608.352 -43.32 609.099 -44.04C609.872 -44.76 610.859 -45.12 612.059 -45.12C613.232 -45.12 614.192 -44.76 614.939 -44.04C615.712 -43.32 616.099 -42.4267 616.099 -41.36C616.099 -40.32 615.712 -39.44 614.939 -38.72C614.192 -38.0267 613.232 -37.68 612.059 -37.68ZM635.348 -37.68C634.148 -37.68 633.161 -38.0267 632.388 -38.72C631.641 -39.44 631.268 -40.32 631.268 -41.36C631.268 -42.4267 631.641 -43.32 632.388 -44.04C633.161 -44.76 634.148 -45.12 635.348 -45.12C636.521 -45.12 637.481 -44.76 638.228 -44.04C639.001 -43.32 639.388 -42.4267 639.388 -41.36C639.388 -40.32 639.001 -39.44 638.228 -38.72C637.481 -38.0267 636.521 -37.68 635.348 -37.68ZM262.723 -6.68C261.523 -6.68 260.536 -7.02667 259.763 -7.72C259.016 -8.44 258.643 -9.32 258.643 -10.36C258.643 -11.4267 259.016 -12.32 259.763 -13.04C260.536 -13.76 261.523 -14.12 262.723 -14.12C263.896 -14.12 264.856 -13.76 265.603 -13.04C266.376 -12.32 266.763 -11.4267 266.763 -10.36C266.763 -9.32 266.376 -8.44 265.603 -7.72C264.856 -7.02667 263.896 -6.68 262.723 -6.68ZM286.012 -6.68C284.812 -6.68 283.825 -7.02667 283.052 -7.72C282.305 -8.44 281.932 -9.32 281.932 -10.36C281.932 -11.4267 282.305 -12.32 283.052 -13.04C283.825 -13.76 284.812 -14.12 286.012 -14.12C287.185 -14.12 288.145 -13.76 288.892 -13.04C289.665 -12.32 290.052 -11.4267 290.052 -10.36C290.052 -9.32 289.665 -8.44 288.892 -7.72C288.145 -7.02667 287.185 -6.68 286.012 -6.68ZM309.301 -6.68C308.101 -6.68 307.114 -7.02667 306.341 -7.72C305.594 -8.44 305.221 -9.32 305.221 -10.36C305.221 -11.4267 305.594 -12.32 306.341 -13.04C307.114 -13.76 308.101 -14.12 309.301 -14.12C310.474 -14.12 311.434 -13.76 312.181 -13.04C312.954 -12.32 313.341 -11.4267 313.341 -10.36C313.341 -9.32 312.954 -8.44 312.181 -7.72C311.434 -7.02667 310.474 -6.68 309.301 -6.68ZM332.59 -6.68C331.39 -6.68 330.403 -7.02667 329.63 -7.72C328.883 -8.44 328.51 -9.32 328.51 -10.36C328.51 -11.4267 328.883 -12.32 329.63 -13.04C330.403 -13.76 331.39 -14.12 332.59 -14.12C333.763 -14.12 334.723 -13.76 335.47 -13.04C336.243 -12.32 336.63 -11.4267 336.63 -10.36C336.63 -9.32 336.243 -8.44 335.47 -7.72C334.723 -7.02667 333.763 -6.68 332.59 -6.68ZM355.879 -6.68C354.679 -6.68 353.693 -7.02667 352.919 -7.72C352.173 -8.44 351.799 -9.32 351.799 -10.36C351.799 -11.4267 352.173 -12.32 352.919 -13.04C353.693 -13.76 354.679 -14.12 355.879 -14.12C357.053 -14.12 358.013 -13.76 358.759 -13.04C359.533 -12.32 359.919 -11.4267 359.919 -10.36C359.919 -9.32 359.533 -8.44 358.759 -7.72C358.013 -7.02667 357.053 -6.68 355.879 -6.68ZM379.168 -6.68C377.968 -6.68 376.982 -7.02667 376.208 -7.72C375.462 -8.44 375.088 -9.32 375.088 -10.36C375.088 -11.4267 375.462 -12.32 376.208 -13.04C376.982 -13.76 377.968 -14.12 379.168 -14.12C380.342 -14.12 381.302 -13.76 382.048 -13.04C382.822 -12.32 383.208 -11.4267 383.208 -10.36C383.208 -9.32 382.822 -8.44 382.048 -7.72C381.302 -7.02667 380.342 -6.68 379.168 -6.68ZM402.457 -6.68C401.257 -6.68 400.271 -7.02667 399.497 -7.72C398.751 -8.44 398.377 -9.32 398.377 -10.36C398.377 -11.4267 398.751 -12.32 399.497 -13.04C400.271 -13.76 401.257 -14.12 402.457 -14.12C403.631 -14.12 404.591 -13.76 405.337 -13.04C406.111 -12.32 406.497 -11.4267 406.497 -10.36C406.497 -9.32 406.111 -8.44 405.337 -7.72C404.591 -7.02667 403.631 -6.68 402.457 -6.68ZM425.746 -6.68C424.546 -6.68 423.56 -7.02667 422.786 -7.72C422.04 -8.44 421.666 -9.32 421.666 -10.36C421.666 -11.4267 422.04 -12.32 422.786 -13.04C423.56 -13.76 424.546 -14.12 425.746 -14.12C426.92 -14.12 427.88 -13.76 428.626 -13.04C429.4 -12.32 429.786 -11.4267 429.786 -10.36C429.786 -9.32 429.4 -8.44 428.626 -7.72C427.88 -7.02667 426.92 -6.68 425.746 -6.68ZM449.035 -6.68C447.835 -6.68 446.849 -7.02667 446.075 -7.72C445.329 -8.44 444.955 -9.32 444.955 -10.36C444.955 -11.4267 445.329 -12.32 446.075 -13.04C446.849 -13.76 447.835 -14.12 449.035 -14.12C450.209 -14.12 451.169 -13.76 451.915 -13.04C452.689 -12.32 453.075 -11.4267 453.075 -10.36C453.075 -9.32 452.689 -8.44 451.915 -7.72C451.169 -7.02667 450.209 -6.68 449.035 -6.68ZM472.325 -6.68C471.125 -6.68 470.138 -7.02667 469.365 -7.72C468.618 -8.44 468.245 -9.32 468.245 -10.36C468.245 -11.4267 468.618 -12.32 469.365 -13.04C470.138 -13.76 471.125 -14.12 472.325 -14.12C473.498 -14.12 474.458 -13.76 475.205 -13.04C475.978 -12.32 476.365 -11.4267 476.365 -10.36C476.365 -9.32 475.978 -8.44 475.205 -7.72C474.458 -7.02667 473.498 -6.68 472.325 -6.68ZM495.614 -6.68C494.414 -6.68 493.427 -7.02667 492.654 -7.72C491.907 -8.44 491.534 -9.32 491.534 -10.36C491.534 -11.4267 491.907 -12.32 492.654 -13.04C493.427 -13.76 494.414 -14.12 495.614 -14.12C496.787 -14.12 497.747 -13.76 498.494 -13.04C499.267 -12.32 499.654 -11.4267 499.654 -10.36C499.654 -9.32 499.267 -8.44 498.494 -7.72C497.747 -7.02667 496.787 -6.68 495.614 -6.68ZM518.903 -6.68C517.703 -6.68 516.716 -7.02667 515.943 -7.72C515.196 -8.44 514.823 -9.32 514.823 -10.36C514.823 -11.4267 515.196 -12.32 515.943 -13.04C516.716 -13.76 517.703 -14.12 518.903 -14.12C520.076 -14.12 521.036 -13.76 521.783 -13.04C522.556 -12.32 522.943 -11.4267 522.943 -10.36C522.943 -9.32 522.556 -8.44 521.783 -7.72C521.036 -7.02667 520.076 -6.68 518.903 -6.68ZM542.192 -6.68C540.992 -6.68 540.005 -7.02667 539.232 -7.72C538.485 -8.44 538.112 -9.32 538.112 -10.36C538.112 -11.4267 538.485 -12.32 539.232 -13.04C540.005 -13.76 540.992 -14.12 542.192 -14.12C543.365 -14.12 544.325 -13.76 545.072 -13.04C545.845 -12.32 546.232 -11.4267 546.232 -10.36C546.232 -9.32 545.845 -8.44 545.072 -7.72C544.325 -7.02667 543.365 -6.68 542.192 -6.68ZM565.481 -6.68C564.281 -6.68 563.294 -7.02667 562.521 -7.72C561.774 -8.44 561.401 -9.32 561.401 -10.36C561.401 -11.4267 561.774 -12.32 562.521 -13.04C563.294 -13.76 564.281 -14.12 565.481 -14.12C566.654 -14.12 567.614 -13.76 568.361 -13.04C569.134 -12.32 569.521 -11.4267 569.521 -10.36C569.521 -9.32 569.134 -8.44 568.361 -7.72C567.614 -7.02667 566.654 -6.68 565.481 -6.68ZM588.77 -6.68C587.57 -6.68 586.583 -7.02667 585.81 -7.72C585.063 -8.44 584.69 -9.32 584.69 -10.36C584.69 -11.4267 585.063 -12.32 585.81 -13.04C586.583 -13.76 587.57 -14.12 588.77 -14.12C589.943 -14.12 590.903 -13.76 591.65 -13.04C592.423 -12.32 592.81 -11.4267 592.81 -10.36C592.81 -9.32 592.423 -8.44 591.65 -7.72C590.903 -7.02667 589.943 -6.68 588.77 -6.68ZM612.059 -6.68C610.859 -6.68 609.872 -7.02667 609.099 -7.72C608.352 -8.44 607.979 -9.32 607.979 -10.36C607.979 -11.4267 608.352 -12.32 609.099 -13.04C609.872 -13.76 610.859 -14.12 612.059 -14.12C613.232 -14.12 614.192 -13.76 614.939 -13.04C615.712 -12.32 616.099 -11.4267 616.099 -10.36C616.099 -9.32 615.712 -8.44 614.939 -7.72C614.192 -7.02667 613.232 -6.68 612.059 -6.68ZM635.348 -6.68C634.148 -6.68 633.161 -7.02667 632.388 -7.72C631.641 -8.44 631.268 -9.32 631.268 -10.36C631.268 -11.4267 631.641 -12.32 632.388 -13.04C633.161 -13.76 634.148 -14.12 635.348 -14.12C636.521 -14.12 637.481 -13.76 638.228 -13.04C639.001 -12.32 639.388 -11.4267 639.388 -10.36C639.388 -9.32 639.001 -8.44 638.228 -7.72C637.481 -7.02667 636.521 -6.68 635.348 -6.68ZM262.723 24.32C261.523 24.32 260.536 23.9733 259.763 23.28C259.016 22.56 258.643 21.68 258.643 20.64C258.643 19.5733 259.016 18.68 259.763 17.96C260.536 17.24 261.523 16.88 262.723 16.88C263.896 16.88 264.856 17.24 265.603 17.96C266.376 18.68 266.763 19.5733 266.763 20.64C266.763 21.68 266.376 22.56 265.603 23.28C264.856 23.9733 263.896 24.32 262.723 24.32ZM286.012 24.32C284.812 24.32 283.825 23.9733 283.052 23.28C282.305 22.56 281.932 21.68 281.932 20.64C281.932 19.5733 282.305 18.68 283.052 17.96C283.825 17.24 284.812 16.88 286.012 16.88C287.185 16.88 288.145 17.24 288.892 17.96C289.665 18.68 290.052 19.5733 290.052 20.64C290.052 21.68 289.665 22.56 288.892 23.28C288.145 23.9733 287.185 24.32 286.012 24.32ZM309.301 24.32C308.101 24.32 307.114 23.9733 306.341 23.28C305.594 22.56 305.221 21.68 305.221 20.64C305.221 19.5733 305.594 18.68 306.341 17.96C307.114 17.24 308.101 16.88 309.301 16.88C310.474 16.88 311.434 17.24 312.181 17.96C312.954 18.68 313.341 19.5733 313.341 20.64C313.341 21.68 312.954 22.56 312.181 23.28C311.434 23.9733 310.474 24.32 309.301 24.32ZM332.59 24.32C331.39 24.32 330.403 23.9733 329.63 23.28C328.883 22.56 328.51 21.68 328.51 20.64C328.51 19.5733 328.883 18.68 329.63 17.96C330.403 17.24 331.39 16.88 332.59 16.88C333.763 16.88 334.723 17.24 335.47 17.96C336.243 18.68 336.63 19.5733 336.63 20.64C336.63 21.68 336.243 22.56 335.47 23.28C334.723 23.9733 333.763 24.32 332.59 24.32ZM355.879 24.32C354.679 24.32 353.693 23.9733 352.919 23.28C352.173 22.56 351.799 21.68 351.799 20.64C351.799 19.5733 352.173 18.68 352.919 17.96C353.693 17.24 354.679 16.88 355.879 16.88C357.053 16.88 358.013 17.24 358.759 17.96C359.533 18.68 359.919 19.5733 359.919 20.64C359.919 21.68 359.533 22.56 358.759 23.28C358.013 23.9733 357.053 24.32 355.879 24.32ZM379.168 24.32C377.968 24.32 376.982 23.9733 376.208 23.28C375.462 22.56 375.088 21.68 375.088 20.64C375.088 19.5733 375.462 18.68 376.208 17.96C376.982 17.24 377.968 16.88 379.168 16.88C380.342 16.88 381.302 17.24 382.048 17.96C382.822 18.68 383.208 19.5733 383.208 20.64C383.208 21.68 382.822 22.56 382.048 23.28C381.302 23.9733 380.342 24.32 379.168 24.32ZM402.457 24.32C401.257 24.32 400.271 23.9733 399.497 23.28C398.751 22.56 398.377 21.68 398.377 20.64C398.377 19.5733 398.751 18.68 399.497 17.96C400.271 17.24 401.257 16.88 402.457 16.88C403.631 16.88 404.591 17.24 405.337 17.96C406.111 18.68 406.497 19.5733 406.497 20.64C406.497 21.68 406.111 22.56 405.337 23.28C404.591 23.9733 403.631 24.32 402.457 24.32ZM425.746 24.32C424.546 24.32 423.56 23.9733 422.786 23.28C422.04 22.56 421.666 21.68 421.666 20.64C421.666 19.5733 422.04 18.68 422.786 17.96C423.56 17.24 424.546 16.88 425.746 16.88C426.92 16.88 427.88 17.24 428.626 17.96C429.4 18.68 429.786 19.5733 429.786 20.64C429.786 21.68 429.4 22.56 428.626 23.28C427.88 23.9733 426.92 24.32 425.746 24.32ZM449.035 24.32C447.835 24.32 446.849 23.9733 446.075 23.28C445.329 22.56 444.955 21.68 444.955 20.64C444.955 19.5733 445.329 18.68 446.075 17.96C446.849 17.24 447.835 16.88 449.035 16.88C450.209 16.88 451.169 17.24 451.915 17.96C452.689 18.68 453.075 19.5733 453.075 20.64C453.075 21.68 452.689 22.56 451.915 23.28C451.169 23.9733 450.209 24.32 449.035 24.32ZM472.325 24.32C471.125 24.32 470.138 23.9733 469.365 23.28C468.618 22.56 468.245 21.68 468.245 20.64C468.245 19.5733 468.618 18.68 469.365 17.96C470.138 17.24 471.125 16.88 472.325 16.88C473.498 16.88 474.458 17.24 475.205 17.96C475.978 18.68 476.365 19.5733 476.365 20.64C476.365 21.68 475.978 22.56 475.205 23.28C474.458 23.9733 473.498 24.32 472.325 24.32ZM495.614 24.32C494.414 24.32 493.427 23.9733 492.654 23.28C491.907 22.56 491.534 21.68 491.534 20.64C491.534 19.5733 491.907 18.68 492.654 17.96C493.427 17.24 494.414 16.88 495.614 16.88C496.787 16.88 497.747 17.24 498.494 17.96C499.267 18.68 499.654 19.5733 499.654 20.64C499.654 21.68 499.267 22.56 498.494 23.28C497.747 23.9733 496.787 24.32 495.614 24.32ZM518.903 24.32C517.703 24.32 516.716 23.9733 515.943 23.28C515.196 22.56 514.823 21.68 514.823 20.64C514.823 19.5733 515.196 18.68 515.943 17.96C516.716 17.24 517.703 16.88 518.903 16.88C520.076 16.88 521.036 17.24 521.783 17.96C522.556 18.68 522.943 19.5733 522.943 20.64C522.943 21.68 522.556 22.56 521.783 23.28C521.036 23.9733 520.076 24.32 518.903 24.32ZM542.192 24.32C540.992 24.32 540.005 23.9733 539.232 23.28C538.485 22.56 538.112 21.68 538.112 20.64C538.112 19.5733 538.485 18.68 539.232 17.96C540.005 17.24 540.992 16.88 542.192 16.88C543.365 16.88 544.325 17.24 545.072 17.96C545.845 18.68 546.232 19.5733 546.232 20.64C546.232 21.68 545.845 22.56 545.072 23.28C544.325 23.9733 543.365 24.32 542.192 24.32ZM565.481 24.32C564.281 24.32 563.294 23.9733 562.521 23.28C561.774 22.56 561.401 21.68 561.401 20.64C561.401 19.5733 561.774 18.68 562.521 17.96C563.294 17.24 564.281 16.88 565.481 16.88C566.654 16.88 567.614 17.24 568.361 17.96C569.134 18.68 569.521 19.5733 569.521 20.64C569.521 21.68 569.134 22.56 568.361 23.28C567.614 23.9733 566.654 24.32 565.481 24.32ZM588.77 24.32C587.57 24.32 586.583 23.9733 585.81 23.28C585.063 22.56 584.69 21.68 584.69 20.64C584.69 19.5733 585.063 18.68 585.81 17.96C586.583 17.24 587.57 16.88 588.77 16.88C589.943 16.88 590.903 17.24 591.65 17.96C592.423 18.68 592.81 19.5733 592.81 20.64C592.81 21.68 592.423 22.56 591.65 23.28C590.903 23.9733 589.943 24.32 588.77 24.32ZM612.059 24.32C610.859 24.32 609.872 23.9733 609.099 23.28C608.352 22.56 607.979 21.68 607.979 20.64C607.979 19.5733 608.352 18.68 609.099 17.96C609.872 17.24 610.859 16.88 612.059 16.88C613.232 16.88 614.192 17.24 614.939 17.96C615.712 18.68 616.099 19.5733 616.099 20.64C616.099 21.68 615.712 22.56 614.939 23.28C614.192 23.9733 613.232 24.32 612.059 24.32ZM635.348 24.32C634.148 24.32 633.161 23.9733 632.388 23.28C631.641 22.56 631.268 21.68 631.268 20.64C631.268 19.5733 631.641 18.68 632.388 17.96C633.161 17.24 634.148 16.88 635.348 16.88C636.521 16.88 637.481 17.24 638.228 17.96C639.001 18.68 639.388 19.5733 639.388 20.64C639.388 21.68 639.001 22.56 638.228 23.28C637.481 23.9733 636.521 24.32 635.348 24.32ZM262.723 55.32C261.523 55.32 260.536 54.9733 259.763 54.28C259.016 53.56 258.643 52.68 258.643 51.64C258.643 50.5733 259.016 49.68 259.763 48.96C260.536 48.24 261.523 47.88 262.723 47.88C263.896 47.88 264.856 48.24 265.603 48.96C266.376 49.68 266.763 50.5733 266.763 51.64C266.763 52.68 266.376 53.56 265.603 54.28C264.856 54.9733 263.896 55.32 262.723 55.32ZM286.012 55.32C284.812 55.32 283.825 54.9733 283.052 54.28C282.305 53.56 281.932 52.68 281.932 51.64C281.932 50.5733 282.305 49.68 283.052 48.96C283.825 48.24 284.812 47.88 286.012 47.88C287.185 47.88 288.145 48.24 288.892 48.96C289.665 49.68 290.052 50.5733 290.052 51.64C290.052 52.68 289.665 53.56 288.892 54.28C288.145 54.9733 287.185 55.32 286.012 55.32ZM309.301 55.32C308.101 55.32 307.114 54.9733 306.341 54.28C305.594 53.56 305.221 52.68 305.221 51.64C305.221 50.5733 305.594 49.68 306.341 48.96C307.114 48.24 308.101 47.88 309.301 47.88C310.474 47.88 311.434 48.24 312.181 48.96C312.954 49.68 313.341 50.5733 313.341 51.64C313.341 52.68 312.954 53.56 312.181 54.28C311.434 54.9733 310.474 55.32 309.301 55.32ZM332.59 55.32C331.39 55.32 330.403 54.9733 329.63 54.28C328.883 53.56 328.51 52.68 328.51 51.64C328.51 50.5733 328.883 49.68 329.63 48.96C330.403 48.24 331.39 47.88 332.59 47.88C333.763 47.88 334.723 48.24 335.47 48.96C336.243 49.68 336.63 50.5733 336.63 51.64C336.63 52.68 336.243 53.56 335.47 54.28C334.723 54.9733 333.763 55.32 332.59 55.32ZM355.879 55.32C354.679 55.32 353.693 54.9733 352.919 54.28C352.173 53.56 351.799 52.68 351.799 51.64C351.799 50.5733 352.173 49.68 352.919 48.96C353.693 48.24 354.679 47.88 355.879 47.88C357.053 47.88 358.013 48.24 358.759 48.96C359.533 49.68 359.919 50.5733 359.919 51.64C359.919 52.68 359.533 53.56 358.759 54.28C358.013 54.9733 357.053 55.32 355.879 55.32ZM379.168 55.32C377.968 55.32 376.982 54.9733 376.208 54.28C375.462 53.56 375.088 52.68 375.088 51.64C375.088 50.5733 375.462 49.68 376.208 48.96C376.982 48.24 377.968 47.88 379.168 47.88C380.342 47.88 381.302 48.24 382.048 48.96C382.822 49.68 383.208 50.5733 383.208 51.64C383.208 52.68 382.822 53.56 382.048 54.28C381.302 54.9733 380.342 55.32 379.168 55.32ZM402.457 55.32C401.257 55.32 400.271 54.9733 399.497 54.28C398.751 53.56 398.377 52.68 398.377 51.64C398.377 50.5733 398.751 49.68 399.497 48.96C400.271 48.24 401.257 47.88 402.457 47.88C403.631 47.88 404.591 48.24 405.337 48.96C406.111 49.68 406.497 50.5733 406.497 51.64C406.497 52.68 406.111 53.56 405.337 54.28C404.591 54.9733 403.631 55.32 402.457 55.32ZM425.746 55.32C424.546 55.32 423.56 54.9733 422.786 54.28C422.04 53.56 421.666 52.68 421.666 51.64C421.666 50.5733 422.04 49.68 422.786 48.96C423.56 48.24 424.546 47.88 425.746 47.88C426.92 47.88 427.88 48.24 428.626 48.96C429.4 49.68 429.786 50.5733 429.786 51.64C429.786 52.68 429.4 53.56 428.626 54.28C427.88 54.9733 426.92 55.32 425.746 55.32ZM449.035 55.32C447.835 55.32 446.849 54.9733 446.075 54.28C445.329 53.56 444.955 52.68 444.955 51.64C444.955 50.5733 445.329 49.68 446.075 48.96C446.849 48.24 447.835 47.88 449.035 47.88C450.209 47.88 451.169 48.24 451.915 48.96C452.689 49.68 453.075 50.5733 453.075 51.64C453.075 52.68 452.689 53.56 451.915 54.28C451.169 54.9733 450.209 55.32 449.035 55.32ZM472.325 55.32C471.125 55.32 470.138 54.9733 469.365 54.28C468.618 53.56 468.245 52.68 468.245 51.64C468.245 50.5733 468.618 49.68 469.365 48.96C470.138 48.24 471.125 47.88 472.325 47.88C473.498 47.88 474.458 48.24 475.205 48.96C475.978 49.68 476.365 50.5733 476.365 51.64C476.365 52.68 475.978 53.56 475.205 54.28C474.458 54.9733 473.498 55.32 472.325 55.32ZM495.614 55.32C494.414 55.32 493.427 54.9733 492.654 54.28C491.907 53.56 491.534 52.68 491.534 51.64C491.534 50.5733 491.907 49.68 492.654 48.96C493.427 48.24 494.414 47.88 495.614 47.88C496.787 47.88 497.747 48.24 498.494 48.96C499.267 49.68 499.654 50.5733 499.654 51.64C499.654 52.68 499.267 53.56 498.494 54.28C497.747 54.9733 496.787 55.32 495.614 55.32ZM518.903 55.32C517.703 55.32 516.716 54.9733 515.943 54.28C515.196 53.56 514.823 52.68 514.823 51.64C514.823 50.5733 515.196 49.68 515.943 48.96C516.716 48.24 517.703 47.88 518.903 47.88C520.076 47.88 521.036 48.24 521.783 48.96C522.556 49.68 522.943 50.5733 522.943 51.64C522.943 52.68 522.556 53.56 521.783 54.28C521.036 54.9733 520.076 55.32 518.903 55.32ZM542.192 55.32C540.992 55.32 540.005 54.9733 539.232 54.28C538.485 53.56 538.112 52.68 538.112 51.64C538.112 50.5733 538.485 49.68 539.232 48.96C540.005 48.24 540.992 47.88 542.192 47.88C543.365 47.88 544.325 48.24 545.072 48.96C545.845 49.68 546.232 50.5733 546.232 51.64C546.232 52.68 545.845 53.56 545.072 54.28C544.325 54.9733 543.365 55.32 542.192 55.32ZM565.481 55.32C564.281 55.32 563.294 54.9733 562.521 54.28C561.774 53.56 561.401 52.68 561.401 51.64C561.401 50.5733 561.774 49.68 562.521 48.96C563.294 48.24 564.281 47.88 565.481 47.88C566.654 47.88 567.614 48.24 568.361 48.96C569.134 49.68 569.521 50.5733 569.521 51.64C569.521 52.68 569.134 53.56 568.361 54.28C567.614 54.9733 566.654 55.32 565.481 55.32ZM588.77 55.32C587.57 55.32 586.583 54.9733 585.81 54.28C585.063 53.56 584.69 52.68 584.69 51.64C584.69 50.5733 585.063 49.68 585.81 48.96C586.583 48.24 587.57 47.88 588.77 47.88C589.943 47.88 590.903 48.24 591.65 48.96C592.423 49.68 592.81 50.5733 592.81 51.64C592.81 52.68 592.423 53.56 591.65 54.28C590.903 54.9733 589.943 55.32 588.77 55.32ZM612.059 55.32C610.859 55.32 609.872 54.9733 609.099 54.28C608.352 53.56 607.979 52.68 607.979 51.64C607.979 50.5733 608.352 49.68 609.099 48.96C609.872 48.24 610.859 47.88 612.059 47.88C613.232 47.88 614.192 48.24 614.939 48.96C615.712 49.68 616.099 50.5733 616.099 51.64C616.099 52.68 615.712 53.56 614.939 54.28C614.192 54.9733 613.232 55.32 612.059 55.32ZM635.348 55.32C634.148 55.32 633.161 54.9733 632.388 54.28C631.641 53.56 631.268 52.68 631.268 51.64C631.268 50.5733 631.641 49.68 632.388 48.96C633.161 48.24 634.148 47.88 635.348 47.88C636.521 47.88 637.481 48.24 638.228 48.96C639.001 49.68 639.388 50.5733 639.388 51.64C639.388 52.68 639.001 53.56 638.228 54.28C637.481 54.9733 636.521 55.32 635.348 55.32ZM262.723 86.32C261.523 86.32 260.536 85.9733 259.763 85.28C259.016 84.56 258.643 83.68 258.643 82.64C258.643 81.5733 259.016 80.68 259.763 79.96C260.536 79.24 261.523 78.88 262.723 78.88C263.896 78.88 264.856 79.24 265.603 79.96C266.376 80.68 266.763 81.5733 266.763 82.64C266.763 83.68 266.376 84.56 265.603 85.28C264.856 85.9733 263.896 86.32 262.723 86.32ZM286.012 86.32C284.812 86.32 283.825 85.9733 283.052 85.28C282.305 84.56 281.932 83.68 281.932 82.64C281.932 81.5733 282.305 80.68 283.052 79.96C283.825 79.24 284.812 78.88 286.012 78.88C287.185 78.88 288.145 79.24 288.892 79.96C289.665 80.68 290.052 81.5733 290.052 82.64C290.052 83.68 289.665 84.56 288.892 85.28C288.145 85.9733 287.185 86.32 286.012 86.32ZM309.301 86.32C308.101 86.32 307.114 85.9733 306.341 85.28C305.594 84.56 305.221 83.68 305.221 82.64C305.221 81.5733 305.594 80.68 306.341 79.96C307.114 79.24 308.101 78.88 309.301 78.88C310.474 78.88 311.434 79.24 312.181 79.96C312.954 80.68 313.341 81.5733 313.341 82.64C313.341 83.68 312.954 84.56 312.181 85.28C311.434 85.9733 310.474 86.32 309.301 86.32ZM332.59 86.32C331.39 86.32 330.403 85.9733 329.63 85.28C328.883 84.56 328.51 83.68 328.51 82.64C328.51 81.5733 328.883 80.68 329.63 79.96C330.403 79.24 331.39 78.88 332.59 78.88C333.763 78.88 334.723 79.24 335.47 79.96C336.243 80.68 336.63 81.5733 336.63 82.64C336.63 83.68 336.243 84.56 335.47 85.28C334.723 85.9733 333.763 86.32 332.59 86.32ZM355.879 86.32C354.679 86.32 353.693 85.9733 352.919 85.28C352.173 84.56 351.799 83.68 351.799 82.64C351.799 81.5733 352.173 80.68 352.919 79.96C353.693 79.24 354.679 78.88 355.879 78.88C357.053 78.88 358.013 79.24 358.759 79.96C359.533 80.68 359.919 81.5733 359.919 82.64C359.919 83.68 359.533 84.56 358.759 85.28C358.013 85.9733 357.053 86.32 355.879 86.32ZM379.168 86.32C377.968 86.32 376.982 85.9733 376.208 85.28C375.462 84.56 375.088 83.68 375.088 82.64C375.088 81.5733 375.462 80.68 376.208 79.96C376.982 79.24 377.968 78.88 379.168 78.88C380.342 78.88 381.302 79.24 382.048 79.96C382.822 80.68 383.208 81.5733 383.208 82.64C383.208 83.68 382.822 84.56 382.048 85.28C381.302 85.9733 380.342 86.32 379.168 86.32ZM402.457 86.32C401.257 86.32 400.271 85.9733 399.497 85.28C398.751 84.56 398.377 83.68 398.377 82.64C398.377 81.5733 398.751 80.68 399.497 79.96C400.271 79.24 401.257 78.88 402.457 78.88C403.631 78.88 404.591 79.24 405.337 79.96C406.111 80.68 406.497 81.5733 406.497 82.64C406.497 83.68 406.111 84.56 405.337 85.28C404.591 85.9733 403.631 86.32 402.457 86.32ZM425.746 86.32C424.546 86.32 423.56 85.9733 422.786 85.28C422.04 84.56 421.666 83.68 421.666 82.64C421.666 81.5733 422.04 80.68 422.786 79.96C423.56 79.24 424.546 78.88 425.746 78.88C426.92 78.88 427.88 79.24 428.626 79.96C429.4 80.68 429.786 81.5733 429.786 82.64C429.786 83.68 429.4 84.56 428.626 85.28C427.88 85.9733 426.92 86.32 425.746 86.32ZM449.035 86.32C447.835 86.32 446.849 85.9733 446.075 85.28C445.329 84.56 444.955 83.68 444.955 82.64C444.955 81.5733 445.329 80.68 446.075 79.96C446.849 79.24 447.835 78.88 449.035 78.88C450.209 78.88 451.169 79.24 451.915 79.96C452.689 80.68 453.075 81.5733 453.075 82.64C453.075 83.68 452.689 84.56 451.915 85.28C451.169 85.9733 450.209 86.32 449.035 86.32ZM472.325 86.32C471.125 86.32 470.138 85.9733 469.365 85.28C468.618 84.56 468.245 83.68 468.245 82.64C468.245 81.5733 468.618 80.68 469.365 79.96C470.138 79.24 471.125 78.88 472.325 78.88C473.498 78.88 474.458 79.24 475.205 79.96C475.978 80.68 476.365 81.5733 476.365 82.64C476.365 83.68 475.978 84.56 475.205 85.28C474.458 85.9733 473.498 86.32 472.325 86.32ZM495.614 86.32C494.414 86.32 493.427 85.9733 492.654 85.28C491.907 84.56 491.534 83.68 491.534 82.64C491.534 81.5733 491.907 80.68 492.654 79.96C493.427 79.24 494.414 78.88 495.614 78.88C496.787 78.88 497.747 79.24 498.494 79.96C499.267 80.68 499.654 81.5733 499.654 82.64C499.654 83.68 499.267 84.56 498.494 85.28C497.747 85.9733 496.787 86.32 495.614 86.32ZM518.903 86.32C517.703 86.32 516.716 85.9733 515.943 85.28C515.196 84.56 514.823 83.68 514.823 82.64C514.823 81.5733 515.196 80.68 515.943 79.96C516.716 79.24 517.703 78.88 518.903 78.88C520.076 78.88 521.036 79.24 521.783 79.96C522.556 80.68 522.943 81.5733 522.943 82.64C522.943 83.68 522.556 84.56 521.783 85.28C521.036 85.9733 520.076 86.32 518.903 86.32ZM542.192 86.32C540.992 86.32 540.005 85.9733 539.232 85.28C538.485 84.56 538.112 83.68 538.112 82.64C538.112 81.5733 538.485 80.68 539.232 79.96C540.005 79.24 540.992 78.88 542.192 78.88C543.365 78.88 544.325 79.24 545.072 79.96C545.845 80.68 546.232 81.5733 546.232 82.64C546.232 83.68 545.845 84.56 545.072 85.28C544.325 85.9733 543.365 86.32 542.192 86.32ZM565.481 86.32C564.281 86.32 563.294 85.9733 562.521 85.28C561.774 84.56 561.401 83.68 561.401 82.64C561.401 81.5733 561.774 80.68 562.521 79.96C563.294 79.24 564.281 78.88 565.481 78.88C566.654 78.88 567.614 79.24 568.361 79.96C569.134 80.68 569.521 81.5733 569.521 82.64C569.521 83.68 569.134 84.56 568.361 85.28C567.614 85.9733 566.654 86.32 565.481 86.32ZM588.77 86.32C587.57 86.32 586.583 85.9733 585.81 85.28C585.063 84.56 584.69 83.68 584.69 82.64C584.69 81.5733 585.063 80.68 585.81 79.96C586.583 79.24 587.57 78.88 588.77 78.88C589.943 78.88 590.903 79.24 591.65 79.96C592.423 80.68 592.81 81.5733 592.81 82.64C592.81 83.68 592.423 84.56 591.65 85.28C590.903 85.9733 589.943 86.32 588.77 86.32ZM612.059 86.32C610.859 86.32 609.872 85.9733 609.099 85.28C608.352 84.56 607.979 83.68 607.979 82.64C607.979 81.5733 608.352 80.68 609.099 79.96C609.872 79.24 610.859 78.88 612.059 78.88C613.232 78.88 614.192 79.24 614.939 79.96C615.712 80.68 616.099 81.5733 616.099 82.64C616.099 83.68 615.712 84.56 614.939 85.28C614.192 85.9733 613.232 86.32 612.059 86.32ZM635.348 86.32C634.148 86.32 633.161 85.9733 632.388 85.28C631.641 84.56 631.268 83.68 631.268 82.64C631.268 81.5733 631.641 80.68 632.388 79.96C633.161 79.24 634.148 78.88 635.348 78.88C636.521 78.88 637.481 79.24 638.228 79.96C639.001 80.68 639.388 81.5733 639.388 82.64C639.388 83.68 639.001 84.56 638.228 85.28C637.481 85.9733 636.521 86.32 635.348 86.32ZM262.723 117.32C261.523 117.32 260.536 116.973 259.763 116.28C259.016 115.56 258.643 114.68 258.643 113.64C258.643 112.573 259.016 111.68 259.763 110.96C260.536 110.24 261.523 109.88 262.723 109.88C263.896 109.88 264.856 110.24 265.603 110.96C266.376 111.68 266.763 112.573 266.763 113.64C266.763 114.68 266.376 115.56 265.603 116.28C264.856 116.973 263.896 117.32 262.723 117.32ZM286.012 117.32C284.812 117.32 283.825 116.973 283.052 116.28C282.305 115.56 281.932 114.68 281.932 113.64C281.932 112.573 282.305 111.68 283.052 110.96C283.825 110.24 284.812 109.88 286.012 109.88C287.185 109.88 288.145 110.24 288.892 110.96C289.665 111.68 290.052 112.573 290.052 113.64C290.052 114.68 289.665 115.56 288.892 116.28C288.145 116.973 287.185 117.32 286.012 117.32ZM309.301 117.32C308.101 117.32 307.114 116.973 306.341 116.28C305.594 115.56 305.221 114.68 305.221 113.64C305.221 112.573 305.594 111.68 306.341 110.96C307.114 110.24 308.101 109.88 309.301 109.88C310.474 109.88 311.434 110.24 312.181 110.96C312.954 111.68 313.341 112.573 313.341 113.64C313.341 114.68 312.954 115.56 312.181 116.28C311.434 116.973 310.474 117.32 309.301 117.32ZM332.59 117.32C331.39 117.32 330.403 116.973 329.63 116.28C328.883 115.56 328.51 114.68 328.51 113.64C328.51 112.573 328.883 111.68 329.63 110.96C330.403 110.24 331.39 109.88 332.59 109.88C333.763 109.88 334.723 110.24 335.47 110.96C336.243 111.68 336.63 112.573 336.63 113.64C336.63 114.68 336.243 115.56 335.47 116.28C334.723 116.973 333.763 117.32 332.59 117.32ZM355.879 117.32C354.679 117.32 353.693 116.973 352.919 116.28C352.173 115.56 351.799 114.68 351.799 113.64C351.799 112.573 352.173 111.68 352.919 110.96C353.693 110.24 354.679 109.88 355.879 109.88C357.053 109.88 358.013 110.24 358.759 110.96C359.533 111.68 359.919 112.573 359.919 113.64C359.919 114.68 359.533 115.56 358.759 116.28C358.013 116.973 357.053 117.32 355.879 117.32ZM379.168 117.32C377.968 117.32 376.982 116.973 376.208 116.28C375.462 115.56 375.088 114.68 375.088 113.64C375.088 112.573 375.462 111.68 376.208 110.96C376.982 110.24 377.968 109.88 379.168 109.88C380.342 109.88 381.302 110.24 382.048 110.96C382.822 111.68 383.208 112.573 383.208 113.64C383.208 114.68 382.822 115.56 382.048 116.28C381.302 116.973 380.342 117.32 379.168 117.32ZM402.457 117.32C401.257 117.32 400.271 116.973 399.497 116.28C398.751 115.56 398.377 114.68 398.377 113.64C398.377 112.573 398.751 111.68 399.497 110.96C400.271 110.24 401.257 109.88 402.457 109.88C403.631 109.88 404.591 110.24 405.337 110.96C406.111 111.68 406.497 112.573 406.497 113.64C406.497 114.68 406.111 115.56 405.337 116.28C404.591 116.973 403.631 117.32 402.457 117.32ZM425.746 117.32C424.546 117.32 423.56 116.973 422.786 116.28C422.04 115.56 421.666 114.68 421.666 113.64C421.666 112.573 422.04 111.68 422.786 110.96C423.56 110.24 424.546 109.88 425.746 109.88C426.92 109.88 427.88 110.24 428.626 110.96C429.4 111.68 429.786 112.573 429.786 113.64C429.786 114.68 429.4 115.56 428.626 116.28C427.88 116.973 426.92 117.32 425.746 117.32ZM449.035 117.32C447.835 117.32 446.849 116.973 446.075 116.28C445.329 115.56 444.955 114.68 444.955 113.64C444.955 112.573 445.329 111.68 446.075 110.96C446.849 110.24 447.835 109.88 449.035 109.88C450.209 109.88 451.169 110.24 451.915 110.96C452.689 111.68 453.075 112.573 453.075 113.64C453.075 114.68 452.689 115.56 451.915 116.28C451.169 116.973 450.209 117.32 449.035 117.32ZM472.325 117.32C471.125 117.32 470.138 116.973 469.365 116.28C468.618 115.56 468.245 114.68 468.245 113.64C468.245 112.573 468.618 111.68 469.365 110.96C470.138 110.24 471.125 109.88 472.325 109.88C473.498 109.88 474.458 110.24 475.205 110.96C475.978 111.68 476.365 112.573 476.365 113.64C476.365 114.68 475.978 115.56 475.205 116.28C474.458 116.973 473.498 117.32 472.325 117.32ZM495.614 117.32C494.414 117.32 493.427 116.973 492.654 116.28C491.907 115.56 491.534 114.68 491.534 113.64C491.534 112.573 491.907 111.68 492.654 110.96C493.427 110.24 494.414 109.88 495.614 109.88C496.787 109.88 497.747 110.24 498.494 110.96C499.267 111.68 499.654 112.573 499.654 113.64C499.654 114.68 499.267 115.56 498.494 116.28C497.747 116.973 496.787 117.32 495.614 117.32ZM518.903 117.32C517.703 117.32 516.716 116.973 515.943 116.28C515.196 115.56 514.823 114.68 514.823 113.64C514.823 112.573 515.196 111.68 515.943 110.96C516.716 110.24 517.703 109.88 518.903 109.88C520.076 109.88 521.036 110.24 521.783 110.96C522.556 111.68 522.943 112.573 522.943 113.64C522.943 114.68 522.556 115.56 521.783 116.28C521.036 116.973 520.076 117.32 518.903 117.32ZM542.192 117.32C540.992 117.32 540.005 116.973 539.232 116.28C538.485 115.56 538.112 114.68 538.112 113.64C538.112 112.573 538.485 111.68 539.232 110.96C540.005 110.24 540.992 109.88 542.192 109.88C543.365 109.88 544.325 110.24 545.072 110.96C545.845 111.68 546.232 112.573 546.232 113.64C546.232 114.68 545.845 115.56 545.072 116.28C544.325 116.973 543.365 117.32 542.192 117.32ZM565.481 117.32C564.281 117.32 563.294 116.973 562.521 116.28C561.774 115.56 561.401 114.68 561.401 113.64C561.401 112.573 561.774 111.68 562.521 110.96C563.294 110.24 564.281 109.88 565.481 109.88C566.654 109.88 567.614 110.24 568.361 110.96C569.134 111.68 569.521 112.573 569.521 113.64C569.521 114.68 569.134 115.56 568.361 116.28C567.614 116.973 566.654 117.32 565.481 117.32ZM588.77 117.32C587.57 117.32 586.583 116.973 585.81 116.28C585.063 115.56 584.69 114.68 584.69 113.64C584.69 112.573 585.063 111.68 585.81 110.96C586.583 110.24 587.57 109.88 588.77 109.88C589.943 109.88 590.903 110.24 591.65 110.96C592.423 111.68 592.81 112.573 592.81 113.64C592.81 114.68 592.423 115.56 591.65 116.28C590.903 116.973 589.943 117.32 588.77 117.32ZM612.059 117.32C610.859 117.32 609.872 116.973 609.099 116.28C608.352 115.56 607.979 114.68 607.979 113.64C607.979 112.573 608.352 111.68 609.099 110.96C609.872 110.24 610.859 109.88 612.059 109.88C613.232 109.88 614.192 110.24 614.939 110.96C615.712 111.68 616.099 112.573 616.099 113.64C616.099 114.68 615.712 115.56 614.939 116.28C614.192 116.973 613.232 117.32 612.059 117.32ZM635.348 117.32C634.148 117.32 633.161 116.973 632.388 116.28C631.641 115.56 631.268 114.68 631.268 113.64C631.268 112.573 631.641 111.68 632.388 110.96C633.161 110.24 634.148 109.88 635.348 109.88C636.521 109.88 637.481 110.24 638.228 110.96C639.001 111.68 639.388 112.573 639.388 113.64C639.388 114.68 639.001 115.56 638.228 116.28C637.481 116.973 636.521 117.32 635.348 117.32ZM262.723 148.32C261.523 148.32 260.536 147.973 259.763 147.28C259.016 146.56 258.643 145.68 258.643 144.64C258.643 143.573 259.016 142.68 259.763 141.96C260.536 141.24 261.523 140.88 262.723 140.88C263.896 140.88 264.856 141.24 265.603 141.96C266.376 142.68 266.763 143.573 266.763 144.64C266.763 145.68 266.376 146.56 265.603 147.28C264.856 147.973 263.896 148.32 262.723 148.32ZM286.012 148.32C284.812 148.32 283.825 147.973 283.052 147.28C282.305 146.56 281.932 145.68 281.932 144.64C281.932 143.573 282.305 142.68 283.052 141.96C283.825 141.24 284.812 140.88 286.012 140.88C287.185 140.88 288.145 141.24 288.892 141.96C289.665 142.68 290.052 143.573 290.052 144.64C290.052 145.68 289.665 146.56 288.892 147.28C288.145 147.973 287.185 148.32 286.012 148.32ZM309.301 148.32C308.101 148.32 307.114 147.973 306.341 147.28C305.594 146.56 305.221 145.68 305.221 144.64C305.221 143.573 305.594 142.68 306.341 141.96C307.114 141.24 308.101 140.88 309.301 140.88C310.474 140.88 311.434 141.24 312.181 141.96C312.954 142.68 313.341 143.573 313.341 144.64C313.341 145.68 312.954 146.56 312.181 147.28C311.434 147.973 310.474 148.32 309.301 148.32ZM332.59 148.32C331.39 148.32 330.403 147.973 329.63 147.28C328.883 146.56 328.51 145.68 328.51 144.64C328.51 143.573 328.883 142.68 329.63 141.96C330.403 141.24 331.39 140.88 332.59 140.88C333.763 140.88 334.723 141.24 335.47 141.96C336.243 142.68 336.63 143.573 336.63 144.64C336.63 145.68 336.243 146.56 335.47 147.28C334.723 147.973 333.763 148.32 332.59 148.32ZM355.879 148.32C354.679 148.32 353.693 147.973 352.919 147.28C352.173 146.56 351.799 145.68 351.799 144.64C351.799 143.573 352.173 142.68 352.919 141.96C353.693 141.24 354.679 140.88 355.879 140.88C357.053 140.88 358.013 141.24 358.759 141.96C359.533 142.68 359.919 143.573 359.919 144.64C359.919 145.68 359.533 146.56 358.759 147.28C358.013 147.973 357.053 148.32 355.879 148.32ZM379.168 148.32C377.968 148.32 376.982 147.973 376.208 147.28C375.462 146.56 375.088 145.68 375.088 144.64C375.088 143.573 375.462 142.68 376.208 141.96C376.982 141.24 377.968 140.88 379.168 140.88C380.342 140.88 381.302 141.24 382.048 141.96C382.822 142.68 383.208 143.573 383.208 144.64C383.208 145.68 382.822 146.56 382.048 147.28C381.302 147.973 380.342 148.32 379.168 148.32ZM402.457 148.32C401.257 148.32 400.271 147.973 399.497 147.28C398.751 146.56 398.377 145.68 398.377 144.64C398.377 143.573 398.751 142.68 399.497 141.96C400.271 141.24 401.257 140.88 402.457 140.88C403.631 140.88 404.591 141.24 405.337 141.96C406.111 142.68 406.497 143.573 406.497 144.64C406.497 145.68 406.111 146.56 405.337 147.28C404.591 147.973 403.631 148.32 402.457 148.32ZM425.746 148.32C424.546 148.32 423.56 147.973 422.786 147.28C422.04 146.56 421.666 145.68 421.666 144.64C421.666 143.573 422.04 142.68 422.786 141.96C423.56 141.24 424.546 140.88 425.746 140.88C426.92 140.88 427.88 141.24 428.626 141.96C429.4 142.68 429.786 143.573 429.786 144.64C429.786 145.68 429.4 146.56 428.626 147.28C427.88 147.973 426.92 148.32 425.746 148.32ZM449.035 148.32C447.835 148.32 446.849 147.973 446.075 147.28C445.329 146.56 444.955 145.68 444.955 144.64C444.955 143.573 445.329 142.68 446.075 141.96C446.849 141.24 447.835 140.88 449.035 140.88C450.209 140.88 451.169 141.24 451.915 141.96C452.689 142.68 453.075 143.573 453.075 144.64C453.075 145.68 452.689 146.56 451.915 147.28C451.169 147.973 450.209 148.32 449.035 148.32ZM472.325 148.32C471.125 148.32 470.138 147.973 469.365 147.28C468.618 146.56 468.245 145.68 468.245 144.64C468.245 143.573 468.618 142.68 469.365 141.96C470.138 141.24 471.125 140.88 472.325 140.88C473.498 140.88 474.458 141.24 475.205 141.96C475.978 142.68 476.365 143.573 476.365 144.64C476.365 145.68 475.978 146.56 475.205 147.28C474.458 147.973 473.498 148.32 472.325 148.32ZM495.614 148.32C494.414 148.32 493.427 147.973 492.654 147.28C491.907 146.56 491.534 145.68 491.534 144.64C491.534 143.573 491.907 142.68 492.654 141.96C493.427 141.24 494.414 140.88 495.614 140.88C496.787 140.88 497.747 141.24 498.494 141.96C499.267 142.68 499.654 143.573 499.654 144.64C499.654 145.68 499.267 146.56 498.494 147.28C497.747 147.973 496.787 148.32 495.614 148.32ZM518.903 148.32C517.703 148.32 516.716 147.973 515.943 147.28C515.196 146.56 514.823 145.68 514.823 144.64C514.823 143.573 515.196 142.68 515.943 141.96C516.716 141.24 517.703 140.88 518.903 140.88C520.076 140.88 521.036 141.24 521.783 141.96C522.556 142.68 522.943 143.573 522.943 144.64C522.943 145.68 522.556 146.56 521.783 147.28C521.036 147.973 520.076 148.32 518.903 148.32ZM542.192 148.32C540.992 148.32 540.005 147.973 539.232 147.28C538.485 146.56 538.112 145.68 538.112 144.64C538.112 143.573 538.485 142.68 539.232 141.96C540.005 141.24 540.992 140.88 542.192 140.88C543.365 140.88 544.325 141.24 545.072 141.96C545.845 142.68 546.232 143.573 546.232 144.64C546.232 145.68 545.845 146.56 545.072 147.28C544.325 147.973 543.365 148.32 542.192 148.32ZM565.481 148.32C564.281 148.32 563.294 147.973 562.521 147.28C561.774 146.56 561.401 145.68 561.401 144.64C561.401 143.573 561.774 142.68 562.521 141.96C563.294 141.24 564.281 140.88 565.481 140.88C566.654 140.88 567.614 141.24 568.361 141.96C569.134 142.68 569.521 143.573 569.521 144.64C569.521 145.68 569.134 146.56 568.361 147.28C567.614 147.973 566.654 148.32 565.481 148.32ZM588.77 148.32C587.57 148.32 586.583 147.973 585.81 147.28C585.063 146.56 584.69 145.68 584.69 144.64C584.69 143.573 585.063 142.68 585.81 141.96C586.583 141.24 587.57 140.88 588.77 140.88C589.943 140.88 590.903 141.24 591.65 141.96C592.423 142.68 592.81 143.573 592.81 144.64C592.81 145.68 592.423 146.56 591.65 147.28C590.903 147.973 589.943 148.32 588.77 148.32ZM612.059 148.32C610.859 148.32 609.872 147.973 609.099 147.28C608.352 146.56 607.979 145.68 607.979 144.64C607.979 143.573 608.352 142.68 609.099 141.96C609.872 141.24 610.859 140.88 612.059 140.88C613.232 140.88 614.192 141.24 614.939 141.96C615.712 142.68 616.099 143.573 616.099 144.64C616.099 145.68 615.712 146.56 614.939 147.28C614.192 147.973 613.232 148.32 612.059 148.32ZM635.348 148.32C634.148 148.32 633.161 147.973 632.388 147.28C631.641 146.56 631.268 145.68 631.268 144.64C631.268 143.573 631.641 142.68 632.388 141.96C633.161 141.24 634.148 140.88 635.348 140.88C636.521 140.88 637.481 141.24 638.228 141.96C639.001 142.68 639.388 143.573 639.388 144.64C639.388 145.68 639.001 146.56 638.228 147.28C637.481 147.973 636.521 148.32 635.348 148.32ZM262.723 179.32C261.523 179.32 260.536 178.973 259.763 178.28C259.016 177.56 258.643 176.68 258.643 175.64C258.643 174.573 259.016 173.68 259.763 172.96C260.536 172.24 261.523 171.88 262.723 171.88C263.896 171.88 264.856 172.24 265.603 172.96C266.376 173.68 266.763 174.573 266.763 175.64C266.763 176.68 266.376 177.56 265.603 178.28C264.856 178.973 263.896 179.32 262.723 179.32ZM286.012 179.32C284.812 179.32 283.825 178.973 283.052 178.28C282.305 177.56 281.932 176.68 281.932 175.64C281.932 174.573 282.305 173.68 283.052 172.96C283.825 172.24 284.812 171.88 286.012 171.88C287.185 171.88 288.145 172.24 288.892 172.96C289.665 173.68 290.052 174.573 290.052 175.64C290.052 176.68 289.665 177.56 288.892 178.28C288.145 178.973 287.185 179.32 286.012 179.32ZM309.301 179.32C308.101 179.32 307.114 178.973 306.341 178.28C305.594 177.56 305.221 176.68 305.221 175.64C305.221 174.573 305.594 173.68 306.341 172.96C307.114 172.24 308.101 171.88 309.301 171.88C310.474 171.88 311.434 172.24 312.181 172.96C312.954 173.68 313.341 174.573 313.341 175.64C313.341 176.68 312.954 177.56 312.181 178.28C311.434 178.973 310.474 179.32 309.301 179.32ZM332.59 179.32C331.39 179.32 330.403 178.973 329.63 178.28C328.883 177.56 328.51 176.68 328.51 175.64C328.51 174.573 328.883 173.68 329.63 172.96C330.403 172.24 331.39 171.88 332.59 171.88C333.763 171.88 334.723 172.24 335.47 172.96C336.243 173.68 336.63 174.573 336.63 175.64C336.63 176.68 336.243 177.56 335.47 178.28C334.723 178.973 333.763 179.32 332.59 179.32ZM355.879 179.32C354.679 179.32 353.693 178.973 352.919 178.28C352.173 177.56 351.799 176.68 351.799 175.64C351.799 174.573 352.173 173.68 352.919 172.96C353.693 172.24 354.679 171.88 355.879 171.88C357.053 171.88 358.013 172.24 358.759 172.96C359.533 173.68 359.919 174.573 359.919 175.64C359.919 176.68 359.533 177.56 358.759 178.28C358.013 178.973 357.053 179.32 355.879 179.32ZM379.168 179.32C377.968 179.32 376.982 178.973 376.208 178.28C375.462 177.56 375.088 176.68 375.088 175.64C375.088 174.573 375.462 173.68 376.208 172.96C376.982 172.24 377.968 171.88 379.168 171.88C380.342 171.88 381.302 172.24 382.048 172.96C382.822 173.68 383.208 174.573 383.208 175.64C383.208 176.68 382.822 177.56 382.048 178.28C381.302 178.973 380.342 179.32 379.168 179.32ZM402.457 179.32C401.257 179.32 400.271 178.973 399.497 178.28C398.751 177.56 398.377 176.68 398.377 175.64C398.377 174.573 398.751 173.68 399.497 172.96C400.271 172.24 401.257 171.88 402.457 171.88C403.631 171.88 404.591 172.24 405.337 172.96C406.111 173.68 406.497 174.573 406.497 175.64C406.497 176.68 406.111 177.56 405.337 178.28C404.591 178.973 403.631 179.32 402.457 179.32ZM425.746 179.32C424.546 179.32 423.56 178.973 422.786 178.28C422.04 177.56 421.666 176.68 421.666 175.64C421.666 174.573 422.04 173.68 422.786 172.96C423.56 172.24 424.546 171.88 425.746 171.88C426.92 171.88 427.88 172.24 428.626 172.96C429.4 173.68 429.786 174.573 429.786 175.64C429.786 176.68 429.4 177.56 428.626 178.28C427.88 178.973 426.92 179.32 425.746 179.32ZM449.035 179.32C447.835 179.32 446.849 178.973 446.075 178.28C445.329 177.56 444.955 176.68 444.955 175.64C444.955 174.573 445.329 173.68 446.075 172.96C446.849 172.24 447.835 171.88 449.035 171.88C450.209 171.88 451.169 172.24 451.915 172.96C452.689 173.68 453.075 174.573 453.075 175.64C453.075 176.68 452.689 177.56 451.915 178.28C451.169 178.973 450.209 179.32 449.035 179.32ZM472.325 179.32C471.125 179.32 470.138 178.973 469.365 178.28C468.618 177.56 468.245 176.68 468.245 175.64C468.245 174.573 468.618 173.68 469.365 172.96C470.138 172.24 471.125 171.88 472.325 171.88C473.498 171.88 474.458 172.24 475.205 172.96C475.978 173.68 476.365 174.573 476.365 175.64C476.365 176.68 475.978 177.56 475.205 178.28C474.458 178.973 473.498 179.32 472.325 179.32ZM495.614 179.32C494.414 179.32 493.427 178.973 492.654 178.28C491.907 177.56 491.534 176.68 491.534 175.64C491.534 174.573 491.907 173.68 492.654 172.96C493.427 172.24 494.414 171.88 495.614 171.88C496.787 171.88 497.747 172.24 498.494 172.96C499.267 173.68 499.654 174.573 499.654 175.64C499.654 176.68 499.267 177.56 498.494 178.28C497.747 178.973 496.787 179.32 495.614 179.32ZM518.903 179.32C517.703 179.32 516.716 178.973 515.943 178.28C515.196 177.56 514.823 176.68 514.823 175.64C514.823 174.573 515.196 173.68 515.943 172.96C516.716 172.24 517.703 171.88 518.903 171.88C520.076 171.88 521.036 172.24 521.783 172.96C522.556 173.68 522.943 174.573 522.943 175.64C522.943 176.68 522.556 177.56 521.783 178.28C521.036 178.973 520.076 179.32 518.903 179.32ZM542.192 179.32C540.992 179.32 540.005 178.973 539.232 178.28C538.485 177.56 538.112 176.68 538.112 175.64C538.112 174.573 538.485 173.68 539.232 172.96C540.005 172.24 540.992 171.88 542.192 171.88C543.365 171.88 544.325 172.24 545.072 172.96C545.845 173.68 546.232 174.573 546.232 175.64C546.232 176.68 545.845 177.56 545.072 178.28C544.325 178.973 543.365 179.32 542.192 179.32ZM565.481 179.32C564.281 179.32 563.294 178.973 562.521 178.28C561.774 177.56 561.401 176.68 561.401 175.64C561.401 174.573 561.774 173.68 562.521 172.96C563.294 172.24 564.281 171.88 565.481 171.88C566.654 171.88 567.614 172.24 568.361 172.96C569.134 173.68 569.521 174.573 569.521 175.64C569.521 176.68 569.134 177.56 568.361 178.28C567.614 178.973 566.654 179.32 565.481 179.32ZM588.77 179.32C587.57 179.32 586.583 178.973 585.81 178.28C585.063 177.56 584.69 176.68 584.69 175.64C584.69 174.573 585.063 173.68 585.81 172.96C586.583 172.24 587.57 171.88 588.77 171.88C589.943 171.88 590.903 172.24 591.65 172.96C592.423 173.68 592.81 174.573 592.81 175.64C592.81 176.68 592.423 177.56 591.65 178.28C590.903 178.973 589.943 179.32 588.77 179.32ZM612.059 179.32C610.859 179.32 609.872 178.973 609.099 178.28C608.352 177.56 607.979 176.68 607.979 175.64C607.979 174.573 608.352 173.68 609.099 172.96C609.872 172.24 610.859 171.88 612.059 171.88C613.232 171.88 614.192 172.24 614.939 172.96C615.712 173.68 616.099 174.573 616.099 175.64C616.099 176.68 615.712 177.56 614.939 178.28C614.192 178.973 613.232 179.32 612.059 179.32ZM635.348 179.32C634.148 179.32 633.161 178.973 632.388 178.28C631.641 177.56 631.268 176.68 631.268 175.64C631.268 174.573 631.641 173.68 632.388 172.96C633.161 172.24 634.148 171.88 635.348 171.88C636.521 171.88 637.481 172.24 638.228 172.96C639.001 173.68 639.388 174.573 639.388 175.64C639.388 176.68 639.001 177.56 638.228 178.28C637.481 178.973 636.521 179.32 635.348 179.32ZM262.723 210.32C261.523 210.32 260.536 209.973 259.763 209.28C259.016 208.56 258.643 207.68 258.643 206.64C258.643 205.573 259.016 204.68 259.763 203.96C260.536 203.24 261.523 202.88 262.723 202.88C263.896 202.88 264.856 203.24 265.603 203.96C266.376 204.68 266.763 205.573 266.763 206.64C266.763 207.68 266.376 208.56 265.603 209.28C264.856 209.973 263.896 210.32 262.723 210.32ZM286.012 210.32C284.812 210.32 283.825 209.973 283.052 209.28C282.305 208.56 281.932 207.68 281.932 206.64C281.932 205.573 282.305 204.68 283.052 203.96C283.825 203.24 284.812 202.88 286.012 202.88C287.185 202.88 288.145 203.24 288.892 203.96C289.665 204.68 290.052 205.573 290.052 206.64C290.052 207.68 289.665 208.56 288.892 209.28C288.145 209.973 287.185 210.32 286.012 210.32ZM309.301 210.32C308.101 210.32 307.114 209.973 306.341 209.28C305.594 208.56 305.221 207.68 305.221 206.64C305.221 205.573 305.594 204.68 306.341 203.96C307.114 203.24 308.101 202.88 309.301 202.88C310.474 202.88 311.434 203.24 312.181 203.96C312.954 204.68 313.341 205.573 313.341 206.64C313.341 207.68 312.954 208.56 312.181 209.28C311.434 209.973 310.474 210.32 309.301 210.32ZM332.59 210.32C331.39 210.32 330.403 209.973 329.63 209.28C328.883 208.56 328.51 207.68 328.51 206.64C328.51 205.573 328.883 204.68 329.63 203.96C330.403 203.24 331.39 202.88 332.59 202.88C333.763 202.88 334.723 203.24 335.47 203.96C336.243 204.68 336.63 205.573 336.63 206.64C336.63 207.68 336.243 208.56 335.47 209.28C334.723 209.973 333.763 210.32 332.59 210.32ZM355.879 210.32C354.679 210.32 353.693 209.973 352.919 209.28C352.173 208.56 351.799 207.68 351.799 206.64C351.799 205.573 352.173 204.68 352.919 203.96C353.693 203.24 354.679 202.88 355.879 202.88C357.053 202.88 358.013 203.24 358.759 203.96C359.533 204.68 359.919 205.573 359.919 206.64C359.919 207.68 359.533 208.56 358.759 209.28C358.013 209.973 357.053 210.32 355.879 210.32ZM379.168 210.32C377.968 210.32 376.982 209.973 376.208 209.28C375.462 208.56 375.088 207.68 375.088 206.64C375.088 205.573 375.462 204.68 376.208 203.96C376.982 203.24 377.968 202.88 379.168 202.88C380.342 202.88 381.302 203.24 382.048 203.96C382.822 204.68 383.208 205.573 383.208 206.64C383.208 207.68 382.822 208.56 382.048 209.28C381.302 209.973 380.342 210.32 379.168 210.32ZM402.457 210.32C401.257 210.32 400.271 209.973 399.497 209.28C398.751 208.56 398.377 207.68 398.377 206.64C398.377 205.573 398.751 204.68 399.497 203.96C400.271 203.24 401.257 202.88 402.457 202.88C403.631 202.88 404.591 203.24 405.337 203.96C406.111 204.68 406.497 205.573 406.497 206.64C406.497 207.68 406.111 208.56 405.337 209.28C404.591 209.973 403.631 210.32 402.457 210.32ZM425.746 210.32C424.546 210.32 423.56 209.973 422.786 209.28C422.04 208.56 421.666 207.68 421.666 206.64C421.666 205.573 422.04 204.68 422.786 203.96C423.56 203.24 424.546 202.88 425.746 202.88C426.92 202.88 427.88 203.24 428.626 203.96C429.4 204.68 429.786 205.573 429.786 206.64C429.786 207.68 429.4 208.56 428.626 209.28C427.88 209.973 426.92 210.32 425.746 210.32ZM449.035 210.32C447.835 210.32 446.849 209.973 446.075 209.28C445.329 208.56 444.955 207.68 444.955 206.64C444.955 205.573 445.329 204.68 446.075 203.96C446.849 203.24 447.835 202.88 449.035 202.88C450.209 202.88 451.169 203.24 451.915 203.96C452.689 204.68 453.075 205.573 453.075 206.64C453.075 207.68 452.689 208.56 451.915 209.28C451.169 209.973 450.209 210.32 449.035 210.32ZM472.325 210.32C471.125 210.32 470.138 209.973 469.365 209.28C468.618 208.56 468.245 207.68 468.245 206.64C468.245 205.573 468.618 204.68 469.365 203.96C470.138 203.24 471.125 202.88 472.325 202.88C473.498 202.88 474.458 203.24 475.205 203.96C475.978 204.68 476.365 205.573 476.365 206.64C476.365 207.68 475.978 208.56 475.205 209.28C474.458 209.973 473.498 210.32 472.325 210.32ZM495.614 210.32C494.414 210.32 493.427 209.973 492.654 209.28C491.907 208.56 491.534 207.68 491.534 206.64C491.534 205.573 491.907 204.68 492.654 203.96C493.427 203.24 494.414 202.88 495.614 202.88C496.787 202.88 497.747 203.24 498.494 203.96C499.267 204.68 499.654 205.573 499.654 206.64C499.654 207.68 499.267 208.56 498.494 209.28C497.747 209.973 496.787 210.32 495.614 210.32ZM518.903 210.32C517.703 210.32 516.716 209.973 515.943 209.28C515.196 208.56 514.823 207.68 514.823 206.64C514.823 205.573 515.196 204.68 515.943 203.96C516.716 203.24 517.703 202.88 518.903 202.88C520.076 202.88 521.036 203.24 521.783 203.96C522.556 204.68 522.943 205.573 522.943 206.64C522.943 207.68 522.556 208.56 521.783 209.28C521.036 209.973 520.076 210.32 518.903 210.32ZM542.192 210.32C540.992 210.32 540.005 209.973 539.232 209.28C538.485 208.56 538.112 207.68 538.112 206.64C538.112 205.573 538.485 204.68 539.232 203.96C540.005 203.24 540.992 202.88 542.192 202.88C543.365 202.88 544.325 203.24 545.072 203.96C545.845 204.68 546.232 205.573 546.232 206.64C546.232 207.68 545.845 208.56 545.072 209.28C544.325 209.973 543.365 210.32 542.192 210.32ZM565.481 210.32C564.281 210.32 563.294 209.973 562.521 209.28C561.774 208.56 561.401 207.68 561.401 206.64C561.401 205.573 561.774 204.68 562.521 203.96C563.294 203.24 564.281 202.88 565.481 202.88C566.654 202.88 567.614 203.24 568.361 203.96C569.134 204.68 569.521 205.573 569.521 206.64C569.521 207.68 569.134 208.56 568.361 209.28C567.614 209.973 566.654 210.32 565.481 210.32ZM588.77 210.32C587.57 210.32 586.583 209.973 585.81 209.28C585.063 208.56 584.69 207.68 584.69 206.64C584.69 205.573 585.063 204.68 585.81 203.96C586.583 203.24 587.57 202.88 588.77 202.88C589.943 202.88 590.903 203.24 591.65 203.96C592.423 204.68 592.81 205.573 592.81 206.64C592.81 207.68 592.423 208.56 591.65 209.28C590.903 209.973 589.943 210.32 588.77 210.32ZM612.059 210.32C610.859 210.32 609.872 209.973 609.099 209.28C608.352 208.56 607.979 207.68 607.979 206.64C607.979 205.573 608.352 204.68 609.099 203.96C609.872 203.24 610.859 202.88 612.059 202.88C613.232 202.88 614.192 203.24 614.939 203.96C615.712 204.68 616.099 205.573 616.099 206.64C616.099 207.68 615.712 208.56 614.939 209.28C614.192 209.973 613.232 210.32 612.059 210.32ZM635.348 210.32C634.148 210.32 633.161 209.973 632.388 209.28C631.641 208.56 631.268 207.68 631.268 206.64C631.268 205.573 631.641 204.68 632.388 203.96C633.161 203.24 634.148 202.88 635.348 202.88C636.521 202.88 637.481 203.24 638.228 203.96C639.001 204.68 639.388 205.573 639.388 206.64C639.388 207.68 639.001 208.56 638.228 209.28C637.481 209.973 636.521 210.32 635.348 210.32ZM425.746 241.32C424.546 241.32 423.56 240.973 422.786 240.28C422.04 239.56 421.666 238.68 421.666 237.64C421.666 236.573 422.04 235.68 422.786 234.96C423.56 234.24 424.546 233.88 425.746 233.88C426.92 233.88 427.88 234.24 428.626 234.96C429.4 235.68 429.786 236.573 429.786 237.64C429.786 238.68 429.4 239.56 428.626 240.28C427.88 240.973 426.92 241.32 425.746 241.32ZM449.035 241.32C447.835 241.32 446.849 240.973 446.075 240.28C445.329 239.56 444.955 238.68 444.955 237.64C444.955 236.573 445.329 235.68 446.075 234.96C446.849 234.24 447.835 233.88 449.035 233.88C450.209 233.88 451.169 234.24 451.915 234.96C452.689 235.68 453.075 236.573 453.075 237.64C453.075 238.68 452.689 239.56 451.915 240.28C451.169 240.973 450.209 241.32 449.035 241.32ZM472.325 241.32C471.125 241.32 470.138 240.973 469.365 240.28C468.618 239.56 468.245 238.68 468.245 237.64C468.245 236.573 468.618 235.68 469.365 234.96C470.138 234.24 471.125 233.88 472.325 233.88C473.498 233.88 474.458 234.24 475.205 234.96C475.978 235.68 476.365 236.573 476.365 237.64C476.365 238.68 475.978 239.56 475.205 240.28C474.458 240.973 473.498 241.32 472.325 241.32Z" fill="white" fill-opacity="0.3"/>
</g>
<defs>
<clipPath id="clip0_22_131">
<path d="M0 30C0 13.4315 13.4315 0 30 0H517C533.569 0 547 13.4315 547 30V138C547 220.843 479.843 288 397 288H30C13.4315 288 0 274.569 0 258V30Z" fill="white"/>
</clipPath>
</defs>
</svg>
